M48
; DRILL file {KiCad (5.1.4-0-10_14)} date Tuesday, October 12, 2021 at 11:00:11 AM
; FORMAT={-:-/ absolute / metric / decimal}
; #@! TF.CreationDate,2021-10-12T11:00:11-04:00
; #@! TF.GenerationSoftware,Kicad,Pcbnew,(5.1.4-0-10_14)
; #@! TF.FileFunction,Plated,1,2,PTH
FMAT,2
METRIC
T1C0.400
T2C0.762
T3C0.800
T4C0.900
T5C1.000
T6C1.100
T7C3.200
%
G90
G05
T1
X27.94Y-71.12
X45.72Y-71.12
X63.5Y-71.12
T2
X45.72Y-20.955
X3.81Y-20.955
X3.81Y-23.495
X3.81Y-26.035
X3.81Y-28.575
X3.81Y-31.115
X3.81Y-33.655
X3.81Y-36.195
X3.81Y-38.735
X3.81Y-41.275
X3.81Y-43.815
X3.81Y-46.355
X3.81Y-48.895
X3.81Y-51.435
X3.81Y-53.975
X3.81Y-56.515
X3.81Y-59.055
X19.05Y-20.955
X19.05Y-23.495
X19.05Y-26.035
X19.05Y-28.575
X19.05Y-31.115
X19.05Y-33.655
X19.05Y-36.195
X19.05Y-38.735
X45.72Y-23.495
X45.72Y-26.035
X45.72Y-28.575
X45.72Y-31.115
X45.72Y-33.655
X45.72Y-36.195
X45.72Y-38.735
X45.72Y-41.275
X45.72Y-43.815
X45.72Y-46.355
X45.72Y-48.895
X45.72Y-51.435
X45.72Y-53.975
X45.72Y-56.515
X45.72Y-59.055
X60.96Y-20.955
X60.96Y-23.495
X60.96Y-26.035
X60.96Y-28.575
X60.96Y-31.115
X60.96Y-33.655
X60.96Y-36.195
X60.96Y-38.735
X60.96Y-41.275
X60.96Y-43.815
X60.96Y-46.355
X60.96Y-48.895
X60.96Y-51.435
X60.96Y-53.975
X60.96Y-56.515
X60.96Y-59.055
X19.05Y-41.275
X19.05Y-43.815
X19.05Y-46.355
X19.05Y-48.895
X19.05Y-51.435
X19.05Y-53.975
X19.05Y-56.515
X19.05Y-59.055
X66.675Y-20.955
X66.675Y-23.495
X66.675Y-26.035
X66.675Y-28.575
X66.675Y-31.115
X66.675Y-33.655
X66.675Y-36.195
X66.675Y-38.735
X66.675Y-41.275
X66.675Y-43.815
X66.675Y-46.355
X66.675Y-48.895
X66.675Y-51.435
X66.675Y-53.975
X66.675Y-56.515
X66.675Y-59.055
X81.915Y-20.955
X81.915Y-23.495
X81.915Y-26.035
X81.915Y-28.575
X81.915Y-31.115
X81.915Y-33.655
X81.915Y-36.195
X81.915Y-38.735
X81.915Y-41.275
X81.915Y-43.815
X24.765Y-43.815
X24.765Y-20.955
X24.765Y-23.495
X24.765Y-26.035
X24.765Y-28.575
X24.765Y-31.115
X24.765Y-33.655
X24.765Y-36.195
X24.765Y-38.735
X24.765Y-41.275
X24.765Y-46.355
X24.765Y-48.895
X24.765Y-51.435
X24.765Y-53.975
X24.765Y-56.515
X24.765Y-59.055
X40.005Y-20.955
X40.005Y-23.495
X40.005Y-26.035
X40.005Y-28.575
X40.005Y-31.115
X40.005Y-33.655
X40.005Y-36.195
X40.005Y-38.735
X40.005Y-41.275
X40.005Y-43.815
X40.005Y-46.355
X40.005Y-48.895
X40.005Y-51.435
X40.005Y-53.975
X81.915Y-46.355
X81.915Y-56.515
X81.915Y-59.055
X40.005Y-56.515
X40.005Y-59.055
X81.915Y-48.895
X81.915Y-51.435
X81.915Y-53.975
T3
X35.56Y-8.255
X45.72Y-8.255
X76.835Y-20.955
X76.835Y-31.115
X8.89Y-20.955
X8.89Y-31.115
X34.925Y-20.955
X34.925Y-31.115
X35.56Y-4.445
X45.72Y-4.445
X71.755Y-20.955
X50.8Y-20.955
X50.8Y-31.115
X71.755Y-31.115
X29.845Y-20.955
X29.845Y-31.115
X55.88Y-20.955
X55.88Y-31.115
X13.97Y-20.955
X13.97Y-31.115
T4
X26.67Y-15.875
X29.21Y-15.875
X68.58Y-15.875
X71.12Y-15.875
X34.29Y-15.875
X36.83Y-15.875
X54.61Y-15.875
X57.15Y-15.875
X20.32Y-15.875
X22.86Y-15.875
X62.23Y-15.875
X64.77Y-15.875
X48.26Y-15.875
X50.8Y-15.875
X40.64Y-15.875
X43.18Y-15.875
T6
X49.53Y-6.35
X53.34Y-6.35
X57.15Y-6.35
X60.96Y-6.35
X64.77Y-6.35
X68.58Y-6.35
X72.39Y-6.35
X76.2Y-6.35
X31.115Y-71.12
X34.925Y-71.12
X38.735Y-71.12
X42.545Y-71.12
X13.335Y-71.12
X17.145Y-71.12
X20.955Y-71.12
X24.765Y-71.12
X5.08Y-6.35
X8.89Y-6.35
X16.51Y-6.35
X20.32Y-6.35
X24.13Y-6.35
X27.94Y-6.35
X66.675Y-71.12
X70.485Y-71.12
X74.295Y-71.12
X12.7Y-6.35
X31.75Y-6.35
X78.105Y-71.12
X48.895Y-71.12
X52.705Y-71.12
X56.515Y-71.12
X60.325Y-71.12
T7
X5.08Y-70.485
X86.36Y-70.485
X7.62Y-13.97
T5
X80.645Y-13.7G85X80.645Y-11.7
G05
X84.645Y-8.0G85X82.645Y-8.0
G05
X86.645Y-13.7G85X86.645Y-11.7
G05
T0
M30
