G04 #@! TF.GenerationSoftware,KiCad,Pcbnew,(5.1.4-0-10_14)*
G04 #@! TF.CreationDate,2021-10-12T10:58:53-04:00*
G04 #@! TF.ProjectId,doublemagfixture,646f7562-6c65-46d6-9167-666978747572,rev?*
G04 #@! TF.SameCoordinates,Original*
G04 #@! TF.FileFunction,Legend,Bot*
G04 #@! TF.FilePolarity,Positive*
%FSLAX46Y46*%
G04 Gerber Fmt 4.6, Leading zero omitted, Abs format (unit mm)*
G04 Created by KiCad (PCBNEW (5.1.4-0-10_14)) date 2021-10-12 10:58:53*
%MOMM*%
%LPD*%
G04 APERTURE LIST*
%ADD10C,0.150000*%
%ADD11C,0.120000*%
%ADD12C,1.626000*%
%ADD13R,1.626000X1.626000*%
%ADD14C,6.502000*%
%ADD15O,1.702000X1.702000*%
%ADD16C,1.702000*%
%ADD17C,2.102000*%
%ADD18R,2.102000X2.102000*%
%ADD19R,3.602000X3.602000*%
%ADD20C,0.100000*%
%ADD21C,3.102000*%
%ADD22C,3.602000*%
%ADD23C,1.902000*%
%ADD24R,1.902000X1.902000*%
G04 APERTURE END LIST*
D10*
X87191904Y-48374761D02*
X87763333Y-48374761D01*
X87877619Y-48336666D01*
X87953809Y-48260476D01*
X87991904Y-48146190D01*
X87991904Y-48070000D01*
X87991904Y-49136666D02*
X87991904Y-48755714D01*
X87191904Y-48755714D01*
X87915714Y-49860476D02*
X87953809Y-49822380D01*
X87991904Y-49708095D01*
X87991904Y-49631904D01*
X87953809Y-49517619D01*
X87877619Y-49441428D01*
X87801428Y-49403333D01*
X87649047Y-49365238D01*
X87534761Y-49365238D01*
X87382380Y-49403333D01*
X87306190Y-49441428D01*
X87230000Y-49517619D01*
X87191904Y-49631904D01*
X87191904Y-49708095D01*
X87230000Y-49822380D01*
X87268095Y-49860476D01*
X87191904Y-50431904D02*
X87763333Y-50431904D01*
X87877619Y-50393809D01*
X87953809Y-50317619D01*
X87991904Y-50203333D01*
X87991904Y-50127142D01*
X87991904Y-51193809D02*
X87991904Y-50812857D01*
X87191904Y-50812857D01*
X87915714Y-51917619D02*
X87953809Y-51879523D01*
X87991904Y-51765238D01*
X87991904Y-51689047D01*
X87953809Y-51574761D01*
X87877619Y-51498571D01*
X87801428Y-51460476D01*
X87649047Y-51422380D01*
X87534761Y-51422380D01*
X87382380Y-51460476D01*
X87306190Y-51498571D01*
X87230000Y-51574761D01*
X87191904Y-51689047D01*
X87191904Y-51765238D01*
X87230000Y-51879523D01*
X87268095Y-51917619D01*
X87191904Y-52489047D02*
X87763333Y-52489047D01*
X87877619Y-52450952D01*
X87953809Y-52374761D01*
X87991904Y-52260476D01*
X87991904Y-52184285D01*
X87991904Y-53250952D02*
X87991904Y-52870000D01*
X87191904Y-52870000D01*
X87915714Y-53974761D02*
X87953809Y-53936666D01*
X87991904Y-53822380D01*
X87991904Y-53746190D01*
X87953809Y-53631904D01*
X87877619Y-53555714D01*
X87801428Y-53517619D01*
X87649047Y-53479523D01*
X87534761Y-53479523D01*
X87382380Y-53517619D01*
X87306190Y-53555714D01*
X87230000Y-53631904D01*
X87191904Y-53746190D01*
X87191904Y-53822380D01*
X87230000Y-53936666D01*
X87268095Y-53974761D01*
X87191904Y-54546190D02*
X87763333Y-54546190D01*
X87877619Y-54508095D01*
X87953809Y-54431904D01*
X87991904Y-54317619D01*
X87991904Y-54241428D01*
X87991904Y-55308095D02*
X87991904Y-54927142D01*
X87191904Y-54927142D01*
X87915714Y-56031904D02*
X87953809Y-55993809D01*
X87991904Y-55879523D01*
X87991904Y-55803333D01*
X87953809Y-55689047D01*
X87877619Y-55612857D01*
X87801428Y-55574761D01*
X87649047Y-55536666D01*
X87534761Y-55536666D01*
X87382380Y-55574761D01*
X87306190Y-55612857D01*
X87230000Y-55689047D01*
X87191904Y-55803333D01*
X87191904Y-55879523D01*
X87230000Y-55993809D01*
X87268095Y-56031904D01*
X71628095Y-1500238D02*
X71770952Y-1452619D01*
X72009047Y-1452619D01*
X72104285Y-1500238D01*
X72151904Y-1547857D01*
X72199523Y-1643095D01*
X72199523Y-1738333D01*
X72151904Y-1833571D01*
X72104285Y-1881190D01*
X72009047Y-1928809D01*
X71818571Y-1976428D01*
X71723333Y-2024047D01*
X71675714Y-2071666D01*
X71628095Y-2166904D01*
X71628095Y-2262142D01*
X71675714Y-2357380D01*
X71723333Y-2405000D01*
X71818571Y-2452619D01*
X72056666Y-2452619D01*
X72199523Y-2405000D01*
X72532857Y-2452619D02*
X73151904Y-2452619D01*
X72818571Y-2071666D01*
X72961428Y-2071666D01*
X73056666Y-2024047D01*
X73104285Y-1976428D01*
X73151904Y-1881190D01*
X73151904Y-1643095D01*
X73104285Y-1547857D01*
X73056666Y-1500238D01*
X72961428Y-1452619D01*
X72675714Y-1452619D01*
X72580476Y-1500238D01*
X72532857Y-1547857D01*
X56388095Y-1500238D02*
X56530952Y-1452619D01*
X56769047Y-1452619D01*
X56864285Y-1500238D01*
X56911904Y-1547857D01*
X56959523Y-1643095D01*
X56959523Y-1738333D01*
X56911904Y-1833571D01*
X56864285Y-1881190D01*
X56769047Y-1928809D01*
X56578571Y-1976428D01*
X56483333Y-2024047D01*
X56435714Y-2071666D01*
X56388095Y-2166904D01*
X56388095Y-2262142D01*
X56435714Y-2357380D01*
X56483333Y-2405000D01*
X56578571Y-2452619D01*
X56816666Y-2452619D01*
X56959523Y-2405000D01*
X57911904Y-1452619D02*
X57340476Y-1452619D01*
X57626190Y-1452619D02*
X57626190Y-2452619D01*
X57530952Y-2309761D01*
X57435714Y-2214523D01*
X57340476Y-2166904D01*
X75461904Y-1452619D02*
X75461904Y-2452619D01*
X75700000Y-2452619D01*
X75842857Y-2405000D01*
X75938095Y-2309761D01*
X75985714Y-2214523D01*
X76033333Y-2024047D01*
X76033333Y-1881190D01*
X75985714Y-1690714D01*
X75938095Y-1595476D01*
X75842857Y-1500238D01*
X75700000Y-1452619D01*
X75461904Y-1452619D01*
X76366666Y-2452619D02*
X76985714Y-2452619D01*
X76652380Y-2071666D01*
X76795238Y-2071666D01*
X76890476Y-2024047D01*
X76938095Y-1976428D01*
X76985714Y-1881190D01*
X76985714Y-1643095D01*
X76938095Y-1547857D01*
X76890476Y-1500238D01*
X76795238Y-1452619D01*
X76509523Y-1452619D01*
X76414285Y-1500238D01*
X76366666Y-1547857D01*
X48768095Y-1500238D02*
X48910952Y-1452619D01*
X49149047Y-1452619D01*
X49244285Y-1500238D01*
X49291904Y-1547857D01*
X49339523Y-1643095D01*
X49339523Y-1738333D01*
X49291904Y-1833571D01*
X49244285Y-1881190D01*
X49149047Y-1928809D01*
X48958571Y-1976428D01*
X48863333Y-2024047D01*
X48815714Y-2071666D01*
X48768095Y-2166904D01*
X48768095Y-2262142D01*
X48815714Y-2357380D01*
X48863333Y-2405000D01*
X48958571Y-2452619D01*
X49196666Y-2452619D01*
X49339523Y-2405000D01*
X49958571Y-2452619D02*
X50053809Y-2452619D01*
X50149047Y-2405000D01*
X50196666Y-2357380D01*
X50244285Y-2262142D01*
X50291904Y-2071666D01*
X50291904Y-1833571D01*
X50244285Y-1643095D01*
X50196666Y-1547857D01*
X50149047Y-1500238D01*
X50053809Y-1452619D01*
X49958571Y-1452619D01*
X49863333Y-1500238D01*
X49815714Y-1547857D01*
X49768095Y-1643095D01*
X49720476Y-1833571D01*
X49720476Y-2071666D01*
X49768095Y-2262142D01*
X49815714Y-2357380D01*
X49863333Y-2405000D01*
X49958571Y-2452619D01*
X67841904Y-1452619D02*
X67841904Y-2452619D01*
X68080000Y-2452619D01*
X68222857Y-2405000D01*
X68318095Y-2309761D01*
X68365714Y-2214523D01*
X68413333Y-2024047D01*
X68413333Y-1881190D01*
X68365714Y-1690714D01*
X68318095Y-1595476D01*
X68222857Y-1500238D01*
X68080000Y-1452619D01*
X67841904Y-1452619D01*
X68794285Y-2357380D02*
X68841904Y-2405000D01*
X68937142Y-2452619D01*
X69175238Y-2452619D01*
X69270476Y-2405000D01*
X69318095Y-2357380D01*
X69365714Y-2262142D01*
X69365714Y-2166904D01*
X69318095Y-2024047D01*
X68746666Y-1452619D01*
X69365714Y-1452619D01*
X60221904Y-1452619D02*
X60221904Y-2452619D01*
X60460000Y-2452619D01*
X60602857Y-2405000D01*
X60698095Y-2309761D01*
X60745714Y-2214523D01*
X60793333Y-2024047D01*
X60793333Y-1881190D01*
X60745714Y-1690714D01*
X60698095Y-1595476D01*
X60602857Y-1500238D01*
X60460000Y-1452619D01*
X60221904Y-1452619D01*
X61745714Y-1452619D02*
X61174285Y-1452619D01*
X61460000Y-1452619D02*
X61460000Y-2452619D01*
X61364761Y-2309761D01*
X61269523Y-2214523D01*
X61174285Y-2166904D01*
X64008095Y-1500238D02*
X64150952Y-1452619D01*
X64389047Y-1452619D01*
X64484285Y-1500238D01*
X64531904Y-1547857D01*
X64579523Y-1643095D01*
X64579523Y-1738333D01*
X64531904Y-1833571D01*
X64484285Y-1881190D01*
X64389047Y-1928809D01*
X64198571Y-1976428D01*
X64103333Y-2024047D01*
X64055714Y-2071666D01*
X64008095Y-2166904D01*
X64008095Y-2262142D01*
X64055714Y-2357380D01*
X64103333Y-2405000D01*
X64198571Y-2452619D01*
X64436666Y-2452619D01*
X64579523Y-2405000D01*
X64960476Y-2357380D02*
X65008095Y-2405000D01*
X65103333Y-2452619D01*
X65341428Y-2452619D01*
X65436666Y-2405000D01*
X65484285Y-2357380D01*
X65531904Y-2262142D01*
X65531904Y-2166904D01*
X65484285Y-2024047D01*
X64912857Y-1452619D01*
X65531904Y-1452619D01*
X52601904Y-1452619D02*
X52601904Y-2452619D01*
X52840000Y-2452619D01*
X52982857Y-2405000D01*
X53078095Y-2309761D01*
X53125714Y-2214523D01*
X53173333Y-2024047D01*
X53173333Y-1881190D01*
X53125714Y-1690714D01*
X53078095Y-1595476D01*
X52982857Y-1500238D01*
X52840000Y-1452619D01*
X52601904Y-1452619D01*
X53792380Y-2452619D02*
X53887619Y-2452619D01*
X53982857Y-2405000D01*
X54030476Y-2357380D01*
X54078095Y-2262142D01*
X54125714Y-2071666D01*
X54125714Y-1833571D01*
X54078095Y-1643095D01*
X54030476Y-1547857D01*
X53982857Y-1500238D01*
X53887619Y-1452619D01*
X53792380Y-1452619D01*
X53697142Y-1500238D01*
X53649523Y-1547857D01*
X53601904Y-1643095D01*
X53554285Y-1833571D01*
X53554285Y-2071666D01*
X53601904Y-2262142D01*
X53649523Y-2357380D01*
X53697142Y-2405000D01*
X53792380Y-2452619D01*
X16343333Y-1452619D02*
X15867142Y-1452619D01*
X15867142Y-2452619D01*
X17200476Y-1452619D02*
X16629047Y-1452619D01*
X16914761Y-1452619D02*
X16914761Y-2452619D01*
X16819523Y-2309761D01*
X16724285Y-2214523D01*
X16629047Y-2166904D01*
X20153333Y-1452619D02*
X19677142Y-1452619D01*
X19677142Y-2452619D01*
X20677142Y-2452619D02*
X20772380Y-2452619D01*
X20867619Y-2405000D01*
X20915238Y-2357380D01*
X20962857Y-2262142D01*
X21010476Y-2071666D01*
X21010476Y-1833571D01*
X20962857Y-1643095D01*
X20915238Y-1547857D01*
X20867619Y-1500238D01*
X20772380Y-1452619D01*
X20677142Y-1452619D01*
X20581904Y-1500238D01*
X20534285Y-1547857D01*
X20486666Y-1643095D01*
X20439047Y-1833571D01*
X20439047Y-2071666D01*
X20486666Y-2262142D01*
X20534285Y-2357380D01*
X20581904Y-2405000D01*
X20677142Y-2452619D01*
X2683095Y-1833571D02*
X3445000Y-1833571D01*
X3064047Y-1452619D02*
X3064047Y-2214523D01*
X4445000Y-1452619D02*
X3873571Y-1452619D01*
X4159285Y-1452619D02*
X4159285Y-2452619D01*
X4064047Y-2309761D01*
X3968809Y-2214523D01*
X3873571Y-2166904D01*
X4825952Y-2357380D02*
X4873571Y-2405000D01*
X4968809Y-2452619D01*
X5206904Y-2452619D01*
X5302142Y-2405000D01*
X5349761Y-2357380D01*
X5397380Y-2262142D01*
X5397380Y-2166904D01*
X5349761Y-2024047D01*
X4778333Y-1452619D01*
X5397380Y-1452619D01*
X5683095Y-2452619D02*
X6016428Y-1452619D01*
X6349761Y-2452619D01*
X23963333Y-1452619D02*
X23487142Y-1452619D01*
X23487142Y-2452619D01*
X24820476Y-1452619D02*
X24249047Y-1452619D01*
X24534761Y-1452619D02*
X24534761Y-2452619D01*
X24439523Y-2309761D01*
X24344285Y-2214523D01*
X24249047Y-2166904D01*
X30988095Y-2405000D02*
X30892857Y-2452619D01*
X30750000Y-2452619D01*
X30607142Y-2405000D01*
X30511904Y-2309761D01*
X30464285Y-2214523D01*
X30416666Y-2024047D01*
X30416666Y-1881190D01*
X30464285Y-1690714D01*
X30511904Y-1595476D01*
X30607142Y-1500238D01*
X30750000Y-1452619D01*
X30845238Y-1452619D01*
X30988095Y-1500238D01*
X31035714Y-1547857D01*
X31035714Y-1881190D01*
X30845238Y-1881190D01*
X31464285Y-1452619D02*
X31464285Y-2452619D01*
X32035714Y-1452619D01*
X32035714Y-2452619D01*
X32511904Y-1452619D02*
X32511904Y-2452619D01*
X32750000Y-2452619D01*
X32892857Y-2405000D01*
X32988095Y-2309761D01*
X33035714Y-2214523D01*
X33083333Y-2024047D01*
X33083333Y-1881190D01*
X33035714Y-1690714D01*
X32988095Y-1595476D01*
X32892857Y-1500238D01*
X32750000Y-1452619D01*
X32511904Y-1452619D01*
X12533333Y-1452619D02*
X12057142Y-1452619D01*
X12057142Y-2452619D01*
X13057142Y-2452619D02*
X13152380Y-2452619D01*
X13247619Y-2405000D01*
X13295238Y-2357380D01*
X13342857Y-2262142D01*
X13390476Y-2071666D01*
X13390476Y-1833571D01*
X13342857Y-1643095D01*
X13295238Y-1547857D01*
X13247619Y-1500238D01*
X13152380Y-1452619D01*
X13057142Y-1452619D01*
X12961904Y-1500238D01*
X12914285Y-1547857D01*
X12866666Y-1643095D01*
X12819047Y-1833571D01*
X12819047Y-2071666D01*
X12866666Y-2262142D01*
X12914285Y-2357380D01*
X12961904Y-2405000D01*
X13057142Y-2452619D01*
X27154285Y-1452619D02*
X27154285Y-2452619D01*
X27725714Y-1452619D01*
X27725714Y-2452619D01*
X28773333Y-1547857D02*
X28725714Y-1500238D01*
X28582857Y-1452619D01*
X28487619Y-1452619D01*
X28344761Y-1500238D01*
X28249523Y-1595476D01*
X28201904Y-1690714D01*
X28154285Y-1881190D01*
X28154285Y-2024047D01*
X28201904Y-2214523D01*
X28249523Y-2309761D01*
X28344761Y-2405000D01*
X28487619Y-2452619D01*
X28582857Y-2452619D01*
X28725714Y-2405000D01*
X28773333Y-2357380D01*
X7604285Y-1833571D02*
X8366190Y-1833571D01*
X7985238Y-1452619D02*
X7985238Y-2214523D01*
X9318571Y-2452619D02*
X8842380Y-2452619D01*
X8794761Y-1976428D01*
X8842380Y-2024047D01*
X8937619Y-2071666D01*
X9175714Y-2071666D01*
X9270952Y-2024047D01*
X9318571Y-1976428D01*
X9366190Y-1881190D01*
X9366190Y-1643095D01*
X9318571Y-1547857D01*
X9270952Y-1500238D01*
X9175714Y-1452619D01*
X8937619Y-1452619D01*
X8842380Y-1500238D01*
X8794761Y-1547857D01*
X9651904Y-2452619D02*
X9985238Y-1452619D01*
X10318571Y-2452619D01*
X65817857Y-73493333D02*
X66294047Y-73493333D01*
X65722619Y-73207619D02*
X66055952Y-74207619D01*
X66389285Y-73207619D01*
X66722619Y-73588571D02*
X67484523Y-73588571D01*
X30257857Y-73493333D02*
X30734047Y-73493333D01*
X30162619Y-73207619D02*
X30495952Y-74207619D01*
X30829285Y-73207619D01*
X31162619Y-73588571D02*
X31924523Y-73588571D01*
X59777380Y-73731428D02*
X59920238Y-73683809D01*
X59967857Y-73636190D01*
X60015476Y-73540952D01*
X60015476Y-73398095D01*
X59967857Y-73302857D01*
X59920238Y-73255238D01*
X59825000Y-73207619D01*
X59444047Y-73207619D01*
X59444047Y-74207619D01*
X59777380Y-74207619D01*
X59872619Y-74160000D01*
X59920238Y-74112380D01*
X59967857Y-74017142D01*
X59967857Y-73921904D01*
X59920238Y-73826666D01*
X59872619Y-73779047D01*
X59777380Y-73731428D01*
X59444047Y-73731428D01*
X60444047Y-73588571D02*
X61205952Y-73588571D01*
X60825000Y-73207619D02*
X60825000Y-73969523D01*
X41997380Y-73731428D02*
X42140238Y-73683809D01*
X42187857Y-73636190D01*
X42235476Y-73540952D01*
X42235476Y-73398095D01*
X42187857Y-73302857D01*
X42140238Y-73255238D01*
X42045000Y-73207619D01*
X41664047Y-73207619D01*
X41664047Y-74207619D01*
X41997380Y-74207619D01*
X42092619Y-74160000D01*
X42140238Y-74112380D01*
X42187857Y-74017142D01*
X42187857Y-73921904D01*
X42140238Y-73826666D01*
X42092619Y-73779047D01*
X41997380Y-73731428D01*
X41664047Y-73731428D01*
X42664047Y-73588571D02*
X43425952Y-73588571D01*
X43045000Y-73207619D02*
X43045000Y-73969523D01*
X77557380Y-73731428D02*
X77700238Y-73683809D01*
X77747857Y-73636190D01*
X77795476Y-73540952D01*
X77795476Y-73398095D01*
X77747857Y-73302857D01*
X77700238Y-73255238D01*
X77605000Y-73207619D01*
X77224047Y-73207619D01*
X77224047Y-74207619D01*
X77557380Y-74207619D01*
X77652619Y-74160000D01*
X77700238Y-74112380D01*
X77747857Y-74017142D01*
X77747857Y-73921904D01*
X77700238Y-73826666D01*
X77652619Y-73779047D01*
X77557380Y-73731428D01*
X77224047Y-73731428D01*
X78224047Y-73588571D02*
X78985952Y-73588571D01*
X78605000Y-73207619D02*
X78605000Y-73969523D01*
X48037857Y-73493333D02*
X48514047Y-73493333D01*
X47942619Y-73207619D02*
X48275952Y-74207619D01*
X48609285Y-73207619D01*
X48942619Y-73588571D02*
X49704523Y-73588571D01*
X20407380Y-73731428D02*
X20550238Y-73683809D01*
X20597857Y-73636190D01*
X20645476Y-73540952D01*
X20645476Y-73398095D01*
X20597857Y-73302857D01*
X20550238Y-73255238D01*
X20455000Y-73207619D01*
X20074047Y-73207619D01*
X20074047Y-74207619D01*
X20407380Y-74207619D01*
X20502619Y-74160000D01*
X20550238Y-74112380D01*
X20597857Y-74017142D01*
X20597857Y-73921904D01*
X20550238Y-73826666D01*
X20502619Y-73779047D01*
X20407380Y-73731428D01*
X20074047Y-73731428D01*
X21074047Y-73588571D02*
X21835952Y-73588571D01*
X69627857Y-73493333D02*
X70104047Y-73493333D01*
X69532619Y-73207619D02*
X69865952Y-74207619D01*
X70199285Y-73207619D01*
X70532619Y-73588571D02*
X71294523Y-73588571D01*
X70913571Y-73207619D02*
X70913571Y-73969523D01*
X51847857Y-73493333D02*
X52324047Y-73493333D01*
X51752619Y-73207619D02*
X52085952Y-74207619D01*
X52419285Y-73207619D01*
X52752619Y-73588571D02*
X53514523Y-73588571D01*
X53133571Y-73207619D02*
X53133571Y-73969523D01*
X38187380Y-73731428D02*
X38330238Y-73683809D01*
X38377857Y-73636190D01*
X38425476Y-73540952D01*
X38425476Y-73398095D01*
X38377857Y-73302857D01*
X38330238Y-73255238D01*
X38235000Y-73207619D01*
X37854047Y-73207619D01*
X37854047Y-74207619D01*
X38187380Y-74207619D01*
X38282619Y-74160000D01*
X38330238Y-74112380D01*
X38377857Y-74017142D01*
X38377857Y-73921904D01*
X38330238Y-73826666D01*
X38282619Y-73779047D01*
X38187380Y-73731428D01*
X37854047Y-73731428D01*
X38854047Y-73588571D02*
X39615952Y-73588571D01*
X24217380Y-73731428D02*
X24360238Y-73683809D01*
X24407857Y-73636190D01*
X24455476Y-73540952D01*
X24455476Y-73398095D01*
X24407857Y-73302857D01*
X24360238Y-73255238D01*
X24265000Y-73207619D01*
X23884047Y-73207619D01*
X23884047Y-74207619D01*
X24217380Y-74207619D01*
X24312619Y-74160000D01*
X24360238Y-74112380D01*
X24407857Y-74017142D01*
X24407857Y-73921904D01*
X24360238Y-73826666D01*
X24312619Y-73779047D01*
X24217380Y-73731428D01*
X23884047Y-73731428D01*
X24884047Y-73588571D02*
X25645952Y-73588571D01*
X25265000Y-73207619D02*
X25265000Y-73969523D01*
X16287857Y-73493333D02*
X16764047Y-73493333D01*
X16192619Y-73207619D02*
X16525952Y-74207619D01*
X16859285Y-73207619D01*
X17192619Y-73588571D02*
X17954523Y-73588571D01*
X17573571Y-73207619D02*
X17573571Y-73969523D01*
X55967380Y-73731428D02*
X56110238Y-73683809D01*
X56157857Y-73636190D01*
X56205476Y-73540952D01*
X56205476Y-73398095D01*
X56157857Y-73302857D01*
X56110238Y-73255238D01*
X56015000Y-73207619D01*
X55634047Y-73207619D01*
X55634047Y-74207619D01*
X55967380Y-74207619D01*
X56062619Y-74160000D01*
X56110238Y-74112380D01*
X56157857Y-74017142D01*
X56157857Y-73921904D01*
X56110238Y-73826666D01*
X56062619Y-73779047D01*
X55967380Y-73731428D01*
X55634047Y-73731428D01*
X56634047Y-73588571D02*
X57395952Y-73588571D01*
X73747380Y-73731428D02*
X73890238Y-73683809D01*
X73937857Y-73636190D01*
X73985476Y-73540952D01*
X73985476Y-73398095D01*
X73937857Y-73302857D01*
X73890238Y-73255238D01*
X73795000Y-73207619D01*
X73414047Y-73207619D01*
X73414047Y-74207619D01*
X73747380Y-74207619D01*
X73842619Y-74160000D01*
X73890238Y-74112380D01*
X73937857Y-74017142D01*
X73937857Y-73921904D01*
X73890238Y-73826666D01*
X73842619Y-73779047D01*
X73747380Y-73731428D01*
X73414047Y-73731428D01*
X74414047Y-73588571D02*
X75175952Y-73588571D01*
X34067857Y-73493333D02*
X34544047Y-73493333D01*
X33972619Y-73207619D02*
X34305952Y-74207619D01*
X34639285Y-73207619D01*
X34972619Y-73588571D02*
X35734523Y-73588571D01*
X35353571Y-73207619D02*
X35353571Y-73969523D01*
X12477857Y-73493333D02*
X12954047Y-73493333D01*
X12382619Y-73207619D02*
X12715952Y-74207619D01*
X13049285Y-73207619D01*
X13382619Y-73588571D02*
X14144523Y-73588571D01*
D11*
X75465000Y-22765000D02*
X78205000Y-22765000D01*
X78205000Y-22765000D02*
X78205000Y-29305000D01*
X78205000Y-29305000D02*
X75465000Y-29305000D01*
X75465000Y-29305000D02*
X75465000Y-22765000D01*
X76835000Y-21995000D02*
X76835000Y-22765000D01*
X76835000Y-30075000D02*
X76835000Y-29305000D01*
X70385000Y-22765000D02*
X73125000Y-22765000D01*
X73125000Y-22765000D02*
X73125000Y-29305000D01*
X73125000Y-29305000D02*
X70385000Y-29305000D01*
X70385000Y-29305000D02*
X70385000Y-22765000D01*
X71755000Y-21995000D02*
X71755000Y-22765000D01*
X71755000Y-30075000D02*
X71755000Y-29305000D01*
X54510000Y-22765000D02*
X57250000Y-22765000D01*
X57250000Y-22765000D02*
X57250000Y-29305000D01*
X57250000Y-29305000D02*
X54510000Y-29305000D01*
X54510000Y-29305000D02*
X54510000Y-22765000D01*
X55880000Y-21995000D02*
X55880000Y-22765000D01*
X55880000Y-30075000D02*
X55880000Y-29305000D01*
X49430000Y-22765000D02*
X52170000Y-22765000D01*
X52170000Y-22765000D02*
X52170000Y-29305000D01*
X52170000Y-29305000D02*
X49430000Y-29305000D01*
X49430000Y-29305000D02*
X49430000Y-22765000D01*
X50800000Y-21995000D02*
X50800000Y-22765000D01*
X50800000Y-30075000D02*
X50800000Y-29305000D01*
X33555000Y-22765000D02*
X36295000Y-22765000D01*
X36295000Y-22765000D02*
X36295000Y-29305000D01*
X36295000Y-29305000D02*
X33555000Y-29305000D01*
X33555000Y-29305000D02*
X33555000Y-22765000D01*
X34925000Y-21995000D02*
X34925000Y-22765000D01*
X34925000Y-30075000D02*
X34925000Y-29305000D01*
X28475000Y-22765000D02*
X31215000Y-22765000D01*
X31215000Y-22765000D02*
X31215000Y-29305000D01*
X31215000Y-29305000D02*
X28475000Y-29305000D01*
X28475000Y-29305000D02*
X28475000Y-22765000D01*
X29845000Y-21995000D02*
X29845000Y-22765000D01*
X29845000Y-30075000D02*
X29845000Y-29305000D01*
X12600000Y-22765000D02*
X15340000Y-22765000D01*
X15340000Y-22765000D02*
X15340000Y-29305000D01*
X15340000Y-29305000D02*
X12600000Y-29305000D01*
X12600000Y-29305000D02*
X12600000Y-22765000D01*
X13970000Y-21995000D02*
X13970000Y-22765000D01*
X13970000Y-30075000D02*
X13970000Y-29305000D01*
X7520000Y-22765000D02*
X10260000Y-22765000D01*
X10260000Y-22765000D02*
X10260000Y-29305000D01*
X10260000Y-29305000D02*
X7520000Y-29305000D01*
X7520000Y-29305000D02*
X7520000Y-22765000D01*
X8890000Y-21995000D02*
X8890000Y-22765000D01*
X8890000Y-30075000D02*
X8890000Y-29305000D01*
D10*
X74917380Y-25868333D02*
X74441190Y-25535000D01*
X74917380Y-25296904D02*
X73917380Y-25296904D01*
X73917380Y-25677857D01*
X73965000Y-25773095D01*
X74012619Y-25820714D01*
X74107857Y-25868333D01*
X74250714Y-25868333D01*
X74345952Y-25820714D01*
X74393571Y-25773095D01*
X74441190Y-25677857D01*
X74441190Y-25296904D01*
X74345952Y-26439761D02*
X74298333Y-26344523D01*
X74250714Y-26296904D01*
X74155476Y-26249285D01*
X74107857Y-26249285D01*
X74012619Y-26296904D01*
X73965000Y-26344523D01*
X73917380Y-26439761D01*
X73917380Y-26630238D01*
X73965000Y-26725476D01*
X74012619Y-26773095D01*
X74107857Y-26820714D01*
X74155476Y-26820714D01*
X74250714Y-26773095D01*
X74298333Y-26725476D01*
X74345952Y-26630238D01*
X74345952Y-26439761D01*
X74393571Y-26344523D01*
X74441190Y-26296904D01*
X74536428Y-26249285D01*
X74726904Y-26249285D01*
X74822142Y-26296904D01*
X74869761Y-26344523D01*
X74917380Y-26439761D01*
X74917380Y-26630238D01*
X74869761Y-26725476D01*
X74822142Y-26773095D01*
X74726904Y-26820714D01*
X74536428Y-26820714D01*
X74441190Y-26773095D01*
X74393571Y-26725476D01*
X74345952Y-26630238D01*
X69837380Y-25868333D02*
X69361190Y-25535000D01*
X69837380Y-25296904D02*
X68837380Y-25296904D01*
X68837380Y-25677857D01*
X68885000Y-25773095D01*
X68932619Y-25820714D01*
X69027857Y-25868333D01*
X69170714Y-25868333D01*
X69265952Y-25820714D01*
X69313571Y-25773095D01*
X69361190Y-25677857D01*
X69361190Y-25296904D01*
X68837380Y-26201666D02*
X68837380Y-26868333D01*
X69837380Y-26439761D01*
X53962380Y-25868333D02*
X53486190Y-25535000D01*
X53962380Y-25296904D02*
X52962380Y-25296904D01*
X52962380Y-25677857D01*
X53010000Y-25773095D01*
X53057619Y-25820714D01*
X53152857Y-25868333D01*
X53295714Y-25868333D01*
X53390952Y-25820714D01*
X53438571Y-25773095D01*
X53486190Y-25677857D01*
X53486190Y-25296904D01*
X52962380Y-26725476D02*
X52962380Y-26535000D01*
X53010000Y-26439761D01*
X53057619Y-26392142D01*
X53200476Y-26296904D01*
X53390952Y-26249285D01*
X53771904Y-26249285D01*
X53867142Y-26296904D01*
X53914761Y-26344523D01*
X53962380Y-26439761D01*
X53962380Y-26630238D01*
X53914761Y-26725476D01*
X53867142Y-26773095D01*
X53771904Y-26820714D01*
X53533809Y-26820714D01*
X53438571Y-26773095D01*
X53390952Y-26725476D01*
X53343333Y-26630238D01*
X53343333Y-26439761D01*
X53390952Y-26344523D01*
X53438571Y-26296904D01*
X53533809Y-26249285D01*
X48882380Y-25868333D02*
X48406190Y-25535000D01*
X48882380Y-25296904D02*
X47882380Y-25296904D01*
X47882380Y-25677857D01*
X47930000Y-25773095D01*
X47977619Y-25820714D01*
X48072857Y-25868333D01*
X48215714Y-25868333D01*
X48310952Y-25820714D01*
X48358571Y-25773095D01*
X48406190Y-25677857D01*
X48406190Y-25296904D01*
X47882380Y-26773095D02*
X47882380Y-26296904D01*
X48358571Y-26249285D01*
X48310952Y-26296904D01*
X48263333Y-26392142D01*
X48263333Y-26630238D01*
X48310952Y-26725476D01*
X48358571Y-26773095D01*
X48453809Y-26820714D01*
X48691904Y-26820714D01*
X48787142Y-26773095D01*
X48834761Y-26725476D01*
X48882380Y-26630238D01*
X48882380Y-26392142D01*
X48834761Y-26296904D01*
X48787142Y-26249285D01*
X33007380Y-25868333D02*
X32531190Y-25535000D01*
X33007380Y-25296904D02*
X32007380Y-25296904D01*
X32007380Y-25677857D01*
X32055000Y-25773095D01*
X32102619Y-25820714D01*
X32197857Y-25868333D01*
X32340714Y-25868333D01*
X32435952Y-25820714D01*
X32483571Y-25773095D01*
X32531190Y-25677857D01*
X32531190Y-25296904D01*
X32340714Y-26725476D02*
X33007380Y-26725476D01*
X31959761Y-26487380D02*
X32674047Y-26249285D01*
X32674047Y-26868333D01*
X27927380Y-25868333D02*
X27451190Y-25535000D01*
X27927380Y-25296904D02*
X26927380Y-25296904D01*
X26927380Y-25677857D01*
X26975000Y-25773095D01*
X27022619Y-25820714D01*
X27117857Y-25868333D01*
X27260714Y-25868333D01*
X27355952Y-25820714D01*
X27403571Y-25773095D01*
X27451190Y-25677857D01*
X27451190Y-25296904D01*
X26927380Y-26201666D02*
X26927380Y-26820714D01*
X27308333Y-26487380D01*
X27308333Y-26630238D01*
X27355952Y-26725476D01*
X27403571Y-26773095D01*
X27498809Y-26820714D01*
X27736904Y-26820714D01*
X27832142Y-26773095D01*
X27879761Y-26725476D01*
X27927380Y-26630238D01*
X27927380Y-26344523D01*
X27879761Y-26249285D01*
X27832142Y-26201666D01*
X12052380Y-25868333D02*
X11576190Y-25535000D01*
X12052380Y-25296904D02*
X11052380Y-25296904D01*
X11052380Y-25677857D01*
X11100000Y-25773095D01*
X11147619Y-25820714D01*
X11242857Y-25868333D01*
X11385714Y-25868333D01*
X11480952Y-25820714D01*
X11528571Y-25773095D01*
X11576190Y-25677857D01*
X11576190Y-25296904D01*
X11147619Y-26249285D02*
X11100000Y-26296904D01*
X11052380Y-26392142D01*
X11052380Y-26630238D01*
X11100000Y-26725476D01*
X11147619Y-26773095D01*
X11242857Y-26820714D01*
X11338095Y-26820714D01*
X11480952Y-26773095D01*
X12052380Y-26201666D01*
X12052380Y-26820714D01*
X6802380Y-25868333D02*
X6326190Y-25535000D01*
X6802380Y-25296904D02*
X5802380Y-25296904D01*
X5802380Y-25677857D01*
X5850000Y-25773095D01*
X5897619Y-25820714D01*
X5992857Y-25868333D01*
X6135714Y-25868333D01*
X6230952Y-25820714D01*
X6278571Y-25773095D01*
X6326190Y-25677857D01*
X6326190Y-25296904D01*
X6802380Y-26820714D02*
X6802380Y-26249285D01*
X6802380Y-26535000D02*
X5802380Y-26535000D01*
X5945238Y-26439761D01*
X6040476Y-26344523D01*
X6088095Y-26249285D01*
%LPC*%
D12*
X81915000Y-51435000D03*
X81915000Y-53975000D03*
X81915000Y-48895000D03*
X81915000Y-41275000D03*
X81915000Y-38735000D03*
X81915000Y-36195000D03*
X81915000Y-33655000D03*
X81915000Y-31115000D03*
X81915000Y-28575000D03*
X66675000Y-26035000D03*
X66675000Y-28575000D03*
X66675000Y-36195000D03*
X66675000Y-38735000D03*
X66675000Y-41275000D03*
X66675000Y-48895000D03*
X81915000Y-59055000D03*
X81915000Y-56515000D03*
X81915000Y-46355000D03*
X81915000Y-43815000D03*
X81915000Y-26035000D03*
X81915000Y-23495000D03*
X81915000Y-20955000D03*
X66675000Y-20955000D03*
X66675000Y-23495000D03*
X66675000Y-31115000D03*
X66675000Y-33655000D03*
X66675000Y-43815000D03*
X66675000Y-46355000D03*
X66675000Y-51435000D03*
X66675000Y-53975000D03*
X66675000Y-56515000D03*
D13*
X66675000Y-59055000D03*
D12*
X60960000Y-51435000D03*
X60960000Y-53975000D03*
X60960000Y-48895000D03*
X60960000Y-41275000D03*
X60960000Y-38735000D03*
X60960000Y-36195000D03*
X60960000Y-33655000D03*
X60960000Y-31115000D03*
X60960000Y-28575000D03*
X45720000Y-26035000D03*
X45720000Y-28575000D03*
X45720000Y-36195000D03*
X45720000Y-38735000D03*
X45720000Y-41275000D03*
X45720000Y-48895000D03*
X60960000Y-59055000D03*
X60960000Y-56515000D03*
X60960000Y-46355000D03*
X60960000Y-43815000D03*
X60960000Y-26035000D03*
X60960000Y-23495000D03*
X60960000Y-20955000D03*
X45720000Y-20955000D03*
X45720000Y-23495000D03*
X45720000Y-31115000D03*
X45720000Y-33655000D03*
X45720000Y-43815000D03*
X45720000Y-46355000D03*
X45720000Y-51435000D03*
X45720000Y-53975000D03*
X45720000Y-56515000D03*
D13*
X45720000Y-59055000D03*
D12*
X40005000Y-51435000D03*
X40005000Y-53975000D03*
X40005000Y-48895000D03*
X40005000Y-41275000D03*
X40005000Y-38735000D03*
X40005000Y-36195000D03*
X40005000Y-33655000D03*
X40005000Y-31115000D03*
X40005000Y-28575000D03*
X24765000Y-26035000D03*
X24765000Y-28575000D03*
X24765000Y-36195000D03*
X24765000Y-38735000D03*
X24765000Y-41275000D03*
X24765000Y-48895000D03*
X40005000Y-59055000D03*
X40005000Y-56515000D03*
X40005000Y-46355000D03*
X40005000Y-43815000D03*
X40005000Y-26035000D03*
X40005000Y-23495000D03*
X40005000Y-20955000D03*
X24765000Y-20955000D03*
X24765000Y-23495000D03*
X24765000Y-31115000D03*
X24765000Y-33655000D03*
X24765000Y-43815000D03*
X24765000Y-46355000D03*
X24765000Y-51435000D03*
X24765000Y-53975000D03*
X24765000Y-56515000D03*
D13*
X24765000Y-59055000D03*
D12*
X19050000Y-51435000D03*
X19050000Y-53975000D03*
X19050000Y-48895000D03*
X19050000Y-41275000D03*
X19050000Y-38735000D03*
X19050000Y-36195000D03*
X19050000Y-33655000D03*
X19050000Y-31115000D03*
X19050000Y-28575000D03*
X3810000Y-26035000D03*
X3810000Y-28575000D03*
X3810000Y-36195000D03*
X3810000Y-38735000D03*
X3810000Y-41275000D03*
X3810000Y-48895000D03*
X19050000Y-59055000D03*
X19050000Y-56515000D03*
X19050000Y-46355000D03*
X19050000Y-43815000D03*
X19050000Y-26035000D03*
X19050000Y-23495000D03*
X19050000Y-20955000D03*
X3810000Y-20955000D03*
X3810000Y-23495000D03*
X3810000Y-31115000D03*
X3810000Y-33655000D03*
X3810000Y-43815000D03*
X3810000Y-46355000D03*
X3810000Y-51435000D03*
X3810000Y-53975000D03*
X3810000Y-56515000D03*
D13*
X3810000Y-59055000D03*
D14*
X86360000Y-70485000D03*
X5080000Y-70485000D03*
X7620000Y-13970000D03*
D15*
X35560000Y-8255000D03*
D16*
X45720000Y-8255000D03*
D15*
X35560000Y-4445000D03*
D16*
X45720000Y-4445000D03*
D15*
X76835000Y-31115000D03*
D16*
X76835000Y-20955000D03*
D15*
X71755000Y-31115000D03*
D16*
X71755000Y-20955000D03*
D15*
X55880000Y-31115000D03*
D16*
X55880000Y-20955000D03*
D15*
X50800000Y-31115000D03*
D16*
X50800000Y-20955000D03*
D15*
X34925000Y-31115000D03*
D16*
X34925000Y-20955000D03*
D15*
X29845000Y-31115000D03*
D16*
X29845000Y-20955000D03*
D15*
X13970000Y-31115000D03*
D16*
X13970000Y-20955000D03*
D15*
X8890000Y-31115000D03*
D16*
X8890000Y-20955000D03*
D17*
X31750000Y-6350000D03*
X27940000Y-6350000D03*
X24130000Y-6350000D03*
X20320000Y-6350000D03*
X16510000Y-6350000D03*
X12700000Y-6350000D03*
X8890000Y-6350000D03*
D18*
X5080000Y-6350000D03*
D17*
X76200000Y-6350000D03*
X72390000Y-6350000D03*
X68580000Y-6350000D03*
X64770000Y-6350000D03*
X60960000Y-6350000D03*
X57150000Y-6350000D03*
X53340000Y-6350000D03*
D18*
X49530000Y-6350000D03*
D17*
X78105000Y-71120000D03*
X74295000Y-71120000D03*
X70485000Y-71120000D03*
D18*
X66675000Y-71120000D03*
D17*
X42545000Y-71120000D03*
X38735000Y-71120000D03*
X34925000Y-71120000D03*
D18*
X31115000Y-71120000D03*
D17*
X60325000Y-71120000D03*
X56515000Y-71120000D03*
X52705000Y-71120000D03*
D18*
X48895000Y-71120000D03*
D17*
X24765000Y-71120000D03*
X20955000Y-71120000D03*
X17145000Y-71120000D03*
D18*
X13335000Y-71120000D03*
D19*
X80645000Y-12700000D03*
D20*
G36*
X87496512Y-10902734D02*
G01*
X87571793Y-10913901D01*
X87645616Y-10932393D01*
X87717271Y-10958031D01*
X87786068Y-10990570D01*
X87851345Y-11029695D01*
X87912472Y-11075030D01*
X87968861Y-11126139D01*
X88019970Y-11182528D01*
X88065305Y-11243655D01*
X88104430Y-11308932D01*
X88136969Y-11377729D01*
X88162607Y-11449384D01*
X88181099Y-11523207D01*
X88192266Y-11598488D01*
X88196000Y-11674500D01*
X88196000Y-13725500D01*
X88192266Y-13801512D01*
X88181099Y-13876793D01*
X88162607Y-13950616D01*
X88136969Y-14022271D01*
X88104430Y-14091068D01*
X88065305Y-14156345D01*
X88019970Y-14217472D01*
X87968861Y-14273861D01*
X87912472Y-14324970D01*
X87851345Y-14370305D01*
X87786068Y-14409430D01*
X87717271Y-14441969D01*
X87645616Y-14467607D01*
X87571793Y-14486099D01*
X87496512Y-14497266D01*
X87420500Y-14501000D01*
X85869500Y-14501000D01*
X85793488Y-14497266D01*
X85718207Y-14486099D01*
X85644384Y-14467607D01*
X85572729Y-14441969D01*
X85503932Y-14409430D01*
X85438655Y-14370305D01*
X85377528Y-14324970D01*
X85321139Y-14273861D01*
X85270030Y-14217472D01*
X85224695Y-14156345D01*
X85185570Y-14091068D01*
X85153031Y-14022271D01*
X85127393Y-13950616D01*
X85108901Y-13876793D01*
X85097734Y-13801512D01*
X85094000Y-13725500D01*
X85094000Y-11674500D01*
X85097734Y-11598488D01*
X85108901Y-11523207D01*
X85127393Y-11449384D01*
X85153031Y-11377729D01*
X85185570Y-11308932D01*
X85224695Y-11243655D01*
X85270030Y-11182528D01*
X85321139Y-11126139D01*
X85377528Y-11075030D01*
X85438655Y-11029695D01*
X85503932Y-10990570D01*
X85572729Y-10958031D01*
X85644384Y-10932393D01*
X85718207Y-10913901D01*
X85793488Y-10902734D01*
X85869500Y-10899000D01*
X87420500Y-10899000D01*
X87496512Y-10902734D01*
X87496512Y-10902734D01*
G37*
D21*
X86645000Y-12700000D03*
D20*
G36*
X84633764Y-6203336D02*
G01*
X84721179Y-6216303D01*
X84806901Y-6237775D01*
X84890106Y-6267546D01*
X84969993Y-6305330D01*
X85045791Y-6350762D01*
X85116771Y-6403404D01*
X85182250Y-6462750D01*
X85241596Y-6528229D01*
X85294238Y-6599209D01*
X85339670Y-6675007D01*
X85377454Y-6754894D01*
X85407225Y-6838099D01*
X85428697Y-6923821D01*
X85441664Y-7011236D01*
X85446000Y-7099500D01*
X85446000Y-8900500D01*
X85441664Y-8988764D01*
X85428697Y-9076179D01*
X85407225Y-9161901D01*
X85377454Y-9245106D01*
X85339670Y-9324993D01*
X85294238Y-9400791D01*
X85241596Y-9471771D01*
X85182250Y-9537250D01*
X85116771Y-9596596D01*
X85045791Y-9649238D01*
X84969993Y-9694670D01*
X84890106Y-9732454D01*
X84806901Y-9762225D01*
X84721179Y-9783697D01*
X84633764Y-9796664D01*
X84545500Y-9801000D01*
X82744500Y-9801000D01*
X82656236Y-9796664D01*
X82568821Y-9783697D01*
X82483099Y-9762225D01*
X82399894Y-9732454D01*
X82320007Y-9694670D01*
X82244209Y-9649238D01*
X82173229Y-9596596D01*
X82107750Y-9537250D01*
X82048404Y-9471771D01*
X81995762Y-9400791D01*
X81950330Y-9324993D01*
X81912546Y-9245106D01*
X81882775Y-9161901D01*
X81861303Y-9076179D01*
X81848336Y-8988764D01*
X81844000Y-8900500D01*
X81844000Y-7099500D01*
X81848336Y-7011236D01*
X81861303Y-6923821D01*
X81882775Y-6838099D01*
X81912546Y-6754894D01*
X81950330Y-6675007D01*
X81995762Y-6599209D01*
X82048404Y-6528229D01*
X82107750Y-6462750D01*
X82173229Y-6403404D01*
X82244209Y-6350762D01*
X82320007Y-6305330D01*
X82399894Y-6267546D01*
X82483099Y-6237775D01*
X82568821Y-6216303D01*
X82656236Y-6203336D01*
X82744500Y-6199000D01*
X84545500Y-6199000D01*
X84633764Y-6203336D01*
X84633764Y-6203336D01*
G37*
D22*
X83645000Y-8000000D03*
D23*
X71120000Y-15875000D03*
D24*
X68580000Y-15875000D03*
D23*
X57150000Y-15875000D03*
D24*
X54610000Y-15875000D03*
D23*
X64770000Y-15875000D03*
D24*
X62230000Y-15875000D03*
D23*
X50800000Y-15875000D03*
D24*
X48260000Y-15875000D03*
D23*
X43180000Y-15875000D03*
D24*
X40640000Y-15875000D03*
D23*
X29210000Y-15875000D03*
D24*
X26670000Y-15875000D03*
D23*
X36830000Y-15875000D03*
D24*
X34290000Y-15875000D03*
D23*
X22860000Y-15875000D03*
D24*
X20320000Y-15875000D03*
M02*
