%FSLAX45Y45*%
G04 Gerber Fmt 4.5, Leading zero omitted, Abs format (unit mm)*
G04 Created by KiCad (PCBNEW (5.1.9)-1) date 2021-10-14 10:16:45*
%MOMM*%
%LPD*%
G01*
G04 APERTURE LIST*
%TA.AperFunction,Profile*%
%ADD10C,0.050000*%
%TD*%
%ADD11C,0.200000*%
%ADD12C,0.300000*%
G04 APERTURE END LIST*
D10*
X317500Y-7493000D02*
G75*
G02*
X63500Y-7239000I0J254000D01*
G01*
X9080500Y-7239000D02*
G75*
G02*
X8826500Y-7493000I-254000J0D01*
G01*
X8826500Y-63500D02*
G75*
G02*
X9080500Y-317500I0J-254000D01*
G01*
X63500Y-317500D02*
G75*
G02*
X317500Y-63500I254000J0D01*
G01*
X8826500Y-63500D02*
X317500Y-63500D01*
X9080500Y-7239000D02*
X9080500Y-317500D01*
X317500Y-7493000D02*
X8826500Y-7493000D01*
X63500Y-317500D02*
X63500Y-7239000D01*
D11*
D12*
X347428Y-7961214D02*
X347428Y-7661214D01*
X418857Y-7661214D01*
X461714Y-7675500D01*
X490286Y-7704071D01*
X504571Y-7732643D01*
X518857Y-7789786D01*
X518857Y-7832643D01*
X504571Y-7889786D01*
X490286Y-7918357D01*
X461714Y-7946929D01*
X418857Y-7961214D01*
X347428Y-7961214D01*
X647428Y-7961214D02*
X647428Y-7761214D01*
X647428Y-7818357D02*
X661714Y-7789786D01*
X676000Y-7775500D01*
X704571Y-7761214D01*
X733143Y-7761214D01*
X833143Y-7961214D02*
X833143Y-7761214D01*
X833143Y-7661214D02*
X818857Y-7675500D01*
X833143Y-7689786D01*
X847428Y-7675500D01*
X833143Y-7661214D01*
X833143Y-7689786D01*
X1018857Y-7961214D02*
X990286Y-7946929D01*
X976000Y-7918357D01*
X976000Y-7661214D01*
X1176000Y-7961214D02*
X1147428Y-7946929D01*
X1133143Y-7918357D01*
X1133143Y-7661214D01*
X1518857Y-7961214D02*
X1518857Y-7661214D01*
X1618857Y-7875500D01*
X1718857Y-7661214D01*
X1718857Y-7961214D01*
X1990286Y-7961214D02*
X1990286Y-7804071D01*
X1976000Y-7775500D01*
X1947428Y-7761214D01*
X1890286Y-7761214D01*
X1861714Y-7775500D01*
X1990286Y-7946929D02*
X1961714Y-7961214D01*
X1890286Y-7961214D01*
X1861714Y-7946929D01*
X1847428Y-7918357D01*
X1847428Y-7889786D01*
X1861714Y-7861214D01*
X1890286Y-7846929D01*
X1961714Y-7846929D01*
X1990286Y-7832643D01*
X2133143Y-7761214D02*
X2133143Y-8061214D01*
X2133143Y-7775500D02*
X2161714Y-7761214D01*
X2218857Y-7761214D01*
X2247428Y-7775500D01*
X2261714Y-7789786D01*
X2276000Y-7818357D01*
X2276000Y-7904071D01*
X2261714Y-7932643D01*
X2247428Y-7946929D01*
X2218857Y-7961214D01*
X2161714Y-7961214D01*
X2133143Y-7946929D01*
X2404571Y-7932643D02*
X2418857Y-7946929D01*
X2404571Y-7961214D01*
X2390286Y-7946929D01*
X2404571Y-7932643D01*
X2404571Y-7961214D01*
X2404571Y-7775500D02*
X2418857Y-7789786D01*
X2404571Y-7804071D01*
X2390286Y-7789786D01*
X2404571Y-7775500D01*
X2404571Y-7804071D01*
M02*
