G04 #@! TF.GenerationSoftware,KiCad,Pcbnew,(5.1.9)-1*
G04 #@! TF.CreationDate,2021-10-14T10:16:43-04:00*
G04 #@! TF.ProjectId,doublemagfixture,646f7562-6c65-46d6-9167-666978747572,rev?*
G04 #@! TF.SameCoordinates,Original*
G04 #@! TF.FileFunction,Legend,Bot*
G04 #@! TF.FilePolarity,Positive*
%FSLAX46Y46*%
G04 Gerber Fmt 4.6, Leading zero omitted, Abs format (unit mm)*
G04 Created by KiCad (PCBNEW (5.1.9)-1) date 2021-10-14 10:16:43*
%MOMM*%
%LPD*%
G01*
G04 APERTURE LIST*
%ADD10C,0.150000*%
%ADD11C,0.120000*%
%ADD12C,1.524000*%
%ADD13R,1.524000X1.524000*%
%ADD14C,1.800000*%
%ADD15R,1.800000X1.800000*%
%ADD16C,6.400000*%
%ADD17O,1.600000X1.600000*%
%ADD18C,1.600000*%
%ADD19C,2.000000*%
%ADD20R,2.000000X2.000000*%
%ADD21R,3.500000X3.500000*%
G04 APERTURE END LIST*
D10*
X87191904Y-48374761D02*
X87763333Y-48374761D01*
X87877619Y-48336666D01*
X87953809Y-48260476D01*
X87991904Y-48146190D01*
X87991904Y-48070000D01*
X87991904Y-49136666D02*
X87991904Y-48755714D01*
X87191904Y-48755714D01*
X87915714Y-49860476D02*
X87953809Y-49822380D01*
X87991904Y-49708095D01*
X87991904Y-49631904D01*
X87953809Y-49517619D01*
X87877619Y-49441428D01*
X87801428Y-49403333D01*
X87649047Y-49365238D01*
X87534761Y-49365238D01*
X87382380Y-49403333D01*
X87306190Y-49441428D01*
X87230000Y-49517619D01*
X87191904Y-49631904D01*
X87191904Y-49708095D01*
X87230000Y-49822380D01*
X87268095Y-49860476D01*
X87191904Y-50431904D02*
X87763333Y-50431904D01*
X87877619Y-50393809D01*
X87953809Y-50317619D01*
X87991904Y-50203333D01*
X87991904Y-50127142D01*
X87991904Y-51193809D02*
X87991904Y-50812857D01*
X87191904Y-50812857D01*
X87915714Y-51917619D02*
X87953809Y-51879523D01*
X87991904Y-51765238D01*
X87991904Y-51689047D01*
X87953809Y-51574761D01*
X87877619Y-51498571D01*
X87801428Y-51460476D01*
X87649047Y-51422380D01*
X87534761Y-51422380D01*
X87382380Y-51460476D01*
X87306190Y-51498571D01*
X87230000Y-51574761D01*
X87191904Y-51689047D01*
X87191904Y-51765238D01*
X87230000Y-51879523D01*
X87268095Y-51917619D01*
X87191904Y-52489047D02*
X87763333Y-52489047D01*
X87877619Y-52450952D01*
X87953809Y-52374761D01*
X87991904Y-52260476D01*
X87991904Y-52184285D01*
X87991904Y-53250952D02*
X87991904Y-52870000D01*
X87191904Y-52870000D01*
X87915714Y-53974761D02*
X87953809Y-53936666D01*
X87991904Y-53822380D01*
X87991904Y-53746190D01*
X87953809Y-53631904D01*
X87877619Y-53555714D01*
X87801428Y-53517619D01*
X87649047Y-53479523D01*
X87534761Y-53479523D01*
X87382380Y-53517619D01*
X87306190Y-53555714D01*
X87230000Y-53631904D01*
X87191904Y-53746190D01*
X87191904Y-53822380D01*
X87230000Y-53936666D01*
X87268095Y-53974761D01*
X87191904Y-54546190D02*
X87763333Y-54546190D01*
X87877619Y-54508095D01*
X87953809Y-54431904D01*
X87991904Y-54317619D01*
X87991904Y-54241428D01*
X87991904Y-55308095D02*
X87991904Y-54927142D01*
X87191904Y-54927142D01*
X87915714Y-56031904D02*
X87953809Y-55993809D01*
X87991904Y-55879523D01*
X87991904Y-55803333D01*
X87953809Y-55689047D01*
X87877619Y-55612857D01*
X87801428Y-55574761D01*
X87649047Y-55536666D01*
X87534761Y-55536666D01*
X87382380Y-55574761D01*
X87306190Y-55612857D01*
X87230000Y-55689047D01*
X87191904Y-55803333D01*
X87191904Y-55879523D01*
X87230000Y-55993809D01*
X87268095Y-56031904D01*
X62738095Y-1500238D02*
X62880952Y-1452619D01*
X63119047Y-1452619D01*
X63214285Y-1500238D01*
X63261904Y-1547857D01*
X63309523Y-1643095D01*
X63309523Y-1738333D01*
X63261904Y-1833571D01*
X63214285Y-1881190D01*
X63119047Y-1928809D01*
X62928571Y-1976428D01*
X62833333Y-2024047D01*
X62785714Y-2071666D01*
X62738095Y-2166904D01*
X62738095Y-2262142D01*
X62785714Y-2357380D01*
X62833333Y-2405000D01*
X62928571Y-2452619D01*
X63166666Y-2452619D01*
X63309523Y-2405000D01*
X63642857Y-2452619D02*
X64261904Y-2452619D01*
X63928571Y-2071666D01*
X64071428Y-2071666D01*
X64166666Y-2024047D01*
X64214285Y-1976428D01*
X64261904Y-1881190D01*
X64261904Y-1643095D01*
X64214285Y-1547857D01*
X64166666Y-1500238D01*
X64071428Y-1452619D01*
X63785714Y-1452619D01*
X63690476Y-1500238D01*
X63642857Y-1547857D01*
X77978095Y-1500238D02*
X78120952Y-1452619D01*
X78359047Y-1452619D01*
X78454285Y-1500238D01*
X78501904Y-1547857D01*
X78549523Y-1643095D01*
X78549523Y-1738333D01*
X78501904Y-1833571D01*
X78454285Y-1881190D01*
X78359047Y-1928809D01*
X78168571Y-1976428D01*
X78073333Y-2024047D01*
X78025714Y-2071666D01*
X77978095Y-2166904D01*
X77978095Y-2262142D01*
X78025714Y-2357380D01*
X78073333Y-2405000D01*
X78168571Y-2452619D01*
X78406666Y-2452619D01*
X78549523Y-2405000D01*
X79501904Y-1452619D02*
X78930476Y-1452619D01*
X79216190Y-1452619D02*
X79216190Y-2452619D01*
X79120952Y-2309761D01*
X79025714Y-2214523D01*
X78930476Y-2166904D01*
X58951904Y-1452619D02*
X58951904Y-2452619D01*
X59190000Y-2452619D01*
X59332857Y-2405000D01*
X59428095Y-2309761D01*
X59475714Y-2214523D01*
X59523333Y-2024047D01*
X59523333Y-1881190D01*
X59475714Y-1690714D01*
X59428095Y-1595476D01*
X59332857Y-1500238D01*
X59190000Y-1452619D01*
X58951904Y-1452619D01*
X59856666Y-2452619D02*
X60475714Y-2452619D01*
X60142380Y-2071666D01*
X60285238Y-2071666D01*
X60380476Y-2024047D01*
X60428095Y-1976428D01*
X60475714Y-1881190D01*
X60475714Y-1643095D01*
X60428095Y-1547857D01*
X60380476Y-1500238D01*
X60285238Y-1452619D01*
X59999523Y-1452619D01*
X59904285Y-1500238D01*
X59856666Y-1547857D01*
X85598095Y-1500238D02*
X85740952Y-1452619D01*
X85979047Y-1452619D01*
X86074285Y-1500238D01*
X86121904Y-1547857D01*
X86169523Y-1643095D01*
X86169523Y-1738333D01*
X86121904Y-1833571D01*
X86074285Y-1881190D01*
X85979047Y-1928809D01*
X85788571Y-1976428D01*
X85693333Y-2024047D01*
X85645714Y-2071666D01*
X85598095Y-2166904D01*
X85598095Y-2262142D01*
X85645714Y-2357380D01*
X85693333Y-2405000D01*
X85788571Y-2452619D01*
X86026666Y-2452619D01*
X86169523Y-2405000D01*
X86788571Y-2452619D02*
X86883809Y-2452619D01*
X86979047Y-2405000D01*
X87026666Y-2357380D01*
X87074285Y-2262142D01*
X87121904Y-2071666D01*
X87121904Y-1833571D01*
X87074285Y-1643095D01*
X87026666Y-1547857D01*
X86979047Y-1500238D01*
X86883809Y-1452619D01*
X86788571Y-1452619D01*
X86693333Y-1500238D01*
X86645714Y-1547857D01*
X86598095Y-1643095D01*
X86550476Y-1833571D01*
X86550476Y-2071666D01*
X86598095Y-2262142D01*
X86645714Y-2357380D01*
X86693333Y-2405000D01*
X86788571Y-2452619D01*
X66571904Y-1452619D02*
X66571904Y-2452619D01*
X66810000Y-2452619D01*
X66952857Y-2405000D01*
X67048095Y-2309761D01*
X67095714Y-2214523D01*
X67143333Y-2024047D01*
X67143333Y-1881190D01*
X67095714Y-1690714D01*
X67048095Y-1595476D01*
X66952857Y-1500238D01*
X66810000Y-1452619D01*
X66571904Y-1452619D01*
X67524285Y-2357380D02*
X67571904Y-2405000D01*
X67667142Y-2452619D01*
X67905238Y-2452619D01*
X68000476Y-2405000D01*
X68048095Y-2357380D01*
X68095714Y-2262142D01*
X68095714Y-2166904D01*
X68048095Y-2024047D01*
X67476666Y-1452619D01*
X68095714Y-1452619D01*
X74191904Y-1452619D02*
X74191904Y-2452619D01*
X74430000Y-2452619D01*
X74572857Y-2405000D01*
X74668095Y-2309761D01*
X74715714Y-2214523D01*
X74763333Y-2024047D01*
X74763333Y-1881190D01*
X74715714Y-1690714D01*
X74668095Y-1595476D01*
X74572857Y-1500238D01*
X74430000Y-1452619D01*
X74191904Y-1452619D01*
X75715714Y-1452619D02*
X75144285Y-1452619D01*
X75430000Y-1452619D02*
X75430000Y-2452619D01*
X75334761Y-2309761D01*
X75239523Y-2214523D01*
X75144285Y-2166904D01*
X70358095Y-1500238D02*
X70500952Y-1452619D01*
X70739047Y-1452619D01*
X70834285Y-1500238D01*
X70881904Y-1547857D01*
X70929523Y-1643095D01*
X70929523Y-1738333D01*
X70881904Y-1833571D01*
X70834285Y-1881190D01*
X70739047Y-1928809D01*
X70548571Y-1976428D01*
X70453333Y-2024047D01*
X70405714Y-2071666D01*
X70358095Y-2166904D01*
X70358095Y-2262142D01*
X70405714Y-2357380D01*
X70453333Y-2405000D01*
X70548571Y-2452619D01*
X70786666Y-2452619D01*
X70929523Y-2405000D01*
X71310476Y-2357380D02*
X71358095Y-2405000D01*
X71453333Y-2452619D01*
X71691428Y-2452619D01*
X71786666Y-2405000D01*
X71834285Y-2357380D01*
X71881904Y-2262142D01*
X71881904Y-2166904D01*
X71834285Y-2024047D01*
X71262857Y-1452619D01*
X71881904Y-1452619D01*
X81811904Y-1452619D02*
X81811904Y-2452619D01*
X82050000Y-2452619D01*
X82192857Y-2405000D01*
X82288095Y-2309761D01*
X82335714Y-2214523D01*
X82383333Y-2024047D01*
X82383333Y-1881190D01*
X82335714Y-1690714D01*
X82288095Y-1595476D01*
X82192857Y-1500238D01*
X82050000Y-1452619D01*
X81811904Y-1452619D01*
X83002380Y-2452619D02*
X83097619Y-2452619D01*
X83192857Y-2405000D01*
X83240476Y-2357380D01*
X83288095Y-2262142D01*
X83335714Y-2071666D01*
X83335714Y-1833571D01*
X83288095Y-1643095D01*
X83240476Y-1547857D01*
X83192857Y-1500238D01*
X83097619Y-1452619D01*
X83002380Y-1452619D01*
X82907142Y-1500238D01*
X82859523Y-1547857D01*
X82811904Y-1643095D01*
X82764285Y-1833571D01*
X82764285Y-2071666D01*
X82811904Y-2262142D01*
X82859523Y-2357380D01*
X82907142Y-2405000D01*
X83002380Y-2452619D01*
X26503333Y-1452619D02*
X26027142Y-1452619D01*
X26027142Y-2452619D01*
X27360476Y-1452619D02*
X26789047Y-1452619D01*
X27074761Y-1452619D02*
X27074761Y-2452619D01*
X26979523Y-2309761D01*
X26884285Y-2214523D01*
X26789047Y-2166904D01*
X30313333Y-1452619D02*
X29837142Y-1452619D01*
X29837142Y-2452619D01*
X30837142Y-2452619D02*
X30932380Y-2452619D01*
X31027619Y-2405000D01*
X31075238Y-2357380D01*
X31122857Y-2262142D01*
X31170476Y-2071666D01*
X31170476Y-1833571D01*
X31122857Y-1643095D01*
X31075238Y-1547857D01*
X31027619Y-1500238D01*
X30932380Y-1452619D01*
X30837142Y-1452619D01*
X30741904Y-1500238D01*
X30694285Y-1547857D01*
X30646666Y-1643095D01*
X30599047Y-1833571D01*
X30599047Y-2071666D01*
X30646666Y-2262142D01*
X30694285Y-2357380D01*
X30741904Y-2405000D01*
X30837142Y-2452619D01*
X12843095Y-1833571D02*
X13605000Y-1833571D01*
X13224047Y-1452619D02*
X13224047Y-2214523D01*
X14605000Y-1452619D02*
X14033571Y-1452619D01*
X14319285Y-1452619D02*
X14319285Y-2452619D01*
X14224047Y-2309761D01*
X14128809Y-2214523D01*
X14033571Y-2166904D01*
X14985952Y-2357380D02*
X15033571Y-2405000D01*
X15128809Y-2452619D01*
X15366904Y-2452619D01*
X15462142Y-2405000D01*
X15509761Y-2357380D01*
X15557380Y-2262142D01*
X15557380Y-2166904D01*
X15509761Y-2024047D01*
X14938333Y-1452619D01*
X15557380Y-1452619D01*
X15843095Y-2452619D02*
X16176428Y-1452619D01*
X16509761Y-2452619D01*
X34123333Y-1452619D02*
X33647142Y-1452619D01*
X33647142Y-2452619D01*
X34980476Y-1452619D02*
X34409047Y-1452619D01*
X34694761Y-1452619D02*
X34694761Y-2452619D01*
X34599523Y-2309761D01*
X34504285Y-2214523D01*
X34409047Y-2166904D01*
X41148095Y-2405000D02*
X41052857Y-2452619D01*
X40910000Y-2452619D01*
X40767142Y-2405000D01*
X40671904Y-2309761D01*
X40624285Y-2214523D01*
X40576666Y-2024047D01*
X40576666Y-1881190D01*
X40624285Y-1690714D01*
X40671904Y-1595476D01*
X40767142Y-1500238D01*
X40910000Y-1452619D01*
X41005238Y-1452619D01*
X41148095Y-1500238D01*
X41195714Y-1547857D01*
X41195714Y-1881190D01*
X41005238Y-1881190D01*
X41624285Y-1452619D02*
X41624285Y-2452619D01*
X42195714Y-1452619D01*
X42195714Y-2452619D01*
X42671904Y-1452619D02*
X42671904Y-2452619D01*
X42910000Y-2452619D01*
X43052857Y-2405000D01*
X43148095Y-2309761D01*
X43195714Y-2214523D01*
X43243333Y-2024047D01*
X43243333Y-1881190D01*
X43195714Y-1690714D01*
X43148095Y-1595476D01*
X43052857Y-1500238D01*
X42910000Y-1452619D01*
X42671904Y-1452619D01*
X22693333Y-1452619D02*
X22217142Y-1452619D01*
X22217142Y-2452619D01*
X23217142Y-2452619D02*
X23312380Y-2452619D01*
X23407619Y-2405000D01*
X23455238Y-2357380D01*
X23502857Y-2262142D01*
X23550476Y-2071666D01*
X23550476Y-1833571D01*
X23502857Y-1643095D01*
X23455238Y-1547857D01*
X23407619Y-1500238D01*
X23312380Y-1452619D01*
X23217142Y-1452619D01*
X23121904Y-1500238D01*
X23074285Y-1547857D01*
X23026666Y-1643095D01*
X22979047Y-1833571D01*
X22979047Y-2071666D01*
X23026666Y-2262142D01*
X23074285Y-2357380D01*
X23121904Y-2405000D01*
X23217142Y-2452619D01*
X37338095Y-2405000D02*
X37242857Y-2452619D01*
X37100000Y-2452619D01*
X36957142Y-2405000D01*
X36861904Y-2309761D01*
X36814285Y-2214523D01*
X36766666Y-2024047D01*
X36766666Y-1881190D01*
X36814285Y-1690714D01*
X36861904Y-1595476D01*
X36957142Y-1500238D01*
X37100000Y-1452619D01*
X37195238Y-1452619D01*
X37338095Y-1500238D01*
X37385714Y-1547857D01*
X37385714Y-1881190D01*
X37195238Y-1881190D01*
X37814285Y-1452619D02*
X37814285Y-2452619D01*
X38385714Y-1452619D01*
X38385714Y-2452619D01*
X38861904Y-1452619D02*
X38861904Y-2452619D01*
X39100000Y-2452619D01*
X39242857Y-2405000D01*
X39338095Y-2309761D01*
X39385714Y-2214523D01*
X39433333Y-2024047D01*
X39433333Y-1881190D01*
X39385714Y-1690714D01*
X39338095Y-1595476D01*
X39242857Y-1500238D01*
X39100000Y-1452619D01*
X38861904Y-1452619D01*
X17764285Y-1833571D02*
X18526190Y-1833571D01*
X18145238Y-1452619D02*
X18145238Y-2214523D01*
X19478571Y-2452619D02*
X19002380Y-2452619D01*
X18954761Y-1976428D01*
X19002380Y-2024047D01*
X19097619Y-2071666D01*
X19335714Y-2071666D01*
X19430952Y-2024047D01*
X19478571Y-1976428D01*
X19526190Y-1881190D01*
X19526190Y-1643095D01*
X19478571Y-1547857D01*
X19430952Y-1500238D01*
X19335714Y-1452619D01*
X19097619Y-1452619D01*
X19002380Y-1500238D01*
X18954761Y-1547857D01*
X19811904Y-2452619D02*
X20145238Y-1452619D01*
X20478571Y-2452619D01*
X67532142Y-73826666D02*
X67055952Y-73826666D01*
X67627380Y-74112380D02*
X67294047Y-73112380D01*
X66960714Y-74112380D01*
X66627380Y-73731428D02*
X65865476Y-73731428D01*
X31972142Y-73826666D02*
X31495952Y-73826666D01*
X32067380Y-74112380D02*
X31734047Y-73112380D01*
X31400714Y-74112380D01*
X31067380Y-73731428D02*
X30305476Y-73731428D01*
X60872619Y-73588571D02*
X60729761Y-73636190D01*
X60682142Y-73683809D01*
X60634523Y-73779047D01*
X60634523Y-73921904D01*
X60682142Y-74017142D01*
X60729761Y-74064761D01*
X60825000Y-74112380D01*
X61205952Y-74112380D01*
X61205952Y-73112380D01*
X60872619Y-73112380D01*
X60777380Y-73160000D01*
X60729761Y-73207619D01*
X60682142Y-73302857D01*
X60682142Y-73398095D01*
X60729761Y-73493333D01*
X60777380Y-73540952D01*
X60872619Y-73588571D01*
X61205952Y-73588571D01*
X60205952Y-73731428D02*
X59444047Y-73731428D01*
X59825000Y-74112380D02*
X59825000Y-73350476D01*
X43092619Y-73588571D02*
X42949761Y-73636190D01*
X42902142Y-73683809D01*
X42854523Y-73779047D01*
X42854523Y-73921904D01*
X42902142Y-74017142D01*
X42949761Y-74064761D01*
X43045000Y-74112380D01*
X43425952Y-74112380D01*
X43425952Y-73112380D01*
X43092619Y-73112380D01*
X42997380Y-73160000D01*
X42949761Y-73207619D01*
X42902142Y-73302857D01*
X42902142Y-73398095D01*
X42949761Y-73493333D01*
X42997380Y-73540952D01*
X43092619Y-73588571D01*
X43425952Y-73588571D01*
X42425952Y-73731428D02*
X41664047Y-73731428D01*
X42045000Y-74112380D02*
X42045000Y-73350476D01*
X78652619Y-73588571D02*
X78509761Y-73636190D01*
X78462142Y-73683809D01*
X78414523Y-73779047D01*
X78414523Y-73921904D01*
X78462142Y-74017142D01*
X78509761Y-74064761D01*
X78605000Y-74112380D01*
X78985952Y-74112380D01*
X78985952Y-73112380D01*
X78652619Y-73112380D01*
X78557380Y-73160000D01*
X78509761Y-73207619D01*
X78462142Y-73302857D01*
X78462142Y-73398095D01*
X78509761Y-73493333D01*
X78557380Y-73540952D01*
X78652619Y-73588571D01*
X78985952Y-73588571D01*
X77985952Y-73731428D02*
X77224047Y-73731428D01*
X77605000Y-74112380D02*
X77605000Y-73350476D01*
X49752142Y-73826666D02*
X49275952Y-73826666D01*
X49847380Y-74112380D02*
X49514047Y-73112380D01*
X49180714Y-74112380D01*
X48847380Y-73731428D02*
X48085476Y-73731428D01*
X21502619Y-73588571D02*
X21359761Y-73636190D01*
X21312142Y-73683809D01*
X21264523Y-73779047D01*
X21264523Y-73921904D01*
X21312142Y-74017142D01*
X21359761Y-74064761D01*
X21455000Y-74112380D01*
X21835952Y-74112380D01*
X21835952Y-73112380D01*
X21502619Y-73112380D01*
X21407380Y-73160000D01*
X21359761Y-73207619D01*
X21312142Y-73302857D01*
X21312142Y-73398095D01*
X21359761Y-73493333D01*
X21407380Y-73540952D01*
X21502619Y-73588571D01*
X21835952Y-73588571D01*
X20835952Y-73731428D02*
X20074047Y-73731428D01*
X71342142Y-73826666D02*
X70865952Y-73826666D01*
X71437380Y-74112380D02*
X71104047Y-73112380D01*
X70770714Y-74112380D01*
X70437380Y-73731428D02*
X69675476Y-73731428D01*
X70056428Y-74112380D02*
X70056428Y-73350476D01*
X53562142Y-73826666D02*
X53085952Y-73826666D01*
X53657380Y-74112380D02*
X53324047Y-73112380D01*
X52990714Y-74112380D01*
X52657380Y-73731428D02*
X51895476Y-73731428D01*
X52276428Y-74112380D02*
X52276428Y-73350476D01*
X39282619Y-73588571D02*
X39139761Y-73636190D01*
X39092142Y-73683809D01*
X39044523Y-73779047D01*
X39044523Y-73921904D01*
X39092142Y-74017142D01*
X39139761Y-74064761D01*
X39235000Y-74112380D01*
X39615952Y-74112380D01*
X39615952Y-73112380D01*
X39282619Y-73112380D01*
X39187380Y-73160000D01*
X39139761Y-73207619D01*
X39092142Y-73302857D01*
X39092142Y-73398095D01*
X39139761Y-73493333D01*
X39187380Y-73540952D01*
X39282619Y-73588571D01*
X39615952Y-73588571D01*
X38615952Y-73731428D02*
X37854047Y-73731428D01*
X25312619Y-73588571D02*
X25169761Y-73636190D01*
X25122142Y-73683809D01*
X25074523Y-73779047D01*
X25074523Y-73921904D01*
X25122142Y-74017142D01*
X25169761Y-74064761D01*
X25265000Y-74112380D01*
X25645952Y-74112380D01*
X25645952Y-73112380D01*
X25312619Y-73112380D01*
X25217380Y-73160000D01*
X25169761Y-73207619D01*
X25122142Y-73302857D01*
X25122142Y-73398095D01*
X25169761Y-73493333D01*
X25217380Y-73540952D01*
X25312619Y-73588571D01*
X25645952Y-73588571D01*
X24645952Y-73731428D02*
X23884047Y-73731428D01*
X24265000Y-74112380D02*
X24265000Y-73350476D01*
X18002142Y-73826666D02*
X17525952Y-73826666D01*
X18097380Y-74112380D02*
X17764047Y-73112380D01*
X17430714Y-74112380D01*
X17097380Y-73731428D02*
X16335476Y-73731428D01*
X16716428Y-74112380D02*
X16716428Y-73350476D01*
X57062619Y-73588571D02*
X56919761Y-73636190D01*
X56872142Y-73683809D01*
X56824523Y-73779047D01*
X56824523Y-73921904D01*
X56872142Y-74017142D01*
X56919761Y-74064761D01*
X57015000Y-74112380D01*
X57395952Y-74112380D01*
X57395952Y-73112380D01*
X57062619Y-73112380D01*
X56967380Y-73160000D01*
X56919761Y-73207619D01*
X56872142Y-73302857D01*
X56872142Y-73398095D01*
X56919761Y-73493333D01*
X56967380Y-73540952D01*
X57062619Y-73588571D01*
X57395952Y-73588571D01*
X56395952Y-73731428D02*
X55634047Y-73731428D01*
X74842619Y-73588571D02*
X74699761Y-73636190D01*
X74652142Y-73683809D01*
X74604523Y-73779047D01*
X74604523Y-73921904D01*
X74652142Y-74017142D01*
X74699761Y-74064761D01*
X74795000Y-74112380D01*
X75175952Y-74112380D01*
X75175952Y-73112380D01*
X74842619Y-73112380D01*
X74747380Y-73160000D01*
X74699761Y-73207619D01*
X74652142Y-73302857D01*
X74652142Y-73398095D01*
X74699761Y-73493333D01*
X74747380Y-73540952D01*
X74842619Y-73588571D01*
X75175952Y-73588571D01*
X74175952Y-73731428D02*
X73414047Y-73731428D01*
X35782142Y-73826666D02*
X35305952Y-73826666D01*
X35877380Y-74112380D02*
X35544047Y-73112380D01*
X35210714Y-74112380D01*
X34877380Y-73731428D02*
X34115476Y-73731428D01*
X34496428Y-74112380D02*
X34496428Y-73350476D01*
X14192142Y-73826666D02*
X13715952Y-73826666D01*
X14287380Y-74112380D02*
X13954047Y-73112380D01*
X13620714Y-74112380D01*
X13287380Y-73731428D02*
X12525476Y-73731428D01*
D11*
X13970000Y-30075000D02*
X13970000Y-29305000D01*
X13970000Y-21995000D02*
X13970000Y-22765000D01*
X12600000Y-29305000D02*
X12600000Y-22765000D01*
X15340000Y-29305000D02*
X12600000Y-29305000D01*
X15340000Y-22765000D02*
X15340000Y-29305000D01*
X12600000Y-22765000D02*
X15340000Y-22765000D01*
X8890000Y-30075000D02*
X8890000Y-29305000D01*
X8890000Y-21995000D02*
X8890000Y-22765000D01*
X7520000Y-29305000D02*
X7520000Y-22765000D01*
X10260000Y-29305000D02*
X7520000Y-29305000D01*
X10260000Y-22765000D02*
X10260000Y-29305000D01*
X7520000Y-22765000D02*
X10260000Y-22765000D01*
X34925000Y-30075000D02*
X34925000Y-29305000D01*
X34925000Y-21995000D02*
X34925000Y-22765000D01*
X33555000Y-29305000D02*
X33555000Y-22765000D01*
X36295000Y-29305000D02*
X33555000Y-29305000D01*
X36295000Y-22765000D02*
X36295000Y-29305000D01*
X33555000Y-22765000D02*
X36295000Y-22765000D01*
X29845000Y-30075000D02*
X29845000Y-29305000D01*
X29845000Y-21995000D02*
X29845000Y-22765000D01*
X28475000Y-29305000D02*
X28475000Y-22765000D01*
X31215000Y-29305000D02*
X28475000Y-29305000D01*
X31215000Y-22765000D02*
X31215000Y-29305000D01*
X28475000Y-22765000D02*
X31215000Y-22765000D01*
X55880000Y-30075000D02*
X55880000Y-29305000D01*
X55880000Y-21995000D02*
X55880000Y-22765000D01*
X54510000Y-29305000D02*
X54510000Y-22765000D01*
X57250000Y-29305000D02*
X54510000Y-29305000D01*
X57250000Y-22765000D02*
X57250000Y-29305000D01*
X54510000Y-22765000D02*
X57250000Y-22765000D01*
X50800000Y-30075000D02*
X50800000Y-29305000D01*
X50800000Y-21995000D02*
X50800000Y-22765000D01*
X49430000Y-29305000D02*
X49430000Y-22765000D01*
X52170000Y-29305000D02*
X49430000Y-29305000D01*
X52170000Y-22765000D02*
X52170000Y-29305000D01*
X49430000Y-22765000D02*
X52170000Y-22765000D01*
X76835000Y-30075000D02*
X76835000Y-29305000D01*
X76835000Y-21995000D02*
X76835000Y-22765000D01*
X75465000Y-29305000D02*
X75465000Y-22765000D01*
X78205000Y-29305000D02*
X75465000Y-29305000D01*
X78205000Y-22765000D02*
X78205000Y-29305000D01*
X75465000Y-22765000D02*
X78205000Y-22765000D01*
X71755000Y-30075000D02*
X71755000Y-29305000D01*
X71755000Y-21995000D02*
X71755000Y-22765000D01*
X70385000Y-29305000D02*
X70385000Y-22765000D01*
X73125000Y-29305000D02*
X70385000Y-29305000D01*
X73125000Y-22765000D02*
X73125000Y-29305000D01*
X70385000Y-22765000D02*
X73125000Y-22765000D01*
D10*
X12052380Y-25868333D02*
X11576190Y-25535000D01*
X12052380Y-25296904D02*
X11052380Y-25296904D01*
X11052380Y-25677857D01*
X11100000Y-25773095D01*
X11147619Y-25820714D01*
X11242857Y-25868333D01*
X11385714Y-25868333D01*
X11480952Y-25820714D01*
X11528571Y-25773095D01*
X11576190Y-25677857D01*
X11576190Y-25296904D01*
X11480952Y-26439761D02*
X11433333Y-26344523D01*
X11385714Y-26296904D01*
X11290476Y-26249285D01*
X11242857Y-26249285D01*
X11147619Y-26296904D01*
X11100000Y-26344523D01*
X11052380Y-26439761D01*
X11052380Y-26630238D01*
X11100000Y-26725476D01*
X11147619Y-26773095D01*
X11242857Y-26820714D01*
X11290476Y-26820714D01*
X11385714Y-26773095D01*
X11433333Y-26725476D01*
X11480952Y-26630238D01*
X11480952Y-26439761D01*
X11528571Y-26344523D01*
X11576190Y-26296904D01*
X11671428Y-26249285D01*
X11861904Y-26249285D01*
X11957142Y-26296904D01*
X12004761Y-26344523D01*
X12052380Y-26439761D01*
X12052380Y-26630238D01*
X12004761Y-26725476D01*
X11957142Y-26773095D01*
X11861904Y-26820714D01*
X11671428Y-26820714D01*
X11576190Y-26773095D01*
X11528571Y-26725476D01*
X11480952Y-26630238D01*
X6972380Y-25868333D02*
X6496190Y-25535000D01*
X6972380Y-25296904D02*
X5972380Y-25296904D01*
X5972380Y-25677857D01*
X6020000Y-25773095D01*
X6067619Y-25820714D01*
X6162857Y-25868333D01*
X6305714Y-25868333D01*
X6400952Y-25820714D01*
X6448571Y-25773095D01*
X6496190Y-25677857D01*
X6496190Y-25296904D01*
X5972380Y-26201666D02*
X5972380Y-26868333D01*
X6972380Y-26439761D01*
X33007380Y-25868333D02*
X32531190Y-25535000D01*
X33007380Y-25296904D02*
X32007380Y-25296904D01*
X32007380Y-25677857D01*
X32055000Y-25773095D01*
X32102619Y-25820714D01*
X32197857Y-25868333D01*
X32340714Y-25868333D01*
X32435952Y-25820714D01*
X32483571Y-25773095D01*
X32531190Y-25677857D01*
X32531190Y-25296904D01*
X32007380Y-26725476D02*
X32007380Y-26535000D01*
X32055000Y-26439761D01*
X32102619Y-26392142D01*
X32245476Y-26296904D01*
X32435952Y-26249285D01*
X32816904Y-26249285D01*
X32912142Y-26296904D01*
X32959761Y-26344523D01*
X33007380Y-26439761D01*
X33007380Y-26630238D01*
X32959761Y-26725476D01*
X32912142Y-26773095D01*
X32816904Y-26820714D01*
X32578809Y-26820714D01*
X32483571Y-26773095D01*
X32435952Y-26725476D01*
X32388333Y-26630238D01*
X32388333Y-26439761D01*
X32435952Y-26344523D01*
X32483571Y-26296904D01*
X32578809Y-26249285D01*
X27927380Y-25868333D02*
X27451190Y-25535000D01*
X27927380Y-25296904D02*
X26927380Y-25296904D01*
X26927380Y-25677857D01*
X26975000Y-25773095D01*
X27022619Y-25820714D01*
X27117857Y-25868333D01*
X27260714Y-25868333D01*
X27355952Y-25820714D01*
X27403571Y-25773095D01*
X27451190Y-25677857D01*
X27451190Y-25296904D01*
X26927380Y-26773095D02*
X26927380Y-26296904D01*
X27403571Y-26249285D01*
X27355952Y-26296904D01*
X27308333Y-26392142D01*
X27308333Y-26630238D01*
X27355952Y-26725476D01*
X27403571Y-26773095D01*
X27498809Y-26820714D01*
X27736904Y-26820714D01*
X27832142Y-26773095D01*
X27879761Y-26725476D01*
X27927380Y-26630238D01*
X27927380Y-26392142D01*
X27879761Y-26296904D01*
X27832142Y-26249285D01*
X53962380Y-25868333D02*
X53486190Y-25535000D01*
X53962380Y-25296904D02*
X52962380Y-25296904D01*
X52962380Y-25677857D01*
X53010000Y-25773095D01*
X53057619Y-25820714D01*
X53152857Y-25868333D01*
X53295714Y-25868333D01*
X53390952Y-25820714D01*
X53438571Y-25773095D01*
X53486190Y-25677857D01*
X53486190Y-25296904D01*
X53295714Y-26725476D02*
X53962380Y-26725476D01*
X52914761Y-26487380D02*
X53629047Y-26249285D01*
X53629047Y-26868333D01*
X48882380Y-25868333D02*
X48406190Y-25535000D01*
X48882380Y-25296904D02*
X47882380Y-25296904D01*
X47882380Y-25677857D01*
X47930000Y-25773095D01*
X47977619Y-25820714D01*
X48072857Y-25868333D01*
X48215714Y-25868333D01*
X48310952Y-25820714D01*
X48358571Y-25773095D01*
X48406190Y-25677857D01*
X48406190Y-25296904D01*
X47882380Y-26201666D02*
X47882380Y-26820714D01*
X48263333Y-26487380D01*
X48263333Y-26630238D01*
X48310952Y-26725476D01*
X48358571Y-26773095D01*
X48453809Y-26820714D01*
X48691904Y-26820714D01*
X48787142Y-26773095D01*
X48834761Y-26725476D01*
X48882380Y-26630238D01*
X48882380Y-26344523D01*
X48834761Y-26249285D01*
X48787142Y-26201666D01*
X74917380Y-25868333D02*
X74441190Y-25535000D01*
X74917380Y-25296904D02*
X73917380Y-25296904D01*
X73917380Y-25677857D01*
X73965000Y-25773095D01*
X74012619Y-25820714D01*
X74107857Y-25868333D01*
X74250714Y-25868333D01*
X74345952Y-25820714D01*
X74393571Y-25773095D01*
X74441190Y-25677857D01*
X74441190Y-25296904D01*
X74012619Y-26249285D02*
X73965000Y-26296904D01*
X73917380Y-26392142D01*
X73917380Y-26630238D01*
X73965000Y-26725476D01*
X74012619Y-26773095D01*
X74107857Y-26820714D01*
X74203095Y-26820714D01*
X74345952Y-26773095D01*
X74917380Y-26201666D01*
X74917380Y-26820714D01*
X69667380Y-25868333D02*
X69191190Y-25535000D01*
X69667380Y-25296904D02*
X68667380Y-25296904D01*
X68667380Y-25677857D01*
X68715000Y-25773095D01*
X68762619Y-25820714D01*
X68857857Y-25868333D01*
X69000714Y-25868333D01*
X69095952Y-25820714D01*
X69143571Y-25773095D01*
X69191190Y-25677857D01*
X69191190Y-25296904D01*
X69667380Y-26820714D02*
X69667380Y-26249285D01*
X69667380Y-26535000D02*
X68667380Y-26535000D01*
X68810238Y-26439761D01*
X68905476Y-26344523D01*
X68953095Y-26249285D01*
%LPC*%
D12*
X19050000Y-51435000D03*
X19050000Y-53975000D03*
X19050000Y-48895000D03*
X19050000Y-41275000D03*
X19050000Y-38735000D03*
X19050000Y-36195000D03*
X19050000Y-33655000D03*
X19050000Y-31115000D03*
X19050000Y-28575000D03*
X3810000Y-26035000D03*
X3810000Y-28575000D03*
X3810000Y-36195000D03*
X3810000Y-38735000D03*
X3810000Y-41275000D03*
X3810000Y-48895000D03*
X19050000Y-59055000D03*
X19050000Y-56515000D03*
X19050000Y-46355000D03*
X19050000Y-43815000D03*
X19050000Y-26035000D03*
X19050000Y-23495000D03*
X19050000Y-20955000D03*
X3810000Y-20955000D03*
X3810000Y-23495000D03*
X3810000Y-31115000D03*
X3810000Y-33655000D03*
X3810000Y-43815000D03*
X3810000Y-46355000D03*
X3810000Y-51435000D03*
X3810000Y-53975000D03*
X3810000Y-56515000D03*
D13*
X3810000Y-59055000D03*
D12*
X40005000Y-51435000D03*
X40005000Y-53975000D03*
X40005000Y-48895000D03*
X40005000Y-41275000D03*
X40005000Y-38735000D03*
X40005000Y-36195000D03*
X40005000Y-33655000D03*
X40005000Y-31115000D03*
X40005000Y-28575000D03*
X24765000Y-26035000D03*
X24765000Y-28575000D03*
X24765000Y-36195000D03*
X24765000Y-38735000D03*
X24765000Y-41275000D03*
X24765000Y-48895000D03*
X40005000Y-59055000D03*
X40005000Y-56515000D03*
X40005000Y-46355000D03*
X40005000Y-43815000D03*
X40005000Y-26035000D03*
X40005000Y-23495000D03*
X40005000Y-20955000D03*
X24765000Y-20955000D03*
X24765000Y-23495000D03*
X24765000Y-31115000D03*
X24765000Y-33655000D03*
X24765000Y-43815000D03*
X24765000Y-46355000D03*
X24765000Y-51435000D03*
X24765000Y-53975000D03*
X24765000Y-56515000D03*
D13*
X24765000Y-59055000D03*
D12*
X60960000Y-51435000D03*
X60960000Y-53975000D03*
X60960000Y-48895000D03*
X60960000Y-41275000D03*
X60960000Y-38735000D03*
X60960000Y-36195000D03*
X60960000Y-33655000D03*
X60960000Y-31115000D03*
X60960000Y-28575000D03*
X45720000Y-26035000D03*
X45720000Y-28575000D03*
X45720000Y-36195000D03*
X45720000Y-38735000D03*
X45720000Y-41275000D03*
X45720000Y-48895000D03*
X60960000Y-59055000D03*
X60960000Y-56515000D03*
X60960000Y-46355000D03*
X60960000Y-43815000D03*
X60960000Y-26035000D03*
X60960000Y-23495000D03*
X60960000Y-20955000D03*
X45720000Y-20955000D03*
X45720000Y-23495000D03*
X45720000Y-31115000D03*
X45720000Y-33655000D03*
X45720000Y-43815000D03*
X45720000Y-46355000D03*
X45720000Y-51435000D03*
X45720000Y-53975000D03*
X45720000Y-56515000D03*
D13*
X45720000Y-59055000D03*
D12*
X81915000Y-51435000D03*
X81915000Y-53975000D03*
X81915000Y-48895000D03*
X81915000Y-41275000D03*
X81915000Y-38735000D03*
X81915000Y-36195000D03*
X81915000Y-33655000D03*
X81915000Y-31115000D03*
X81915000Y-28575000D03*
X66675000Y-26035000D03*
X66675000Y-28575000D03*
X66675000Y-36195000D03*
X66675000Y-38735000D03*
X66675000Y-41275000D03*
X66675000Y-48895000D03*
X81915000Y-59055000D03*
X81915000Y-56515000D03*
X81915000Y-46355000D03*
X81915000Y-43815000D03*
X81915000Y-26035000D03*
X81915000Y-23495000D03*
X81915000Y-20955000D03*
X66675000Y-20955000D03*
X66675000Y-23495000D03*
X66675000Y-31115000D03*
X66675000Y-33655000D03*
X66675000Y-43815000D03*
X66675000Y-46355000D03*
X66675000Y-51435000D03*
X66675000Y-53975000D03*
X66675000Y-56515000D03*
D13*
X66675000Y-59055000D03*
D14*
X24765000Y-14605000D03*
D15*
X22225000Y-14605000D03*
D14*
X17780000Y-14605000D03*
D15*
X15240000Y-14605000D03*
D14*
X41910000Y-14605000D03*
D15*
X39370000Y-14605000D03*
D14*
X34925000Y-14605000D03*
D15*
X32385000Y-14605000D03*
D14*
X59055000Y-14605000D03*
D15*
X56515000Y-14605000D03*
D14*
X52070000Y-14605000D03*
D15*
X49530000Y-14605000D03*
D14*
X76200000Y-14605000D03*
D15*
X73660000Y-14605000D03*
D14*
X69215000Y-14605000D03*
D15*
X66675000Y-14605000D03*
D16*
X86360000Y-70485000D03*
X5080000Y-70485000D03*
X86360000Y-13970000D03*
D17*
X45720000Y-7620000D03*
D18*
X55880000Y-7620000D03*
D17*
X45720000Y-4445000D03*
D18*
X55880000Y-4445000D03*
D17*
X13970000Y-31115000D03*
D18*
X13970000Y-20955000D03*
D17*
X8890000Y-31115000D03*
D18*
X8890000Y-20955000D03*
D17*
X34925000Y-31115000D03*
D18*
X34925000Y-20955000D03*
D17*
X29845000Y-31115000D03*
D18*
X29845000Y-20955000D03*
D17*
X55880000Y-31115000D03*
D18*
X55880000Y-20955000D03*
D17*
X50800000Y-31115000D03*
D18*
X50800000Y-20955000D03*
D17*
X76835000Y-31115000D03*
D18*
X76835000Y-20955000D03*
D17*
X71755000Y-31115000D03*
D18*
X71755000Y-20955000D03*
D19*
X41910000Y-6350000D03*
X38100000Y-6350000D03*
X34290000Y-6350000D03*
X30480000Y-6350000D03*
X26670000Y-6350000D03*
X22860000Y-6350000D03*
X19050000Y-6350000D03*
D20*
X15240000Y-6350000D03*
D19*
X59690000Y-6350000D03*
X63500000Y-6350000D03*
X67310000Y-6350000D03*
X71120000Y-6350000D03*
X74930000Y-6350000D03*
X78740000Y-6350000D03*
X82550000Y-6350000D03*
D20*
X86360000Y-6350000D03*
D19*
X24765000Y-71120000D03*
X20955000Y-71120000D03*
X17145000Y-71120000D03*
D20*
X13335000Y-71120000D03*
D19*
X60325000Y-71120000D03*
X56515000Y-71120000D03*
X52705000Y-71120000D03*
D20*
X48895000Y-71120000D03*
D19*
X42545000Y-71120000D03*
X38735000Y-71120000D03*
X34925000Y-71120000D03*
D20*
X31115000Y-71120000D03*
D19*
X78105000Y-71120000D03*
X74295000Y-71120000D03*
X70485000Y-71120000D03*
D20*
X66675000Y-71120000D03*
D21*
X10795000Y-9525000D03*
G36*
G01*
X3295000Y-10525000D02*
X3295000Y-8525000D01*
G75*
G02*
X4045000Y-7775000I750000J0D01*
G01*
X5545000Y-7775000D01*
G75*
G02*
X6295000Y-8525000I0J-750000D01*
G01*
X6295000Y-10525000D01*
G75*
G02*
X5545000Y-11275000I-750000J0D01*
G01*
X4045000Y-11275000D01*
G75*
G02*
X3295000Y-10525000I0J750000D01*
G01*
G37*
G36*
G01*
X6045000Y-15100000D02*
X6045000Y-13350000D01*
G75*
G02*
X6920000Y-12475000I875000J0D01*
G01*
X8670000Y-12475000D01*
G75*
G02*
X9545000Y-13350000I0J-875000D01*
G01*
X9545000Y-15100000D01*
G75*
G02*
X8670000Y-15975000I-875000J0D01*
G01*
X6920000Y-15975000D01*
G75*
G02*
X6045000Y-15100000I0J875000D01*
G01*
G37*
M02*
