G04 #@! TF.GenerationSoftware,KiCad,Pcbnew,(5.1.9)-1*
G04 #@! TF.CreationDate,2021-10-12T14:51:58-04:00*
G04 #@! TF.ProjectId,doublemagfixture,646f7562-6c65-46d6-9167-666978747572,rev?*
G04 #@! TF.SameCoordinates,Original*
G04 #@! TF.FileFunction,Legend,Top*
G04 #@! TF.FilePolarity,Positive*
%FSLAX46Y46*%
G04 Gerber Fmt 4.6, Leading zero omitted, Abs format (unit mm)*
G04 Created by KiCad (PCBNEW (5.1.9)-1) date 2021-10-12 14:51:58*
%MOMM*%
%LPD*%
G01*
G04 APERTURE LIST*
%ADD10C,0.150000*%
%ADD11C,0.200000*%
%ADD12C,0.120000*%
%ADD13C,1.800000*%
%ADD14R,1.800000X1.800000*%
%ADD15C,1.524000*%
%ADD16R,1.524000X1.524000*%
%ADD17C,6.400000*%
%ADD18O,1.600000X1.600000*%
%ADD19C,1.600000*%
%ADD20C,2.000000*%
%ADD21R,2.000000X2.000000*%
%ADD22R,3.500000X3.500000*%
G04 APERTURE END LIST*
D10*
X86590714Y-62141428D02*
X87257380Y-62141428D01*
X86209761Y-62379523D02*
X86924047Y-62617619D01*
X86924047Y-61998571D01*
X87257380Y-61712857D02*
X86590714Y-61189047D01*
X86590714Y-61712857D02*
X87257380Y-61189047D01*
X86733571Y-60046190D02*
X86733571Y-59712857D01*
X87257380Y-59570000D02*
X87257380Y-60046190D01*
X86257380Y-60046190D01*
X86257380Y-59570000D01*
X87257380Y-58712857D02*
X86733571Y-58712857D01*
X86638333Y-58760476D01*
X86590714Y-58855714D01*
X86590714Y-59046190D01*
X86638333Y-59141428D01*
X87209761Y-58712857D02*
X87257380Y-58808095D01*
X87257380Y-59046190D01*
X87209761Y-59141428D01*
X87114523Y-59189047D01*
X87019285Y-59189047D01*
X86924047Y-59141428D01*
X86876428Y-59046190D01*
X86876428Y-58808095D01*
X86828809Y-58712857D01*
X87209761Y-58284285D02*
X87257380Y-58189047D01*
X87257380Y-57998571D01*
X87209761Y-57903333D01*
X87114523Y-57855714D01*
X87066904Y-57855714D01*
X86971666Y-57903333D01*
X86924047Y-57998571D01*
X86924047Y-58141428D01*
X86876428Y-58236666D01*
X86781190Y-58284285D01*
X86733571Y-58284285D01*
X86638333Y-58236666D01*
X86590714Y-58141428D01*
X86590714Y-57998571D01*
X86638333Y-57903333D01*
X86590714Y-57522380D02*
X87257380Y-57284285D01*
X86590714Y-57046190D02*
X87257380Y-57284285D01*
X87495476Y-57379523D01*
X87543095Y-57427142D01*
X87590714Y-57522380D01*
X87257380Y-56665238D02*
X86257380Y-56665238D01*
X86257380Y-56427142D01*
X86305000Y-56284285D01*
X86400238Y-56189047D01*
X86495476Y-56141428D01*
X86685952Y-56093809D01*
X86828809Y-56093809D01*
X87019285Y-56141428D01*
X87114523Y-56189047D01*
X87209761Y-56284285D01*
X87257380Y-56427142D01*
X87257380Y-56665238D01*
X87257380Y-55665238D02*
X86590714Y-55665238D01*
X86781190Y-55665238D02*
X86685952Y-55617619D01*
X86638333Y-55570000D01*
X86590714Y-55474761D01*
X86590714Y-55379523D01*
X87257380Y-55046190D02*
X86590714Y-55046190D01*
X86257380Y-55046190D02*
X86305000Y-55093809D01*
X86352619Y-55046190D01*
X86305000Y-54998571D01*
X86257380Y-55046190D01*
X86352619Y-55046190D01*
X86590714Y-54665238D02*
X87257380Y-54427142D01*
X86590714Y-54189047D01*
X87209761Y-53427142D02*
X87257380Y-53522380D01*
X87257380Y-53712857D01*
X87209761Y-53808095D01*
X87114523Y-53855714D01*
X86733571Y-53855714D01*
X86638333Y-53808095D01*
X86590714Y-53712857D01*
X86590714Y-53522380D01*
X86638333Y-53427142D01*
X86733571Y-53379523D01*
X86828809Y-53379523D01*
X86924047Y-53855714D01*
X87257380Y-52950952D02*
X86590714Y-52950952D01*
X86781190Y-52950952D02*
X86685952Y-52903333D01*
X86638333Y-52855714D01*
X86590714Y-52760476D01*
X86590714Y-52665238D01*
X86733571Y-51236666D02*
X86781190Y-51093809D01*
X86828809Y-51046190D01*
X86924047Y-50998571D01*
X87066904Y-50998571D01*
X87162142Y-51046190D01*
X87209761Y-51093809D01*
X87257380Y-51189047D01*
X87257380Y-51570000D01*
X86257380Y-51570000D01*
X86257380Y-51236666D01*
X86305000Y-51141428D01*
X86352619Y-51093809D01*
X86447857Y-51046190D01*
X86543095Y-51046190D01*
X86638333Y-51093809D01*
X86685952Y-51141428D01*
X86733571Y-51236666D01*
X86733571Y-51570000D01*
X87257380Y-50570000D02*
X86590714Y-50570000D01*
X86781190Y-50570000D02*
X86685952Y-50522380D01*
X86638333Y-50474761D01*
X86590714Y-50379523D01*
X86590714Y-50284285D01*
X87209761Y-49570000D02*
X87257380Y-49665238D01*
X87257380Y-49855714D01*
X87209761Y-49950952D01*
X87114523Y-49998571D01*
X86733571Y-49998571D01*
X86638333Y-49950952D01*
X86590714Y-49855714D01*
X86590714Y-49665238D01*
X86638333Y-49570000D01*
X86733571Y-49522380D01*
X86828809Y-49522380D01*
X86924047Y-49998571D01*
X87257380Y-48665238D02*
X86733571Y-48665238D01*
X86638333Y-48712857D01*
X86590714Y-48808095D01*
X86590714Y-48998571D01*
X86638333Y-49093809D01*
X87209761Y-48665238D02*
X87257380Y-48760476D01*
X87257380Y-48998571D01*
X87209761Y-49093809D01*
X87114523Y-49141428D01*
X87019285Y-49141428D01*
X86924047Y-49093809D01*
X86876428Y-48998571D01*
X86876428Y-48760476D01*
X86828809Y-48665238D01*
X87257380Y-48189047D02*
X86257380Y-48189047D01*
X86876428Y-48093809D02*
X87257380Y-47808095D01*
X86590714Y-47808095D02*
X86971666Y-48189047D01*
X87257380Y-47236666D02*
X87209761Y-47331904D01*
X87162142Y-47379523D01*
X87066904Y-47427142D01*
X86781190Y-47427142D01*
X86685952Y-47379523D01*
X86638333Y-47331904D01*
X86590714Y-47236666D01*
X86590714Y-47093809D01*
X86638333Y-46998571D01*
X86685952Y-46950952D01*
X86781190Y-46903333D01*
X87066904Y-46903333D01*
X87162142Y-46950952D01*
X87209761Y-46998571D01*
X87257380Y-47093809D01*
X87257380Y-47236666D01*
X86590714Y-46046190D02*
X87257380Y-46046190D01*
X86590714Y-46474761D02*
X87114523Y-46474761D01*
X87209761Y-46427142D01*
X87257380Y-46331904D01*
X87257380Y-46189047D01*
X87209761Y-46093809D01*
X87162142Y-46046190D01*
X86590714Y-45712857D02*
X86590714Y-45331904D01*
X86257380Y-45570000D02*
X87114523Y-45570000D01*
X87209761Y-45522380D01*
X87257380Y-45427142D01*
X87257380Y-45331904D01*
X86590714Y-44331904D02*
X87257380Y-44093809D01*
X86590714Y-43855714D01*
X87257380Y-42950952D02*
X87257380Y-43522380D01*
X87257380Y-43236666D02*
X86257380Y-43236666D01*
X86400238Y-43331904D01*
X86495476Y-43427142D01*
X86543095Y-43522380D01*
X87162142Y-42522380D02*
X87209761Y-42474761D01*
X87257380Y-42522380D01*
X87209761Y-42570000D01*
X87162142Y-42522380D01*
X87257380Y-42522380D01*
X86257380Y-41855714D02*
X86257380Y-41760476D01*
X86305000Y-41665238D01*
X86352619Y-41617619D01*
X86447857Y-41570000D01*
X86638333Y-41522380D01*
X86876428Y-41522380D01*
X87066904Y-41570000D01*
X87162142Y-41617619D01*
X87209761Y-41665238D01*
X87257380Y-41760476D01*
X87257380Y-41855714D01*
X87209761Y-41950952D01*
X87162142Y-41998571D01*
X87066904Y-42046190D01*
X86876428Y-42093809D01*
X86638333Y-42093809D01*
X86447857Y-42046190D01*
X86352619Y-41998571D01*
X86305000Y-41950952D01*
X86257380Y-41855714D01*
X88907380Y-62189047D02*
X87907380Y-62189047D01*
X87907380Y-61950952D01*
X87955000Y-61808095D01*
X88050238Y-61712857D01*
X88145476Y-61665238D01*
X88335952Y-61617619D01*
X88478809Y-61617619D01*
X88669285Y-61665238D01*
X88764523Y-61712857D01*
X88859761Y-61808095D01*
X88907380Y-61950952D01*
X88907380Y-62189047D01*
X88859761Y-60808095D02*
X88907380Y-60903333D01*
X88907380Y-61093809D01*
X88859761Y-61189047D01*
X88764523Y-61236666D01*
X88383571Y-61236666D01*
X88288333Y-61189047D01*
X88240714Y-61093809D01*
X88240714Y-60903333D01*
X88288333Y-60808095D01*
X88383571Y-60760476D01*
X88478809Y-60760476D01*
X88574047Y-61236666D01*
X88859761Y-60379523D02*
X88907380Y-60284285D01*
X88907380Y-60093809D01*
X88859761Y-59998571D01*
X88764523Y-59950952D01*
X88716904Y-59950952D01*
X88621666Y-59998571D01*
X88574047Y-60093809D01*
X88574047Y-60236666D01*
X88526428Y-60331904D01*
X88431190Y-60379523D01*
X88383571Y-60379523D01*
X88288333Y-60331904D01*
X88240714Y-60236666D01*
X88240714Y-60093809D01*
X88288333Y-59998571D01*
X88907380Y-59522380D02*
X88240714Y-59522380D01*
X87907380Y-59522380D02*
X87955000Y-59570000D01*
X88002619Y-59522380D01*
X87955000Y-59474761D01*
X87907380Y-59522380D01*
X88002619Y-59522380D01*
X88240714Y-58617619D02*
X89050238Y-58617619D01*
X89145476Y-58665238D01*
X89193095Y-58712857D01*
X89240714Y-58808095D01*
X89240714Y-58950952D01*
X89193095Y-59046190D01*
X88859761Y-58617619D02*
X88907380Y-58712857D01*
X88907380Y-58903333D01*
X88859761Y-58998571D01*
X88812142Y-59046190D01*
X88716904Y-59093809D01*
X88431190Y-59093809D01*
X88335952Y-59046190D01*
X88288333Y-58998571D01*
X88240714Y-58903333D01*
X88240714Y-58712857D01*
X88288333Y-58617619D01*
X88240714Y-58141428D02*
X88907380Y-58141428D01*
X88335952Y-58141428D02*
X88288333Y-58093809D01*
X88240714Y-57998571D01*
X88240714Y-57855714D01*
X88288333Y-57760476D01*
X88383571Y-57712857D01*
X88907380Y-57712857D01*
X88859761Y-56855714D02*
X88907380Y-56950952D01*
X88907380Y-57141428D01*
X88859761Y-57236666D01*
X88764523Y-57284285D01*
X88383571Y-57284285D01*
X88288333Y-57236666D01*
X88240714Y-57141428D01*
X88240714Y-56950952D01*
X88288333Y-56855714D01*
X88383571Y-56808095D01*
X88478809Y-56808095D01*
X88574047Y-57284285D01*
X88907380Y-55950952D02*
X87907380Y-55950952D01*
X88859761Y-55950952D02*
X88907380Y-56046190D01*
X88907380Y-56236666D01*
X88859761Y-56331904D01*
X88812142Y-56379523D01*
X88716904Y-56427142D01*
X88431190Y-56427142D01*
X88335952Y-56379523D01*
X88288333Y-56331904D01*
X88240714Y-56236666D01*
X88240714Y-56046190D01*
X88288333Y-55950952D01*
X88907380Y-54712857D02*
X87907380Y-54712857D01*
X88288333Y-54712857D02*
X88240714Y-54617619D01*
X88240714Y-54427142D01*
X88288333Y-54331904D01*
X88335952Y-54284285D01*
X88431190Y-54236666D01*
X88716904Y-54236666D01*
X88812142Y-54284285D01*
X88859761Y-54331904D01*
X88907380Y-54427142D01*
X88907380Y-54617619D01*
X88859761Y-54712857D01*
X88240714Y-53903333D02*
X88907380Y-53665238D01*
X88240714Y-53427142D02*
X88907380Y-53665238D01*
X89145476Y-53760476D01*
X89193095Y-53808095D01*
X89240714Y-53903333D01*
X88907380Y-51712857D02*
X88431190Y-52046190D01*
X88907380Y-52284285D02*
X87907380Y-52284285D01*
X87907380Y-51903333D01*
X87955000Y-51808095D01*
X88002619Y-51760476D01*
X88097857Y-51712857D01*
X88240714Y-51712857D01*
X88335952Y-51760476D01*
X88383571Y-51808095D01*
X88431190Y-51903333D01*
X88431190Y-52284285D01*
X88907380Y-51141428D02*
X88859761Y-51236666D01*
X88812142Y-51284285D01*
X88716904Y-51331904D01*
X88431190Y-51331904D01*
X88335952Y-51284285D01*
X88288333Y-51236666D01*
X88240714Y-51141428D01*
X88240714Y-50998571D01*
X88288333Y-50903333D01*
X88335952Y-50855714D01*
X88431190Y-50808095D01*
X88716904Y-50808095D01*
X88812142Y-50855714D01*
X88859761Y-50903333D01*
X88907380Y-50998571D01*
X88907380Y-51141428D01*
X88907380Y-50379523D02*
X87907380Y-50379523D01*
X88288333Y-50379523D02*
X88240714Y-50284285D01*
X88240714Y-50093809D01*
X88288333Y-49998571D01*
X88335952Y-49950952D01*
X88431190Y-49903333D01*
X88716904Y-49903333D01*
X88812142Y-49950952D01*
X88859761Y-49998571D01*
X88907380Y-50093809D01*
X88907380Y-50284285D01*
X88859761Y-50379523D01*
X88907380Y-49474761D02*
X88240714Y-49474761D01*
X87907380Y-49474761D02*
X87955000Y-49522380D01*
X88002619Y-49474761D01*
X87955000Y-49427142D01*
X87907380Y-49474761D01*
X88002619Y-49474761D01*
X88240714Y-48998571D02*
X88907380Y-48998571D01*
X88335952Y-48998571D02*
X88288333Y-48950952D01*
X88240714Y-48855714D01*
X88240714Y-48712857D01*
X88288333Y-48617619D01*
X88383571Y-48570000D01*
X88907380Y-48570000D01*
X88907380Y-46855714D02*
X88907380Y-47331904D01*
X87907380Y-47331904D01*
X88812142Y-46522380D02*
X88859761Y-46474761D01*
X88907380Y-46522380D01*
X88859761Y-46570000D01*
X88812142Y-46522380D01*
X88907380Y-46522380D01*
X88002619Y-45331904D02*
X87955000Y-45284285D01*
X87907380Y-45189047D01*
X87907380Y-44950952D01*
X87955000Y-44855714D01*
X88002619Y-44808095D01*
X88097857Y-44760476D01*
X88193095Y-44760476D01*
X88335952Y-44808095D01*
X88907380Y-45379523D01*
X88907380Y-44760476D01*
X87907380Y-44141428D02*
X87907380Y-44046190D01*
X87955000Y-43950952D01*
X88002619Y-43903333D01*
X88097857Y-43855714D01*
X88288333Y-43808095D01*
X88526428Y-43808095D01*
X88716904Y-43855714D01*
X88812142Y-43903333D01*
X88859761Y-43950952D01*
X88907380Y-44046190D01*
X88907380Y-44141428D01*
X88859761Y-44236666D01*
X88812142Y-44284285D01*
X88716904Y-44331904D01*
X88526428Y-44379523D01*
X88288333Y-44379523D01*
X88097857Y-44331904D01*
X88002619Y-44284285D01*
X87955000Y-44236666D01*
X87907380Y-44141428D01*
X88002619Y-43427142D02*
X87955000Y-43379523D01*
X87907380Y-43284285D01*
X87907380Y-43046190D01*
X87955000Y-42950952D01*
X88002619Y-42903333D01*
X88097857Y-42855714D01*
X88193095Y-42855714D01*
X88335952Y-42903333D01*
X88907380Y-43474761D01*
X88907380Y-42855714D01*
X88907380Y-41903333D02*
X88907380Y-42474761D01*
X88907380Y-42189047D02*
X87907380Y-42189047D01*
X88050238Y-42284285D01*
X88145476Y-42379523D01*
X88193095Y-42474761D01*
X87645952Y-5342380D02*
X87074523Y-5342380D01*
X87360238Y-5342380D02*
X87360238Y-4342380D01*
X87265000Y-4485238D01*
X87169761Y-4580476D01*
X87074523Y-4628095D01*
X88026904Y-4437619D02*
X88074523Y-4390000D01*
X88169761Y-4342380D01*
X88407857Y-4342380D01*
X88503095Y-4390000D01*
X88550714Y-4437619D01*
X88598333Y-4532857D01*
X88598333Y-4628095D01*
X88550714Y-4770952D01*
X87979285Y-5342380D01*
X88598333Y-5342380D01*
X88884047Y-4342380D02*
X89217380Y-5342380D01*
X89550714Y-4342380D01*
X87503095Y-6992380D02*
X87503095Y-5992380D01*
X87741190Y-5992380D01*
X87884047Y-6040000D01*
X87979285Y-6135238D01*
X88026904Y-6230476D01*
X88074523Y-6420952D01*
X88074523Y-6563809D01*
X88026904Y-6754285D01*
X87979285Y-6849523D01*
X87884047Y-6944761D01*
X87741190Y-6992380D01*
X87503095Y-6992380D01*
X89074523Y-6897142D02*
X89026904Y-6944761D01*
X88884047Y-6992380D01*
X88788809Y-6992380D01*
X88645952Y-6944761D01*
X88550714Y-6849523D01*
X88503095Y-6754285D01*
X88455476Y-6563809D01*
X88455476Y-6420952D01*
X88503095Y-6230476D01*
X88550714Y-6135238D01*
X88645952Y-6040000D01*
X88788809Y-5992380D01*
X88884047Y-5992380D01*
X89026904Y-6040000D01*
X89074523Y-6087619D01*
D11*
X63635000Y-13783571D02*
X64563571Y-13783571D01*
X64063571Y-14355000D01*
X64277857Y-14355000D01*
X64420714Y-14426428D01*
X64492142Y-14497857D01*
X64563571Y-14640714D01*
X64563571Y-14997857D01*
X64492142Y-15140714D01*
X64420714Y-15212142D01*
X64277857Y-15283571D01*
X63849285Y-15283571D01*
X63706428Y-15212142D01*
X63635000Y-15140714D01*
X46561428Y-13926428D02*
X46632857Y-13855000D01*
X46775714Y-13783571D01*
X47132857Y-13783571D01*
X47275714Y-13855000D01*
X47347142Y-13926428D01*
X47418571Y-14069285D01*
X47418571Y-14212142D01*
X47347142Y-14426428D01*
X46490000Y-15283571D01*
X47418571Y-15283571D01*
X30273571Y-15283571D02*
X29416428Y-15283571D01*
X29845000Y-15283571D02*
X29845000Y-13783571D01*
X29702142Y-13997857D01*
X29559285Y-14140714D01*
X29416428Y-14212142D01*
X12628571Y-13783571D02*
X12771428Y-13783571D01*
X12914285Y-13855000D01*
X12985714Y-13926428D01*
X13057142Y-14069285D01*
X13128571Y-14355000D01*
X13128571Y-14712142D01*
X13057142Y-14997857D01*
X12985714Y-15140714D01*
X12914285Y-15212142D01*
X12771428Y-15283571D01*
X12628571Y-15283571D01*
X12485714Y-15212142D01*
X12414285Y-15140714D01*
X12342857Y-14997857D01*
X12271428Y-14712142D01*
X12271428Y-14355000D01*
X12342857Y-14069285D01*
X12414285Y-13926428D01*
X12485714Y-13855000D01*
X12628571Y-13783571D01*
D10*
X66945000Y-11247380D02*
X66945000Y-10247380D01*
X67183095Y-10247380D01*
X67325952Y-10295000D01*
X67421190Y-10390238D01*
X67468809Y-10485476D01*
X67516428Y-10675952D01*
X67516428Y-10818809D01*
X67468809Y-11009285D01*
X67421190Y-11104523D01*
X67325952Y-11199761D01*
X67183095Y-11247380D01*
X66945000Y-11247380D01*
X67945000Y-11247380D02*
X67945000Y-10247380D01*
X68992619Y-11247380D02*
X68659285Y-10771190D01*
X68421190Y-11247380D02*
X68421190Y-10247380D01*
X68802142Y-10247380D01*
X68897380Y-10295000D01*
X68945000Y-10342619D01*
X68992619Y-10437857D01*
X68992619Y-10580714D01*
X68945000Y-10675952D01*
X68897380Y-10723571D01*
X68802142Y-10771190D01*
X68421190Y-10771190D01*
X73310952Y-11199761D02*
X73453809Y-11247380D01*
X73691904Y-11247380D01*
X73787142Y-11199761D01*
X73834761Y-11152142D01*
X73882380Y-11056904D01*
X73882380Y-10961666D01*
X73834761Y-10866428D01*
X73787142Y-10818809D01*
X73691904Y-10771190D01*
X73501428Y-10723571D01*
X73406190Y-10675952D01*
X73358571Y-10628333D01*
X73310952Y-10533095D01*
X73310952Y-10437857D01*
X73358571Y-10342619D01*
X73406190Y-10295000D01*
X73501428Y-10247380D01*
X73739523Y-10247380D01*
X73882380Y-10295000D01*
X74168095Y-10247380D02*
X74739523Y-10247380D01*
X74453809Y-11247380D02*
X74453809Y-10247380D01*
X75072857Y-10723571D02*
X75406190Y-10723571D01*
X75549047Y-11247380D02*
X75072857Y-11247380D01*
X75072857Y-10247380D01*
X75549047Y-10247380D01*
X75977619Y-11247380D02*
X75977619Y-10247380D01*
X76358571Y-10247380D01*
X76453809Y-10295000D01*
X76501428Y-10342619D01*
X76549047Y-10437857D01*
X76549047Y-10580714D01*
X76501428Y-10675952D01*
X76453809Y-10723571D01*
X76358571Y-10771190D01*
X75977619Y-10771190D01*
X49800000Y-11247380D02*
X49800000Y-10247380D01*
X50038095Y-10247380D01*
X50180952Y-10295000D01*
X50276190Y-10390238D01*
X50323809Y-10485476D01*
X50371428Y-10675952D01*
X50371428Y-10818809D01*
X50323809Y-11009285D01*
X50276190Y-11104523D01*
X50180952Y-11199761D01*
X50038095Y-11247380D01*
X49800000Y-11247380D01*
X50800000Y-11247380D02*
X50800000Y-10247380D01*
X51847619Y-11247380D02*
X51514285Y-10771190D01*
X51276190Y-11247380D02*
X51276190Y-10247380D01*
X51657142Y-10247380D01*
X51752380Y-10295000D01*
X51800000Y-10342619D01*
X51847619Y-10437857D01*
X51847619Y-10580714D01*
X51800000Y-10675952D01*
X51752380Y-10723571D01*
X51657142Y-10771190D01*
X51276190Y-10771190D01*
X56165952Y-11199761D02*
X56308809Y-11247380D01*
X56546904Y-11247380D01*
X56642142Y-11199761D01*
X56689761Y-11152142D01*
X56737380Y-11056904D01*
X56737380Y-10961666D01*
X56689761Y-10866428D01*
X56642142Y-10818809D01*
X56546904Y-10771190D01*
X56356428Y-10723571D01*
X56261190Y-10675952D01*
X56213571Y-10628333D01*
X56165952Y-10533095D01*
X56165952Y-10437857D01*
X56213571Y-10342619D01*
X56261190Y-10295000D01*
X56356428Y-10247380D01*
X56594523Y-10247380D01*
X56737380Y-10295000D01*
X57023095Y-10247380D02*
X57594523Y-10247380D01*
X57308809Y-11247380D02*
X57308809Y-10247380D01*
X57927857Y-10723571D02*
X58261190Y-10723571D01*
X58404047Y-11247380D02*
X57927857Y-11247380D01*
X57927857Y-10247380D01*
X58404047Y-10247380D01*
X58832619Y-11247380D02*
X58832619Y-10247380D01*
X59213571Y-10247380D01*
X59308809Y-10295000D01*
X59356428Y-10342619D01*
X59404047Y-10437857D01*
X59404047Y-10580714D01*
X59356428Y-10675952D01*
X59308809Y-10723571D01*
X59213571Y-10771190D01*
X58832619Y-10771190D01*
X32655000Y-11247380D02*
X32655000Y-10247380D01*
X32893095Y-10247380D01*
X33035952Y-10295000D01*
X33131190Y-10390238D01*
X33178809Y-10485476D01*
X33226428Y-10675952D01*
X33226428Y-10818809D01*
X33178809Y-11009285D01*
X33131190Y-11104523D01*
X33035952Y-11199761D01*
X32893095Y-11247380D01*
X32655000Y-11247380D01*
X33655000Y-11247380D02*
X33655000Y-10247380D01*
X34702619Y-11247380D02*
X34369285Y-10771190D01*
X34131190Y-11247380D02*
X34131190Y-10247380D01*
X34512142Y-10247380D01*
X34607380Y-10295000D01*
X34655000Y-10342619D01*
X34702619Y-10437857D01*
X34702619Y-10580714D01*
X34655000Y-10675952D01*
X34607380Y-10723571D01*
X34512142Y-10771190D01*
X34131190Y-10771190D01*
X39020952Y-11199761D02*
X39163809Y-11247380D01*
X39401904Y-11247380D01*
X39497142Y-11199761D01*
X39544761Y-11152142D01*
X39592380Y-11056904D01*
X39592380Y-10961666D01*
X39544761Y-10866428D01*
X39497142Y-10818809D01*
X39401904Y-10771190D01*
X39211428Y-10723571D01*
X39116190Y-10675952D01*
X39068571Y-10628333D01*
X39020952Y-10533095D01*
X39020952Y-10437857D01*
X39068571Y-10342619D01*
X39116190Y-10295000D01*
X39211428Y-10247380D01*
X39449523Y-10247380D01*
X39592380Y-10295000D01*
X39878095Y-10247380D02*
X40449523Y-10247380D01*
X40163809Y-11247380D02*
X40163809Y-10247380D01*
X40782857Y-10723571D02*
X41116190Y-10723571D01*
X41259047Y-11247380D02*
X40782857Y-11247380D01*
X40782857Y-10247380D01*
X41259047Y-10247380D01*
X41687619Y-11247380D02*
X41687619Y-10247380D01*
X42068571Y-10247380D01*
X42163809Y-10295000D01*
X42211428Y-10342619D01*
X42259047Y-10437857D01*
X42259047Y-10580714D01*
X42211428Y-10675952D01*
X42163809Y-10723571D01*
X42068571Y-10771190D01*
X41687619Y-10771190D01*
X21875952Y-11199761D02*
X22018809Y-11247380D01*
X22256904Y-11247380D01*
X22352142Y-11199761D01*
X22399761Y-11152142D01*
X22447380Y-11056904D01*
X22447380Y-10961666D01*
X22399761Y-10866428D01*
X22352142Y-10818809D01*
X22256904Y-10771190D01*
X22066428Y-10723571D01*
X21971190Y-10675952D01*
X21923571Y-10628333D01*
X21875952Y-10533095D01*
X21875952Y-10437857D01*
X21923571Y-10342619D01*
X21971190Y-10295000D01*
X22066428Y-10247380D01*
X22304523Y-10247380D01*
X22447380Y-10295000D01*
X22733095Y-10247380D02*
X23304523Y-10247380D01*
X23018809Y-11247380D02*
X23018809Y-10247380D01*
X23637857Y-10723571D02*
X23971190Y-10723571D01*
X24114047Y-11247380D02*
X23637857Y-11247380D01*
X23637857Y-10247380D01*
X24114047Y-10247380D01*
X24542619Y-11247380D02*
X24542619Y-10247380D01*
X24923571Y-10247380D01*
X25018809Y-10295000D01*
X25066428Y-10342619D01*
X25114047Y-10437857D01*
X25114047Y-10580714D01*
X25066428Y-10675952D01*
X25018809Y-10723571D01*
X24923571Y-10771190D01*
X24542619Y-10771190D01*
X15510000Y-11247380D02*
X15510000Y-10247380D01*
X15748095Y-10247380D01*
X15890952Y-10295000D01*
X15986190Y-10390238D01*
X16033809Y-10485476D01*
X16081428Y-10675952D01*
X16081428Y-10818809D01*
X16033809Y-11009285D01*
X15986190Y-11104523D01*
X15890952Y-11199761D01*
X15748095Y-11247380D01*
X15510000Y-11247380D01*
X16510000Y-11247380D02*
X16510000Y-10247380D01*
X17557619Y-11247380D02*
X17224285Y-10771190D01*
X16986190Y-11247380D02*
X16986190Y-10247380D01*
X17367142Y-10247380D01*
X17462380Y-10295000D01*
X17510000Y-10342619D01*
X17557619Y-10437857D01*
X17557619Y-10580714D01*
X17510000Y-10675952D01*
X17462380Y-10723571D01*
X17367142Y-10771190D01*
X16986190Y-10771190D01*
X71628095Y-2309761D02*
X71770952Y-2357380D01*
X72009047Y-2357380D01*
X72104285Y-2309761D01*
X72151904Y-2262142D01*
X72199523Y-2166904D01*
X72199523Y-2071666D01*
X72151904Y-1976428D01*
X72104285Y-1928809D01*
X72009047Y-1881190D01*
X71818571Y-1833571D01*
X71723333Y-1785952D01*
X71675714Y-1738333D01*
X71628095Y-1643095D01*
X71628095Y-1547857D01*
X71675714Y-1452619D01*
X71723333Y-1405000D01*
X71818571Y-1357380D01*
X72056666Y-1357380D01*
X72199523Y-1405000D01*
X72532857Y-1357380D02*
X73151904Y-1357380D01*
X72818571Y-1738333D01*
X72961428Y-1738333D01*
X73056666Y-1785952D01*
X73104285Y-1833571D01*
X73151904Y-1928809D01*
X73151904Y-2166904D01*
X73104285Y-2262142D01*
X73056666Y-2309761D01*
X72961428Y-2357380D01*
X72675714Y-2357380D01*
X72580476Y-2309761D01*
X72532857Y-2262142D01*
X64008095Y-2309761D02*
X64150952Y-2357380D01*
X64389047Y-2357380D01*
X64484285Y-2309761D01*
X64531904Y-2262142D01*
X64579523Y-2166904D01*
X64579523Y-2071666D01*
X64531904Y-1976428D01*
X64484285Y-1928809D01*
X64389047Y-1881190D01*
X64198571Y-1833571D01*
X64103333Y-1785952D01*
X64055714Y-1738333D01*
X64008095Y-1643095D01*
X64008095Y-1547857D01*
X64055714Y-1452619D01*
X64103333Y-1405000D01*
X64198571Y-1357380D01*
X64436666Y-1357380D01*
X64579523Y-1405000D01*
X64960476Y-1452619D02*
X65008095Y-1405000D01*
X65103333Y-1357380D01*
X65341428Y-1357380D01*
X65436666Y-1405000D01*
X65484285Y-1452619D01*
X65531904Y-1547857D01*
X65531904Y-1643095D01*
X65484285Y-1785952D01*
X64912857Y-2357380D01*
X65531904Y-2357380D01*
X75461904Y-2357380D02*
X75461904Y-1357380D01*
X75700000Y-1357380D01*
X75842857Y-1405000D01*
X75938095Y-1500238D01*
X75985714Y-1595476D01*
X76033333Y-1785952D01*
X76033333Y-1928809D01*
X75985714Y-2119285D01*
X75938095Y-2214523D01*
X75842857Y-2309761D01*
X75700000Y-2357380D01*
X75461904Y-2357380D01*
X76366666Y-1357380D02*
X76985714Y-1357380D01*
X76652380Y-1738333D01*
X76795238Y-1738333D01*
X76890476Y-1785952D01*
X76938095Y-1833571D01*
X76985714Y-1928809D01*
X76985714Y-2166904D01*
X76938095Y-2262142D01*
X76890476Y-2309761D01*
X76795238Y-2357380D01*
X76509523Y-2357380D01*
X76414285Y-2309761D01*
X76366666Y-2262142D01*
X67841904Y-2357380D02*
X67841904Y-1357380D01*
X68080000Y-1357380D01*
X68222857Y-1405000D01*
X68318095Y-1500238D01*
X68365714Y-1595476D01*
X68413333Y-1785952D01*
X68413333Y-1928809D01*
X68365714Y-2119285D01*
X68318095Y-2214523D01*
X68222857Y-2309761D01*
X68080000Y-2357380D01*
X67841904Y-2357380D01*
X68794285Y-1452619D02*
X68841904Y-1405000D01*
X68937142Y-1357380D01*
X69175238Y-1357380D01*
X69270476Y-1405000D01*
X69318095Y-1452619D01*
X69365714Y-1547857D01*
X69365714Y-1643095D01*
X69318095Y-1785952D01*
X68746666Y-2357380D01*
X69365714Y-2357380D01*
X60221904Y-2357380D02*
X60221904Y-1357380D01*
X60460000Y-1357380D01*
X60602857Y-1405000D01*
X60698095Y-1500238D01*
X60745714Y-1595476D01*
X60793333Y-1785952D01*
X60793333Y-1928809D01*
X60745714Y-2119285D01*
X60698095Y-2214523D01*
X60602857Y-2309761D01*
X60460000Y-2357380D01*
X60221904Y-2357380D01*
X61745714Y-2357380D02*
X61174285Y-2357380D01*
X61460000Y-2357380D02*
X61460000Y-1357380D01*
X61364761Y-1500238D01*
X61269523Y-1595476D01*
X61174285Y-1643095D01*
X56388095Y-2309761D02*
X56530952Y-2357380D01*
X56769047Y-2357380D01*
X56864285Y-2309761D01*
X56911904Y-2262142D01*
X56959523Y-2166904D01*
X56959523Y-2071666D01*
X56911904Y-1976428D01*
X56864285Y-1928809D01*
X56769047Y-1881190D01*
X56578571Y-1833571D01*
X56483333Y-1785952D01*
X56435714Y-1738333D01*
X56388095Y-1643095D01*
X56388095Y-1547857D01*
X56435714Y-1452619D01*
X56483333Y-1405000D01*
X56578571Y-1357380D01*
X56816666Y-1357380D01*
X56959523Y-1405000D01*
X57911904Y-2357380D02*
X57340476Y-2357380D01*
X57626190Y-2357380D02*
X57626190Y-1357380D01*
X57530952Y-1500238D01*
X57435714Y-1595476D01*
X57340476Y-1643095D01*
X52601904Y-2357380D02*
X52601904Y-1357380D01*
X52840000Y-1357380D01*
X52982857Y-1405000D01*
X53078095Y-1500238D01*
X53125714Y-1595476D01*
X53173333Y-1785952D01*
X53173333Y-1928809D01*
X53125714Y-2119285D01*
X53078095Y-2214523D01*
X52982857Y-2309761D01*
X52840000Y-2357380D01*
X52601904Y-2357380D01*
X53792380Y-1357380D02*
X53887619Y-1357380D01*
X53982857Y-1405000D01*
X54030476Y-1452619D01*
X54078095Y-1547857D01*
X54125714Y-1738333D01*
X54125714Y-1976428D01*
X54078095Y-2166904D01*
X54030476Y-2262142D01*
X53982857Y-2309761D01*
X53887619Y-2357380D01*
X53792380Y-2357380D01*
X53697142Y-2309761D01*
X53649523Y-2262142D01*
X53601904Y-2166904D01*
X53554285Y-1976428D01*
X53554285Y-1738333D01*
X53601904Y-1547857D01*
X53649523Y-1452619D01*
X53697142Y-1405000D01*
X53792380Y-1357380D01*
X48768095Y-2309761D02*
X48910952Y-2357380D01*
X49149047Y-2357380D01*
X49244285Y-2309761D01*
X49291904Y-2262142D01*
X49339523Y-2166904D01*
X49339523Y-2071666D01*
X49291904Y-1976428D01*
X49244285Y-1928809D01*
X49149047Y-1881190D01*
X48958571Y-1833571D01*
X48863333Y-1785952D01*
X48815714Y-1738333D01*
X48768095Y-1643095D01*
X48768095Y-1547857D01*
X48815714Y-1452619D01*
X48863333Y-1405000D01*
X48958571Y-1357380D01*
X49196666Y-1357380D01*
X49339523Y-1405000D01*
X49958571Y-1357380D02*
X50053809Y-1357380D01*
X50149047Y-1405000D01*
X50196666Y-1452619D01*
X50244285Y-1547857D01*
X50291904Y-1738333D01*
X50291904Y-1976428D01*
X50244285Y-2166904D01*
X50196666Y-2262142D01*
X50149047Y-2309761D01*
X50053809Y-2357380D01*
X49958571Y-2357380D01*
X49863333Y-2309761D01*
X49815714Y-2262142D01*
X49768095Y-2166904D01*
X49720476Y-1976428D01*
X49720476Y-1738333D01*
X49768095Y-1547857D01*
X49815714Y-1452619D01*
X49863333Y-1405000D01*
X49958571Y-1357380D01*
X30988095Y-1405000D02*
X30892857Y-1357380D01*
X30750000Y-1357380D01*
X30607142Y-1405000D01*
X30511904Y-1500238D01*
X30464285Y-1595476D01*
X30416666Y-1785952D01*
X30416666Y-1928809D01*
X30464285Y-2119285D01*
X30511904Y-2214523D01*
X30607142Y-2309761D01*
X30750000Y-2357380D01*
X30845238Y-2357380D01*
X30988095Y-2309761D01*
X31035714Y-2262142D01*
X31035714Y-1928809D01*
X30845238Y-1928809D01*
X31464285Y-2357380D02*
X31464285Y-1357380D01*
X32035714Y-2357380D01*
X32035714Y-1357380D01*
X32511904Y-2357380D02*
X32511904Y-1357380D01*
X32750000Y-1357380D01*
X32892857Y-1405000D01*
X32988095Y-1500238D01*
X33035714Y-1595476D01*
X33083333Y-1785952D01*
X33083333Y-1928809D01*
X33035714Y-2119285D01*
X32988095Y-2214523D01*
X32892857Y-2309761D01*
X32750000Y-2357380D01*
X32511904Y-2357380D01*
X27154285Y-2357380D02*
X27154285Y-1357380D01*
X27725714Y-2357380D01*
X27725714Y-1357380D01*
X28773333Y-2262142D02*
X28725714Y-2309761D01*
X28582857Y-2357380D01*
X28487619Y-2357380D01*
X28344761Y-2309761D01*
X28249523Y-2214523D01*
X28201904Y-2119285D01*
X28154285Y-1928809D01*
X28154285Y-1785952D01*
X28201904Y-1595476D01*
X28249523Y-1500238D01*
X28344761Y-1405000D01*
X28487619Y-1357380D01*
X28582857Y-1357380D01*
X28725714Y-1405000D01*
X28773333Y-1452619D01*
X23963333Y-2357380D02*
X23487142Y-2357380D01*
X23487142Y-1357380D01*
X24820476Y-2357380D02*
X24249047Y-2357380D01*
X24534761Y-2357380D02*
X24534761Y-1357380D01*
X24439523Y-1500238D01*
X24344285Y-1595476D01*
X24249047Y-1643095D01*
X20153333Y-2357380D02*
X19677142Y-2357380D01*
X19677142Y-1357380D01*
X20677142Y-1357380D02*
X20772380Y-1357380D01*
X20867619Y-1405000D01*
X20915238Y-1452619D01*
X20962857Y-1547857D01*
X21010476Y-1738333D01*
X21010476Y-1976428D01*
X20962857Y-2166904D01*
X20915238Y-2262142D01*
X20867619Y-2309761D01*
X20772380Y-2357380D01*
X20677142Y-2357380D01*
X20581904Y-2309761D01*
X20534285Y-2262142D01*
X20486666Y-2166904D01*
X20439047Y-1976428D01*
X20439047Y-1738333D01*
X20486666Y-1547857D01*
X20534285Y-1452619D01*
X20581904Y-1405000D01*
X20677142Y-1357380D01*
X16343333Y-2357380D02*
X15867142Y-2357380D01*
X15867142Y-1357380D01*
X17200476Y-2357380D02*
X16629047Y-2357380D01*
X16914761Y-2357380D02*
X16914761Y-1357380D01*
X16819523Y-1500238D01*
X16724285Y-1595476D01*
X16629047Y-1643095D01*
X12533333Y-2357380D02*
X12057142Y-2357380D01*
X12057142Y-1357380D01*
X13057142Y-1357380D02*
X13152380Y-1357380D01*
X13247619Y-1405000D01*
X13295238Y-1452619D01*
X13342857Y-1547857D01*
X13390476Y-1738333D01*
X13390476Y-1976428D01*
X13342857Y-2166904D01*
X13295238Y-2262142D01*
X13247619Y-2309761D01*
X13152380Y-2357380D01*
X13057142Y-2357380D01*
X12961904Y-2309761D01*
X12914285Y-2262142D01*
X12866666Y-2166904D01*
X12819047Y-1976428D01*
X12819047Y-1738333D01*
X12866666Y-1547857D01*
X12914285Y-1452619D01*
X12961904Y-1405000D01*
X13057142Y-1357380D01*
X7604285Y-1976428D02*
X8366190Y-1976428D01*
X7985238Y-2357380D02*
X7985238Y-1595476D01*
X9318571Y-1357380D02*
X8842380Y-1357380D01*
X8794761Y-1833571D01*
X8842380Y-1785952D01*
X8937619Y-1738333D01*
X9175714Y-1738333D01*
X9270952Y-1785952D01*
X9318571Y-1833571D01*
X9366190Y-1928809D01*
X9366190Y-2166904D01*
X9318571Y-2262142D01*
X9270952Y-2309761D01*
X9175714Y-2357380D01*
X8937619Y-2357380D01*
X8842380Y-2309761D01*
X8794761Y-2262142D01*
X9651904Y-1357380D02*
X9985238Y-2357380D01*
X10318571Y-1357380D01*
X2683095Y-1976428D02*
X3445000Y-1976428D01*
X3064047Y-2357380D02*
X3064047Y-1595476D01*
X4445000Y-2357380D02*
X3873571Y-2357380D01*
X4159285Y-2357380D02*
X4159285Y-1357380D01*
X4064047Y-1500238D01*
X3968809Y-1595476D01*
X3873571Y-1643095D01*
X4825952Y-1452619D02*
X4873571Y-1405000D01*
X4968809Y-1357380D01*
X5206904Y-1357380D01*
X5302142Y-1405000D01*
X5349761Y-1452619D01*
X5397380Y-1547857D01*
X5397380Y-1643095D01*
X5349761Y-1785952D01*
X4778333Y-2357380D01*
X5397380Y-2357380D01*
X5683095Y-1357380D02*
X6016428Y-2357380D01*
X6349761Y-1357380D01*
X77557380Y-67238571D02*
X77700238Y-67286190D01*
X77747857Y-67333809D01*
X77795476Y-67429047D01*
X77795476Y-67571904D01*
X77747857Y-67667142D01*
X77700238Y-67714761D01*
X77605000Y-67762380D01*
X77224047Y-67762380D01*
X77224047Y-66762380D01*
X77557380Y-66762380D01*
X77652619Y-66810000D01*
X77700238Y-66857619D01*
X77747857Y-66952857D01*
X77747857Y-67048095D01*
X77700238Y-67143333D01*
X77652619Y-67190952D01*
X77557380Y-67238571D01*
X77224047Y-67238571D01*
X78224047Y-67381428D02*
X78985952Y-67381428D01*
X78605000Y-67762380D02*
X78605000Y-67000476D01*
X65817857Y-67476666D02*
X66294047Y-67476666D01*
X65722619Y-67762380D02*
X66055952Y-66762380D01*
X66389285Y-67762380D01*
X66722619Y-67381428D02*
X67484523Y-67381428D01*
X69627857Y-67476666D02*
X70104047Y-67476666D01*
X69532619Y-67762380D02*
X69865952Y-66762380D01*
X70199285Y-67762380D01*
X70532619Y-67381428D02*
X71294523Y-67381428D01*
X70913571Y-67762380D02*
X70913571Y-67000476D01*
X73747380Y-67238571D02*
X73890238Y-67286190D01*
X73937857Y-67333809D01*
X73985476Y-67429047D01*
X73985476Y-67571904D01*
X73937857Y-67667142D01*
X73890238Y-67714761D01*
X73795000Y-67762380D01*
X73414047Y-67762380D01*
X73414047Y-66762380D01*
X73747380Y-66762380D01*
X73842619Y-66810000D01*
X73890238Y-66857619D01*
X73937857Y-66952857D01*
X73937857Y-67048095D01*
X73890238Y-67143333D01*
X73842619Y-67190952D01*
X73747380Y-67238571D01*
X73414047Y-67238571D01*
X74414047Y-67381428D02*
X75175952Y-67381428D01*
X48037857Y-67476666D02*
X48514047Y-67476666D01*
X47942619Y-67762380D02*
X48275952Y-66762380D01*
X48609285Y-67762380D01*
X48942619Y-67381428D02*
X49704523Y-67381428D01*
X59777380Y-67238571D02*
X59920238Y-67286190D01*
X59967857Y-67333809D01*
X60015476Y-67429047D01*
X60015476Y-67571904D01*
X59967857Y-67667142D01*
X59920238Y-67714761D01*
X59825000Y-67762380D01*
X59444047Y-67762380D01*
X59444047Y-66762380D01*
X59777380Y-66762380D01*
X59872619Y-66810000D01*
X59920238Y-66857619D01*
X59967857Y-66952857D01*
X59967857Y-67048095D01*
X59920238Y-67143333D01*
X59872619Y-67190952D01*
X59777380Y-67238571D01*
X59444047Y-67238571D01*
X60444047Y-67381428D02*
X61205952Y-67381428D01*
X60825000Y-67762380D02*
X60825000Y-67000476D01*
X55967380Y-67238571D02*
X56110238Y-67286190D01*
X56157857Y-67333809D01*
X56205476Y-67429047D01*
X56205476Y-67571904D01*
X56157857Y-67667142D01*
X56110238Y-67714761D01*
X56015000Y-67762380D01*
X55634047Y-67762380D01*
X55634047Y-66762380D01*
X55967380Y-66762380D01*
X56062619Y-66810000D01*
X56110238Y-66857619D01*
X56157857Y-66952857D01*
X56157857Y-67048095D01*
X56110238Y-67143333D01*
X56062619Y-67190952D01*
X55967380Y-67238571D01*
X55634047Y-67238571D01*
X56634047Y-67381428D02*
X57395952Y-67381428D01*
X51847857Y-67476666D02*
X52324047Y-67476666D01*
X51752619Y-67762380D02*
X52085952Y-66762380D01*
X52419285Y-67762380D01*
X52752619Y-67381428D02*
X53514523Y-67381428D01*
X53133571Y-67762380D02*
X53133571Y-67000476D01*
X38187380Y-67238571D02*
X38330238Y-67286190D01*
X38377857Y-67333809D01*
X38425476Y-67429047D01*
X38425476Y-67571904D01*
X38377857Y-67667142D01*
X38330238Y-67714761D01*
X38235000Y-67762380D01*
X37854047Y-67762380D01*
X37854047Y-66762380D01*
X38187380Y-66762380D01*
X38282619Y-66810000D01*
X38330238Y-66857619D01*
X38377857Y-66952857D01*
X38377857Y-67048095D01*
X38330238Y-67143333D01*
X38282619Y-67190952D01*
X38187380Y-67238571D01*
X37854047Y-67238571D01*
X38854047Y-67381428D02*
X39615952Y-67381428D01*
X41997380Y-67238571D02*
X42140238Y-67286190D01*
X42187857Y-67333809D01*
X42235476Y-67429047D01*
X42235476Y-67571904D01*
X42187857Y-67667142D01*
X42140238Y-67714761D01*
X42045000Y-67762380D01*
X41664047Y-67762380D01*
X41664047Y-66762380D01*
X41997380Y-66762380D01*
X42092619Y-66810000D01*
X42140238Y-66857619D01*
X42187857Y-66952857D01*
X42187857Y-67048095D01*
X42140238Y-67143333D01*
X42092619Y-67190952D01*
X41997380Y-67238571D01*
X41664047Y-67238571D01*
X42664047Y-67381428D02*
X43425952Y-67381428D01*
X43045000Y-67762380D02*
X43045000Y-67000476D01*
X34067857Y-67476666D02*
X34544047Y-67476666D01*
X33972619Y-67762380D02*
X34305952Y-66762380D01*
X34639285Y-67762380D01*
X34972619Y-67381428D02*
X35734523Y-67381428D01*
X35353571Y-67762380D02*
X35353571Y-67000476D01*
X30257857Y-67476666D02*
X30734047Y-67476666D01*
X30162619Y-67762380D02*
X30495952Y-66762380D01*
X30829285Y-67762380D01*
X31162619Y-67381428D02*
X31924523Y-67381428D01*
X24217380Y-67238571D02*
X24360238Y-67286190D01*
X24407857Y-67333809D01*
X24455476Y-67429047D01*
X24455476Y-67571904D01*
X24407857Y-67667142D01*
X24360238Y-67714761D01*
X24265000Y-67762380D01*
X23884047Y-67762380D01*
X23884047Y-66762380D01*
X24217380Y-66762380D01*
X24312619Y-66810000D01*
X24360238Y-66857619D01*
X24407857Y-66952857D01*
X24407857Y-67048095D01*
X24360238Y-67143333D01*
X24312619Y-67190952D01*
X24217380Y-67238571D01*
X23884047Y-67238571D01*
X24884047Y-67381428D02*
X25645952Y-67381428D01*
X25265000Y-67762380D02*
X25265000Y-67000476D01*
X20407380Y-67238571D02*
X20550238Y-67286190D01*
X20597857Y-67333809D01*
X20645476Y-67429047D01*
X20645476Y-67571904D01*
X20597857Y-67667142D01*
X20550238Y-67714761D01*
X20455000Y-67762380D01*
X20074047Y-67762380D01*
X20074047Y-66762380D01*
X20407380Y-66762380D01*
X20502619Y-66810000D01*
X20550238Y-66857619D01*
X20597857Y-66952857D01*
X20597857Y-67048095D01*
X20550238Y-67143333D01*
X20502619Y-67190952D01*
X20407380Y-67238571D01*
X20074047Y-67238571D01*
X21074047Y-67381428D02*
X21835952Y-67381428D01*
X16287857Y-67476666D02*
X16764047Y-67476666D01*
X16192619Y-67762380D02*
X16525952Y-66762380D01*
X16859285Y-67762380D01*
X17192619Y-67381428D02*
X17954523Y-67381428D01*
X17573571Y-67762380D02*
X17573571Y-67000476D01*
X12477857Y-67476666D02*
X12954047Y-67476666D01*
X12382619Y-67762380D02*
X12715952Y-66762380D01*
X13049285Y-67762380D01*
X13382619Y-67381428D02*
X14144523Y-67381428D01*
D12*
X77920000Y-14604538D02*
G75*
G02*
X72370000Y-16149830I-2990000J-462D01*
G01*
X77920000Y-14605462D02*
G75*
G03*
X72370000Y-13060170I-2990000J462D01*
G01*
X77430000Y-14605000D02*
G75*
G03*
X77430000Y-14605000I-2500000J0D01*
G01*
X72370000Y-13060000D02*
X72370000Y-16150000D01*
X70935000Y-14604538D02*
G75*
G02*
X65385000Y-16149830I-2990000J-462D01*
G01*
X70935000Y-14605462D02*
G75*
G03*
X65385000Y-13060170I-2990000J462D01*
G01*
X70445000Y-14605000D02*
G75*
G03*
X70445000Y-14605000I-2500000J0D01*
G01*
X65385000Y-13060000D02*
X65385000Y-16150000D01*
X60775000Y-14604538D02*
G75*
G02*
X55225000Y-16149830I-2990000J-462D01*
G01*
X60775000Y-14605462D02*
G75*
G03*
X55225000Y-13060170I-2990000J462D01*
G01*
X60285000Y-14605000D02*
G75*
G03*
X60285000Y-14605000I-2500000J0D01*
G01*
X55225000Y-13060000D02*
X55225000Y-16150000D01*
X53790000Y-14604538D02*
G75*
G02*
X48240000Y-16149830I-2990000J-462D01*
G01*
X53790000Y-14605462D02*
G75*
G03*
X48240000Y-13060170I-2990000J462D01*
G01*
X53300000Y-14605000D02*
G75*
G03*
X53300000Y-14605000I-2500000J0D01*
G01*
X48240000Y-13060000D02*
X48240000Y-16150000D01*
X43630000Y-14604538D02*
G75*
G02*
X38080000Y-16149830I-2990000J-462D01*
G01*
X43630000Y-14605462D02*
G75*
G03*
X38080000Y-13060170I-2990000J462D01*
G01*
X43140000Y-14605000D02*
G75*
G03*
X43140000Y-14605000I-2500000J0D01*
G01*
X38080000Y-13060000D02*
X38080000Y-16150000D01*
X36645000Y-14604538D02*
G75*
G02*
X31095000Y-16149830I-2990000J-462D01*
G01*
X36645000Y-14605462D02*
G75*
G03*
X31095000Y-13060170I-2990000J462D01*
G01*
X36155000Y-14605000D02*
G75*
G03*
X36155000Y-14605000I-2500000J0D01*
G01*
X31095000Y-13060000D02*
X31095000Y-16150000D01*
X26485000Y-14604538D02*
G75*
G02*
X20935000Y-16149830I-2990000J-462D01*
G01*
X26485000Y-14605462D02*
G75*
G03*
X20935000Y-13060170I-2990000J462D01*
G01*
X25995000Y-14605000D02*
G75*
G03*
X25995000Y-14605000I-2500000J0D01*
G01*
X20935000Y-13060000D02*
X20935000Y-16150000D01*
X19500000Y-14604538D02*
G75*
G02*
X13950000Y-16149830I-2990000J-462D01*
G01*
X19500000Y-14605462D02*
G75*
G03*
X13950000Y-13060170I-2990000J462D01*
G01*
X19010000Y-14605000D02*
G75*
G03*
X19010000Y-14605000I-2500000J0D01*
G01*
X13950000Y-13060000D02*
X13950000Y-16150000D01*
X64135000Y-18415000D02*
X64135000Y-66675000D01*
X64135000Y-66675000D02*
X84455000Y-66675000D01*
X84455000Y-66675000D02*
X84455000Y-18415000D01*
X84455000Y-18415000D02*
X64135000Y-18415000D01*
X43180000Y-18415000D02*
X43180000Y-66675000D01*
X43180000Y-66675000D02*
X63500000Y-66675000D01*
X63500000Y-66675000D02*
X63500000Y-18415000D01*
X63500000Y-18415000D02*
X43180000Y-18415000D01*
X22225000Y-18415000D02*
X22225000Y-66675000D01*
X22225000Y-66675000D02*
X42545000Y-66675000D01*
X42545000Y-66675000D02*
X42545000Y-18415000D01*
X42545000Y-18415000D02*
X22225000Y-18415000D01*
X1270000Y-18415000D02*
X1270000Y-66675000D01*
X1270000Y-66675000D02*
X21590000Y-66675000D01*
X21590000Y-66675000D02*
X21590000Y-18415000D01*
X21590000Y-18415000D02*
X1270000Y-18415000D01*
X36600000Y-7620000D02*
X37370000Y-7620000D01*
X44680000Y-7620000D02*
X43910000Y-7620000D01*
X37370000Y-8990000D02*
X43910000Y-8990000D01*
X37370000Y-6250000D02*
X37370000Y-8990000D01*
X43910000Y-6250000D02*
X37370000Y-6250000D01*
X43910000Y-8990000D02*
X43910000Y-6250000D01*
X36600000Y-4445000D02*
X37370000Y-4445000D01*
X44680000Y-4445000D02*
X43910000Y-4445000D01*
X37370000Y-5815000D02*
X43910000Y-5815000D01*
X37370000Y-3075000D02*
X37370000Y-5815000D01*
X43910000Y-3075000D02*
X37370000Y-3075000D01*
X43910000Y-5815000D02*
X43910000Y-3075000D01*
X79545000Y-16450000D02*
X79545000Y-17500000D01*
X80595000Y-17500000D02*
X79545000Y-17500000D01*
X85645000Y-8100000D02*
X94445000Y-8100000D01*
X94445000Y-8100000D02*
X94445000Y-17300000D01*
X79745000Y-10800000D02*
X79745000Y-8100000D01*
X79745000Y-8100000D02*
X81645000Y-8100000D01*
X94445000Y-17300000D02*
X79745000Y-17300000D01*
X79745000Y-17300000D02*
X79745000Y-14700000D01*
D10*
X71016904Y-17597380D02*
X71016904Y-16597380D01*
X71255000Y-16597380D01*
X71397857Y-16645000D01*
X71493095Y-16740238D01*
X71540714Y-16835476D01*
X71588333Y-17025952D01*
X71588333Y-17168809D01*
X71540714Y-17359285D01*
X71493095Y-17454523D01*
X71397857Y-17549761D01*
X71255000Y-17597380D01*
X71016904Y-17597380D01*
X72159761Y-17025952D02*
X72064523Y-16978333D01*
X72016904Y-16930714D01*
X71969285Y-16835476D01*
X71969285Y-16787857D01*
X72016904Y-16692619D01*
X72064523Y-16645000D01*
X72159761Y-16597380D01*
X72350238Y-16597380D01*
X72445476Y-16645000D01*
X72493095Y-16692619D01*
X72540714Y-16787857D01*
X72540714Y-16835476D01*
X72493095Y-16930714D01*
X72445476Y-16978333D01*
X72350238Y-17025952D01*
X72159761Y-17025952D01*
X72064523Y-17073571D01*
X72016904Y-17121190D01*
X71969285Y-17216428D01*
X71969285Y-17406904D01*
X72016904Y-17502142D01*
X72064523Y-17549761D01*
X72159761Y-17597380D01*
X72350238Y-17597380D01*
X72445476Y-17549761D01*
X72493095Y-17502142D01*
X72540714Y-17406904D01*
X72540714Y-17216428D01*
X72493095Y-17121190D01*
X72445476Y-17073571D01*
X72350238Y-17025952D01*
X64031904Y-17597380D02*
X64031904Y-16597380D01*
X64270000Y-16597380D01*
X64412857Y-16645000D01*
X64508095Y-16740238D01*
X64555714Y-16835476D01*
X64603333Y-17025952D01*
X64603333Y-17168809D01*
X64555714Y-17359285D01*
X64508095Y-17454523D01*
X64412857Y-17549761D01*
X64270000Y-17597380D01*
X64031904Y-17597380D01*
X64936666Y-16597380D02*
X65603333Y-16597380D01*
X65174761Y-17597380D01*
X53871904Y-17597380D02*
X53871904Y-16597380D01*
X54110000Y-16597380D01*
X54252857Y-16645000D01*
X54348095Y-16740238D01*
X54395714Y-16835476D01*
X54443333Y-17025952D01*
X54443333Y-17168809D01*
X54395714Y-17359285D01*
X54348095Y-17454523D01*
X54252857Y-17549761D01*
X54110000Y-17597380D01*
X53871904Y-17597380D01*
X55300476Y-16597380D02*
X55110000Y-16597380D01*
X55014761Y-16645000D01*
X54967142Y-16692619D01*
X54871904Y-16835476D01*
X54824285Y-17025952D01*
X54824285Y-17406904D01*
X54871904Y-17502142D01*
X54919523Y-17549761D01*
X55014761Y-17597380D01*
X55205238Y-17597380D01*
X55300476Y-17549761D01*
X55348095Y-17502142D01*
X55395714Y-17406904D01*
X55395714Y-17168809D01*
X55348095Y-17073571D01*
X55300476Y-17025952D01*
X55205238Y-16978333D01*
X55014761Y-16978333D01*
X54919523Y-17025952D01*
X54871904Y-17073571D01*
X54824285Y-17168809D01*
X46886904Y-17597380D02*
X46886904Y-16597380D01*
X47125000Y-16597380D01*
X47267857Y-16645000D01*
X47363095Y-16740238D01*
X47410714Y-16835476D01*
X47458333Y-17025952D01*
X47458333Y-17168809D01*
X47410714Y-17359285D01*
X47363095Y-17454523D01*
X47267857Y-17549761D01*
X47125000Y-17597380D01*
X46886904Y-17597380D01*
X48363095Y-16597380D02*
X47886904Y-16597380D01*
X47839285Y-17073571D01*
X47886904Y-17025952D01*
X47982142Y-16978333D01*
X48220238Y-16978333D01*
X48315476Y-17025952D01*
X48363095Y-17073571D01*
X48410714Y-17168809D01*
X48410714Y-17406904D01*
X48363095Y-17502142D01*
X48315476Y-17549761D01*
X48220238Y-17597380D01*
X47982142Y-17597380D01*
X47886904Y-17549761D01*
X47839285Y-17502142D01*
X36726904Y-17597380D02*
X36726904Y-16597380D01*
X36965000Y-16597380D01*
X37107857Y-16645000D01*
X37203095Y-16740238D01*
X37250714Y-16835476D01*
X37298333Y-17025952D01*
X37298333Y-17168809D01*
X37250714Y-17359285D01*
X37203095Y-17454523D01*
X37107857Y-17549761D01*
X36965000Y-17597380D01*
X36726904Y-17597380D01*
X38155476Y-16930714D02*
X38155476Y-17597380D01*
X37917380Y-16549761D02*
X37679285Y-17264047D01*
X38298333Y-17264047D01*
X29741904Y-17597380D02*
X29741904Y-16597380D01*
X29980000Y-16597380D01*
X30122857Y-16645000D01*
X30218095Y-16740238D01*
X30265714Y-16835476D01*
X30313333Y-17025952D01*
X30313333Y-17168809D01*
X30265714Y-17359285D01*
X30218095Y-17454523D01*
X30122857Y-17549761D01*
X29980000Y-17597380D01*
X29741904Y-17597380D01*
X30646666Y-16597380D02*
X31265714Y-16597380D01*
X30932380Y-16978333D01*
X31075238Y-16978333D01*
X31170476Y-17025952D01*
X31218095Y-17073571D01*
X31265714Y-17168809D01*
X31265714Y-17406904D01*
X31218095Y-17502142D01*
X31170476Y-17549761D01*
X31075238Y-17597380D01*
X30789523Y-17597380D01*
X30694285Y-17549761D01*
X30646666Y-17502142D01*
X19581904Y-17597380D02*
X19581904Y-16597380D01*
X19820000Y-16597380D01*
X19962857Y-16645000D01*
X20058095Y-16740238D01*
X20105714Y-16835476D01*
X20153333Y-17025952D01*
X20153333Y-17168809D01*
X20105714Y-17359285D01*
X20058095Y-17454523D01*
X19962857Y-17549761D01*
X19820000Y-17597380D01*
X19581904Y-17597380D01*
X20534285Y-16692619D02*
X20581904Y-16645000D01*
X20677142Y-16597380D01*
X20915238Y-16597380D01*
X21010476Y-16645000D01*
X21058095Y-16692619D01*
X21105714Y-16787857D01*
X21105714Y-16883095D01*
X21058095Y-17025952D01*
X20486666Y-17597380D01*
X21105714Y-17597380D01*
X12596904Y-17597380D02*
X12596904Y-16597380D01*
X12835000Y-16597380D01*
X12977857Y-16645000D01*
X13073095Y-16740238D01*
X13120714Y-16835476D01*
X13168333Y-17025952D01*
X13168333Y-17168809D01*
X13120714Y-17359285D01*
X13073095Y-17454523D01*
X12977857Y-17549761D01*
X12835000Y-17597380D01*
X12596904Y-17597380D01*
X14120714Y-17597380D02*
X13549285Y-17597380D01*
X13835000Y-17597380D02*
X13835000Y-16597380D01*
X13739761Y-16740238D01*
X13644523Y-16835476D01*
X13549285Y-16883095D01*
X74247380Y-36956904D02*
X75056904Y-36956904D01*
X75152142Y-36909285D01*
X75199761Y-36861666D01*
X75247380Y-36766428D01*
X75247380Y-36575952D01*
X75199761Y-36480714D01*
X75152142Y-36433095D01*
X75056904Y-36385476D01*
X74247380Y-36385476D01*
X74580714Y-35480714D02*
X75247380Y-35480714D01*
X74199761Y-35718809D02*
X74914047Y-35956904D01*
X74914047Y-35337857D01*
X68128333Y-64063571D02*
X68461666Y-64063571D01*
X68604523Y-64587380D02*
X68128333Y-64587380D01*
X68128333Y-63587380D01*
X68604523Y-63587380D01*
X68985476Y-64301666D02*
X69461666Y-64301666D01*
X68890238Y-64587380D02*
X69223571Y-63587380D01*
X69556904Y-64587380D01*
X69842619Y-64539761D02*
X69985476Y-64587380D01*
X70223571Y-64587380D01*
X70318809Y-64539761D01*
X70366428Y-64492142D01*
X70414047Y-64396904D01*
X70414047Y-64301666D01*
X70366428Y-64206428D01*
X70318809Y-64158809D01*
X70223571Y-64111190D01*
X70033095Y-64063571D01*
X69937857Y-64015952D01*
X69890238Y-63968333D01*
X69842619Y-63873095D01*
X69842619Y-63777857D01*
X69890238Y-63682619D01*
X69937857Y-63635000D01*
X70033095Y-63587380D01*
X70271190Y-63587380D01*
X70414047Y-63635000D01*
X71033095Y-64111190D02*
X71033095Y-64587380D01*
X70699761Y-63587380D02*
X71033095Y-64111190D01*
X71366428Y-63587380D01*
X71699761Y-64587380D02*
X71699761Y-63587380D01*
X71937857Y-63587380D01*
X72080714Y-63635000D01*
X72175952Y-63730238D01*
X72223571Y-63825476D01*
X72271190Y-64015952D01*
X72271190Y-64158809D01*
X72223571Y-64349285D01*
X72175952Y-64444523D01*
X72080714Y-64539761D01*
X71937857Y-64587380D01*
X71699761Y-64587380D01*
X73271190Y-64587380D02*
X72937857Y-64111190D01*
X72699761Y-64587380D02*
X72699761Y-63587380D01*
X73080714Y-63587380D01*
X73175952Y-63635000D01*
X73223571Y-63682619D01*
X73271190Y-63777857D01*
X73271190Y-63920714D01*
X73223571Y-64015952D01*
X73175952Y-64063571D01*
X73080714Y-64111190D01*
X72699761Y-64111190D01*
X73699761Y-64587380D02*
X73699761Y-63587380D01*
X74033095Y-63587380D02*
X74366428Y-64587380D01*
X74699761Y-63587380D01*
X75033095Y-64063571D02*
X75366428Y-64063571D01*
X75509285Y-64587380D02*
X75033095Y-64587380D01*
X75033095Y-63587380D01*
X75509285Y-63587380D01*
X76509285Y-64587380D02*
X76175952Y-64111190D01*
X75937857Y-64587380D02*
X75937857Y-63587380D01*
X76318809Y-63587380D01*
X76414047Y-63635000D01*
X76461666Y-63682619D01*
X76509285Y-63777857D01*
X76509285Y-63920714D01*
X76461666Y-64015952D01*
X76414047Y-64063571D01*
X76318809Y-64111190D01*
X75937857Y-64111190D01*
X77556904Y-63587380D02*
X77890238Y-64587380D01*
X78223571Y-63587380D01*
X78985476Y-63920714D02*
X78985476Y-64587380D01*
X78747380Y-63539761D02*
X78509285Y-64254047D01*
X79128333Y-64254047D01*
X79509285Y-64492142D02*
X79556904Y-64539761D01*
X79509285Y-64587380D01*
X79461666Y-64539761D01*
X79509285Y-64492142D01*
X79509285Y-64587380D01*
X80414047Y-63920714D02*
X80414047Y-64587380D01*
X80175952Y-63539761D02*
X79937857Y-64254047D01*
X80556904Y-64254047D01*
X53292380Y-36956904D02*
X54101904Y-36956904D01*
X54197142Y-36909285D01*
X54244761Y-36861666D01*
X54292380Y-36766428D01*
X54292380Y-36575952D01*
X54244761Y-36480714D01*
X54197142Y-36433095D01*
X54101904Y-36385476D01*
X53292380Y-36385476D01*
X53292380Y-36004523D02*
X53292380Y-35385476D01*
X53673333Y-35718809D01*
X53673333Y-35575952D01*
X53720952Y-35480714D01*
X53768571Y-35433095D01*
X53863809Y-35385476D01*
X54101904Y-35385476D01*
X54197142Y-35433095D01*
X54244761Y-35480714D01*
X54292380Y-35575952D01*
X54292380Y-35861666D01*
X54244761Y-35956904D01*
X54197142Y-36004523D01*
X47173333Y-64063571D02*
X47506666Y-64063571D01*
X47649523Y-64587380D02*
X47173333Y-64587380D01*
X47173333Y-63587380D01*
X47649523Y-63587380D01*
X48030476Y-64301666D02*
X48506666Y-64301666D01*
X47935238Y-64587380D02*
X48268571Y-63587380D01*
X48601904Y-64587380D01*
X48887619Y-64539761D02*
X49030476Y-64587380D01*
X49268571Y-64587380D01*
X49363809Y-64539761D01*
X49411428Y-64492142D01*
X49459047Y-64396904D01*
X49459047Y-64301666D01*
X49411428Y-64206428D01*
X49363809Y-64158809D01*
X49268571Y-64111190D01*
X49078095Y-64063571D01*
X48982857Y-64015952D01*
X48935238Y-63968333D01*
X48887619Y-63873095D01*
X48887619Y-63777857D01*
X48935238Y-63682619D01*
X48982857Y-63635000D01*
X49078095Y-63587380D01*
X49316190Y-63587380D01*
X49459047Y-63635000D01*
X50078095Y-64111190D02*
X50078095Y-64587380D01*
X49744761Y-63587380D02*
X50078095Y-64111190D01*
X50411428Y-63587380D01*
X50744761Y-64587380D02*
X50744761Y-63587380D01*
X50982857Y-63587380D01*
X51125714Y-63635000D01*
X51220952Y-63730238D01*
X51268571Y-63825476D01*
X51316190Y-64015952D01*
X51316190Y-64158809D01*
X51268571Y-64349285D01*
X51220952Y-64444523D01*
X51125714Y-64539761D01*
X50982857Y-64587380D01*
X50744761Y-64587380D01*
X52316190Y-64587380D02*
X51982857Y-64111190D01*
X51744761Y-64587380D02*
X51744761Y-63587380D01*
X52125714Y-63587380D01*
X52220952Y-63635000D01*
X52268571Y-63682619D01*
X52316190Y-63777857D01*
X52316190Y-63920714D01*
X52268571Y-64015952D01*
X52220952Y-64063571D01*
X52125714Y-64111190D01*
X51744761Y-64111190D01*
X52744761Y-64587380D02*
X52744761Y-63587380D01*
X53078095Y-63587380D02*
X53411428Y-64587380D01*
X53744761Y-63587380D01*
X54078095Y-64063571D02*
X54411428Y-64063571D01*
X54554285Y-64587380D02*
X54078095Y-64587380D01*
X54078095Y-63587380D01*
X54554285Y-63587380D01*
X55554285Y-64587380D02*
X55220952Y-64111190D01*
X54982857Y-64587380D02*
X54982857Y-63587380D01*
X55363809Y-63587380D01*
X55459047Y-63635000D01*
X55506666Y-63682619D01*
X55554285Y-63777857D01*
X55554285Y-63920714D01*
X55506666Y-64015952D01*
X55459047Y-64063571D01*
X55363809Y-64111190D01*
X54982857Y-64111190D01*
X56601904Y-63587380D02*
X56935238Y-64587380D01*
X57268571Y-63587380D01*
X58030476Y-63920714D02*
X58030476Y-64587380D01*
X57792380Y-63539761D02*
X57554285Y-64254047D01*
X58173333Y-64254047D01*
X58554285Y-64492142D02*
X58601904Y-64539761D01*
X58554285Y-64587380D01*
X58506666Y-64539761D01*
X58554285Y-64492142D01*
X58554285Y-64587380D01*
X59459047Y-63920714D02*
X59459047Y-64587380D01*
X59220952Y-63539761D02*
X58982857Y-64254047D01*
X59601904Y-64254047D01*
X32337380Y-36956904D02*
X33146904Y-36956904D01*
X33242142Y-36909285D01*
X33289761Y-36861666D01*
X33337380Y-36766428D01*
X33337380Y-36575952D01*
X33289761Y-36480714D01*
X33242142Y-36433095D01*
X33146904Y-36385476D01*
X32337380Y-36385476D01*
X32432619Y-35956904D02*
X32385000Y-35909285D01*
X32337380Y-35814047D01*
X32337380Y-35575952D01*
X32385000Y-35480714D01*
X32432619Y-35433095D01*
X32527857Y-35385476D01*
X32623095Y-35385476D01*
X32765952Y-35433095D01*
X33337380Y-36004523D01*
X33337380Y-35385476D01*
X26218333Y-64063571D02*
X26551666Y-64063571D01*
X26694523Y-64587380D02*
X26218333Y-64587380D01*
X26218333Y-63587380D01*
X26694523Y-63587380D01*
X27075476Y-64301666D02*
X27551666Y-64301666D01*
X26980238Y-64587380D02*
X27313571Y-63587380D01*
X27646904Y-64587380D01*
X27932619Y-64539761D02*
X28075476Y-64587380D01*
X28313571Y-64587380D01*
X28408809Y-64539761D01*
X28456428Y-64492142D01*
X28504047Y-64396904D01*
X28504047Y-64301666D01*
X28456428Y-64206428D01*
X28408809Y-64158809D01*
X28313571Y-64111190D01*
X28123095Y-64063571D01*
X28027857Y-64015952D01*
X27980238Y-63968333D01*
X27932619Y-63873095D01*
X27932619Y-63777857D01*
X27980238Y-63682619D01*
X28027857Y-63635000D01*
X28123095Y-63587380D01*
X28361190Y-63587380D01*
X28504047Y-63635000D01*
X29123095Y-64111190D02*
X29123095Y-64587380D01*
X28789761Y-63587380D02*
X29123095Y-64111190D01*
X29456428Y-63587380D01*
X29789761Y-64587380D02*
X29789761Y-63587380D01*
X30027857Y-63587380D01*
X30170714Y-63635000D01*
X30265952Y-63730238D01*
X30313571Y-63825476D01*
X30361190Y-64015952D01*
X30361190Y-64158809D01*
X30313571Y-64349285D01*
X30265952Y-64444523D01*
X30170714Y-64539761D01*
X30027857Y-64587380D01*
X29789761Y-64587380D01*
X31361190Y-64587380D02*
X31027857Y-64111190D01*
X30789761Y-64587380D02*
X30789761Y-63587380D01*
X31170714Y-63587380D01*
X31265952Y-63635000D01*
X31313571Y-63682619D01*
X31361190Y-63777857D01*
X31361190Y-63920714D01*
X31313571Y-64015952D01*
X31265952Y-64063571D01*
X31170714Y-64111190D01*
X30789761Y-64111190D01*
X31789761Y-64587380D02*
X31789761Y-63587380D01*
X32123095Y-63587380D02*
X32456428Y-64587380D01*
X32789761Y-63587380D01*
X33123095Y-64063571D02*
X33456428Y-64063571D01*
X33599285Y-64587380D02*
X33123095Y-64587380D01*
X33123095Y-63587380D01*
X33599285Y-63587380D01*
X34599285Y-64587380D02*
X34265952Y-64111190D01*
X34027857Y-64587380D02*
X34027857Y-63587380D01*
X34408809Y-63587380D01*
X34504047Y-63635000D01*
X34551666Y-63682619D01*
X34599285Y-63777857D01*
X34599285Y-63920714D01*
X34551666Y-64015952D01*
X34504047Y-64063571D01*
X34408809Y-64111190D01*
X34027857Y-64111190D01*
X35646904Y-63587380D02*
X35980238Y-64587380D01*
X36313571Y-63587380D01*
X37075476Y-63920714D02*
X37075476Y-64587380D01*
X36837380Y-63539761D02*
X36599285Y-64254047D01*
X37218333Y-64254047D01*
X37599285Y-64492142D02*
X37646904Y-64539761D01*
X37599285Y-64587380D01*
X37551666Y-64539761D01*
X37599285Y-64492142D01*
X37599285Y-64587380D01*
X38504047Y-63920714D02*
X38504047Y-64587380D01*
X38265952Y-63539761D02*
X38027857Y-64254047D01*
X38646904Y-64254047D01*
X11382380Y-36956904D02*
X12191904Y-36956904D01*
X12287142Y-36909285D01*
X12334761Y-36861666D01*
X12382380Y-36766428D01*
X12382380Y-36575952D01*
X12334761Y-36480714D01*
X12287142Y-36433095D01*
X12191904Y-36385476D01*
X11382380Y-36385476D01*
X12382380Y-35385476D02*
X12382380Y-35956904D01*
X12382380Y-35671190D02*
X11382380Y-35671190D01*
X11525238Y-35766428D01*
X11620476Y-35861666D01*
X11668095Y-35956904D01*
X5263333Y-64063571D02*
X5596666Y-64063571D01*
X5739523Y-64587380D02*
X5263333Y-64587380D01*
X5263333Y-63587380D01*
X5739523Y-63587380D01*
X6120476Y-64301666D02*
X6596666Y-64301666D01*
X6025238Y-64587380D02*
X6358571Y-63587380D01*
X6691904Y-64587380D01*
X6977619Y-64539761D02*
X7120476Y-64587380D01*
X7358571Y-64587380D01*
X7453809Y-64539761D01*
X7501428Y-64492142D01*
X7549047Y-64396904D01*
X7549047Y-64301666D01*
X7501428Y-64206428D01*
X7453809Y-64158809D01*
X7358571Y-64111190D01*
X7168095Y-64063571D01*
X7072857Y-64015952D01*
X7025238Y-63968333D01*
X6977619Y-63873095D01*
X6977619Y-63777857D01*
X7025238Y-63682619D01*
X7072857Y-63635000D01*
X7168095Y-63587380D01*
X7406190Y-63587380D01*
X7549047Y-63635000D01*
X8168095Y-64111190D02*
X8168095Y-64587380D01*
X7834761Y-63587380D02*
X8168095Y-64111190D01*
X8501428Y-63587380D01*
X8834761Y-64587380D02*
X8834761Y-63587380D01*
X9072857Y-63587380D01*
X9215714Y-63635000D01*
X9310952Y-63730238D01*
X9358571Y-63825476D01*
X9406190Y-64015952D01*
X9406190Y-64158809D01*
X9358571Y-64349285D01*
X9310952Y-64444523D01*
X9215714Y-64539761D01*
X9072857Y-64587380D01*
X8834761Y-64587380D01*
X10406190Y-64587380D02*
X10072857Y-64111190D01*
X9834761Y-64587380D02*
X9834761Y-63587380D01*
X10215714Y-63587380D01*
X10310952Y-63635000D01*
X10358571Y-63682619D01*
X10406190Y-63777857D01*
X10406190Y-63920714D01*
X10358571Y-64015952D01*
X10310952Y-64063571D01*
X10215714Y-64111190D01*
X9834761Y-64111190D01*
X10834761Y-64587380D02*
X10834761Y-63587380D01*
X11168095Y-63587380D02*
X11501428Y-64587380D01*
X11834761Y-63587380D01*
X12168095Y-64063571D02*
X12501428Y-64063571D01*
X12644285Y-64587380D02*
X12168095Y-64587380D01*
X12168095Y-63587380D01*
X12644285Y-63587380D01*
X13644285Y-64587380D02*
X13310952Y-64111190D01*
X13072857Y-64587380D02*
X13072857Y-63587380D01*
X13453809Y-63587380D01*
X13549047Y-63635000D01*
X13596666Y-63682619D01*
X13644285Y-63777857D01*
X13644285Y-63920714D01*
X13596666Y-64015952D01*
X13549047Y-64063571D01*
X13453809Y-64111190D01*
X13072857Y-64111190D01*
X14691904Y-63587380D02*
X15025238Y-64587380D01*
X15358571Y-63587380D01*
X16120476Y-63920714D02*
X16120476Y-64587380D01*
X15882380Y-63539761D02*
X15644285Y-64254047D01*
X16263333Y-64254047D01*
X16644285Y-64492142D02*
X16691904Y-64539761D01*
X16644285Y-64587380D01*
X16596666Y-64539761D01*
X16644285Y-64492142D01*
X16644285Y-64587380D01*
X17549047Y-63920714D02*
X17549047Y-64587380D01*
X17310952Y-63539761D02*
X17072857Y-64254047D01*
X17691904Y-64254047D01*
X45077142Y-9977380D02*
X44743809Y-9501190D01*
X44505714Y-9977380D02*
X44505714Y-8977380D01*
X44886666Y-8977380D01*
X44981904Y-9025000D01*
X45029523Y-9072619D01*
X45077142Y-9167857D01*
X45077142Y-9310714D01*
X45029523Y-9405952D01*
X44981904Y-9453571D01*
X44886666Y-9501190D01*
X44505714Y-9501190D01*
X46029523Y-9977380D02*
X45458095Y-9977380D01*
X45743809Y-9977380D02*
X45743809Y-8977380D01*
X45648571Y-9120238D01*
X45553333Y-9215476D01*
X45458095Y-9263095D01*
X46648571Y-8977380D02*
X46743809Y-8977380D01*
X46839047Y-9025000D01*
X46886666Y-9072619D01*
X46934285Y-9167857D01*
X46981904Y-9358333D01*
X46981904Y-9596428D01*
X46934285Y-9786904D01*
X46886666Y-9882142D01*
X46839047Y-9929761D01*
X46743809Y-9977380D01*
X46648571Y-9977380D01*
X46553333Y-9929761D01*
X46505714Y-9882142D01*
X46458095Y-9786904D01*
X46410476Y-9596428D01*
X46410476Y-9358333D01*
X46458095Y-9167857D01*
X46505714Y-9072619D01*
X46553333Y-9025000D01*
X46648571Y-8977380D01*
X45553333Y-2992380D02*
X45220000Y-2516190D01*
X44981904Y-2992380D02*
X44981904Y-1992380D01*
X45362857Y-1992380D01*
X45458095Y-2040000D01*
X45505714Y-2087619D01*
X45553333Y-2182857D01*
X45553333Y-2325714D01*
X45505714Y-2420952D01*
X45458095Y-2468571D01*
X45362857Y-2516190D01*
X44981904Y-2516190D01*
X46029523Y-2992380D02*
X46220000Y-2992380D01*
X46315238Y-2944761D01*
X46362857Y-2897142D01*
X46458095Y-2754285D01*
X46505714Y-2563809D01*
X46505714Y-2182857D01*
X46458095Y-2087619D01*
X46410476Y-2040000D01*
X46315238Y-1992380D01*
X46124761Y-1992380D01*
X46029523Y-2040000D01*
X45981904Y-2087619D01*
X45934285Y-2182857D01*
X45934285Y-2420952D01*
X45981904Y-2516190D01*
X46029523Y-2563809D01*
X46124761Y-2611428D01*
X46315238Y-2611428D01*
X46410476Y-2563809D01*
X46458095Y-2516190D01*
X46505714Y-2420952D01*
X80311666Y-6437380D02*
X80311666Y-7151666D01*
X80264047Y-7294523D01*
X80168809Y-7389761D01*
X80025952Y-7437380D01*
X79930714Y-7437380D01*
X81311666Y-7437380D02*
X80740238Y-7437380D01*
X81025952Y-7437380D02*
X81025952Y-6437380D01*
X80930714Y-6580238D01*
X80835476Y-6675476D01*
X80740238Y-6723095D01*
%LPC*%
D13*
X76200000Y-14605000D03*
D14*
X73660000Y-14605000D03*
D13*
X69215000Y-14605000D03*
D14*
X66675000Y-14605000D03*
D13*
X59055000Y-14605000D03*
D14*
X56515000Y-14605000D03*
D13*
X52070000Y-14605000D03*
D14*
X49530000Y-14605000D03*
D13*
X41910000Y-14605000D03*
D14*
X39370000Y-14605000D03*
D13*
X34925000Y-14605000D03*
D14*
X32385000Y-14605000D03*
D13*
X24765000Y-14605000D03*
D14*
X22225000Y-14605000D03*
D13*
X17780000Y-14605000D03*
D14*
X15240000Y-14605000D03*
D15*
X81915000Y-51435000D03*
X81915000Y-53975000D03*
X81915000Y-48895000D03*
X81915000Y-41275000D03*
X81915000Y-38735000D03*
X81915000Y-36195000D03*
X81915000Y-33655000D03*
X81915000Y-31115000D03*
X81915000Y-28575000D03*
X66675000Y-26035000D03*
X66675000Y-28575000D03*
X66675000Y-36195000D03*
X66675000Y-38735000D03*
X66675000Y-41275000D03*
X66675000Y-48895000D03*
X81915000Y-59055000D03*
X81915000Y-56515000D03*
X81915000Y-46355000D03*
X81915000Y-43815000D03*
X81915000Y-26035000D03*
X81915000Y-23495000D03*
X81915000Y-20955000D03*
X66675000Y-20955000D03*
X66675000Y-23495000D03*
X66675000Y-31115000D03*
X66675000Y-33655000D03*
X66675000Y-43815000D03*
X66675000Y-46355000D03*
X66675000Y-51435000D03*
X66675000Y-53975000D03*
X66675000Y-56515000D03*
D16*
X66675000Y-59055000D03*
D15*
X60960000Y-51435000D03*
X60960000Y-53975000D03*
X60960000Y-48895000D03*
X60960000Y-41275000D03*
X60960000Y-38735000D03*
X60960000Y-36195000D03*
X60960000Y-33655000D03*
X60960000Y-31115000D03*
X60960000Y-28575000D03*
X45720000Y-26035000D03*
X45720000Y-28575000D03*
X45720000Y-36195000D03*
X45720000Y-38735000D03*
X45720000Y-41275000D03*
X45720000Y-48895000D03*
X60960000Y-59055000D03*
X60960000Y-56515000D03*
X60960000Y-46355000D03*
X60960000Y-43815000D03*
X60960000Y-26035000D03*
X60960000Y-23495000D03*
X60960000Y-20955000D03*
X45720000Y-20955000D03*
X45720000Y-23495000D03*
X45720000Y-31115000D03*
X45720000Y-33655000D03*
X45720000Y-43815000D03*
X45720000Y-46355000D03*
X45720000Y-51435000D03*
X45720000Y-53975000D03*
X45720000Y-56515000D03*
D16*
X45720000Y-59055000D03*
D15*
X40005000Y-51435000D03*
X40005000Y-53975000D03*
X40005000Y-48895000D03*
X40005000Y-41275000D03*
X40005000Y-38735000D03*
X40005000Y-36195000D03*
X40005000Y-33655000D03*
X40005000Y-31115000D03*
X40005000Y-28575000D03*
X24765000Y-26035000D03*
X24765000Y-28575000D03*
X24765000Y-36195000D03*
X24765000Y-38735000D03*
X24765000Y-41275000D03*
X24765000Y-48895000D03*
X40005000Y-59055000D03*
X40005000Y-56515000D03*
X40005000Y-46355000D03*
X40005000Y-43815000D03*
X40005000Y-26035000D03*
X40005000Y-23495000D03*
X40005000Y-20955000D03*
X24765000Y-20955000D03*
X24765000Y-23495000D03*
X24765000Y-31115000D03*
X24765000Y-33655000D03*
X24765000Y-43815000D03*
X24765000Y-46355000D03*
X24765000Y-51435000D03*
X24765000Y-53975000D03*
X24765000Y-56515000D03*
D16*
X24765000Y-59055000D03*
D15*
X19050000Y-51435000D03*
X19050000Y-53975000D03*
X19050000Y-48895000D03*
X19050000Y-41275000D03*
X19050000Y-38735000D03*
X19050000Y-36195000D03*
X19050000Y-33655000D03*
X19050000Y-31115000D03*
X19050000Y-28575000D03*
X3810000Y-26035000D03*
X3810000Y-28575000D03*
X3810000Y-36195000D03*
X3810000Y-38735000D03*
X3810000Y-41275000D03*
X3810000Y-48895000D03*
X19050000Y-59055000D03*
X19050000Y-56515000D03*
X19050000Y-46355000D03*
X19050000Y-43815000D03*
X19050000Y-26035000D03*
X19050000Y-23495000D03*
X19050000Y-20955000D03*
X3810000Y-20955000D03*
X3810000Y-23495000D03*
X3810000Y-31115000D03*
X3810000Y-33655000D03*
X3810000Y-43815000D03*
X3810000Y-46355000D03*
X3810000Y-51435000D03*
X3810000Y-53975000D03*
X3810000Y-56515000D03*
D16*
X3810000Y-59055000D03*
D17*
X86360000Y-70485000D03*
X5080000Y-70485000D03*
X7620000Y-13970000D03*
D18*
X35560000Y-7620000D03*
D19*
X45720000Y-7620000D03*
D18*
X35560000Y-4445000D03*
D19*
X45720000Y-4445000D03*
D18*
X76835000Y-31115000D03*
D19*
X76835000Y-20955000D03*
D18*
X71755000Y-31115000D03*
D19*
X71755000Y-20955000D03*
D18*
X55880000Y-31115000D03*
D19*
X55880000Y-20955000D03*
D18*
X50800000Y-31115000D03*
D19*
X50800000Y-20955000D03*
D18*
X34925000Y-31115000D03*
D19*
X34925000Y-20955000D03*
D18*
X29845000Y-31115000D03*
D19*
X29845000Y-20955000D03*
D18*
X13970000Y-31115000D03*
D19*
X13970000Y-20955000D03*
D18*
X8890000Y-31115000D03*
D19*
X8890000Y-20955000D03*
D20*
X31750000Y-6350000D03*
X27940000Y-6350000D03*
X24130000Y-6350000D03*
X20320000Y-6350000D03*
X16510000Y-6350000D03*
X12700000Y-6350000D03*
X8890000Y-6350000D03*
D21*
X5080000Y-6350000D03*
D20*
X76200000Y-6350000D03*
X72390000Y-6350000D03*
X68580000Y-6350000D03*
X64770000Y-6350000D03*
X60960000Y-6350000D03*
X57150000Y-6350000D03*
X53340000Y-6350000D03*
D21*
X49530000Y-6350000D03*
D20*
X78105000Y-71120000D03*
X74295000Y-71120000D03*
X70485000Y-71120000D03*
D21*
X66675000Y-71120000D03*
D20*
X42545000Y-71120000D03*
X38735000Y-71120000D03*
X34925000Y-71120000D03*
D21*
X31115000Y-71120000D03*
D20*
X60325000Y-71120000D03*
X56515000Y-71120000D03*
X52705000Y-71120000D03*
D21*
X48895000Y-71120000D03*
D20*
X24765000Y-71120000D03*
X20955000Y-71120000D03*
X17145000Y-71120000D03*
D21*
X13335000Y-71120000D03*
D22*
X80645000Y-12700000D03*
G36*
G01*
X88145000Y-11700000D02*
X88145000Y-13700000D01*
G75*
G02*
X87395000Y-14450000I-750000J0D01*
G01*
X85895000Y-14450000D01*
G75*
G02*
X85145000Y-13700000I0J750000D01*
G01*
X85145000Y-11700000D01*
G75*
G02*
X85895000Y-10950000I750000J0D01*
G01*
X87395000Y-10950000D01*
G75*
G02*
X88145000Y-11700000I0J-750000D01*
G01*
G37*
G36*
G01*
X85395000Y-7125000D02*
X85395000Y-8875000D01*
G75*
G02*
X84520000Y-9750000I-875000J0D01*
G01*
X82770000Y-9750000D01*
G75*
G02*
X81895000Y-8875000I0J875000D01*
G01*
X81895000Y-7125000D01*
G75*
G02*
X82770000Y-6250000I875000J0D01*
G01*
X84520000Y-6250000D01*
G75*
G02*
X85395000Y-7125000I0J-875000D01*
G01*
G37*
M02*
