M48
; DRILL file {KiCad (5.1.9)-1} date 10/14/21 10:16:45
; FORMAT={-:-/ absolute / metric / decimal}
; #@! TF.CreationDate,2021-10-14T10:16:45-04:00
; #@! TF.GenerationSoftware,Kicad,Pcbnew,(5.1.9)-1
; #@! TF.FileFunction,Plated,1,2,PTH
FMAT,2
METRIC
T1C0.400
T2C0.762
T3C0.800
T4C0.900
T5C1.000
T6C1.100
T7C3.200
%
G90
G05
T1
X11.43Y-42.545
X20.955Y-42.545
X22.86Y-42.545
X27.94Y-71.12
X32.385Y-42.545
X41.91Y-42.545
X43.815Y-42.545
X45.72Y-71.12
X53.34Y-42.545
X62.865Y-42.545
X63.5Y-71.12
X64.77Y-42.545
X74.295Y-42.545
X87.63Y-20.955
X87.63Y-28.575
X87.63Y-36.195
T2
X3.81Y-20.955
X3.81Y-23.495
X3.81Y-26.035
X3.81Y-28.575
X3.81Y-31.115
X3.81Y-33.655
X3.81Y-36.195
X3.81Y-38.735
X3.81Y-41.275
X3.81Y-43.815
X3.81Y-46.355
X3.81Y-48.895
X3.81Y-51.435
X3.81Y-53.975
X3.81Y-56.515
X3.81Y-59.055
X19.05Y-20.955
X19.05Y-23.495
X19.05Y-26.035
X19.05Y-28.575
X19.05Y-31.115
X19.05Y-33.655
X19.05Y-36.195
X19.05Y-38.735
X19.05Y-41.275
X19.05Y-43.815
X19.05Y-46.355
X19.05Y-48.895
X19.05Y-51.435
X19.05Y-53.975
X19.05Y-56.515
X19.05Y-59.055
X24.765Y-20.955
X24.765Y-23.495
X24.765Y-26.035
X24.765Y-28.575
X24.765Y-31.115
X24.765Y-33.655
X24.765Y-36.195
X24.765Y-38.735
X24.765Y-41.275
X24.765Y-43.815
X24.765Y-46.355
X24.765Y-48.895
X24.765Y-51.435
X24.765Y-53.975
X24.765Y-56.515
X24.765Y-59.055
X40.005Y-20.955
X40.005Y-23.495
X40.005Y-26.035
X40.005Y-28.575
X40.005Y-31.115
X40.005Y-33.655
X40.005Y-36.195
X40.005Y-38.735
X40.005Y-41.275
X40.005Y-43.815
X40.005Y-46.355
X40.005Y-48.895
X40.005Y-51.435
X40.005Y-53.975
X40.005Y-56.515
X40.005Y-59.055
X45.72Y-20.955
X45.72Y-23.495
X45.72Y-26.035
X45.72Y-28.575
X45.72Y-31.115
X45.72Y-33.655
X45.72Y-36.195
X45.72Y-38.735
X45.72Y-41.275
X45.72Y-43.815
X45.72Y-46.355
X45.72Y-48.895
X45.72Y-51.435
X45.72Y-53.975
X45.72Y-56.515
X45.72Y-59.055
X60.96Y-20.955
X60.96Y-23.495
X60.96Y-26.035
X60.96Y-28.575
X60.96Y-31.115
X60.96Y-33.655
X60.96Y-36.195
X60.96Y-38.735
X60.96Y-41.275
X60.96Y-43.815
X60.96Y-46.355
X60.96Y-48.895
X60.96Y-51.435
X60.96Y-53.975
X60.96Y-56.515
X60.96Y-59.055
X66.675Y-20.955
X66.675Y-23.495
X66.675Y-26.035
X66.675Y-28.575
X66.675Y-31.115
X66.675Y-33.655
X66.675Y-36.195
X66.675Y-38.735
X66.675Y-41.275
X66.675Y-43.815
X66.675Y-46.355
X66.675Y-48.895
X66.675Y-51.435
X66.675Y-53.975
X66.675Y-56.515
X66.675Y-59.055
X81.915Y-20.955
X81.915Y-23.495
X81.915Y-26.035
X81.915Y-28.575
X81.915Y-31.115
X81.915Y-33.655
X81.915Y-36.195
X81.915Y-38.735
X81.915Y-41.275
X81.915Y-43.815
X81.915Y-46.355
X81.915Y-48.895
X81.915Y-51.435
X81.915Y-53.975
X81.915Y-56.515
X81.915Y-59.055
T3
X8.89Y-20.955
X8.89Y-31.115
X13.97Y-20.955
X13.97Y-31.115
X29.845Y-20.955
X29.845Y-31.115
X34.925Y-20.955
X34.925Y-31.115
X45.72Y-4.445
X45.72Y-7.62
X50.8Y-20.955
X50.8Y-31.115
X55.88Y-4.445
X55.88Y-7.62
X55.88Y-20.955
X55.88Y-31.115
X71.755Y-20.955
X71.755Y-31.115
X76.835Y-20.955
X76.835Y-31.115
T4
X15.24Y-14.605
X17.78Y-14.605
X22.225Y-14.605
X24.765Y-14.605
X32.385Y-14.605
X34.925Y-14.605
X39.37Y-14.605
X41.91Y-14.605
X49.53Y-14.605
X52.07Y-14.605
X56.515Y-14.605
X59.055Y-14.605
X66.675Y-14.605
X69.215Y-14.605
X73.66Y-14.605
X76.2Y-14.605
T6
X13.335Y-71.12
X15.24Y-6.35
X17.145Y-71.12
X19.05Y-6.35
X20.955Y-71.12
X22.86Y-6.35
X24.765Y-71.12
X26.67Y-6.35
X30.48Y-6.35
X31.115Y-71.12
X34.29Y-6.35
X34.925Y-71.12
X38.1Y-6.35
X38.735Y-71.12
X41.91Y-6.35
X42.545Y-71.12
X48.895Y-71.12
X52.705Y-71.12
X56.515Y-71.12
X59.69Y-6.35
X60.325Y-71.12
X63.5Y-6.35
X66.675Y-71.12
X67.31Y-6.35
X70.485Y-71.12
X71.12Y-6.35
X74.295Y-71.12
X74.93Y-6.35
X78.105Y-71.12
X78.74Y-6.35
X82.55Y-6.35
X86.36Y-6.35
T7
X5.08Y-70.485
X86.36Y-13.97
X86.36Y-70.485
T5
X4.795Y-8.525G85X4.795Y-10.525
G05
X6.795Y-14.225G85X8.795Y-14.225
G05
X10.795Y-8.525G85X10.795Y-10.525
G05
T0
M30
