G04 #@! TF.GenerationSoftware,KiCad,Pcbnew,(5.1.4-0-10_14)*
G04 #@! TF.CreationDate,2021-10-12T10:58:53-04:00*
G04 #@! TF.ProjectId,doublemagfixture,646f7562-6c65-46d6-9167-666978747572,rev?*
G04 #@! TF.SameCoordinates,Original*
G04 #@! TF.FileFunction,Soldermask,Bot*
G04 #@! TF.FilePolarity,Negative*
%FSLAX46Y46*%
G04 Gerber Fmt 4.6, Leading zero omitted, Abs format (unit mm)*
G04 Created by KiCad (PCBNEW (5.1.4-0-10_14)) date 2021-10-12 10:58:53*
%MOMM*%
%LPD*%
G04 APERTURE LIST*
%ADD10C,0.100000*%
G04 APERTURE END LIST*
D10*
G36*
X86994239Y-67296467D02*
G01*
X87308282Y-67358934D01*
X87899926Y-67604001D01*
X88432392Y-67959784D01*
X88885216Y-68412608D01*
X89240999Y-68945074D01*
X89486066Y-69536718D01*
X89486066Y-69536719D01*
X89599978Y-70109390D01*
X89611000Y-70164804D01*
X89611000Y-70805196D01*
X89486066Y-71433282D01*
X89240999Y-72024926D01*
X88885216Y-72557392D01*
X88432392Y-73010216D01*
X87899926Y-73365999D01*
X87308282Y-73611066D01*
X86994239Y-73673533D01*
X86680197Y-73736000D01*
X86039803Y-73736000D01*
X85725761Y-73673533D01*
X85411718Y-73611066D01*
X84820074Y-73365999D01*
X84287608Y-73010216D01*
X83834784Y-72557392D01*
X83479001Y-72024926D01*
X83233934Y-71433282D01*
X83109000Y-70805196D01*
X83109000Y-70164804D01*
X83120023Y-70109390D01*
X83233934Y-69536719D01*
X83233934Y-69536718D01*
X83479001Y-68945074D01*
X83834784Y-68412608D01*
X84287608Y-67959784D01*
X84820074Y-67604001D01*
X85411718Y-67358934D01*
X85725761Y-67296467D01*
X86039803Y-67234000D01*
X86680197Y-67234000D01*
X86994239Y-67296467D01*
X86994239Y-67296467D01*
G37*
G36*
X5714239Y-67296467D02*
G01*
X6028282Y-67358934D01*
X6619926Y-67604001D01*
X7152392Y-67959784D01*
X7605216Y-68412608D01*
X7960999Y-68945074D01*
X8206066Y-69536718D01*
X8206066Y-69536719D01*
X8319978Y-70109390D01*
X8331000Y-70164804D01*
X8331000Y-70805196D01*
X8206066Y-71433282D01*
X7960999Y-72024926D01*
X7605216Y-72557392D01*
X7152392Y-73010216D01*
X6619926Y-73365999D01*
X6028282Y-73611066D01*
X5714239Y-73673533D01*
X5400197Y-73736000D01*
X4759803Y-73736000D01*
X4445761Y-73673533D01*
X4131718Y-73611066D01*
X3540074Y-73365999D01*
X3007608Y-73010216D01*
X2554784Y-72557392D01*
X2199001Y-72024926D01*
X1953934Y-71433282D01*
X1829000Y-70805196D01*
X1829000Y-70164804D01*
X1840023Y-70109390D01*
X1953934Y-69536719D01*
X1953934Y-69536718D01*
X2199001Y-68945074D01*
X2554784Y-68412608D01*
X3007608Y-67959784D01*
X3540074Y-67604001D01*
X4131718Y-67358934D01*
X4445761Y-67296467D01*
X4759803Y-67234000D01*
X5400197Y-67234000D01*
X5714239Y-67296467D01*
X5714239Y-67296467D01*
G37*
G36*
X70791564Y-70109389D02*
G01*
X70982833Y-70188615D01*
X70982835Y-70188616D01*
X71154973Y-70303635D01*
X71301365Y-70450027D01*
X71416385Y-70622167D01*
X71495611Y-70813436D01*
X71536000Y-71016484D01*
X71536000Y-71223516D01*
X71495611Y-71426564D01*
X71492828Y-71433282D01*
X71416384Y-71617835D01*
X71301365Y-71789973D01*
X71154973Y-71936365D01*
X70982835Y-72051384D01*
X70982834Y-72051385D01*
X70982833Y-72051385D01*
X70791564Y-72130611D01*
X70588516Y-72171000D01*
X70381484Y-72171000D01*
X70178436Y-72130611D01*
X69987167Y-72051385D01*
X69987166Y-72051385D01*
X69987165Y-72051384D01*
X69815027Y-71936365D01*
X69668635Y-71789973D01*
X69553616Y-71617835D01*
X69477172Y-71433282D01*
X69474389Y-71426564D01*
X69434000Y-71223516D01*
X69434000Y-71016484D01*
X69474389Y-70813436D01*
X69553615Y-70622167D01*
X69668635Y-70450027D01*
X69815027Y-70303635D01*
X69987165Y-70188616D01*
X69987167Y-70188615D01*
X70178436Y-70109389D01*
X70381484Y-70069000D01*
X70588516Y-70069000D01*
X70791564Y-70109389D01*
X70791564Y-70109389D01*
G37*
G36*
X67726000Y-72171000D02*
G01*
X65624000Y-72171000D01*
X65624000Y-70069000D01*
X67726000Y-70069000D01*
X67726000Y-72171000D01*
X67726000Y-72171000D01*
G37*
G36*
X60631564Y-70109389D02*
G01*
X60822833Y-70188615D01*
X60822835Y-70188616D01*
X60994973Y-70303635D01*
X61141365Y-70450027D01*
X61256385Y-70622167D01*
X61335611Y-70813436D01*
X61376000Y-71016484D01*
X61376000Y-71223516D01*
X61335611Y-71426564D01*
X61332828Y-71433282D01*
X61256384Y-71617835D01*
X61141365Y-71789973D01*
X60994973Y-71936365D01*
X60822835Y-72051384D01*
X60822834Y-72051385D01*
X60822833Y-72051385D01*
X60631564Y-72130611D01*
X60428516Y-72171000D01*
X60221484Y-72171000D01*
X60018436Y-72130611D01*
X59827167Y-72051385D01*
X59827166Y-72051385D01*
X59827165Y-72051384D01*
X59655027Y-71936365D01*
X59508635Y-71789973D01*
X59393616Y-71617835D01*
X59317172Y-71433282D01*
X59314389Y-71426564D01*
X59274000Y-71223516D01*
X59274000Y-71016484D01*
X59314389Y-70813436D01*
X59393615Y-70622167D01*
X59508635Y-70450027D01*
X59655027Y-70303635D01*
X59827165Y-70188616D01*
X59827167Y-70188615D01*
X60018436Y-70109389D01*
X60221484Y-70069000D01*
X60428516Y-70069000D01*
X60631564Y-70109389D01*
X60631564Y-70109389D01*
G37*
G36*
X56821564Y-70109389D02*
G01*
X57012833Y-70188615D01*
X57012835Y-70188616D01*
X57184973Y-70303635D01*
X57331365Y-70450027D01*
X57446385Y-70622167D01*
X57525611Y-70813436D01*
X57566000Y-71016484D01*
X57566000Y-71223516D01*
X57525611Y-71426564D01*
X57522828Y-71433282D01*
X57446384Y-71617835D01*
X57331365Y-71789973D01*
X57184973Y-71936365D01*
X57012835Y-72051384D01*
X57012834Y-72051385D01*
X57012833Y-72051385D01*
X56821564Y-72130611D01*
X56618516Y-72171000D01*
X56411484Y-72171000D01*
X56208436Y-72130611D01*
X56017167Y-72051385D01*
X56017166Y-72051385D01*
X56017165Y-72051384D01*
X55845027Y-71936365D01*
X55698635Y-71789973D01*
X55583616Y-71617835D01*
X55507172Y-71433282D01*
X55504389Y-71426564D01*
X55464000Y-71223516D01*
X55464000Y-71016484D01*
X55504389Y-70813436D01*
X55583615Y-70622167D01*
X55698635Y-70450027D01*
X55845027Y-70303635D01*
X56017165Y-70188616D01*
X56017167Y-70188615D01*
X56208436Y-70109389D01*
X56411484Y-70069000D01*
X56618516Y-70069000D01*
X56821564Y-70109389D01*
X56821564Y-70109389D01*
G37*
G36*
X53011564Y-70109389D02*
G01*
X53202833Y-70188615D01*
X53202835Y-70188616D01*
X53374973Y-70303635D01*
X53521365Y-70450027D01*
X53636385Y-70622167D01*
X53715611Y-70813436D01*
X53756000Y-71016484D01*
X53756000Y-71223516D01*
X53715611Y-71426564D01*
X53712828Y-71433282D01*
X53636384Y-71617835D01*
X53521365Y-71789973D01*
X53374973Y-71936365D01*
X53202835Y-72051384D01*
X53202834Y-72051385D01*
X53202833Y-72051385D01*
X53011564Y-72130611D01*
X52808516Y-72171000D01*
X52601484Y-72171000D01*
X52398436Y-72130611D01*
X52207167Y-72051385D01*
X52207166Y-72051385D01*
X52207165Y-72051384D01*
X52035027Y-71936365D01*
X51888635Y-71789973D01*
X51773616Y-71617835D01*
X51697172Y-71433282D01*
X51694389Y-71426564D01*
X51654000Y-71223516D01*
X51654000Y-71016484D01*
X51694389Y-70813436D01*
X51773615Y-70622167D01*
X51888635Y-70450027D01*
X52035027Y-70303635D01*
X52207165Y-70188616D01*
X52207167Y-70188615D01*
X52398436Y-70109389D01*
X52601484Y-70069000D01*
X52808516Y-70069000D01*
X53011564Y-70109389D01*
X53011564Y-70109389D01*
G37*
G36*
X49946000Y-72171000D02*
G01*
X47844000Y-72171000D01*
X47844000Y-70069000D01*
X49946000Y-70069000D01*
X49946000Y-72171000D01*
X49946000Y-72171000D01*
G37*
G36*
X42851564Y-70109389D02*
G01*
X43042833Y-70188615D01*
X43042835Y-70188616D01*
X43214973Y-70303635D01*
X43361365Y-70450027D01*
X43476385Y-70622167D01*
X43555611Y-70813436D01*
X43596000Y-71016484D01*
X43596000Y-71223516D01*
X43555611Y-71426564D01*
X43552828Y-71433282D01*
X43476384Y-71617835D01*
X43361365Y-71789973D01*
X43214973Y-71936365D01*
X43042835Y-72051384D01*
X43042834Y-72051385D01*
X43042833Y-72051385D01*
X42851564Y-72130611D01*
X42648516Y-72171000D01*
X42441484Y-72171000D01*
X42238436Y-72130611D01*
X42047167Y-72051385D01*
X42047166Y-72051385D01*
X42047165Y-72051384D01*
X41875027Y-71936365D01*
X41728635Y-71789973D01*
X41613616Y-71617835D01*
X41537172Y-71433282D01*
X41534389Y-71426564D01*
X41494000Y-71223516D01*
X41494000Y-71016484D01*
X41534389Y-70813436D01*
X41613615Y-70622167D01*
X41728635Y-70450027D01*
X41875027Y-70303635D01*
X42047165Y-70188616D01*
X42047167Y-70188615D01*
X42238436Y-70109389D01*
X42441484Y-70069000D01*
X42648516Y-70069000D01*
X42851564Y-70109389D01*
X42851564Y-70109389D01*
G37*
G36*
X39041564Y-70109389D02*
G01*
X39232833Y-70188615D01*
X39232835Y-70188616D01*
X39404973Y-70303635D01*
X39551365Y-70450027D01*
X39666385Y-70622167D01*
X39745611Y-70813436D01*
X39786000Y-71016484D01*
X39786000Y-71223516D01*
X39745611Y-71426564D01*
X39742828Y-71433282D01*
X39666384Y-71617835D01*
X39551365Y-71789973D01*
X39404973Y-71936365D01*
X39232835Y-72051384D01*
X39232834Y-72051385D01*
X39232833Y-72051385D01*
X39041564Y-72130611D01*
X38838516Y-72171000D01*
X38631484Y-72171000D01*
X38428436Y-72130611D01*
X38237167Y-72051385D01*
X38237166Y-72051385D01*
X38237165Y-72051384D01*
X38065027Y-71936365D01*
X37918635Y-71789973D01*
X37803616Y-71617835D01*
X37727172Y-71433282D01*
X37724389Y-71426564D01*
X37684000Y-71223516D01*
X37684000Y-71016484D01*
X37724389Y-70813436D01*
X37803615Y-70622167D01*
X37918635Y-70450027D01*
X38065027Y-70303635D01*
X38237165Y-70188616D01*
X38237167Y-70188615D01*
X38428436Y-70109389D01*
X38631484Y-70069000D01*
X38838516Y-70069000D01*
X39041564Y-70109389D01*
X39041564Y-70109389D01*
G37*
G36*
X35231564Y-70109389D02*
G01*
X35422833Y-70188615D01*
X35422835Y-70188616D01*
X35594973Y-70303635D01*
X35741365Y-70450027D01*
X35856385Y-70622167D01*
X35935611Y-70813436D01*
X35976000Y-71016484D01*
X35976000Y-71223516D01*
X35935611Y-71426564D01*
X35932828Y-71433282D01*
X35856384Y-71617835D01*
X35741365Y-71789973D01*
X35594973Y-71936365D01*
X35422835Y-72051384D01*
X35422834Y-72051385D01*
X35422833Y-72051385D01*
X35231564Y-72130611D01*
X35028516Y-72171000D01*
X34821484Y-72171000D01*
X34618436Y-72130611D01*
X34427167Y-72051385D01*
X34427166Y-72051385D01*
X34427165Y-72051384D01*
X34255027Y-71936365D01*
X34108635Y-71789973D01*
X33993616Y-71617835D01*
X33917172Y-71433282D01*
X33914389Y-71426564D01*
X33874000Y-71223516D01*
X33874000Y-71016484D01*
X33914389Y-70813436D01*
X33993615Y-70622167D01*
X34108635Y-70450027D01*
X34255027Y-70303635D01*
X34427165Y-70188616D01*
X34427167Y-70188615D01*
X34618436Y-70109389D01*
X34821484Y-70069000D01*
X35028516Y-70069000D01*
X35231564Y-70109389D01*
X35231564Y-70109389D01*
G37*
G36*
X32166000Y-72171000D02*
G01*
X30064000Y-72171000D01*
X30064000Y-70069000D01*
X32166000Y-70069000D01*
X32166000Y-72171000D01*
X32166000Y-72171000D01*
G37*
G36*
X25071564Y-70109389D02*
G01*
X25262833Y-70188615D01*
X25262835Y-70188616D01*
X25434973Y-70303635D01*
X25581365Y-70450027D01*
X25696385Y-70622167D01*
X25775611Y-70813436D01*
X25816000Y-71016484D01*
X25816000Y-71223516D01*
X25775611Y-71426564D01*
X25772828Y-71433282D01*
X25696384Y-71617835D01*
X25581365Y-71789973D01*
X25434973Y-71936365D01*
X25262835Y-72051384D01*
X25262834Y-72051385D01*
X25262833Y-72051385D01*
X25071564Y-72130611D01*
X24868516Y-72171000D01*
X24661484Y-72171000D01*
X24458436Y-72130611D01*
X24267167Y-72051385D01*
X24267166Y-72051385D01*
X24267165Y-72051384D01*
X24095027Y-71936365D01*
X23948635Y-71789973D01*
X23833616Y-71617835D01*
X23757172Y-71433282D01*
X23754389Y-71426564D01*
X23714000Y-71223516D01*
X23714000Y-71016484D01*
X23754389Y-70813436D01*
X23833615Y-70622167D01*
X23948635Y-70450027D01*
X24095027Y-70303635D01*
X24267165Y-70188616D01*
X24267167Y-70188615D01*
X24458436Y-70109389D01*
X24661484Y-70069000D01*
X24868516Y-70069000D01*
X25071564Y-70109389D01*
X25071564Y-70109389D01*
G37*
G36*
X21261564Y-70109389D02*
G01*
X21452833Y-70188615D01*
X21452835Y-70188616D01*
X21624973Y-70303635D01*
X21771365Y-70450027D01*
X21886385Y-70622167D01*
X21965611Y-70813436D01*
X22006000Y-71016484D01*
X22006000Y-71223516D01*
X21965611Y-71426564D01*
X21962828Y-71433282D01*
X21886384Y-71617835D01*
X21771365Y-71789973D01*
X21624973Y-71936365D01*
X21452835Y-72051384D01*
X21452834Y-72051385D01*
X21452833Y-72051385D01*
X21261564Y-72130611D01*
X21058516Y-72171000D01*
X20851484Y-72171000D01*
X20648436Y-72130611D01*
X20457167Y-72051385D01*
X20457166Y-72051385D01*
X20457165Y-72051384D01*
X20285027Y-71936365D01*
X20138635Y-71789973D01*
X20023616Y-71617835D01*
X19947172Y-71433282D01*
X19944389Y-71426564D01*
X19904000Y-71223516D01*
X19904000Y-71016484D01*
X19944389Y-70813436D01*
X20023615Y-70622167D01*
X20138635Y-70450027D01*
X20285027Y-70303635D01*
X20457165Y-70188616D01*
X20457167Y-70188615D01*
X20648436Y-70109389D01*
X20851484Y-70069000D01*
X21058516Y-70069000D01*
X21261564Y-70109389D01*
X21261564Y-70109389D01*
G37*
G36*
X17451564Y-70109389D02*
G01*
X17642833Y-70188615D01*
X17642835Y-70188616D01*
X17814973Y-70303635D01*
X17961365Y-70450027D01*
X18076385Y-70622167D01*
X18155611Y-70813436D01*
X18196000Y-71016484D01*
X18196000Y-71223516D01*
X18155611Y-71426564D01*
X18152828Y-71433282D01*
X18076384Y-71617835D01*
X17961365Y-71789973D01*
X17814973Y-71936365D01*
X17642835Y-72051384D01*
X17642834Y-72051385D01*
X17642833Y-72051385D01*
X17451564Y-72130611D01*
X17248516Y-72171000D01*
X17041484Y-72171000D01*
X16838436Y-72130611D01*
X16647167Y-72051385D01*
X16647166Y-72051385D01*
X16647165Y-72051384D01*
X16475027Y-71936365D01*
X16328635Y-71789973D01*
X16213616Y-71617835D01*
X16137172Y-71433282D01*
X16134389Y-71426564D01*
X16094000Y-71223516D01*
X16094000Y-71016484D01*
X16134389Y-70813436D01*
X16213615Y-70622167D01*
X16328635Y-70450027D01*
X16475027Y-70303635D01*
X16647165Y-70188616D01*
X16647167Y-70188615D01*
X16838436Y-70109389D01*
X17041484Y-70069000D01*
X17248516Y-70069000D01*
X17451564Y-70109389D01*
X17451564Y-70109389D01*
G37*
G36*
X14386000Y-72171000D02*
G01*
X12284000Y-72171000D01*
X12284000Y-70069000D01*
X14386000Y-70069000D01*
X14386000Y-72171000D01*
X14386000Y-72171000D01*
G37*
G36*
X78411564Y-70109389D02*
G01*
X78602833Y-70188615D01*
X78602835Y-70188616D01*
X78774973Y-70303635D01*
X78921365Y-70450027D01*
X79036385Y-70622167D01*
X79115611Y-70813436D01*
X79156000Y-71016484D01*
X79156000Y-71223516D01*
X79115611Y-71426564D01*
X79112828Y-71433282D01*
X79036384Y-71617835D01*
X78921365Y-71789973D01*
X78774973Y-71936365D01*
X78602835Y-72051384D01*
X78602834Y-72051385D01*
X78602833Y-72051385D01*
X78411564Y-72130611D01*
X78208516Y-72171000D01*
X78001484Y-72171000D01*
X77798436Y-72130611D01*
X77607167Y-72051385D01*
X77607166Y-72051385D01*
X77607165Y-72051384D01*
X77435027Y-71936365D01*
X77288635Y-71789973D01*
X77173616Y-71617835D01*
X77097172Y-71433282D01*
X77094389Y-71426564D01*
X77054000Y-71223516D01*
X77054000Y-71016484D01*
X77094389Y-70813436D01*
X77173615Y-70622167D01*
X77288635Y-70450027D01*
X77435027Y-70303635D01*
X77607165Y-70188616D01*
X77607167Y-70188615D01*
X77798436Y-70109389D01*
X78001484Y-70069000D01*
X78208516Y-70069000D01*
X78411564Y-70109389D01*
X78411564Y-70109389D01*
G37*
G36*
X74601564Y-70109389D02*
G01*
X74792833Y-70188615D01*
X74792835Y-70188616D01*
X74964973Y-70303635D01*
X75111365Y-70450027D01*
X75226385Y-70622167D01*
X75305611Y-70813436D01*
X75346000Y-71016484D01*
X75346000Y-71223516D01*
X75305611Y-71426564D01*
X75302828Y-71433282D01*
X75226384Y-71617835D01*
X75111365Y-71789973D01*
X74964973Y-71936365D01*
X74792835Y-72051384D01*
X74792834Y-72051385D01*
X74792833Y-72051385D01*
X74601564Y-72130611D01*
X74398516Y-72171000D01*
X74191484Y-72171000D01*
X73988436Y-72130611D01*
X73797167Y-72051385D01*
X73797166Y-72051385D01*
X73797165Y-72051384D01*
X73625027Y-71936365D01*
X73478635Y-71789973D01*
X73363616Y-71617835D01*
X73287172Y-71433282D01*
X73284389Y-71426564D01*
X73244000Y-71223516D01*
X73244000Y-71016484D01*
X73284389Y-70813436D01*
X73363615Y-70622167D01*
X73478635Y-70450027D01*
X73625027Y-70303635D01*
X73797165Y-70188616D01*
X73797167Y-70188615D01*
X73988436Y-70109389D01*
X74191484Y-70069000D01*
X74398516Y-70069000D01*
X74601564Y-70109389D01*
X74601564Y-70109389D01*
G37*
G36*
X4623000Y-59868000D02*
G01*
X2997000Y-59868000D01*
X2997000Y-58242000D01*
X4623000Y-58242000D01*
X4623000Y-59868000D01*
X4623000Y-59868000D01*
G37*
G36*
X82152142Y-58273242D02*
G01*
X82300101Y-58334529D01*
X82433255Y-58423499D01*
X82546501Y-58536745D01*
X82635471Y-58669899D01*
X82696758Y-58817858D01*
X82728000Y-58974925D01*
X82728000Y-59135075D01*
X82696758Y-59292142D01*
X82635471Y-59440101D01*
X82546501Y-59573255D01*
X82433255Y-59686501D01*
X82300101Y-59775471D01*
X82152142Y-59836758D01*
X81995075Y-59868000D01*
X81834925Y-59868000D01*
X81677858Y-59836758D01*
X81529899Y-59775471D01*
X81396745Y-59686501D01*
X81283499Y-59573255D01*
X81194529Y-59440101D01*
X81133242Y-59292142D01*
X81102000Y-59135075D01*
X81102000Y-58974925D01*
X81133242Y-58817858D01*
X81194529Y-58669899D01*
X81283499Y-58536745D01*
X81396745Y-58423499D01*
X81529899Y-58334529D01*
X81677858Y-58273242D01*
X81834925Y-58242000D01*
X81995075Y-58242000D01*
X82152142Y-58273242D01*
X82152142Y-58273242D01*
G37*
G36*
X25578000Y-59868000D02*
G01*
X23952000Y-59868000D01*
X23952000Y-58242000D01*
X25578000Y-58242000D01*
X25578000Y-59868000D01*
X25578000Y-59868000D01*
G37*
G36*
X19287142Y-58273242D02*
G01*
X19435101Y-58334529D01*
X19568255Y-58423499D01*
X19681501Y-58536745D01*
X19770471Y-58669899D01*
X19831758Y-58817858D01*
X19863000Y-58974925D01*
X19863000Y-59135075D01*
X19831758Y-59292142D01*
X19770471Y-59440101D01*
X19681501Y-59573255D01*
X19568255Y-59686501D01*
X19435101Y-59775471D01*
X19287142Y-59836758D01*
X19130075Y-59868000D01*
X18969925Y-59868000D01*
X18812858Y-59836758D01*
X18664899Y-59775471D01*
X18531745Y-59686501D01*
X18418499Y-59573255D01*
X18329529Y-59440101D01*
X18268242Y-59292142D01*
X18237000Y-59135075D01*
X18237000Y-58974925D01*
X18268242Y-58817858D01*
X18329529Y-58669899D01*
X18418499Y-58536745D01*
X18531745Y-58423499D01*
X18664899Y-58334529D01*
X18812858Y-58273242D01*
X18969925Y-58242000D01*
X19130075Y-58242000D01*
X19287142Y-58273242D01*
X19287142Y-58273242D01*
G37*
G36*
X67488000Y-59868000D02*
G01*
X65862000Y-59868000D01*
X65862000Y-58242000D01*
X67488000Y-58242000D01*
X67488000Y-59868000D01*
X67488000Y-59868000D01*
G37*
G36*
X61197142Y-58273242D02*
G01*
X61345101Y-58334529D01*
X61478255Y-58423499D01*
X61591501Y-58536745D01*
X61680471Y-58669899D01*
X61741758Y-58817858D01*
X61773000Y-58974925D01*
X61773000Y-59135075D01*
X61741758Y-59292142D01*
X61680471Y-59440101D01*
X61591501Y-59573255D01*
X61478255Y-59686501D01*
X61345101Y-59775471D01*
X61197142Y-59836758D01*
X61040075Y-59868000D01*
X60879925Y-59868000D01*
X60722858Y-59836758D01*
X60574899Y-59775471D01*
X60441745Y-59686501D01*
X60328499Y-59573255D01*
X60239529Y-59440101D01*
X60178242Y-59292142D01*
X60147000Y-59135075D01*
X60147000Y-58974925D01*
X60178242Y-58817858D01*
X60239529Y-58669899D01*
X60328499Y-58536745D01*
X60441745Y-58423499D01*
X60574899Y-58334529D01*
X60722858Y-58273242D01*
X60879925Y-58242000D01*
X61040075Y-58242000D01*
X61197142Y-58273242D01*
X61197142Y-58273242D01*
G37*
G36*
X40242142Y-58273242D02*
G01*
X40390101Y-58334529D01*
X40523255Y-58423499D01*
X40636501Y-58536745D01*
X40725471Y-58669899D01*
X40786758Y-58817858D01*
X40818000Y-58974925D01*
X40818000Y-59135075D01*
X40786758Y-59292142D01*
X40725471Y-59440101D01*
X40636501Y-59573255D01*
X40523255Y-59686501D01*
X40390101Y-59775471D01*
X40242142Y-59836758D01*
X40085075Y-59868000D01*
X39924925Y-59868000D01*
X39767858Y-59836758D01*
X39619899Y-59775471D01*
X39486745Y-59686501D01*
X39373499Y-59573255D01*
X39284529Y-59440101D01*
X39223242Y-59292142D01*
X39192000Y-59135075D01*
X39192000Y-58974925D01*
X39223242Y-58817858D01*
X39284529Y-58669899D01*
X39373499Y-58536745D01*
X39486745Y-58423499D01*
X39619899Y-58334529D01*
X39767858Y-58273242D01*
X39924925Y-58242000D01*
X40085075Y-58242000D01*
X40242142Y-58273242D01*
X40242142Y-58273242D01*
G37*
G36*
X46533000Y-59868000D02*
G01*
X44907000Y-59868000D01*
X44907000Y-58242000D01*
X46533000Y-58242000D01*
X46533000Y-59868000D01*
X46533000Y-59868000D01*
G37*
G36*
X82152142Y-55733242D02*
G01*
X82300101Y-55794529D01*
X82433255Y-55883499D01*
X82546501Y-55996745D01*
X82635471Y-56129899D01*
X82696758Y-56277858D01*
X82728000Y-56434925D01*
X82728000Y-56595075D01*
X82696758Y-56752142D01*
X82635471Y-56900101D01*
X82546501Y-57033255D01*
X82433255Y-57146501D01*
X82300101Y-57235471D01*
X82152142Y-57296758D01*
X81995075Y-57328000D01*
X81834925Y-57328000D01*
X81677858Y-57296758D01*
X81529899Y-57235471D01*
X81396745Y-57146501D01*
X81283499Y-57033255D01*
X81194529Y-56900101D01*
X81133242Y-56752142D01*
X81102000Y-56595075D01*
X81102000Y-56434925D01*
X81133242Y-56277858D01*
X81194529Y-56129899D01*
X81283499Y-55996745D01*
X81396745Y-55883499D01*
X81529899Y-55794529D01*
X81677858Y-55733242D01*
X81834925Y-55702000D01*
X81995075Y-55702000D01*
X82152142Y-55733242D01*
X82152142Y-55733242D01*
G37*
G36*
X66912142Y-55733242D02*
G01*
X67060101Y-55794529D01*
X67193255Y-55883499D01*
X67306501Y-55996745D01*
X67395471Y-56129899D01*
X67456758Y-56277858D01*
X67488000Y-56434925D01*
X67488000Y-56595075D01*
X67456758Y-56752142D01*
X67395471Y-56900101D01*
X67306501Y-57033255D01*
X67193255Y-57146501D01*
X67060101Y-57235471D01*
X66912142Y-57296758D01*
X66755075Y-57328000D01*
X66594925Y-57328000D01*
X66437858Y-57296758D01*
X66289899Y-57235471D01*
X66156745Y-57146501D01*
X66043499Y-57033255D01*
X65954529Y-56900101D01*
X65893242Y-56752142D01*
X65862000Y-56595075D01*
X65862000Y-56434925D01*
X65893242Y-56277858D01*
X65954529Y-56129899D01*
X66043499Y-55996745D01*
X66156745Y-55883499D01*
X66289899Y-55794529D01*
X66437858Y-55733242D01*
X66594925Y-55702000D01*
X66755075Y-55702000D01*
X66912142Y-55733242D01*
X66912142Y-55733242D01*
G37*
G36*
X61197142Y-55733242D02*
G01*
X61345101Y-55794529D01*
X61478255Y-55883499D01*
X61591501Y-55996745D01*
X61680471Y-56129899D01*
X61741758Y-56277858D01*
X61773000Y-56434925D01*
X61773000Y-56595075D01*
X61741758Y-56752142D01*
X61680471Y-56900101D01*
X61591501Y-57033255D01*
X61478255Y-57146501D01*
X61345101Y-57235471D01*
X61197142Y-57296758D01*
X61040075Y-57328000D01*
X60879925Y-57328000D01*
X60722858Y-57296758D01*
X60574899Y-57235471D01*
X60441745Y-57146501D01*
X60328499Y-57033255D01*
X60239529Y-56900101D01*
X60178242Y-56752142D01*
X60147000Y-56595075D01*
X60147000Y-56434925D01*
X60178242Y-56277858D01*
X60239529Y-56129899D01*
X60328499Y-55996745D01*
X60441745Y-55883499D01*
X60574899Y-55794529D01*
X60722858Y-55733242D01*
X60879925Y-55702000D01*
X61040075Y-55702000D01*
X61197142Y-55733242D01*
X61197142Y-55733242D01*
G37*
G36*
X45957142Y-55733242D02*
G01*
X46105101Y-55794529D01*
X46238255Y-55883499D01*
X46351501Y-55996745D01*
X46440471Y-56129899D01*
X46501758Y-56277858D01*
X46533000Y-56434925D01*
X46533000Y-56595075D01*
X46501758Y-56752142D01*
X46440471Y-56900101D01*
X46351501Y-57033255D01*
X46238255Y-57146501D01*
X46105101Y-57235471D01*
X45957142Y-57296758D01*
X45800075Y-57328000D01*
X45639925Y-57328000D01*
X45482858Y-57296758D01*
X45334899Y-57235471D01*
X45201745Y-57146501D01*
X45088499Y-57033255D01*
X44999529Y-56900101D01*
X44938242Y-56752142D01*
X44907000Y-56595075D01*
X44907000Y-56434925D01*
X44938242Y-56277858D01*
X44999529Y-56129899D01*
X45088499Y-55996745D01*
X45201745Y-55883499D01*
X45334899Y-55794529D01*
X45482858Y-55733242D01*
X45639925Y-55702000D01*
X45800075Y-55702000D01*
X45957142Y-55733242D01*
X45957142Y-55733242D01*
G37*
G36*
X40242142Y-55733242D02*
G01*
X40390101Y-55794529D01*
X40523255Y-55883499D01*
X40636501Y-55996745D01*
X40725471Y-56129899D01*
X40786758Y-56277858D01*
X40818000Y-56434925D01*
X40818000Y-56595075D01*
X40786758Y-56752142D01*
X40725471Y-56900101D01*
X40636501Y-57033255D01*
X40523255Y-57146501D01*
X40390101Y-57235471D01*
X40242142Y-57296758D01*
X40085075Y-57328000D01*
X39924925Y-57328000D01*
X39767858Y-57296758D01*
X39619899Y-57235471D01*
X39486745Y-57146501D01*
X39373499Y-57033255D01*
X39284529Y-56900101D01*
X39223242Y-56752142D01*
X39192000Y-56595075D01*
X39192000Y-56434925D01*
X39223242Y-56277858D01*
X39284529Y-56129899D01*
X39373499Y-55996745D01*
X39486745Y-55883499D01*
X39619899Y-55794529D01*
X39767858Y-55733242D01*
X39924925Y-55702000D01*
X40085075Y-55702000D01*
X40242142Y-55733242D01*
X40242142Y-55733242D01*
G37*
G36*
X25002142Y-55733242D02*
G01*
X25150101Y-55794529D01*
X25283255Y-55883499D01*
X25396501Y-55996745D01*
X25485471Y-56129899D01*
X25546758Y-56277858D01*
X25578000Y-56434925D01*
X25578000Y-56595075D01*
X25546758Y-56752142D01*
X25485471Y-56900101D01*
X25396501Y-57033255D01*
X25283255Y-57146501D01*
X25150101Y-57235471D01*
X25002142Y-57296758D01*
X24845075Y-57328000D01*
X24684925Y-57328000D01*
X24527858Y-57296758D01*
X24379899Y-57235471D01*
X24246745Y-57146501D01*
X24133499Y-57033255D01*
X24044529Y-56900101D01*
X23983242Y-56752142D01*
X23952000Y-56595075D01*
X23952000Y-56434925D01*
X23983242Y-56277858D01*
X24044529Y-56129899D01*
X24133499Y-55996745D01*
X24246745Y-55883499D01*
X24379899Y-55794529D01*
X24527858Y-55733242D01*
X24684925Y-55702000D01*
X24845075Y-55702000D01*
X25002142Y-55733242D01*
X25002142Y-55733242D01*
G37*
G36*
X19287142Y-55733242D02*
G01*
X19435101Y-55794529D01*
X19568255Y-55883499D01*
X19681501Y-55996745D01*
X19770471Y-56129899D01*
X19831758Y-56277858D01*
X19863000Y-56434925D01*
X19863000Y-56595075D01*
X19831758Y-56752142D01*
X19770471Y-56900101D01*
X19681501Y-57033255D01*
X19568255Y-57146501D01*
X19435101Y-57235471D01*
X19287142Y-57296758D01*
X19130075Y-57328000D01*
X18969925Y-57328000D01*
X18812858Y-57296758D01*
X18664899Y-57235471D01*
X18531745Y-57146501D01*
X18418499Y-57033255D01*
X18329529Y-56900101D01*
X18268242Y-56752142D01*
X18237000Y-56595075D01*
X18237000Y-56434925D01*
X18268242Y-56277858D01*
X18329529Y-56129899D01*
X18418499Y-55996745D01*
X18531745Y-55883499D01*
X18664899Y-55794529D01*
X18812858Y-55733242D01*
X18969925Y-55702000D01*
X19130075Y-55702000D01*
X19287142Y-55733242D01*
X19287142Y-55733242D01*
G37*
G36*
X4047142Y-55733242D02*
G01*
X4195101Y-55794529D01*
X4328255Y-55883499D01*
X4441501Y-55996745D01*
X4530471Y-56129899D01*
X4591758Y-56277858D01*
X4623000Y-56434925D01*
X4623000Y-56595075D01*
X4591758Y-56752142D01*
X4530471Y-56900101D01*
X4441501Y-57033255D01*
X4328255Y-57146501D01*
X4195101Y-57235471D01*
X4047142Y-57296758D01*
X3890075Y-57328000D01*
X3729925Y-57328000D01*
X3572858Y-57296758D01*
X3424899Y-57235471D01*
X3291745Y-57146501D01*
X3178499Y-57033255D01*
X3089529Y-56900101D01*
X3028242Y-56752142D01*
X2997000Y-56595075D01*
X2997000Y-56434925D01*
X3028242Y-56277858D01*
X3089529Y-56129899D01*
X3178499Y-55996745D01*
X3291745Y-55883499D01*
X3424899Y-55794529D01*
X3572858Y-55733242D01*
X3729925Y-55702000D01*
X3890075Y-55702000D01*
X4047142Y-55733242D01*
X4047142Y-55733242D01*
G37*
G36*
X25002142Y-53193242D02*
G01*
X25150101Y-53254529D01*
X25283255Y-53343499D01*
X25396501Y-53456745D01*
X25485471Y-53589899D01*
X25546758Y-53737858D01*
X25578000Y-53894925D01*
X25578000Y-54055075D01*
X25546758Y-54212142D01*
X25485471Y-54360101D01*
X25396501Y-54493255D01*
X25283255Y-54606501D01*
X25150101Y-54695471D01*
X25002142Y-54756758D01*
X24845075Y-54788000D01*
X24684925Y-54788000D01*
X24527858Y-54756758D01*
X24379899Y-54695471D01*
X24246745Y-54606501D01*
X24133499Y-54493255D01*
X24044529Y-54360101D01*
X23983242Y-54212142D01*
X23952000Y-54055075D01*
X23952000Y-53894925D01*
X23983242Y-53737858D01*
X24044529Y-53589899D01*
X24133499Y-53456745D01*
X24246745Y-53343499D01*
X24379899Y-53254529D01*
X24527858Y-53193242D01*
X24684925Y-53162000D01*
X24845075Y-53162000D01*
X25002142Y-53193242D01*
X25002142Y-53193242D01*
G37*
G36*
X19287142Y-53193242D02*
G01*
X19435101Y-53254529D01*
X19568255Y-53343499D01*
X19681501Y-53456745D01*
X19770471Y-53589899D01*
X19831758Y-53737858D01*
X19863000Y-53894925D01*
X19863000Y-54055075D01*
X19831758Y-54212142D01*
X19770471Y-54360101D01*
X19681501Y-54493255D01*
X19568255Y-54606501D01*
X19435101Y-54695471D01*
X19287142Y-54756758D01*
X19130075Y-54788000D01*
X18969925Y-54788000D01*
X18812858Y-54756758D01*
X18664899Y-54695471D01*
X18531745Y-54606501D01*
X18418499Y-54493255D01*
X18329529Y-54360101D01*
X18268242Y-54212142D01*
X18237000Y-54055075D01*
X18237000Y-53894925D01*
X18268242Y-53737858D01*
X18329529Y-53589899D01*
X18418499Y-53456745D01*
X18531745Y-53343499D01*
X18664899Y-53254529D01*
X18812858Y-53193242D01*
X18969925Y-53162000D01*
X19130075Y-53162000D01*
X19287142Y-53193242D01*
X19287142Y-53193242D01*
G37*
G36*
X4047142Y-53193242D02*
G01*
X4195101Y-53254529D01*
X4328255Y-53343499D01*
X4441501Y-53456745D01*
X4530471Y-53589899D01*
X4591758Y-53737858D01*
X4623000Y-53894925D01*
X4623000Y-54055075D01*
X4591758Y-54212142D01*
X4530471Y-54360101D01*
X4441501Y-54493255D01*
X4328255Y-54606501D01*
X4195101Y-54695471D01*
X4047142Y-54756758D01*
X3890075Y-54788000D01*
X3729925Y-54788000D01*
X3572858Y-54756758D01*
X3424899Y-54695471D01*
X3291745Y-54606501D01*
X3178499Y-54493255D01*
X3089529Y-54360101D01*
X3028242Y-54212142D01*
X2997000Y-54055075D01*
X2997000Y-53894925D01*
X3028242Y-53737858D01*
X3089529Y-53589899D01*
X3178499Y-53456745D01*
X3291745Y-53343499D01*
X3424899Y-53254529D01*
X3572858Y-53193242D01*
X3729925Y-53162000D01*
X3890075Y-53162000D01*
X4047142Y-53193242D01*
X4047142Y-53193242D01*
G37*
G36*
X40242142Y-53193242D02*
G01*
X40390101Y-53254529D01*
X40523255Y-53343499D01*
X40636501Y-53456745D01*
X40725471Y-53589899D01*
X40786758Y-53737858D01*
X40818000Y-53894925D01*
X40818000Y-54055075D01*
X40786758Y-54212142D01*
X40725471Y-54360101D01*
X40636501Y-54493255D01*
X40523255Y-54606501D01*
X40390101Y-54695471D01*
X40242142Y-54756758D01*
X40085075Y-54788000D01*
X39924925Y-54788000D01*
X39767858Y-54756758D01*
X39619899Y-54695471D01*
X39486745Y-54606501D01*
X39373499Y-54493255D01*
X39284529Y-54360101D01*
X39223242Y-54212142D01*
X39192000Y-54055075D01*
X39192000Y-53894925D01*
X39223242Y-53737858D01*
X39284529Y-53589899D01*
X39373499Y-53456745D01*
X39486745Y-53343499D01*
X39619899Y-53254529D01*
X39767858Y-53193242D01*
X39924925Y-53162000D01*
X40085075Y-53162000D01*
X40242142Y-53193242D01*
X40242142Y-53193242D01*
G37*
G36*
X61197142Y-53193242D02*
G01*
X61345101Y-53254529D01*
X61478255Y-53343499D01*
X61591501Y-53456745D01*
X61680471Y-53589899D01*
X61741758Y-53737858D01*
X61773000Y-53894925D01*
X61773000Y-54055075D01*
X61741758Y-54212142D01*
X61680471Y-54360101D01*
X61591501Y-54493255D01*
X61478255Y-54606501D01*
X61345101Y-54695471D01*
X61197142Y-54756758D01*
X61040075Y-54788000D01*
X60879925Y-54788000D01*
X60722858Y-54756758D01*
X60574899Y-54695471D01*
X60441745Y-54606501D01*
X60328499Y-54493255D01*
X60239529Y-54360101D01*
X60178242Y-54212142D01*
X60147000Y-54055075D01*
X60147000Y-53894925D01*
X60178242Y-53737858D01*
X60239529Y-53589899D01*
X60328499Y-53456745D01*
X60441745Y-53343499D01*
X60574899Y-53254529D01*
X60722858Y-53193242D01*
X60879925Y-53162000D01*
X61040075Y-53162000D01*
X61197142Y-53193242D01*
X61197142Y-53193242D01*
G37*
G36*
X82152142Y-53193242D02*
G01*
X82300101Y-53254529D01*
X82433255Y-53343499D01*
X82546501Y-53456745D01*
X82635471Y-53589899D01*
X82696758Y-53737858D01*
X82728000Y-53894925D01*
X82728000Y-54055075D01*
X82696758Y-54212142D01*
X82635471Y-54360101D01*
X82546501Y-54493255D01*
X82433255Y-54606501D01*
X82300101Y-54695471D01*
X82152142Y-54756758D01*
X81995075Y-54788000D01*
X81834925Y-54788000D01*
X81677858Y-54756758D01*
X81529899Y-54695471D01*
X81396745Y-54606501D01*
X81283499Y-54493255D01*
X81194529Y-54360101D01*
X81133242Y-54212142D01*
X81102000Y-54055075D01*
X81102000Y-53894925D01*
X81133242Y-53737858D01*
X81194529Y-53589899D01*
X81283499Y-53456745D01*
X81396745Y-53343499D01*
X81529899Y-53254529D01*
X81677858Y-53193242D01*
X81834925Y-53162000D01*
X81995075Y-53162000D01*
X82152142Y-53193242D01*
X82152142Y-53193242D01*
G37*
G36*
X45957142Y-53193242D02*
G01*
X46105101Y-53254529D01*
X46238255Y-53343499D01*
X46351501Y-53456745D01*
X46440471Y-53589899D01*
X46501758Y-53737858D01*
X46533000Y-53894925D01*
X46533000Y-54055075D01*
X46501758Y-54212142D01*
X46440471Y-54360101D01*
X46351501Y-54493255D01*
X46238255Y-54606501D01*
X46105101Y-54695471D01*
X45957142Y-54756758D01*
X45800075Y-54788000D01*
X45639925Y-54788000D01*
X45482858Y-54756758D01*
X45334899Y-54695471D01*
X45201745Y-54606501D01*
X45088499Y-54493255D01*
X44999529Y-54360101D01*
X44938242Y-54212142D01*
X44907000Y-54055075D01*
X44907000Y-53894925D01*
X44938242Y-53737858D01*
X44999529Y-53589899D01*
X45088499Y-53456745D01*
X45201745Y-53343499D01*
X45334899Y-53254529D01*
X45482858Y-53193242D01*
X45639925Y-53162000D01*
X45800075Y-53162000D01*
X45957142Y-53193242D01*
X45957142Y-53193242D01*
G37*
G36*
X66912142Y-53193242D02*
G01*
X67060101Y-53254529D01*
X67193255Y-53343499D01*
X67306501Y-53456745D01*
X67395471Y-53589899D01*
X67456758Y-53737858D01*
X67488000Y-53894925D01*
X67488000Y-54055075D01*
X67456758Y-54212142D01*
X67395471Y-54360101D01*
X67306501Y-54493255D01*
X67193255Y-54606501D01*
X67060101Y-54695471D01*
X66912142Y-54756758D01*
X66755075Y-54788000D01*
X66594925Y-54788000D01*
X66437858Y-54756758D01*
X66289899Y-54695471D01*
X66156745Y-54606501D01*
X66043499Y-54493255D01*
X65954529Y-54360101D01*
X65893242Y-54212142D01*
X65862000Y-54055075D01*
X65862000Y-53894925D01*
X65893242Y-53737858D01*
X65954529Y-53589899D01*
X66043499Y-53456745D01*
X66156745Y-53343499D01*
X66289899Y-53254529D01*
X66437858Y-53193242D01*
X66594925Y-53162000D01*
X66755075Y-53162000D01*
X66912142Y-53193242D01*
X66912142Y-53193242D01*
G37*
G36*
X82152142Y-50653242D02*
G01*
X82300101Y-50714529D01*
X82433255Y-50803499D01*
X82546501Y-50916745D01*
X82635471Y-51049899D01*
X82696758Y-51197858D01*
X82728000Y-51354925D01*
X82728000Y-51515075D01*
X82696758Y-51672142D01*
X82635471Y-51820101D01*
X82546501Y-51953255D01*
X82433255Y-52066501D01*
X82300101Y-52155471D01*
X82152142Y-52216758D01*
X81995075Y-52248000D01*
X81834925Y-52248000D01*
X81677858Y-52216758D01*
X81529899Y-52155471D01*
X81396745Y-52066501D01*
X81283499Y-51953255D01*
X81194529Y-51820101D01*
X81133242Y-51672142D01*
X81102000Y-51515075D01*
X81102000Y-51354925D01*
X81133242Y-51197858D01*
X81194529Y-51049899D01*
X81283499Y-50916745D01*
X81396745Y-50803499D01*
X81529899Y-50714529D01*
X81677858Y-50653242D01*
X81834925Y-50622000D01*
X81995075Y-50622000D01*
X82152142Y-50653242D01*
X82152142Y-50653242D01*
G37*
G36*
X4047142Y-50653242D02*
G01*
X4195101Y-50714529D01*
X4328255Y-50803499D01*
X4441501Y-50916745D01*
X4530471Y-51049899D01*
X4591758Y-51197858D01*
X4623000Y-51354925D01*
X4623000Y-51515075D01*
X4591758Y-51672142D01*
X4530471Y-51820101D01*
X4441501Y-51953255D01*
X4328255Y-52066501D01*
X4195101Y-52155471D01*
X4047142Y-52216758D01*
X3890075Y-52248000D01*
X3729925Y-52248000D01*
X3572858Y-52216758D01*
X3424899Y-52155471D01*
X3291745Y-52066501D01*
X3178499Y-51953255D01*
X3089529Y-51820101D01*
X3028242Y-51672142D01*
X2997000Y-51515075D01*
X2997000Y-51354925D01*
X3028242Y-51197858D01*
X3089529Y-51049899D01*
X3178499Y-50916745D01*
X3291745Y-50803499D01*
X3424899Y-50714529D01*
X3572858Y-50653242D01*
X3729925Y-50622000D01*
X3890075Y-50622000D01*
X4047142Y-50653242D01*
X4047142Y-50653242D01*
G37*
G36*
X19287142Y-50653242D02*
G01*
X19435101Y-50714529D01*
X19568255Y-50803499D01*
X19681501Y-50916745D01*
X19770471Y-51049899D01*
X19831758Y-51197858D01*
X19863000Y-51354925D01*
X19863000Y-51515075D01*
X19831758Y-51672142D01*
X19770471Y-51820101D01*
X19681501Y-51953255D01*
X19568255Y-52066501D01*
X19435101Y-52155471D01*
X19287142Y-52216758D01*
X19130075Y-52248000D01*
X18969925Y-52248000D01*
X18812858Y-52216758D01*
X18664899Y-52155471D01*
X18531745Y-52066501D01*
X18418499Y-51953255D01*
X18329529Y-51820101D01*
X18268242Y-51672142D01*
X18237000Y-51515075D01*
X18237000Y-51354925D01*
X18268242Y-51197858D01*
X18329529Y-51049899D01*
X18418499Y-50916745D01*
X18531745Y-50803499D01*
X18664899Y-50714529D01*
X18812858Y-50653242D01*
X18969925Y-50622000D01*
X19130075Y-50622000D01*
X19287142Y-50653242D01*
X19287142Y-50653242D01*
G37*
G36*
X25002142Y-50653242D02*
G01*
X25150101Y-50714529D01*
X25283255Y-50803499D01*
X25396501Y-50916745D01*
X25485471Y-51049899D01*
X25546758Y-51197858D01*
X25578000Y-51354925D01*
X25578000Y-51515075D01*
X25546758Y-51672142D01*
X25485471Y-51820101D01*
X25396501Y-51953255D01*
X25283255Y-52066501D01*
X25150101Y-52155471D01*
X25002142Y-52216758D01*
X24845075Y-52248000D01*
X24684925Y-52248000D01*
X24527858Y-52216758D01*
X24379899Y-52155471D01*
X24246745Y-52066501D01*
X24133499Y-51953255D01*
X24044529Y-51820101D01*
X23983242Y-51672142D01*
X23952000Y-51515075D01*
X23952000Y-51354925D01*
X23983242Y-51197858D01*
X24044529Y-51049899D01*
X24133499Y-50916745D01*
X24246745Y-50803499D01*
X24379899Y-50714529D01*
X24527858Y-50653242D01*
X24684925Y-50622000D01*
X24845075Y-50622000D01*
X25002142Y-50653242D01*
X25002142Y-50653242D01*
G37*
G36*
X40242142Y-50653242D02*
G01*
X40390101Y-50714529D01*
X40523255Y-50803499D01*
X40636501Y-50916745D01*
X40725471Y-51049899D01*
X40786758Y-51197858D01*
X40818000Y-51354925D01*
X40818000Y-51515075D01*
X40786758Y-51672142D01*
X40725471Y-51820101D01*
X40636501Y-51953255D01*
X40523255Y-52066501D01*
X40390101Y-52155471D01*
X40242142Y-52216758D01*
X40085075Y-52248000D01*
X39924925Y-52248000D01*
X39767858Y-52216758D01*
X39619899Y-52155471D01*
X39486745Y-52066501D01*
X39373499Y-51953255D01*
X39284529Y-51820101D01*
X39223242Y-51672142D01*
X39192000Y-51515075D01*
X39192000Y-51354925D01*
X39223242Y-51197858D01*
X39284529Y-51049899D01*
X39373499Y-50916745D01*
X39486745Y-50803499D01*
X39619899Y-50714529D01*
X39767858Y-50653242D01*
X39924925Y-50622000D01*
X40085075Y-50622000D01*
X40242142Y-50653242D01*
X40242142Y-50653242D01*
G37*
G36*
X45957142Y-50653242D02*
G01*
X46105101Y-50714529D01*
X46238255Y-50803499D01*
X46351501Y-50916745D01*
X46440471Y-51049899D01*
X46501758Y-51197858D01*
X46533000Y-51354925D01*
X46533000Y-51515075D01*
X46501758Y-51672142D01*
X46440471Y-51820101D01*
X46351501Y-51953255D01*
X46238255Y-52066501D01*
X46105101Y-52155471D01*
X45957142Y-52216758D01*
X45800075Y-52248000D01*
X45639925Y-52248000D01*
X45482858Y-52216758D01*
X45334899Y-52155471D01*
X45201745Y-52066501D01*
X45088499Y-51953255D01*
X44999529Y-51820101D01*
X44938242Y-51672142D01*
X44907000Y-51515075D01*
X44907000Y-51354925D01*
X44938242Y-51197858D01*
X44999529Y-51049899D01*
X45088499Y-50916745D01*
X45201745Y-50803499D01*
X45334899Y-50714529D01*
X45482858Y-50653242D01*
X45639925Y-50622000D01*
X45800075Y-50622000D01*
X45957142Y-50653242D01*
X45957142Y-50653242D01*
G37*
G36*
X61197142Y-50653242D02*
G01*
X61345101Y-50714529D01*
X61478255Y-50803499D01*
X61591501Y-50916745D01*
X61680471Y-51049899D01*
X61741758Y-51197858D01*
X61773000Y-51354925D01*
X61773000Y-51515075D01*
X61741758Y-51672142D01*
X61680471Y-51820101D01*
X61591501Y-51953255D01*
X61478255Y-52066501D01*
X61345101Y-52155471D01*
X61197142Y-52216758D01*
X61040075Y-52248000D01*
X60879925Y-52248000D01*
X60722858Y-52216758D01*
X60574899Y-52155471D01*
X60441745Y-52066501D01*
X60328499Y-51953255D01*
X60239529Y-51820101D01*
X60178242Y-51672142D01*
X60147000Y-51515075D01*
X60147000Y-51354925D01*
X60178242Y-51197858D01*
X60239529Y-51049899D01*
X60328499Y-50916745D01*
X60441745Y-50803499D01*
X60574899Y-50714529D01*
X60722858Y-50653242D01*
X60879925Y-50622000D01*
X61040075Y-50622000D01*
X61197142Y-50653242D01*
X61197142Y-50653242D01*
G37*
G36*
X66912142Y-50653242D02*
G01*
X67060101Y-50714529D01*
X67193255Y-50803499D01*
X67306501Y-50916745D01*
X67395471Y-51049899D01*
X67456758Y-51197858D01*
X67488000Y-51354925D01*
X67488000Y-51515075D01*
X67456758Y-51672142D01*
X67395471Y-51820101D01*
X67306501Y-51953255D01*
X67193255Y-52066501D01*
X67060101Y-52155471D01*
X66912142Y-52216758D01*
X66755075Y-52248000D01*
X66594925Y-52248000D01*
X66437858Y-52216758D01*
X66289899Y-52155471D01*
X66156745Y-52066501D01*
X66043499Y-51953255D01*
X65954529Y-51820101D01*
X65893242Y-51672142D01*
X65862000Y-51515075D01*
X65862000Y-51354925D01*
X65893242Y-51197858D01*
X65954529Y-51049899D01*
X66043499Y-50916745D01*
X66156745Y-50803499D01*
X66289899Y-50714529D01*
X66437858Y-50653242D01*
X66594925Y-50622000D01*
X66755075Y-50622000D01*
X66912142Y-50653242D01*
X66912142Y-50653242D01*
G37*
G36*
X66912142Y-48113242D02*
G01*
X67060101Y-48174529D01*
X67193255Y-48263499D01*
X67306501Y-48376745D01*
X67395471Y-48509899D01*
X67456758Y-48657858D01*
X67488000Y-48814925D01*
X67488000Y-48975075D01*
X67456758Y-49132142D01*
X67395471Y-49280101D01*
X67306501Y-49413255D01*
X67193255Y-49526501D01*
X67060101Y-49615471D01*
X66912142Y-49676758D01*
X66755075Y-49708000D01*
X66594925Y-49708000D01*
X66437858Y-49676758D01*
X66289899Y-49615471D01*
X66156745Y-49526501D01*
X66043499Y-49413255D01*
X65954529Y-49280101D01*
X65893242Y-49132142D01*
X65862000Y-48975075D01*
X65862000Y-48814925D01*
X65893242Y-48657858D01*
X65954529Y-48509899D01*
X66043499Y-48376745D01*
X66156745Y-48263499D01*
X66289899Y-48174529D01*
X66437858Y-48113242D01*
X66594925Y-48082000D01*
X66755075Y-48082000D01*
X66912142Y-48113242D01*
X66912142Y-48113242D01*
G37*
G36*
X19287142Y-48113242D02*
G01*
X19435101Y-48174529D01*
X19568255Y-48263499D01*
X19681501Y-48376745D01*
X19770471Y-48509899D01*
X19831758Y-48657858D01*
X19863000Y-48814925D01*
X19863000Y-48975075D01*
X19831758Y-49132142D01*
X19770471Y-49280101D01*
X19681501Y-49413255D01*
X19568255Y-49526501D01*
X19435101Y-49615471D01*
X19287142Y-49676758D01*
X19130075Y-49708000D01*
X18969925Y-49708000D01*
X18812858Y-49676758D01*
X18664899Y-49615471D01*
X18531745Y-49526501D01*
X18418499Y-49413255D01*
X18329529Y-49280101D01*
X18268242Y-49132142D01*
X18237000Y-48975075D01*
X18237000Y-48814925D01*
X18268242Y-48657858D01*
X18329529Y-48509899D01*
X18418499Y-48376745D01*
X18531745Y-48263499D01*
X18664899Y-48174529D01*
X18812858Y-48113242D01*
X18969925Y-48082000D01*
X19130075Y-48082000D01*
X19287142Y-48113242D01*
X19287142Y-48113242D01*
G37*
G36*
X82152142Y-48113242D02*
G01*
X82300101Y-48174529D01*
X82433255Y-48263499D01*
X82546501Y-48376745D01*
X82635471Y-48509899D01*
X82696758Y-48657858D01*
X82728000Y-48814925D01*
X82728000Y-48975075D01*
X82696758Y-49132142D01*
X82635471Y-49280101D01*
X82546501Y-49413255D01*
X82433255Y-49526501D01*
X82300101Y-49615471D01*
X82152142Y-49676758D01*
X81995075Y-49708000D01*
X81834925Y-49708000D01*
X81677858Y-49676758D01*
X81529899Y-49615471D01*
X81396745Y-49526501D01*
X81283499Y-49413255D01*
X81194529Y-49280101D01*
X81133242Y-49132142D01*
X81102000Y-48975075D01*
X81102000Y-48814925D01*
X81133242Y-48657858D01*
X81194529Y-48509899D01*
X81283499Y-48376745D01*
X81396745Y-48263499D01*
X81529899Y-48174529D01*
X81677858Y-48113242D01*
X81834925Y-48082000D01*
X81995075Y-48082000D01*
X82152142Y-48113242D01*
X82152142Y-48113242D01*
G37*
G36*
X45957142Y-48113242D02*
G01*
X46105101Y-48174529D01*
X46238255Y-48263499D01*
X46351501Y-48376745D01*
X46440471Y-48509899D01*
X46501758Y-48657858D01*
X46533000Y-48814925D01*
X46533000Y-48975075D01*
X46501758Y-49132142D01*
X46440471Y-49280101D01*
X46351501Y-49413255D01*
X46238255Y-49526501D01*
X46105101Y-49615471D01*
X45957142Y-49676758D01*
X45800075Y-49708000D01*
X45639925Y-49708000D01*
X45482858Y-49676758D01*
X45334899Y-49615471D01*
X45201745Y-49526501D01*
X45088499Y-49413255D01*
X44999529Y-49280101D01*
X44938242Y-49132142D01*
X44907000Y-48975075D01*
X44907000Y-48814925D01*
X44938242Y-48657858D01*
X44999529Y-48509899D01*
X45088499Y-48376745D01*
X45201745Y-48263499D01*
X45334899Y-48174529D01*
X45482858Y-48113242D01*
X45639925Y-48082000D01*
X45800075Y-48082000D01*
X45957142Y-48113242D01*
X45957142Y-48113242D01*
G37*
G36*
X61197142Y-48113242D02*
G01*
X61345101Y-48174529D01*
X61478255Y-48263499D01*
X61591501Y-48376745D01*
X61680471Y-48509899D01*
X61741758Y-48657858D01*
X61773000Y-48814925D01*
X61773000Y-48975075D01*
X61741758Y-49132142D01*
X61680471Y-49280101D01*
X61591501Y-49413255D01*
X61478255Y-49526501D01*
X61345101Y-49615471D01*
X61197142Y-49676758D01*
X61040075Y-49708000D01*
X60879925Y-49708000D01*
X60722858Y-49676758D01*
X60574899Y-49615471D01*
X60441745Y-49526501D01*
X60328499Y-49413255D01*
X60239529Y-49280101D01*
X60178242Y-49132142D01*
X60147000Y-48975075D01*
X60147000Y-48814925D01*
X60178242Y-48657858D01*
X60239529Y-48509899D01*
X60328499Y-48376745D01*
X60441745Y-48263499D01*
X60574899Y-48174529D01*
X60722858Y-48113242D01*
X60879925Y-48082000D01*
X61040075Y-48082000D01*
X61197142Y-48113242D01*
X61197142Y-48113242D01*
G37*
G36*
X25002142Y-48113242D02*
G01*
X25150101Y-48174529D01*
X25283255Y-48263499D01*
X25396501Y-48376745D01*
X25485471Y-48509899D01*
X25546758Y-48657858D01*
X25578000Y-48814925D01*
X25578000Y-48975075D01*
X25546758Y-49132142D01*
X25485471Y-49280101D01*
X25396501Y-49413255D01*
X25283255Y-49526501D01*
X25150101Y-49615471D01*
X25002142Y-49676758D01*
X24845075Y-49708000D01*
X24684925Y-49708000D01*
X24527858Y-49676758D01*
X24379899Y-49615471D01*
X24246745Y-49526501D01*
X24133499Y-49413255D01*
X24044529Y-49280101D01*
X23983242Y-49132142D01*
X23952000Y-48975075D01*
X23952000Y-48814925D01*
X23983242Y-48657858D01*
X24044529Y-48509899D01*
X24133499Y-48376745D01*
X24246745Y-48263499D01*
X24379899Y-48174529D01*
X24527858Y-48113242D01*
X24684925Y-48082000D01*
X24845075Y-48082000D01*
X25002142Y-48113242D01*
X25002142Y-48113242D01*
G37*
G36*
X4047142Y-48113242D02*
G01*
X4195101Y-48174529D01*
X4328255Y-48263499D01*
X4441501Y-48376745D01*
X4530471Y-48509899D01*
X4591758Y-48657858D01*
X4623000Y-48814925D01*
X4623000Y-48975075D01*
X4591758Y-49132142D01*
X4530471Y-49280101D01*
X4441501Y-49413255D01*
X4328255Y-49526501D01*
X4195101Y-49615471D01*
X4047142Y-49676758D01*
X3890075Y-49708000D01*
X3729925Y-49708000D01*
X3572858Y-49676758D01*
X3424899Y-49615471D01*
X3291745Y-49526501D01*
X3178499Y-49413255D01*
X3089529Y-49280101D01*
X3028242Y-49132142D01*
X2997000Y-48975075D01*
X2997000Y-48814925D01*
X3028242Y-48657858D01*
X3089529Y-48509899D01*
X3178499Y-48376745D01*
X3291745Y-48263499D01*
X3424899Y-48174529D01*
X3572858Y-48113242D01*
X3729925Y-48082000D01*
X3890075Y-48082000D01*
X4047142Y-48113242D01*
X4047142Y-48113242D01*
G37*
G36*
X40242142Y-48113242D02*
G01*
X40390101Y-48174529D01*
X40523255Y-48263499D01*
X40636501Y-48376745D01*
X40725471Y-48509899D01*
X40786758Y-48657858D01*
X40818000Y-48814925D01*
X40818000Y-48975075D01*
X40786758Y-49132142D01*
X40725471Y-49280101D01*
X40636501Y-49413255D01*
X40523255Y-49526501D01*
X40390101Y-49615471D01*
X40242142Y-49676758D01*
X40085075Y-49708000D01*
X39924925Y-49708000D01*
X39767858Y-49676758D01*
X39619899Y-49615471D01*
X39486745Y-49526501D01*
X39373499Y-49413255D01*
X39284529Y-49280101D01*
X39223242Y-49132142D01*
X39192000Y-48975075D01*
X39192000Y-48814925D01*
X39223242Y-48657858D01*
X39284529Y-48509899D01*
X39373499Y-48376745D01*
X39486745Y-48263499D01*
X39619899Y-48174529D01*
X39767858Y-48113242D01*
X39924925Y-48082000D01*
X40085075Y-48082000D01*
X40242142Y-48113242D01*
X40242142Y-48113242D01*
G37*
G36*
X4047142Y-45573242D02*
G01*
X4195101Y-45634529D01*
X4328255Y-45723499D01*
X4441501Y-45836745D01*
X4530471Y-45969899D01*
X4591758Y-46117858D01*
X4623000Y-46274925D01*
X4623000Y-46435075D01*
X4591758Y-46592142D01*
X4530471Y-46740101D01*
X4441501Y-46873255D01*
X4328255Y-46986501D01*
X4195101Y-47075471D01*
X4047142Y-47136758D01*
X3890075Y-47168000D01*
X3729925Y-47168000D01*
X3572858Y-47136758D01*
X3424899Y-47075471D01*
X3291745Y-46986501D01*
X3178499Y-46873255D01*
X3089529Y-46740101D01*
X3028242Y-46592142D01*
X2997000Y-46435075D01*
X2997000Y-46274925D01*
X3028242Y-46117858D01*
X3089529Y-45969899D01*
X3178499Y-45836745D01*
X3291745Y-45723499D01*
X3424899Y-45634529D01*
X3572858Y-45573242D01*
X3729925Y-45542000D01*
X3890075Y-45542000D01*
X4047142Y-45573242D01*
X4047142Y-45573242D01*
G37*
G36*
X19287142Y-45573242D02*
G01*
X19435101Y-45634529D01*
X19568255Y-45723499D01*
X19681501Y-45836745D01*
X19770471Y-45969899D01*
X19831758Y-46117858D01*
X19863000Y-46274925D01*
X19863000Y-46435075D01*
X19831758Y-46592142D01*
X19770471Y-46740101D01*
X19681501Y-46873255D01*
X19568255Y-46986501D01*
X19435101Y-47075471D01*
X19287142Y-47136758D01*
X19130075Y-47168000D01*
X18969925Y-47168000D01*
X18812858Y-47136758D01*
X18664899Y-47075471D01*
X18531745Y-46986501D01*
X18418499Y-46873255D01*
X18329529Y-46740101D01*
X18268242Y-46592142D01*
X18237000Y-46435075D01*
X18237000Y-46274925D01*
X18268242Y-46117858D01*
X18329529Y-45969899D01*
X18418499Y-45836745D01*
X18531745Y-45723499D01*
X18664899Y-45634529D01*
X18812858Y-45573242D01*
X18969925Y-45542000D01*
X19130075Y-45542000D01*
X19287142Y-45573242D01*
X19287142Y-45573242D01*
G37*
G36*
X25002142Y-45573242D02*
G01*
X25150101Y-45634529D01*
X25283255Y-45723499D01*
X25396501Y-45836745D01*
X25485471Y-45969899D01*
X25546758Y-46117858D01*
X25578000Y-46274925D01*
X25578000Y-46435075D01*
X25546758Y-46592142D01*
X25485471Y-46740101D01*
X25396501Y-46873255D01*
X25283255Y-46986501D01*
X25150101Y-47075471D01*
X25002142Y-47136758D01*
X24845075Y-47168000D01*
X24684925Y-47168000D01*
X24527858Y-47136758D01*
X24379899Y-47075471D01*
X24246745Y-46986501D01*
X24133499Y-46873255D01*
X24044529Y-46740101D01*
X23983242Y-46592142D01*
X23952000Y-46435075D01*
X23952000Y-46274925D01*
X23983242Y-46117858D01*
X24044529Y-45969899D01*
X24133499Y-45836745D01*
X24246745Y-45723499D01*
X24379899Y-45634529D01*
X24527858Y-45573242D01*
X24684925Y-45542000D01*
X24845075Y-45542000D01*
X25002142Y-45573242D01*
X25002142Y-45573242D01*
G37*
G36*
X82152142Y-45573242D02*
G01*
X82300101Y-45634529D01*
X82433255Y-45723499D01*
X82546501Y-45836745D01*
X82635471Y-45969899D01*
X82696758Y-46117858D01*
X82728000Y-46274925D01*
X82728000Y-46435075D01*
X82696758Y-46592142D01*
X82635471Y-46740101D01*
X82546501Y-46873255D01*
X82433255Y-46986501D01*
X82300101Y-47075471D01*
X82152142Y-47136758D01*
X81995075Y-47168000D01*
X81834925Y-47168000D01*
X81677858Y-47136758D01*
X81529899Y-47075471D01*
X81396745Y-46986501D01*
X81283499Y-46873255D01*
X81194529Y-46740101D01*
X81133242Y-46592142D01*
X81102000Y-46435075D01*
X81102000Y-46274925D01*
X81133242Y-46117858D01*
X81194529Y-45969899D01*
X81283499Y-45836745D01*
X81396745Y-45723499D01*
X81529899Y-45634529D01*
X81677858Y-45573242D01*
X81834925Y-45542000D01*
X81995075Y-45542000D01*
X82152142Y-45573242D01*
X82152142Y-45573242D01*
G37*
G36*
X66912142Y-45573242D02*
G01*
X67060101Y-45634529D01*
X67193255Y-45723499D01*
X67306501Y-45836745D01*
X67395471Y-45969899D01*
X67456758Y-46117858D01*
X67488000Y-46274925D01*
X67488000Y-46435075D01*
X67456758Y-46592142D01*
X67395471Y-46740101D01*
X67306501Y-46873255D01*
X67193255Y-46986501D01*
X67060101Y-47075471D01*
X66912142Y-47136758D01*
X66755075Y-47168000D01*
X66594925Y-47168000D01*
X66437858Y-47136758D01*
X66289899Y-47075471D01*
X66156745Y-46986501D01*
X66043499Y-46873255D01*
X65954529Y-46740101D01*
X65893242Y-46592142D01*
X65862000Y-46435075D01*
X65862000Y-46274925D01*
X65893242Y-46117858D01*
X65954529Y-45969899D01*
X66043499Y-45836745D01*
X66156745Y-45723499D01*
X66289899Y-45634529D01*
X66437858Y-45573242D01*
X66594925Y-45542000D01*
X66755075Y-45542000D01*
X66912142Y-45573242D01*
X66912142Y-45573242D01*
G37*
G36*
X45957142Y-45573242D02*
G01*
X46105101Y-45634529D01*
X46238255Y-45723499D01*
X46351501Y-45836745D01*
X46440471Y-45969899D01*
X46501758Y-46117858D01*
X46533000Y-46274925D01*
X46533000Y-46435075D01*
X46501758Y-46592142D01*
X46440471Y-46740101D01*
X46351501Y-46873255D01*
X46238255Y-46986501D01*
X46105101Y-47075471D01*
X45957142Y-47136758D01*
X45800075Y-47168000D01*
X45639925Y-47168000D01*
X45482858Y-47136758D01*
X45334899Y-47075471D01*
X45201745Y-46986501D01*
X45088499Y-46873255D01*
X44999529Y-46740101D01*
X44938242Y-46592142D01*
X44907000Y-46435075D01*
X44907000Y-46274925D01*
X44938242Y-46117858D01*
X44999529Y-45969899D01*
X45088499Y-45836745D01*
X45201745Y-45723499D01*
X45334899Y-45634529D01*
X45482858Y-45573242D01*
X45639925Y-45542000D01*
X45800075Y-45542000D01*
X45957142Y-45573242D01*
X45957142Y-45573242D01*
G37*
G36*
X61197142Y-45573242D02*
G01*
X61345101Y-45634529D01*
X61478255Y-45723499D01*
X61591501Y-45836745D01*
X61680471Y-45969899D01*
X61741758Y-46117858D01*
X61773000Y-46274925D01*
X61773000Y-46435075D01*
X61741758Y-46592142D01*
X61680471Y-46740101D01*
X61591501Y-46873255D01*
X61478255Y-46986501D01*
X61345101Y-47075471D01*
X61197142Y-47136758D01*
X61040075Y-47168000D01*
X60879925Y-47168000D01*
X60722858Y-47136758D01*
X60574899Y-47075471D01*
X60441745Y-46986501D01*
X60328499Y-46873255D01*
X60239529Y-46740101D01*
X60178242Y-46592142D01*
X60147000Y-46435075D01*
X60147000Y-46274925D01*
X60178242Y-46117858D01*
X60239529Y-45969899D01*
X60328499Y-45836745D01*
X60441745Y-45723499D01*
X60574899Y-45634529D01*
X60722858Y-45573242D01*
X60879925Y-45542000D01*
X61040075Y-45542000D01*
X61197142Y-45573242D01*
X61197142Y-45573242D01*
G37*
G36*
X40242142Y-45573242D02*
G01*
X40390101Y-45634529D01*
X40523255Y-45723499D01*
X40636501Y-45836745D01*
X40725471Y-45969899D01*
X40786758Y-46117858D01*
X40818000Y-46274925D01*
X40818000Y-46435075D01*
X40786758Y-46592142D01*
X40725471Y-46740101D01*
X40636501Y-46873255D01*
X40523255Y-46986501D01*
X40390101Y-47075471D01*
X40242142Y-47136758D01*
X40085075Y-47168000D01*
X39924925Y-47168000D01*
X39767858Y-47136758D01*
X39619899Y-47075471D01*
X39486745Y-46986501D01*
X39373499Y-46873255D01*
X39284529Y-46740101D01*
X39223242Y-46592142D01*
X39192000Y-46435075D01*
X39192000Y-46274925D01*
X39223242Y-46117858D01*
X39284529Y-45969899D01*
X39373499Y-45836745D01*
X39486745Y-45723499D01*
X39619899Y-45634529D01*
X39767858Y-45573242D01*
X39924925Y-45542000D01*
X40085075Y-45542000D01*
X40242142Y-45573242D01*
X40242142Y-45573242D01*
G37*
G36*
X40242142Y-43033242D02*
G01*
X40390101Y-43094529D01*
X40523255Y-43183499D01*
X40636501Y-43296745D01*
X40725471Y-43429899D01*
X40786758Y-43577858D01*
X40818000Y-43734925D01*
X40818000Y-43895075D01*
X40786758Y-44052142D01*
X40725471Y-44200101D01*
X40636501Y-44333255D01*
X40523255Y-44446501D01*
X40390101Y-44535471D01*
X40242142Y-44596758D01*
X40085075Y-44628000D01*
X39924925Y-44628000D01*
X39767858Y-44596758D01*
X39619899Y-44535471D01*
X39486745Y-44446501D01*
X39373499Y-44333255D01*
X39284529Y-44200101D01*
X39223242Y-44052142D01*
X39192000Y-43895075D01*
X39192000Y-43734925D01*
X39223242Y-43577858D01*
X39284529Y-43429899D01*
X39373499Y-43296745D01*
X39486745Y-43183499D01*
X39619899Y-43094529D01*
X39767858Y-43033242D01*
X39924925Y-43002000D01*
X40085075Y-43002000D01*
X40242142Y-43033242D01*
X40242142Y-43033242D01*
G37*
G36*
X45957142Y-43033242D02*
G01*
X46105101Y-43094529D01*
X46238255Y-43183499D01*
X46351501Y-43296745D01*
X46440471Y-43429899D01*
X46501758Y-43577858D01*
X46533000Y-43734925D01*
X46533000Y-43895075D01*
X46501758Y-44052142D01*
X46440471Y-44200101D01*
X46351501Y-44333255D01*
X46238255Y-44446501D01*
X46105101Y-44535471D01*
X45957142Y-44596758D01*
X45800075Y-44628000D01*
X45639925Y-44628000D01*
X45482858Y-44596758D01*
X45334899Y-44535471D01*
X45201745Y-44446501D01*
X45088499Y-44333255D01*
X44999529Y-44200101D01*
X44938242Y-44052142D01*
X44907000Y-43895075D01*
X44907000Y-43734925D01*
X44938242Y-43577858D01*
X44999529Y-43429899D01*
X45088499Y-43296745D01*
X45201745Y-43183499D01*
X45334899Y-43094529D01*
X45482858Y-43033242D01*
X45639925Y-43002000D01*
X45800075Y-43002000D01*
X45957142Y-43033242D01*
X45957142Y-43033242D01*
G37*
G36*
X25002142Y-43033242D02*
G01*
X25150101Y-43094529D01*
X25283255Y-43183499D01*
X25396501Y-43296745D01*
X25485471Y-43429899D01*
X25546758Y-43577858D01*
X25578000Y-43734925D01*
X25578000Y-43895075D01*
X25546758Y-44052142D01*
X25485471Y-44200101D01*
X25396501Y-44333255D01*
X25283255Y-44446501D01*
X25150101Y-44535471D01*
X25002142Y-44596758D01*
X24845075Y-44628000D01*
X24684925Y-44628000D01*
X24527858Y-44596758D01*
X24379899Y-44535471D01*
X24246745Y-44446501D01*
X24133499Y-44333255D01*
X24044529Y-44200101D01*
X23983242Y-44052142D01*
X23952000Y-43895075D01*
X23952000Y-43734925D01*
X23983242Y-43577858D01*
X24044529Y-43429899D01*
X24133499Y-43296745D01*
X24246745Y-43183499D01*
X24379899Y-43094529D01*
X24527858Y-43033242D01*
X24684925Y-43002000D01*
X24845075Y-43002000D01*
X25002142Y-43033242D01*
X25002142Y-43033242D01*
G37*
G36*
X61197142Y-43033242D02*
G01*
X61345101Y-43094529D01*
X61478255Y-43183499D01*
X61591501Y-43296745D01*
X61680471Y-43429899D01*
X61741758Y-43577858D01*
X61773000Y-43734925D01*
X61773000Y-43895075D01*
X61741758Y-44052142D01*
X61680471Y-44200101D01*
X61591501Y-44333255D01*
X61478255Y-44446501D01*
X61345101Y-44535471D01*
X61197142Y-44596758D01*
X61040075Y-44628000D01*
X60879925Y-44628000D01*
X60722858Y-44596758D01*
X60574899Y-44535471D01*
X60441745Y-44446501D01*
X60328499Y-44333255D01*
X60239529Y-44200101D01*
X60178242Y-44052142D01*
X60147000Y-43895075D01*
X60147000Y-43734925D01*
X60178242Y-43577858D01*
X60239529Y-43429899D01*
X60328499Y-43296745D01*
X60441745Y-43183499D01*
X60574899Y-43094529D01*
X60722858Y-43033242D01*
X60879925Y-43002000D01*
X61040075Y-43002000D01*
X61197142Y-43033242D01*
X61197142Y-43033242D01*
G37*
G36*
X66912142Y-43033242D02*
G01*
X67060101Y-43094529D01*
X67193255Y-43183499D01*
X67306501Y-43296745D01*
X67395471Y-43429899D01*
X67456758Y-43577858D01*
X67488000Y-43734925D01*
X67488000Y-43895075D01*
X67456758Y-44052142D01*
X67395471Y-44200101D01*
X67306501Y-44333255D01*
X67193255Y-44446501D01*
X67060101Y-44535471D01*
X66912142Y-44596758D01*
X66755075Y-44628000D01*
X66594925Y-44628000D01*
X66437858Y-44596758D01*
X66289899Y-44535471D01*
X66156745Y-44446501D01*
X66043499Y-44333255D01*
X65954529Y-44200101D01*
X65893242Y-44052142D01*
X65862000Y-43895075D01*
X65862000Y-43734925D01*
X65893242Y-43577858D01*
X65954529Y-43429899D01*
X66043499Y-43296745D01*
X66156745Y-43183499D01*
X66289899Y-43094529D01*
X66437858Y-43033242D01*
X66594925Y-43002000D01*
X66755075Y-43002000D01*
X66912142Y-43033242D01*
X66912142Y-43033242D01*
G37*
G36*
X82152142Y-43033242D02*
G01*
X82300101Y-43094529D01*
X82433255Y-43183499D01*
X82546501Y-43296745D01*
X82635471Y-43429899D01*
X82696758Y-43577858D01*
X82728000Y-43734925D01*
X82728000Y-43895075D01*
X82696758Y-44052142D01*
X82635471Y-44200101D01*
X82546501Y-44333255D01*
X82433255Y-44446501D01*
X82300101Y-44535471D01*
X82152142Y-44596758D01*
X81995075Y-44628000D01*
X81834925Y-44628000D01*
X81677858Y-44596758D01*
X81529899Y-44535471D01*
X81396745Y-44446501D01*
X81283499Y-44333255D01*
X81194529Y-44200101D01*
X81133242Y-44052142D01*
X81102000Y-43895075D01*
X81102000Y-43734925D01*
X81133242Y-43577858D01*
X81194529Y-43429899D01*
X81283499Y-43296745D01*
X81396745Y-43183499D01*
X81529899Y-43094529D01*
X81677858Y-43033242D01*
X81834925Y-43002000D01*
X81995075Y-43002000D01*
X82152142Y-43033242D01*
X82152142Y-43033242D01*
G37*
G36*
X4047142Y-43033242D02*
G01*
X4195101Y-43094529D01*
X4328255Y-43183499D01*
X4441501Y-43296745D01*
X4530471Y-43429899D01*
X4591758Y-43577858D01*
X4623000Y-43734925D01*
X4623000Y-43895075D01*
X4591758Y-44052142D01*
X4530471Y-44200101D01*
X4441501Y-44333255D01*
X4328255Y-44446501D01*
X4195101Y-44535471D01*
X4047142Y-44596758D01*
X3890075Y-44628000D01*
X3729925Y-44628000D01*
X3572858Y-44596758D01*
X3424899Y-44535471D01*
X3291745Y-44446501D01*
X3178499Y-44333255D01*
X3089529Y-44200101D01*
X3028242Y-44052142D01*
X2997000Y-43895075D01*
X2997000Y-43734925D01*
X3028242Y-43577858D01*
X3089529Y-43429899D01*
X3178499Y-43296745D01*
X3291745Y-43183499D01*
X3424899Y-43094529D01*
X3572858Y-43033242D01*
X3729925Y-43002000D01*
X3890075Y-43002000D01*
X4047142Y-43033242D01*
X4047142Y-43033242D01*
G37*
G36*
X19287142Y-43033242D02*
G01*
X19435101Y-43094529D01*
X19568255Y-43183499D01*
X19681501Y-43296745D01*
X19770471Y-43429899D01*
X19831758Y-43577858D01*
X19863000Y-43734925D01*
X19863000Y-43895075D01*
X19831758Y-44052142D01*
X19770471Y-44200101D01*
X19681501Y-44333255D01*
X19568255Y-44446501D01*
X19435101Y-44535471D01*
X19287142Y-44596758D01*
X19130075Y-44628000D01*
X18969925Y-44628000D01*
X18812858Y-44596758D01*
X18664899Y-44535471D01*
X18531745Y-44446501D01*
X18418499Y-44333255D01*
X18329529Y-44200101D01*
X18268242Y-44052142D01*
X18237000Y-43895075D01*
X18237000Y-43734925D01*
X18268242Y-43577858D01*
X18329529Y-43429899D01*
X18418499Y-43296745D01*
X18531745Y-43183499D01*
X18664899Y-43094529D01*
X18812858Y-43033242D01*
X18969925Y-43002000D01*
X19130075Y-43002000D01*
X19287142Y-43033242D01*
X19287142Y-43033242D01*
G37*
G36*
X4047142Y-40493242D02*
G01*
X4195101Y-40554529D01*
X4328255Y-40643499D01*
X4441501Y-40756745D01*
X4530471Y-40889899D01*
X4591758Y-41037858D01*
X4623000Y-41194925D01*
X4623000Y-41355075D01*
X4591758Y-41512142D01*
X4530471Y-41660101D01*
X4441501Y-41793255D01*
X4328255Y-41906501D01*
X4195101Y-41995471D01*
X4047142Y-42056758D01*
X3890075Y-42088000D01*
X3729925Y-42088000D01*
X3572858Y-42056758D01*
X3424899Y-41995471D01*
X3291745Y-41906501D01*
X3178499Y-41793255D01*
X3089529Y-41660101D01*
X3028242Y-41512142D01*
X2997000Y-41355075D01*
X2997000Y-41194925D01*
X3028242Y-41037858D01*
X3089529Y-40889899D01*
X3178499Y-40756745D01*
X3291745Y-40643499D01*
X3424899Y-40554529D01*
X3572858Y-40493242D01*
X3729925Y-40462000D01*
X3890075Y-40462000D01*
X4047142Y-40493242D01*
X4047142Y-40493242D01*
G37*
G36*
X66912142Y-40493242D02*
G01*
X67060101Y-40554529D01*
X67193255Y-40643499D01*
X67306501Y-40756745D01*
X67395471Y-40889899D01*
X67456758Y-41037858D01*
X67488000Y-41194925D01*
X67488000Y-41355075D01*
X67456758Y-41512142D01*
X67395471Y-41660101D01*
X67306501Y-41793255D01*
X67193255Y-41906501D01*
X67060101Y-41995471D01*
X66912142Y-42056758D01*
X66755075Y-42088000D01*
X66594925Y-42088000D01*
X66437858Y-42056758D01*
X66289899Y-41995471D01*
X66156745Y-41906501D01*
X66043499Y-41793255D01*
X65954529Y-41660101D01*
X65893242Y-41512142D01*
X65862000Y-41355075D01*
X65862000Y-41194925D01*
X65893242Y-41037858D01*
X65954529Y-40889899D01*
X66043499Y-40756745D01*
X66156745Y-40643499D01*
X66289899Y-40554529D01*
X66437858Y-40493242D01*
X66594925Y-40462000D01*
X66755075Y-40462000D01*
X66912142Y-40493242D01*
X66912142Y-40493242D01*
G37*
G36*
X61197142Y-40493242D02*
G01*
X61345101Y-40554529D01*
X61478255Y-40643499D01*
X61591501Y-40756745D01*
X61680471Y-40889899D01*
X61741758Y-41037858D01*
X61773000Y-41194925D01*
X61773000Y-41355075D01*
X61741758Y-41512142D01*
X61680471Y-41660101D01*
X61591501Y-41793255D01*
X61478255Y-41906501D01*
X61345101Y-41995471D01*
X61197142Y-42056758D01*
X61040075Y-42088000D01*
X60879925Y-42088000D01*
X60722858Y-42056758D01*
X60574899Y-41995471D01*
X60441745Y-41906501D01*
X60328499Y-41793255D01*
X60239529Y-41660101D01*
X60178242Y-41512142D01*
X60147000Y-41355075D01*
X60147000Y-41194925D01*
X60178242Y-41037858D01*
X60239529Y-40889899D01*
X60328499Y-40756745D01*
X60441745Y-40643499D01*
X60574899Y-40554529D01*
X60722858Y-40493242D01*
X60879925Y-40462000D01*
X61040075Y-40462000D01*
X61197142Y-40493242D01*
X61197142Y-40493242D01*
G37*
G36*
X45957142Y-40493242D02*
G01*
X46105101Y-40554529D01*
X46238255Y-40643499D01*
X46351501Y-40756745D01*
X46440471Y-40889899D01*
X46501758Y-41037858D01*
X46533000Y-41194925D01*
X46533000Y-41355075D01*
X46501758Y-41512142D01*
X46440471Y-41660101D01*
X46351501Y-41793255D01*
X46238255Y-41906501D01*
X46105101Y-41995471D01*
X45957142Y-42056758D01*
X45800075Y-42088000D01*
X45639925Y-42088000D01*
X45482858Y-42056758D01*
X45334899Y-41995471D01*
X45201745Y-41906501D01*
X45088499Y-41793255D01*
X44999529Y-41660101D01*
X44938242Y-41512142D01*
X44907000Y-41355075D01*
X44907000Y-41194925D01*
X44938242Y-41037858D01*
X44999529Y-40889899D01*
X45088499Y-40756745D01*
X45201745Y-40643499D01*
X45334899Y-40554529D01*
X45482858Y-40493242D01*
X45639925Y-40462000D01*
X45800075Y-40462000D01*
X45957142Y-40493242D01*
X45957142Y-40493242D01*
G37*
G36*
X82152142Y-40493242D02*
G01*
X82300101Y-40554529D01*
X82433255Y-40643499D01*
X82546501Y-40756745D01*
X82635471Y-40889899D01*
X82696758Y-41037858D01*
X82728000Y-41194925D01*
X82728000Y-41355075D01*
X82696758Y-41512142D01*
X82635471Y-41660101D01*
X82546501Y-41793255D01*
X82433255Y-41906501D01*
X82300101Y-41995471D01*
X82152142Y-42056758D01*
X81995075Y-42088000D01*
X81834925Y-42088000D01*
X81677858Y-42056758D01*
X81529899Y-41995471D01*
X81396745Y-41906501D01*
X81283499Y-41793255D01*
X81194529Y-41660101D01*
X81133242Y-41512142D01*
X81102000Y-41355075D01*
X81102000Y-41194925D01*
X81133242Y-41037858D01*
X81194529Y-40889899D01*
X81283499Y-40756745D01*
X81396745Y-40643499D01*
X81529899Y-40554529D01*
X81677858Y-40493242D01*
X81834925Y-40462000D01*
X81995075Y-40462000D01*
X82152142Y-40493242D01*
X82152142Y-40493242D01*
G37*
G36*
X40242142Y-40493242D02*
G01*
X40390101Y-40554529D01*
X40523255Y-40643499D01*
X40636501Y-40756745D01*
X40725471Y-40889899D01*
X40786758Y-41037858D01*
X40818000Y-41194925D01*
X40818000Y-41355075D01*
X40786758Y-41512142D01*
X40725471Y-41660101D01*
X40636501Y-41793255D01*
X40523255Y-41906501D01*
X40390101Y-41995471D01*
X40242142Y-42056758D01*
X40085075Y-42088000D01*
X39924925Y-42088000D01*
X39767858Y-42056758D01*
X39619899Y-41995471D01*
X39486745Y-41906501D01*
X39373499Y-41793255D01*
X39284529Y-41660101D01*
X39223242Y-41512142D01*
X39192000Y-41355075D01*
X39192000Y-41194925D01*
X39223242Y-41037858D01*
X39284529Y-40889899D01*
X39373499Y-40756745D01*
X39486745Y-40643499D01*
X39619899Y-40554529D01*
X39767858Y-40493242D01*
X39924925Y-40462000D01*
X40085075Y-40462000D01*
X40242142Y-40493242D01*
X40242142Y-40493242D01*
G37*
G36*
X19287142Y-40493242D02*
G01*
X19435101Y-40554529D01*
X19568255Y-40643499D01*
X19681501Y-40756745D01*
X19770471Y-40889899D01*
X19831758Y-41037858D01*
X19863000Y-41194925D01*
X19863000Y-41355075D01*
X19831758Y-41512142D01*
X19770471Y-41660101D01*
X19681501Y-41793255D01*
X19568255Y-41906501D01*
X19435101Y-41995471D01*
X19287142Y-42056758D01*
X19130075Y-42088000D01*
X18969925Y-42088000D01*
X18812858Y-42056758D01*
X18664899Y-41995471D01*
X18531745Y-41906501D01*
X18418499Y-41793255D01*
X18329529Y-41660101D01*
X18268242Y-41512142D01*
X18237000Y-41355075D01*
X18237000Y-41194925D01*
X18268242Y-41037858D01*
X18329529Y-40889899D01*
X18418499Y-40756745D01*
X18531745Y-40643499D01*
X18664899Y-40554529D01*
X18812858Y-40493242D01*
X18969925Y-40462000D01*
X19130075Y-40462000D01*
X19287142Y-40493242D01*
X19287142Y-40493242D01*
G37*
G36*
X25002142Y-40493242D02*
G01*
X25150101Y-40554529D01*
X25283255Y-40643499D01*
X25396501Y-40756745D01*
X25485471Y-40889899D01*
X25546758Y-41037858D01*
X25578000Y-41194925D01*
X25578000Y-41355075D01*
X25546758Y-41512142D01*
X25485471Y-41660101D01*
X25396501Y-41793255D01*
X25283255Y-41906501D01*
X25150101Y-41995471D01*
X25002142Y-42056758D01*
X24845075Y-42088000D01*
X24684925Y-42088000D01*
X24527858Y-42056758D01*
X24379899Y-41995471D01*
X24246745Y-41906501D01*
X24133499Y-41793255D01*
X24044529Y-41660101D01*
X23983242Y-41512142D01*
X23952000Y-41355075D01*
X23952000Y-41194925D01*
X23983242Y-41037858D01*
X24044529Y-40889899D01*
X24133499Y-40756745D01*
X24246745Y-40643499D01*
X24379899Y-40554529D01*
X24527858Y-40493242D01*
X24684925Y-40462000D01*
X24845075Y-40462000D01*
X25002142Y-40493242D01*
X25002142Y-40493242D01*
G37*
G36*
X4047142Y-37953242D02*
G01*
X4195101Y-38014529D01*
X4328255Y-38103499D01*
X4441501Y-38216745D01*
X4530471Y-38349899D01*
X4591758Y-38497858D01*
X4623000Y-38654925D01*
X4623000Y-38815075D01*
X4591758Y-38972142D01*
X4530471Y-39120101D01*
X4441501Y-39253255D01*
X4328255Y-39366501D01*
X4195101Y-39455471D01*
X4047142Y-39516758D01*
X3890075Y-39548000D01*
X3729925Y-39548000D01*
X3572858Y-39516758D01*
X3424899Y-39455471D01*
X3291745Y-39366501D01*
X3178499Y-39253255D01*
X3089529Y-39120101D01*
X3028242Y-38972142D01*
X2997000Y-38815075D01*
X2997000Y-38654925D01*
X3028242Y-38497858D01*
X3089529Y-38349899D01*
X3178499Y-38216745D01*
X3291745Y-38103499D01*
X3424899Y-38014529D01*
X3572858Y-37953242D01*
X3729925Y-37922000D01*
X3890075Y-37922000D01*
X4047142Y-37953242D01*
X4047142Y-37953242D01*
G37*
G36*
X66912142Y-37953242D02*
G01*
X67060101Y-38014529D01*
X67193255Y-38103499D01*
X67306501Y-38216745D01*
X67395471Y-38349899D01*
X67456758Y-38497858D01*
X67488000Y-38654925D01*
X67488000Y-38815075D01*
X67456758Y-38972142D01*
X67395471Y-39120101D01*
X67306501Y-39253255D01*
X67193255Y-39366501D01*
X67060101Y-39455471D01*
X66912142Y-39516758D01*
X66755075Y-39548000D01*
X66594925Y-39548000D01*
X66437858Y-39516758D01*
X66289899Y-39455471D01*
X66156745Y-39366501D01*
X66043499Y-39253255D01*
X65954529Y-39120101D01*
X65893242Y-38972142D01*
X65862000Y-38815075D01*
X65862000Y-38654925D01*
X65893242Y-38497858D01*
X65954529Y-38349899D01*
X66043499Y-38216745D01*
X66156745Y-38103499D01*
X66289899Y-38014529D01*
X66437858Y-37953242D01*
X66594925Y-37922000D01*
X66755075Y-37922000D01*
X66912142Y-37953242D01*
X66912142Y-37953242D01*
G37*
G36*
X25002142Y-37953242D02*
G01*
X25150101Y-38014529D01*
X25283255Y-38103499D01*
X25396501Y-38216745D01*
X25485471Y-38349899D01*
X25546758Y-38497858D01*
X25578000Y-38654925D01*
X25578000Y-38815075D01*
X25546758Y-38972142D01*
X25485471Y-39120101D01*
X25396501Y-39253255D01*
X25283255Y-39366501D01*
X25150101Y-39455471D01*
X25002142Y-39516758D01*
X24845075Y-39548000D01*
X24684925Y-39548000D01*
X24527858Y-39516758D01*
X24379899Y-39455471D01*
X24246745Y-39366501D01*
X24133499Y-39253255D01*
X24044529Y-39120101D01*
X23983242Y-38972142D01*
X23952000Y-38815075D01*
X23952000Y-38654925D01*
X23983242Y-38497858D01*
X24044529Y-38349899D01*
X24133499Y-38216745D01*
X24246745Y-38103499D01*
X24379899Y-38014529D01*
X24527858Y-37953242D01*
X24684925Y-37922000D01*
X24845075Y-37922000D01*
X25002142Y-37953242D01*
X25002142Y-37953242D01*
G37*
G36*
X19287142Y-37953242D02*
G01*
X19435101Y-38014529D01*
X19568255Y-38103499D01*
X19681501Y-38216745D01*
X19770471Y-38349899D01*
X19831758Y-38497858D01*
X19863000Y-38654925D01*
X19863000Y-38815075D01*
X19831758Y-38972142D01*
X19770471Y-39120101D01*
X19681501Y-39253255D01*
X19568255Y-39366501D01*
X19435101Y-39455471D01*
X19287142Y-39516758D01*
X19130075Y-39548000D01*
X18969925Y-39548000D01*
X18812858Y-39516758D01*
X18664899Y-39455471D01*
X18531745Y-39366501D01*
X18418499Y-39253255D01*
X18329529Y-39120101D01*
X18268242Y-38972142D01*
X18237000Y-38815075D01*
X18237000Y-38654925D01*
X18268242Y-38497858D01*
X18329529Y-38349899D01*
X18418499Y-38216745D01*
X18531745Y-38103499D01*
X18664899Y-38014529D01*
X18812858Y-37953242D01*
X18969925Y-37922000D01*
X19130075Y-37922000D01*
X19287142Y-37953242D01*
X19287142Y-37953242D01*
G37*
G36*
X40242142Y-37953242D02*
G01*
X40390101Y-38014529D01*
X40523255Y-38103499D01*
X40636501Y-38216745D01*
X40725471Y-38349899D01*
X40786758Y-38497858D01*
X40818000Y-38654925D01*
X40818000Y-38815075D01*
X40786758Y-38972142D01*
X40725471Y-39120101D01*
X40636501Y-39253255D01*
X40523255Y-39366501D01*
X40390101Y-39455471D01*
X40242142Y-39516758D01*
X40085075Y-39548000D01*
X39924925Y-39548000D01*
X39767858Y-39516758D01*
X39619899Y-39455471D01*
X39486745Y-39366501D01*
X39373499Y-39253255D01*
X39284529Y-39120101D01*
X39223242Y-38972142D01*
X39192000Y-38815075D01*
X39192000Y-38654925D01*
X39223242Y-38497858D01*
X39284529Y-38349899D01*
X39373499Y-38216745D01*
X39486745Y-38103499D01*
X39619899Y-38014529D01*
X39767858Y-37953242D01*
X39924925Y-37922000D01*
X40085075Y-37922000D01*
X40242142Y-37953242D01*
X40242142Y-37953242D01*
G37*
G36*
X61197142Y-37953242D02*
G01*
X61345101Y-38014529D01*
X61478255Y-38103499D01*
X61591501Y-38216745D01*
X61680471Y-38349899D01*
X61741758Y-38497858D01*
X61773000Y-38654925D01*
X61773000Y-38815075D01*
X61741758Y-38972142D01*
X61680471Y-39120101D01*
X61591501Y-39253255D01*
X61478255Y-39366501D01*
X61345101Y-39455471D01*
X61197142Y-39516758D01*
X61040075Y-39548000D01*
X60879925Y-39548000D01*
X60722858Y-39516758D01*
X60574899Y-39455471D01*
X60441745Y-39366501D01*
X60328499Y-39253255D01*
X60239529Y-39120101D01*
X60178242Y-38972142D01*
X60147000Y-38815075D01*
X60147000Y-38654925D01*
X60178242Y-38497858D01*
X60239529Y-38349899D01*
X60328499Y-38216745D01*
X60441745Y-38103499D01*
X60574899Y-38014529D01*
X60722858Y-37953242D01*
X60879925Y-37922000D01*
X61040075Y-37922000D01*
X61197142Y-37953242D01*
X61197142Y-37953242D01*
G37*
G36*
X45957142Y-37953242D02*
G01*
X46105101Y-38014529D01*
X46238255Y-38103499D01*
X46351501Y-38216745D01*
X46440471Y-38349899D01*
X46501758Y-38497858D01*
X46533000Y-38654925D01*
X46533000Y-38815075D01*
X46501758Y-38972142D01*
X46440471Y-39120101D01*
X46351501Y-39253255D01*
X46238255Y-39366501D01*
X46105101Y-39455471D01*
X45957142Y-39516758D01*
X45800075Y-39548000D01*
X45639925Y-39548000D01*
X45482858Y-39516758D01*
X45334899Y-39455471D01*
X45201745Y-39366501D01*
X45088499Y-39253255D01*
X44999529Y-39120101D01*
X44938242Y-38972142D01*
X44907000Y-38815075D01*
X44907000Y-38654925D01*
X44938242Y-38497858D01*
X44999529Y-38349899D01*
X45088499Y-38216745D01*
X45201745Y-38103499D01*
X45334899Y-38014529D01*
X45482858Y-37953242D01*
X45639925Y-37922000D01*
X45800075Y-37922000D01*
X45957142Y-37953242D01*
X45957142Y-37953242D01*
G37*
G36*
X82152142Y-37953242D02*
G01*
X82300101Y-38014529D01*
X82433255Y-38103499D01*
X82546501Y-38216745D01*
X82635471Y-38349899D01*
X82696758Y-38497858D01*
X82728000Y-38654925D01*
X82728000Y-38815075D01*
X82696758Y-38972142D01*
X82635471Y-39120101D01*
X82546501Y-39253255D01*
X82433255Y-39366501D01*
X82300101Y-39455471D01*
X82152142Y-39516758D01*
X81995075Y-39548000D01*
X81834925Y-39548000D01*
X81677858Y-39516758D01*
X81529899Y-39455471D01*
X81396745Y-39366501D01*
X81283499Y-39253255D01*
X81194529Y-39120101D01*
X81133242Y-38972142D01*
X81102000Y-38815075D01*
X81102000Y-38654925D01*
X81133242Y-38497858D01*
X81194529Y-38349899D01*
X81283499Y-38216745D01*
X81396745Y-38103499D01*
X81529899Y-38014529D01*
X81677858Y-37953242D01*
X81834925Y-37922000D01*
X81995075Y-37922000D01*
X82152142Y-37953242D01*
X82152142Y-37953242D01*
G37*
G36*
X45957142Y-35413242D02*
G01*
X46105101Y-35474529D01*
X46238255Y-35563499D01*
X46351501Y-35676745D01*
X46440471Y-35809899D01*
X46501758Y-35957858D01*
X46533000Y-36114925D01*
X46533000Y-36275075D01*
X46501758Y-36432142D01*
X46440471Y-36580101D01*
X46351501Y-36713255D01*
X46238255Y-36826501D01*
X46105101Y-36915471D01*
X45957142Y-36976758D01*
X45800075Y-37008000D01*
X45639925Y-37008000D01*
X45482858Y-36976758D01*
X45334899Y-36915471D01*
X45201745Y-36826501D01*
X45088499Y-36713255D01*
X44999529Y-36580101D01*
X44938242Y-36432142D01*
X44907000Y-36275075D01*
X44907000Y-36114925D01*
X44938242Y-35957858D01*
X44999529Y-35809899D01*
X45088499Y-35676745D01*
X45201745Y-35563499D01*
X45334899Y-35474529D01*
X45482858Y-35413242D01*
X45639925Y-35382000D01*
X45800075Y-35382000D01*
X45957142Y-35413242D01*
X45957142Y-35413242D01*
G37*
G36*
X25002142Y-35413242D02*
G01*
X25150101Y-35474529D01*
X25283255Y-35563499D01*
X25396501Y-35676745D01*
X25485471Y-35809899D01*
X25546758Y-35957858D01*
X25578000Y-36114925D01*
X25578000Y-36275075D01*
X25546758Y-36432142D01*
X25485471Y-36580101D01*
X25396501Y-36713255D01*
X25283255Y-36826501D01*
X25150101Y-36915471D01*
X25002142Y-36976758D01*
X24845075Y-37008000D01*
X24684925Y-37008000D01*
X24527858Y-36976758D01*
X24379899Y-36915471D01*
X24246745Y-36826501D01*
X24133499Y-36713255D01*
X24044529Y-36580101D01*
X23983242Y-36432142D01*
X23952000Y-36275075D01*
X23952000Y-36114925D01*
X23983242Y-35957858D01*
X24044529Y-35809899D01*
X24133499Y-35676745D01*
X24246745Y-35563499D01*
X24379899Y-35474529D01*
X24527858Y-35413242D01*
X24684925Y-35382000D01*
X24845075Y-35382000D01*
X25002142Y-35413242D01*
X25002142Y-35413242D01*
G37*
G36*
X19287142Y-35413242D02*
G01*
X19435101Y-35474529D01*
X19568255Y-35563499D01*
X19681501Y-35676745D01*
X19770471Y-35809899D01*
X19831758Y-35957858D01*
X19863000Y-36114925D01*
X19863000Y-36275075D01*
X19831758Y-36432142D01*
X19770471Y-36580101D01*
X19681501Y-36713255D01*
X19568255Y-36826501D01*
X19435101Y-36915471D01*
X19287142Y-36976758D01*
X19130075Y-37008000D01*
X18969925Y-37008000D01*
X18812858Y-36976758D01*
X18664899Y-36915471D01*
X18531745Y-36826501D01*
X18418499Y-36713255D01*
X18329529Y-36580101D01*
X18268242Y-36432142D01*
X18237000Y-36275075D01*
X18237000Y-36114925D01*
X18268242Y-35957858D01*
X18329529Y-35809899D01*
X18418499Y-35676745D01*
X18531745Y-35563499D01*
X18664899Y-35474529D01*
X18812858Y-35413242D01*
X18969925Y-35382000D01*
X19130075Y-35382000D01*
X19287142Y-35413242D01*
X19287142Y-35413242D01*
G37*
G36*
X66912142Y-35413242D02*
G01*
X67060101Y-35474529D01*
X67193255Y-35563499D01*
X67306501Y-35676745D01*
X67395471Y-35809899D01*
X67456758Y-35957858D01*
X67488000Y-36114925D01*
X67488000Y-36275075D01*
X67456758Y-36432142D01*
X67395471Y-36580101D01*
X67306501Y-36713255D01*
X67193255Y-36826501D01*
X67060101Y-36915471D01*
X66912142Y-36976758D01*
X66755075Y-37008000D01*
X66594925Y-37008000D01*
X66437858Y-36976758D01*
X66289899Y-36915471D01*
X66156745Y-36826501D01*
X66043499Y-36713255D01*
X65954529Y-36580101D01*
X65893242Y-36432142D01*
X65862000Y-36275075D01*
X65862000Y-36114925D01*
X65893242Y-35957858D01*
X65954529Y-35809899D01*
X66043499Y-35676745D01*
X66156745Y-35563499D01*
X66289899Y-35474529D01*
X66437858Y-35413242D01*
X66594925Y-35382000D01*
X66755075Y-35382000D01*
X66912142Y-35413242D01*
X66912142Y-35413242D01*
G37*
G36*
X82152142Y-35413242D02*
G01*
X82300101Y-35474529D01*
X82433255Y-35563499D01*
X82546501Y-35676745D01*
X82635471Y-35809899D01*
X82696758Y-35957858D01*
X82728000Y-36114925D01*
X82728000Y-36275075D01*
X82696758Y-36432142D01*
X82635471Y-36580101D01*
X82546501Y-36713255D01*
X82433255Y-36826501D01*
X82300101Y-36915471D01*
X82152142Y-36976758D01*
X81995075Y-37008000D01*
X81834925Y-37008000D01*
X81677858Y-36976758D01*
X81529899Y-36915471D01*
X81396745Y-36826501D01*
X81283499Y-36713255D01*
X81194529Y-36580101D01*
X81133242Y-36432142D01*
X81102000Y-36275075D01*
X81102000Y-36114925D01*
X81133242Y-35957858D01*
X81194529Y-35809899D01*
X81283499Y-35676745D01*
X81396745Y-35563499D01*
X81529899Y-35474529D01*
X81677858Y-35413242D01*
X81834925Y-35382000D01*
X81995075Y-35382000D01*
X82152142Y-35413242D01*
X82152142Y-35413242D01*
G37*
G36*
X4047142Y-35413242D02*
G01*
X4195101Y-35474529D01*
X4328255Y-35563499D01*
X4441501Y-35676745D01*
X4530471Y-35809899D01*
X4591758Y-35957858D01*
X4623000Y-36114925D01*
X4623000Y-36275075D01*
X4591758Y-36432142D01*
X4530471Y-36580101D01*
X4441501Y-36713255D01*
X4328255Y-36826501D01*
X4195101Y-36915471D01*
X4047142Y-36976758D01*
X3890075Y-37008000D01*
X3729925Y-37008000D01*
X3572858Y-36976758D01*
X3424899Y-36915471D01*
X3291745Y-36826501D01*
X3178499Y-36713255D01*
X3089529Y-36580101D01*
X3028242Y-36432142D01*
X2997000Y-36275075D01*
X2997000Y-36114925D01*
X3028242Y-35957858D01*
X3089529Y-35809899D01*
X3178499Y-35676745D01*
X3291745Y-35563499D01*
X3424899Y-35474529D01*
X3572858Y-35413242D01*
X3729925Y-35382000D01*
X3890075Y-35382000D01*
X4047142Y-35413242D01*
X4047142Y-35413242D01*
G37*
G36*
X61197142Y-35413242D02*
G01*
X61345101Y-35474529D01*
X61478255Y-35563499D01*
X61591501Y-35676745D01*
X61680471Y-35809899D01*
X61741758Y-35957858D01*
X61773000Y-36114925D01*
X61773000Y-36275075D01*
X61741758Y-36432142D01*
X61680471Y-36580101D01*
X61591501Y-36713255D01*
X61478255Y-36826501D01*
X61345101Y-36915471D01*
X61197142Y-36976758D01*
X61040075Y-37008000D01*
X60879925Y-37008000D01*
X60722858Y-36976758D01*
X60574899Y-36915471D01*
X60441745Y-36826501D01*
X60328499Y-36713255D01*
X60239529Y-36580101D01*
X60178242Y-36432142D01*
X60147000Y-36275075D01*
X60147000Y-36114925D01*
X60178242Y-35957858D01*
X60239529Y-35809899D01*
X60328499Y-35676745D01*
X60441745Y-35563499D01*
X60574899Y-35474529D01*
X60722858Y-35413242D01*
X60879925Y-35382000D01*
X61040075Y-35382000D01*
X61197142Y-35413242D01*
X61197142Y-35413242D01*
G37*
G36*
X40242142Y-35413242D02*
G01*
X40390101Y-35474529D01*
X40523255Y-35563499D01*
X40636501Y-35676745D01*
X40725471Y-35809899D01*
X40786758Y-35957858D01*
X40818000Y-36114925D01*
X40818000Y-36275075D01*
X40786758Y-36432142D01*
X40725471Y-36580101D01*
X40636501Y-36713255D01*
X40523255Y-36826501D01*
X40390101Y-36915471D01*
X40242142Y-36976758D01*
X40085075Y-37008000D01*
X39924925Y-37008000D01*
X39767858Y-36976758D01*
X39619899Y-36915471D01*
X39486745Y-36826501D01*
X39373499Y-36713255D01*
X39284529Y-36580101D01*
X39223242Y-36432142D01*
X39192000Y-36275075D01*
X39192000Y-36114925D01*
X39223242Y-35957858D01*
X39284529Y-35809899D01*
X39373499Y-35676745D01*
X39486745Y-35563499D01*
X39619899Y-35474529D01*
X39767858Y-35413242D01*
X39924925Y-35382000D01*
X40085075Y-35382000D01*
X40242142Y-35413242D01*
X40242142Y-35413242D01*
G37*
G36*
X25002142Y-32873242D02*
G01*
X25150101Y-32934529D01*
X25283255Y-33023499D01*
X25396501Y-33136745D01*
X25485471Y-33269899D01*
X25546758Y-33417858D01*
X25578000Y-33574925D01*
X25578000Y-33735075D01*
X25546758Y-33892142D01*
X25485471Y-34040101D01*
X25396501Y-34173255D01*
X25283255Y-34286501D01*
X25150101Y-34375471D01*
X25002142Y-34436758D01*
X24845075Y-34468000D01*
X24684925Y-34468000D01*
X24527858Y-34436758D01*
X24379899Y-34375471D01*
X24246745Y-34286501D01*
X24133499Y-34173255D01*
X24044529Y-34040101D01*
X23983242Y-33892142D01*
X23952000Y-33735075D01*
X23952000Y-33574925D01*
X23983242Y-33417858D01*
X24044529Y-33269899D01*
X24133499Y-33136745D01*
X24246745Y-33023499D01*
X24379899Y-32934529D01*
X24527858Y-32873242D01*
X24684925Y-32842000D01*
X24845075Y-32842000D01*
X25002142Y-32873242D01*
X25002142Y-32873242D01*
G37*
G36*
X61197142Y-32873242D02*
G01*
X61345101Y-32934529D01*
X61478255Y-33023499D01*
X61591501Y-33136745D01*
X61680471Y-33269899D01*
X61741758Y-33417858D01*
X61773000Y-33574925D01*
X61773000Y-33735075D01*
X61741758Y-33892142D01*
X61680471Y-34040101D01*
X61591501Y-34173255D01*
X61478255Y-34286501D01*
X61345101Y-34375471D01*
X61197142Y-34436758D01*
X61040075Y-34468000D01*
X60879925Y-34468000D01*
X60722858Y-34436758D01*
X60574899Y-34375471D01*
X60441745Y-34286501D01*
X60328499Y-34173255D01*
X60239529Y-34040101D01*
X60178242Y-33892142D01*
X60147000Y-33735075D01*
X60147000Y-33574925D01*
X60178242Y-33417858D01*
X60239529Y-33269899D01*
X60328499Y-33136745D01*
X60441745Y-33023499D01*
X60574899Y-32934529D01*
X60722858Y-32873242D01*
X60879925Y-32842000D01*
X61040075Y-32842000D01*
X61197142Y-32873242D01*
X61197142Y-32873242D01*
G37*
G36*
X45957142Y-32873242D02*
G01*
X46105101Y-32934529D01*
X46238255Y-33023499D01*
X46351501Y-33136745D01*
X46440471Y-33269899D01*
X46501758Y-33417858D01*
X46533000Y-33574925D01*
X46533000Y-33735075D01*
X46501758Y-33892142D01*
X46440471Y-34040101D01*
X46351501Y-34173255D01*
X46238255Y-34286501D01*
X46105101Y-34375471D01*
X45957142Y-34436758D01*
X45800075Y-34468000D01*
X45639925Y-34468000D01*
X45482858Y-34436758D01*
X45334899Y-34375471D01*
X45201745Y-34286501D01*
X45088499Y-34173255D01*
X44999529Y-34040101D01*
X44938242Y-33892142D01*
X44907000Y-33735075D01*
X44907000Y-33574925D01*
X44938242Y-33417858D01*
X44999529Y-33269899D01*
X45088499Y-33136745D01*
X45201745Y-33023499D01*
X45334899Y-32934529D01*
X45482858Y-32873242D01*
X45639925Y-32842000D01*
X45800075Y-32842000D01*
X45957142Y-32873242D01*
X45957142Y-32873242D01*
G37*
G36*
X40242142Y-32873242D02*
G01*
X40390101Y-32934529D01*
X40523255Y-33023499D01*
X40636501Y-33136745D01*
X40725471Y-33269899D01*
X40786758Y-33417858D01*
X40818000Y-33574925D01*
X40818000Y-33735075D01*
X40786758Y-33892142D01*
X40725471Y-34040101D01*
X40636501Y-34173255D01*
X40523255Y-34286501D01*
X40390101Y-34375471D01*
X40242142Y-34436758D01*
X40085075Y-34468000D01*
X39924925Y-34468000D01*
X39767858Y-34436758D01*
X39619899Y-34375471D01*
X39486745Y-34286501D01*
X39373499Y-34173255D01*
X39284529Y-34040101D01*
X39223242Y-33892142D01*
X39192000Y-33735075D01*
X39192000Y-33574925D01*
X39223242Y-33417858D01*
X39284529Y-33269899D01*
X39373499Y-33136745D01*
X39486745Y-33023499D01*
X39619899Y-32934529D01*
X39767858Y-32873242D01*
X39924925Y-32842000D01*
X40085075Y-32842000D01*
X40242142Y-32873242D01*
X40242142Y-32873242D01*
G37*
G36*
X19287142Y-32873242D02*
G01*
X19435101Y-32934529D01*
X19568255Y-33023499D01*
X19681501Y-33136745D01*
X19770471Y-33269899D01*
X19831758Y-33417858D01*
X19863000Y-33574925D01*
X19863000Y-33735075D01*
X19831758Y-33892142D01*
X19770471Y-34040101D01*
X19681501Y-34173255D01*
X19568255Y-34286501D01*
X19435101Y-34375471D01*
X19287142Y-34436758D01*
X19130075Y-34468000D01*
X18969925Y-34468000D01*
X18812858Y-34436758D01*
X18664899Y-34375471D01*
X18531745Y-34286501D01*
X18418499Y-34173255D01*
X18329529Y-34040101D01*
X18268242Y-33892142D01*
X18237000Y-33735075D01*
X18237000Y-33574925D01*
X18268242Y-33417858D01*
X18329529Y-33269899D01*
X18418499Y-33136745D01*
X18531745Y-33023499D01*
X18664899Y-32934529D01*
X18812858Y-32873242D01*
X18969925Y-32842000D01*
X19130075Y-32842000D01*
X19287142Y-32873242D01*
X19287142Y-32873242D01*
G37*
G36*
X4047142Y-32873242D02*
G01*
X4195101Y-32934529D01*
X4328255Y-33023499D01*
X4441501Y-33136745D01*
X4530471Y-33269899D01*
X4591758Y-33417858D01*
X4623000Y-33574925D01*
X4623000Y-33735075D01*
X4591758Y-33892142D01*
X4530471Y-34040101D01*
X4441501Y-34173255D01*
X4328255Y-34286501D01*
X4195101Y-34375471D01*
X4047142Y-34436758D01*
X3890075Y-34468000D01*
X3729925Y-34468000D01*
X3572858Y-34436758D01*
X3424899Y-34375471D01*
X3291745Y-34286501D01*
X3178499Y-34173255D01*
X3089529Y-34040101D01*
X3028242Y-33892142D01*
X2997000Y-33735075D01*
X2997000Y-33574925D01*
X3028242Y-33417858D01*
X3089529Y-33269899D01*
X3178499Y-33136745D01*
X3291745Y-33023499D01*
X3424899Y-32934529D01*
X3572858Y-32873242D01*
X3729925Y-32842000D01*
X3890075Y-32842000D01*
X4047142Y-32873242D01*
X4047142Y-32873242D01*
G37*
G36*
X66912142Y-32873242D02*
G01*
X67060101Y-32934529D01*
X67193255Y-33023499D01*
X67306501Y-33136745D01*
X67395471Y-33269899D01*
X67456758Y-33417858D01*
X67488000Y-33574925D01*
X67488000Y-33735075D01*
X67456758Y-33892142D01*
X67395471Y-34040101D01*
X67306501Y-34173255D01*
X67193255Y-34286501D01*
X67060101Y-34375471D01*
X66912142Y-34436758D01*
X66755075Y-34468000D01*
X66594925Y-34468000D01*
X66437858Y-34436758D01*
X66289899Y-34375471D01*
X66156745Y-34286501D01*
X66043499Y-34173255D01*
X65954529Y-34040101D01*
X65893242Y-33892142D01*
X65862000Y-33735075D01*
X65862000Y-33574925D01*
X65893242Y-33417858D01*
X65954529Y-33269899D01*
X66043499Y-33136745D01*
X66156745Y-33023499D01*
X66289899Y-32934529D01*
X66437858Y-32873242D01*
X66594925Y-32842000D01*
X66755075Y-32842000D01*
X66912142Y-32873242D01*
X66912142Y-32873242D01*
G37*
G36*
X82152142Y-32873242D02*
G01*
X82300101Y-32934529D01*
X82433255Y-33023499D01*
X82546501Y-33136745D01*
X82635471Y-33269899D01*
X82696758Y-33417858D01*
X82728000Y-33574925D01*
X82728000Y-33735075D01*
X82696758Y-33892142D01*
X82635471Y-34040101D01*
X82546501Y-34173255D01*
X82433255Y-34286501D01*
X82300101Y-34375471D01*
X82152142Y-34436758D01*
X81995075Y-34468000D01*
X81834925Y-34468000D01*
X81677858Y-34436758D01*
X81529899Y-34375471D01*
X81396745Y-34286501D01*
X81283499Y-34173255D01*
X81194529Y-34040101D01*
X81133242Y-33892142D01*
X81102000Y-33735075D01*
X81102000Y-33574925D01*
X81133242Y-33417858D01*
X81194529Y-33269899D01*
X81283499Y-33136745D01*
X81396745Y-33023499D01*
X81529899Y-32934529D01*
X81677858Y-32873242D01*
X81834925Y-32842000D01*
X81995075Y-32842000D01*
X82152142Y-32873242D01*
X82152142Y-32873242D01*
G37*
G36*
X35091823Y-30276313D02*
G01*
X35252242Y-30324976D01*
X35382366Y-30394529D01*
X35400078Y-30403996D01*
X35529659Y-30510341D01*
X35636004Y-30639922D01*
X35636005Y-30639924D01*
X35715024Y-30787758D01*
X35763687Y-30948177D01*
X35780117Y-31115000D01*
X35763687Y-31281823D01*
X35715024Y-31442242D01*
X35644114Y-31574906D01*
X35636004Y-31590078D01*
X35529659Y-31719659D01*
X35400078Y-31826004D01*
X35400076Y-31826005D01*
X35252242Y-31905024D01*
X35091823Y-31953687D01*
X34966804Y-31966000D01*
X34883196Y-31966000D01*
X34758177Y-31953687D01*
X34597758Y-31905024D01*
X34449924Y-31826005D01*
X34449922Y-31826004D01*
X34320341Y-31719659D01*
X34213996Y-31590078D01*
X34205886Y-31574906D01*
X34134976Y-31442242D01*
X34086313Y-31281823D01*
X34069883Y-31115000D01*
X34086313Y-30948177D01*
X34134976Y-30787758D01*
X34213995Y-30639924D01*
X34213996Y-30639922D01*
X34320341Y-30510341D01*
X34449922Y-30403996D01*
X34467634Y-30394529D01*
X34597758Y-30324976D01*
X34758177Y-30276313D01*
X34883196Y-30264000D01*
X34966804Y-30264000D01*
X35091823Y-30276313D01*
X35091823Y-30276313D01*
G37*
G36*
X77001823Y-30276313D02*
G01*
X77162242Y-30324976D01*
X77292366Y-30394529D01*
X77310078Y-30403996D01*
X77439659Y-30510341D01*
X77546004Y-30639922D01*
X77546005Y-30639924D01*
X77625024Y-30787758D01*
X77673687Y-30948177D01*
X77690117Y-31115000D01*
X77673687Y-31281823D01*
X77625024Y-31442242D01*
X77554114Y-31574906D01*
X77546004Y-31590078D01*
X77439659Y-31719659D01*
X77310078Y-31826004D01*
X77310076Y-31826005D01*
X77162242Y-31905024D01*
X77001823Y-31953687D01*
X76876804Y-31966000D01*
X76793196Y-31966000D01*
X76668177Y-31953687D01*
X76507758Y-31905024D01*
X76359924Y-31826005D01*
X76359922Y-31826004D01*
X76230341Y-31719659D01*
X76123996Y-31590078D01*
X76115886Y-31574906D01*
X76044976Y-31442242D01*
X75996313Y-31281823D01*
X75979883Y-31115000D01*
X75996313Y-30948177D01*
X76044976Y-30787758D01*
X76123995Y-30639924D01*
X76123996Y-30639922D01*
X76230341Y-30510341D01*
X76359922Y-30403996D01*
X76377634Y-30394529D01*
X76507758Y-30324976D01*
X76668177Y-30276313D01*
X76793196Y-30264000D01*
X76876804Y-30264000D01*
X77001823Y-30276313D01*
X77001823Y-30276313D01*
G37*
G36*
X9056823Y-30276313D02*
G01*
X9217242Y-30324976D01*
X9347366Y-30394529D01*
X9365078Y-30403996D01*
X9494659Y-30510341D01*
X9601004Y-30639922D01*
X9601005Y-30639924D01*
X9680024Y-30787758D01*
X9728687Y-30948177D01*
X9745117Y-31115000D01*
X9728687Y-31281823D01*
X9680024Y-31442242D01*
X9609114Y-31574906D01*
X9601004Y-31590078D01*
X9494659Y-31719659D01*
X9365078Y-31826004D01*
X9365076Y-31826005D01*
X9217242Y-31905024D01*
X9056823Y-31953687D01*
X8931804Y-31966000D01*
X8848196Y-31966000D01*
X8723177Y-31953687D01*
X8562758Y-31905024D01*
X8414924Y-31826005D01*
X8414922Y-31826004D01*
X8285341Y-31719659D01*
X8178996Y-31590078D01*
X8170886Y-31574906D01*
X8099976Y-31442242D01*
X8051313Y-31281823D01*
X8034883Y-31115000D01*
X8051313Y-30948177D01*
X8099976Y-30787758D01*
X8178995Y-30639924D01*
X8178996Y-30639922D01*
X8285341Y-30510341D01*
X8414922Y-30403996D01*
X8432634Y-30394529D01*
X8562758Y-30324976D01*
X8723177Y-30276313D01*
X8848196Y-30264000D01*
X8931804Y-30264000D01*
X9056823Y-30276313D01*
X9056823Y-30276313D01*
G37*
G36*
X14136823Y-30276313D02*
G01*
X14297242Y-30324976D01*
X14427366Y-30394529D01*
X14445078Y-30403996D01*
X14574659Y-30510341D01*
X14681004Y-30639922D01*
X14681005Y-30639924D01*
X14760024Y-30787758D01*
X14808687Y-30948177D01*
X14825117Y-31115000D01*
X14808687Y-31281823D01*
X14760024Y-31442242D01*
X14689114Y-31574906D01*
X14681004Y-31590078D01*
X14574659Y-31719659D01*
X14445078Y-31826004D01*
X14445076Y-31826005D01*
X14297242Y-31905024D01*
X14136823Y-31953687D01*
X14011804Y-31966000D01*
X13928196Y-31966000D01*
X13803177Y-31953687D01*
X13642758Y-31905024D01*
X13494924Y-31826005D01*
X13494922Y-31826004D01*
X13365341Y-31719659D01*
X13258996Y-31590078D01*
X13250886Y-31574906D01*
X13179976Y-31442242D01*
X13131313Y-31281823D01*
X13114883Y-31115000D01*
X13131313Y-30948177D01*
X13179976Y-30787758D01*
X13258995Y-30639924D01*
X13258996Y-30639922D01*
X13365341Y-30510341D01*
X13494922Y-30403996D01*
X13512634Y-30394529D01*
X13642758Y-30324976D01*
X13803177Y-30276313D01*
X13928196Y-30264000D01*
X14011804Y-30264000D01*
X14136823Y-30276313D01*
X14136823Y-30276313D01*
G37*
G36*
X30011823Y-30276313D02*
G01*
X30172242Y-30324976D01*
X30302366Y-30394529D01*
X30320078Y-30403996D01*
X30449659Y-30510341D01*
X30556004Y-30639922D01*
X30556005Y-30639924D01*
X30635024Y-30787758D01*
X30683687Y-30948177D01*
X30700117Y-31115000D01*
X30683687Y-31281823D01*
X30635024Y-31442242D01*
X30564114Y-31574906D01*
X30556004Y-31590078D01*
X30449659Y-31719659D01*
X30320078Y-31826004D01*
X30320076Y-31826005D01*
X30172242Y-31905024D01*
X30011823Y-31953687D01*
X29886804Y-31966000D01*
X29803196Y-31966000D01*
X29678177Y-31953687D01*
X29517758Y-31905024D01*
X29369924Y-31826005D01*
X29369922Y-31826004D01*
X29240341Y-31719659D01*
X29133996Y-31590078D01*
X29125886Y-31574906D01*
X29054976Y-31442242D01*
X29006313Y-31281823D01*
X28989883Y-31115000D01*
X29006313Y-30948177D01*
X29054976Y-30787758D01*
X29133995Y-30639924D01*
X29133996Y-30639922D01*
X29240341Y-30510341D01*
X29369922Y-30403996D01*
X29387634Y-30394529D01*
X29517758Y-30324976D01*
X29678177Y-30276313D01*
X29803196Y-30264000D01*
X29886804Y-30264000D01*
X30011823Y-30276313D01*
X30011823Y-30276313D01*
G37*
G36*
X50966823Y-30276313D02*
G01*
X51127242Y-30324976D01*
X51257366Y-30394529D01*
X51275078Y-30403996D01*
X51404659Y-30510341D01*
X51511004Y-30639922D01*
X51511005Y-30639924D01*
X51590024Y-30787758D01*
X51638687Y-30948177D01*
X51655117Y-31115000D01*
X51638687Y-31281823D01*
X51590024Y-31442242D01*
X51519114Y-31574906D01*
X51511004Y-31590078D01*
X51404659Y-31719659D01*
X51275078Y-31826004D01*
X51275076Y-31826005D01*
X51127242Y-31905024D01*
X50966823Y-31953687D01*
X50841804Y-31966000D01*
X50758196Y-31966000D01*
X50633177Y-31953687D01*
X50472758Y-31905024D01*
X50324924Y-31826005D01*
X50324922Y-31826004D01*
X50195341Y-31719659D01*
X50088996Y-31590078D01*
X50080886Y-31574906D01*
X50009976Y-31442242D01*
X49961313Y-31281823D01*
X49944883Y-31115000D01*
X49961313Y-30948177D01*
X50009976Y-30787758D01*
X50088995Y-30639924D01*
X50088996Y-30639922D01*
X50195341Y-30510341D01*
X50324922Y-30403996D01*
X50342634Y-30394529D01*
X50472758Y-30324976D01*
X50633177Y-30276313D01*
X50758196Y-30264000D01*
X50841804Y-30264000D01*
X50966823Y-30276313D01*
X50966823Y-30276313D01*
G37*
G36*
X56046823Y-30276313D02*
G01*
X56207242Y-30324976D01*
X56337366Y-30394529D01*
X56355078Y-30403996D01*
X56484659Y-30510341D01*
X56591004Y-30639922D01*
X56591005Y-30639924D01*
X56670024Y-30787758D01*
X56718687Y-30948177D01*
X56735117Y-31115000D01*
X56718687Y-31281823D01*
X56670024Y-31442242D01*
X56599114Y-31574906D01*
X56591004Y-31590078D01*
X56484659Y-31719659D01*
X56355078Y-31826004D01*
X56355076Y-31826005D01*
X56207242Y-31905024D01*
X56046823Y-31953687D01*
X55921804Y-31966000D01*
X55838196Y-31966000D01*
X55713177Y-31953687D01*
X55552758Y-31905024D01*
X55404924Y-31826005D01*
X55404922Y-31826004D01*
X55275341Y-31719659D01*
X55168996Y-31590078D01*
X55160886Y-31574906D01*
X55089976Y-31442242D01*
X55041313Y-31281823D01*
X55024883Y-31115000D01*
X55041313Y-30948177D01*
X55089976Y-30787758D01*
X55168995Y-30639924D01*
X55168996Y-30639922D01*
X55275341Y-30510341D01*
X55404922Y-30403996D01*
X55422634Y-30394529D01*
X55552758Y-30324976D01*
X55713177Y-30276313D01*
X55838196Y-30264000D01*
X55921804Y-30264000D01*
X56046823Y-30276313D01*
X56046823Y-30276313D01*
G37*
G36*
X71921823Y-30276313D02*
G01*
X72082242Y-30324976D01*
X72212366Y-30394529D01*
X72230078Y-30403996D01*
X72359659Y-30510341D01*
X72466004Y-30639922D01*
X72466005Y-30639924D01*
X72545024Y-30787758D01*
X72593687Y-30948177D01*
X72610117Y-31115000D01*
X72593687Y-31281823D01*
X72545024Y-31442242D01*
X72474114Y-31574906D01*
X72466004Y-31590078D01*
X72359659Y-31719659D01*
X72230078Y-31826004D01*
X72230076Y-31826005D01*
X72082242Y-31905024D01*
X71921823Y-31953687D01*
X71796804Y-31966000D01*
X71713196Y-31966000D01*
X71588177Y-31953687D01*
X71427758Y-31905024D01*
X71279924Y-31826005D01*
X71279922Y-31826004D01*
X71150341Y-31719659D01*
X71043996Y-31590078D01*
X71035886Y-31574906D01*
X70964976Y-31442242D01*
X70916313Y-31281823D01*
X70899883Y-31115000D01*
X70916313Y-30948177D01*
X70964976Y-30787758D01*
X71043995Y-30639924D01*
X71043996Y-30639922D01*
X71150341Y-30510341D01*
X71279922Y-30403996D01*
X71297634Y-30394529D01*
X71427758Y-30324976D01*
X71588177Y-30276313D01*
X71713196Y-30264000D01*
X71796804Y-30264000D01*
X71921823Y-30276313D01*
X71921823Y-30276313D01*
G37*
G36*
X66912142Y-30333242D02*
G01*
X67060101Y-30394529D01*
X67193255Y-30483499D01*
X67306501Y-30596745D01*
X67395471Y-30729899D01*
X67456758Y-30877858D01*
X67488000Y-31034925D01*
X67488000Y-31195075D01*
X67456758Y-31352142D01*
X67395471Y-31500101D01*
X67306501Y-31633255D01*
X67193255Y-31746501D01*
X67060101Y-31835471D01*
X66912142Y-31896758D01*
X66755075Y-31928000D01*
X66594925Y-31928000D01*
X66437858Y-31896758D01*
X66289899Y-31835471D01*
X66156745Y-31746501D01*
X66043499Y-31633255D01*
X65954529Y-31500101D01*
X65893242Y-31352142D01*
X65862000Y-31195075D01*
X65862000Y-31034925D01*
X65893242Y-30877858D01*
X65954529Y-30729899D01*
X66043499Y-30596745D01*
X66156745Y-30483499D01*
X66289899Y-30394529D01*
X66437858Y-30333242D01*
X66594925Y-30302000D01*
X66755075Y-30302000D01*
X66912142Y-30333242D01*
X66912142Y-30333242D01*
G37*
G36*
X82152142Y-30333242D02*
G01*
X82300101Y-30394529D01*
X82433255Y-30483499D01*
X82546501Y-30596745D01*
X82635471Y-30729899D01*
X82696758Y-30877858D01*
X82728000Y-31034925D01*
X82728000Y-31195075D01*
X82696758Y-31352142D01*
X82635471Y-31500101D01*
X82546501Y-31633255D01*
X82433255Y-31746501D01*
X82300101Y-31835471D01*
X82152142Y-31896758D01*
X81995075Y-31928000D01*
X81834925Y-31928000D01*
X81677858Y-31896758D01*
X81529899Y-31835471D01*
X81396745Y-31746501D01*
X81283499Y-31633255D01*
X81194529Y-31500101D01*
X81133242Y-31352142D01*
X81102000Y-31195075D01*
X81102000Y-31034925D01*
X81133242Y-30877858D01*
X81194529Y-30729899D01*
X81283499Y-30596745D01*
X81396745Y-30483499D01*
X81529899Y-30394529D01*
X81677858Y-30333242D01*
X81834925Y-30302000D01*
X81995075Y-30302000D01*
X82152142Y-30333242D01*
X82152142Y-30333242D01*
G37*
G36*
X45957142Y-30333242D02*
G01*
X46105101Y-30394529D01*
X46238255Y-30483499D01*
X46351501Y-30596745D01*
X46440471Y-30729899D01*
X46501758Y-30877858D01*
X46533000Y-31034925D01*
X46533000Y-31195075D01*
X46501758Y-31352142D01*
X46440471Y-31500101D01*
X46351501Y-31633255D01*
X46238255Y-31746501D01*
X46105101Y-31835471D01*
X45957142Y-31896758D01*
X45800075Y-31928000D01*
X45639925Y-31928000D01*
X45482858Y-31896758D01*
X45334899Y-31835471D01*
X45201745Y-31746501D01*
X45088499Y-31633255D01*
X44999529Y-31500101D01*
X44938242Y-31352142D01*
X44907000Y-31195075D01*
X44907000Y-31034925D01*
X44938242Y-30877858D01*
X44999529Y-30729899D01*
X45088499Y-30596745D01*
X45201745Y-30483499D01*
X45334899Y-30394529D01*
X45482858Y-30333242D01*
X45639925Y-30302000D01*
X45800075Y-30302000D01*
X45957142Y-30333242D01*
X45957142Y-30333242D01*
G37*
G36*
X61197142Y-30333242D02*
G01*
X61345101Y-30394529D01*
X61478255Y-30483499D01*
X61591501Y-30596745D01*
X61680471Y-30729899D01*
X61741758Y-30877858D01*
X61773000Y-31034925D01*
X61773000Y-31195075D01*
X61741758Y-31352142D01*
X61680471Y-31500101D01*
X61591501Y-31633255D01*
X61478255Y-31746501D01*
X61345101Y-31835471D01*
X61197142Y-31896758D01*
X61040075Y-31928000D01*
X60879925Y-31928000D01*
X60722858Y-31896758D01*
X60574899Y-31835471D01*
X60441745Y-31746501D01*
X60328499Y-31633255D01*
X60239529Y-31500101D01*
X60178242Y-31352142D01*
X60147000Y-31195075D01*
X60147000Y-31034925D01*
X60178242Y-30877858D01*
X60239529Y-30729899D01*
X60328499Y-30596745D01*
X60441745Y-30483499D01*
X60574899Y-30394529D01*
X60722858Y-30333242D01*
X60879925Y-30302000D01*
X61040075Y-30302000D01*
X61197142Y-30333242D01*
X61197142Y-30333242D01*
G37*
G36*
X40242142Y-30333242D02*
G01*
X40390101Y-30394529D01*
X40523255Y-30483499D01*
X40636501Y-30596745D01*
X40725471Y-30729899D01*
X40786758Y-30877858D01*
X40818000Y-31034925D01*
X40818000Y-31195075D01*
X40786758Y-31352142D01*
X40725471Y-31500101D01*
X40636501Y-31633255D01*
X40523255Y-31746501D01*
X40390101Y-31835471D01*
X40242142Y-31896758D01*
X40085075Y-31928000D01*
X39924925Y-31928000D01*
X39767858Y-31896758D01*
X39619899Y-31835471D01*
X39486745Y-31746501D01*
X39373499Y-31633255D01*
X39284529Y-31500101D01*
X39223242Y-31352142D01*
X39192000Y-31195075D01*
X39192000Y-31034925D01*
X39223242Y-30877858D01*
X39284529Y-30729899D01*
X39373499Y-30596745D01*
X39486745Y-30483499D01*
X39619899Y-30394529D01*
X39767858Y-30333242D01*
X39924925Y-30302000D01*
X40085075Y-30302000D01*
X40242142Y-30333242D01*
X40242142Y-30333242D01*
G37*
G36*
X25002142Y-30333242D02*
G01*
X25150101Y-30394529D01*
X25283255Y-30483499D01*
X25396501Y-30596745D01*
X25485471Y-30729899D01*
X25546758Y-30877858D01*
X25578000Y-31034925D01*
X25578000Y-31195075D01*
X25546758Y-31352142D01*
X25485471Y-31500101D01*
X25396501Y-31633255D01*
X25283255Y-31746501D01*
X25150101Y-31835471D01*
X25002142Y-31896758D01*
X24845075Y-31928000D01*
X24684925Y-31928000D01*
X24527858Y-31896758D01*
X24379899Y-31835471D01*
X24246745Y-31746501D01*
X24133499Y-31633255D01*
X24044529Y-31500101D01*
X23983242Y-31352142D01*
X23952000Y-31195075D01*
X23952000Y-31034925D01*
X23983242Y-30877858D01*
X24044529Y-30729899D01*
X24133499Y-30596745D01*
X24246745Y-30483499D01*
X24379899Y-30394529D01*
X24527858Y-30333242D01*
X24684925Y-30302000D01*
X24845075Y-30302000D01*
X25002142Y-30333242D01*
X25002142Y-30333242D01*
G37*
G36*
X19287142Y-30333242D02*
G01*
X19435101Y-30394529D01*
X19568255Y-30483499D01*
X19681501Y-30596745D01*
X19770471Y-30729899D01*
X19831758Y-30877858D01*
X19863000Y-31034925D01*
X19863000Y-31195075D01*
X19831758Y-31352142D01*
X19770471Y-31500101D01*
X19681501Y-31633255D01*
X19568255Y-31746501D01*
X19435101Y-31835471D01*
X19287142Y-31896758D01*
X19130075Y-31928000D01*
X18969925Y-31928000D01*
X18812858Y-31896758D01*
X18664899Y-31835471D01*
X18531745Y-31746501D01*
X18418499Y-31633255D01*
X18329529Y-31500101D01*
X18268242Y-31352142D01*
X18237000Y-31195075D01*
X18237000Y-31034925D01*
X18268242Y-30877858D01*
X18329529Y-30729899D01*
X18418499Y-30596745D01*
X18531745Y-30483499D01*
X18664899Y-30394529D01*
X18812858Y-30333242D01*
X18969925Y-30302000D01*
X19130075Y-30302000D01*
X19287142Y-30333242D01*
X19287142Y-30333242D01*
G37*
G36*
X4047142Y-30333242D02*
G01*
X4195101Y-30394529D01*
X4328255Y-30483499D01*
X4441501Y-30596745D01*
X4530471Y-30729899D01*
X4591758Y-30877858D01*
X4623000Y-31034925D01*
X4623000Y-31195075D01*
X4591758Y-31352142D01*
X4530471Y-31500101D01*
X4441501Y-31633255D01*
X4328255Y-31746501D01*
X4195101Y-31835471D01*
X4047142Y-31896758D01*
X3890075Y-31928000D01*
X3729925Y-31928000D01*
X3572858Y-31896758D01*
X3424899Y-31835471D01*
X3291745Y-31746501D01*
X3178499Y-31633255D01*
X3089529Y-31500101D01*
X3028242Y-31352142D01*
X2997000Y-31195075D01*
X2997000Y-31034925D01*
X3028242Y-30877858D01*
X3089529Y-30729899D01*
X3178499Y-30596745D01*
X3291745Y-30483499D01*
X3424899Y-30394529D01*
X3572858Y-30333242D01*
X3729925Y-30302000D01*
X3890075Y-30302000D01*
X4047142Y-30333242D01*
X4047142Y-30333242D01*
G37*
G36*
X45957142Y-27793242D02*
G01*
X46105101Y-27854529D01*
X46238255Y-27943499D01*
X46351501Y-28056745D01*
X46440471Y-28189899D01*
X46501758Y-28337858D01*
X46533000Y-28494925D01*
X46533000Y-28655075D01*
X46501758Y-28812142D01*
X46440471Y-28960101D01*
X46351501Y-29093255D01*
X46238255Y-29206501D01*
X46105101Y-29295471D01*
X45957142Y-29356758D01*
X45800075Y-29388000D01*
X45639925Y-29388000D01*
X45482858Y-29356758D01*
X45334899Y-29295471D01*
X45201745Y-29206501D01*
X45088499Y-29093255D01*
X44999529Y-28960101D01*
X44938242Y-28812142D01*
X44907000Y-28655075D01*
X44907000Y-28494925D01*
X44938242Y-28337858D01*
X44999529Y-28189899D01*
X45088499Y-28056745D01*
X45201745Y-27943499D01*
X45334899Y-27854529D01*
X45482858Y-27793242D01*
X45639925Y-27762000D01*
X45800075Y-27762000D01*
X45957142Y-27793242D01*
X45957142Y-27793242D01*
G37*
G36*
X19287142Y-27793242D02*
G01*
X19435101Y-27854529D01*
X19568255Y-27943499D01*
X19681501Y-28056745D01*
X19770471Y-28189899D01*
X19831758Y-28337858D01*
X19863000Y-28494925D01*
X19863000Y-28655075D01*
X19831758Y-28812142D01*
X19770471Y-28960101D01*
X19681501Y-29093255D01*
X19568255Y-29206501D01*
X19435101Y-29295471D01*
X19287142Y-29356758D01*
X19130075Y-29388000D01*
X18969925Y-29388000D01*
X18812858Y-29356758D01*
X18664899Y-29295471D01*
X18531745Y-29206501D01*
X18418499Y-29093255D01*
X18329529Y-28960101D01*
X18268242Y-28812142D01*
X18237000Y-28655075D01*
X18237000Y-28494925D01*
X18268242Y-28337858D01*
X18329529Y-28189899D01*
X18418499Y-28056745D01*
X18531745Y-27943499D01*
X18664899Y-27854529D01*
X18812858Y-27793242D01*
X18969925Y-27762000D01*
X19130075Y-27762000D01*
X19287142Y-27793242D01*
X19287142Y-27793242D01*
G37*
G36*
X61197142Y-27793242D02*
G01*
X61345101Y-27854529D01*
X61478255Y-27943499D01*
X61591501Y-28056745D01*
X61680471Y-28189899D01*
X61741758Y-28337858D01*
X61773000Y-28494925D01*
X61773000Y-28655075D01*
X61741758Y-28812142D01*
X61680471Y-28960101D01*
X61591501Y-29093255D01*
X61478255Y-29206501D01*
X61345101Y-29295471D01*
X61197142Y-29356758D01*
X61040075Y-29388000D01*
X60879925Y-29388000D01*
X60722858Y-29356758D01*
X60574899Y-29295471D01*
X60441745Y-29206501D01*
X60328499Y-29093255D01*
X60239529Y-28960101D01*
X60178242Y-28812142D01*
X60147000Y-28655075D01*
X60147000Y-28494925D01*
X60178242Y-28337858D01*
X60239529Y-28189899D01*
X60328499Y-28056745D01*
X60441745Y-27943499D01*
X60574899Y-27854529D01*
X60722858Y-27793242D01*
X60879925Y-27762000D01*
X61040075Y-27762000D01*
X61197142Y-27793242D01*
X61197142Y-27793242D01*
G37*
G36*
X4047142Y-27793242D02*
G01*
X4195101Y-27854529D01*
X4328255Y-27943499D01*
X4441501Y-28056745D01*
X4530471Y-28189899D01*
X4591758Y-28337858D01*
X4623000Y-28494925D01*
X4623000Y-28655075D01*
X4591758Y-28812142D01*
X4530471Y-28960101D01*
X4441501Y-29093255D01*
X4328255Y-29206501D01*
X4195101Y-29295471D01*
X4047142Y-29356758D01*
X3890075Y-29388000D01*
X3729925Y-29388000D01*
X3572858Y-29356758D01*
X3424899Y-29295471D01*
X3291745Y-29206501D01*
X3178499Y-29093255D01*
X3089529Y-28960101D01*
X3028242Y-28812142D01*
X2997000Y-28655075D01*
X2997000Y-28494925D01*
X3028242Y-28337858D01*
X3089529Y-28189899D01*
X3178499Y-28056745D01*
X3291745Y-27943499D01*
X3424899Y-27854529D01*
X3572858Y-27793242D01*
X3729925Y-27762000D01*
X3890075Y-27762000D01*
X4047142Y-27793242D01*
X4047142Y-27793242D01*
G37*
G36*
X82152142Y-27793242D02*
G01*
X82300101Y-27854529D01*
X82433255Y-27943499D01*
X82546501Y-28056745D01*
X82635471Y-28189899D01*
X82696758Y-28337858D01*
X82728000Y-28494925D01*
X82728000Y-28655075D01*
X82696758Y-28812142D01*
X82635471Y-28960101D01*
X82546501Y-29093255D01*
X82433255Y-29206501D01*
X82300101Y-29295471D01*
X82152142Y-29356758D01*
X81995075Y-29388000D01*
X81834925Y-29388000D01*
X81677858Y-29356758D01*
X81529899Y-29295471D01*
X81396745Y-29206501D01*
X81283499Y-29093255D01*
X81194529Y-28960101D01*
X81133242Y-28812142D01*
X81102000Y-28655075D01*
X81102000Y-28494925D01*
X81133242Y-28337858D01*
X81194529Y-28189899D01*
X81283499Y-28056745D01*
X81396745Y-27943499D01*
X81529899Y-27854529D01*
X81677858Y-27793242D01*
X81834925Y-27762000D01*
X81995075Y-27762000D01*
X82152142Y-27793242D01*
X82152142Y-27793242D01*
G37*
G36*
X66912142Y-27793242D02*
G01*
X67060101Y-27854529D01*
X67193255Y-27943499D01*
X67306501Y-28056745D01*
X67395471Y-28189899D01*
X67456758Y-28337858D01*
X67488000Y-28494925D01*
X67488000Y-28655075D01*
X67456758Y-28812142D01*
X67395471Y-28960101D01*
X67306501Y-29093255D01*
X67193255Y-29206501D01*
X67060101Y-29295471D01*
X66912142Y-29356758D01*
X66755075Y-29388000D01*
X66594925Y-29388000D01*
X66437858Y-29356758D01*
X66289899Y-29295471D01*
X66156745Y-29206501D01*
X66043499Y-29093255D01*
X65954529Y-28960101D01*
X65893242Y-28812142D01*
X65862000Y-28655075D01*
X65862000Y-28494925D01*
X65893242Y-28337858D01*
X65954529Y-28189899D01*
X66043499Y-28056745D01*
X66156745Y-27943499D01*
X66289899Y-27854529D01*
X66437858Y-27793242D01*
X66594925Y-27762000D01*
X66755075Y-27762000D01*
X66912142Y-27793242D01*
X66912142Y-27793242D01*
G37*
G36*
X25002142Y-27793242D02*
G01*
X25150101Y-27854529D01*
X25283255Y-27943499D01*
X25396501Y-28056745D01*
X25485471Y-28189899D01*
X25546758Y-28337858D01*
X25578000Y-28494925D01*
X25578000Y-28655075D01*
X25546758Y-28812142D01*
X25485471Y-28960101D01*
X25396501Y-29093255D01*
X25283255Y-29206501D01*
X25150101Y-29295471D01*
X25002142Y-29356758D01*
X24845075Y-29388000D01*
X24684925Y-29388000D01*
X24527858Y-29356758D01*
X24379899Y-29295471D01*
X24246745Y-29206501D01*
X24133499Y-29093255D01*
X24044529Y-28960101D01*
X23983242Y-28812142D01*
X23952000Y-28655075D01*
X23952000Y-28494925D01*
X23983242Y-28337858D01*
X24044529Y-28189899D01*
X24133499Y-28056745D01*
X24246745Y-27943499D01*
X24379899Y-27854529D01*
X24527858Y-27793242D01*
X24684925Y-27762000D01*
X24845075Y-27762000D01*
X25002142Y-27793242D01*
X25002142Y-27793242D01*
G37*
G36*
X40242142Y-27793242D02*
G01*
X40390101Y-27854529D01*
X40523255Y-27943499D01*
X40636501Y-28056745D01*
X40725471Y-28189899D01*
X40786758Y-28337858D01*
X40818000Y-28494925D01*
X40818000Y-28655075D01*
X40786758Y-28812142D01*
X40725471Y-28960101D01*
X40636501Y-29093255D01*
X40523255Y-29206501D01*
X40390101Y-29295471D01*
X40242142Y-29356758D01*
X40085075Y-29388000D01*
X39924925Y-29388000D01*
X39767858Y-29356758D01*
X39619899Y-29295471D01*
X39486745Y-29206501D01*
X39373499Y-29093255D01*
X39284529Y-28960101D01*
X39223242Y-28812142D01*
X39192000Y-28655075D01*
X39192000Y-28494925D01*
X39223242Y-28337858D01*
X39284529Y-28189899D01*
X39373499Y-28056745D01*
X39486745Y-27943499D01*
X39619899Y-27854529D01*
X39767858Y-27793242D01*
X39924925Y-27762000D01*
X40085075Y-27762000D01*
X40242142Y-27793242D01*
X40242142Y-27793242D01*
G37*
G36*
X66912142Y-25253242D02*
G01*
X67060101Y-25314529D01*
X67193255Y-25403499D01*
X67306501Y-25516745D01*
X67395471Y-25649899D01*
X67456758Y-25797858D01*
X67488000Y-25954925D01*
X67488000Y-26115075D01*
X67456758Y-26272142D01*
X67395471Y-26420101D01*
X67306501Y-26553255D01*
X67193255Y-26666501D01*
X67060101Y-26755471D01*
X66912142Y-26816758D01*
X66755075Y-26848000D01*
X66594925Y-26848000D01*
X66437858Y-26816758D01*
X66289899Y-26755471D01*
X66156745Y-26666501D01*
X66043499Y-26553255D01*
X65954529Y-26420101D01*
X65893242Y-26272142D01*
X65862000Y-26115075D01*
X65862000Y-25954925D01*
X65893242Y-25797858D01*
X65954529Y-25649899D01*
X66043499Y-25516745D01*
X66156745Y-25403499D01*
X66289899Y-25314529D01*
X66437858Y-25253242D01*
X66594925Y-25222000D01*
X66755075Y-25222000D01*
X66912142Y-25253242D01*
X66912142Y-25253242D01*
G37*
G36*
X40242142Y-25253242D02*
G01*
X40390101Y-25314529D01*
X40523255Y-25403499D01*
X40636501Y-25516745D01*
X40725471Y-25649899D01*
X40786758Y-25797858D01*
X40818000Y-25954925D01*
X40818000Y-26115075D01*
X40786758Y-26272142D01*
X40725471Y-26420101D01*
X40636501Y-26553255D01*
X40523255Y-26666501D01*
X40390101Y-26755471D01*
X40242142Y-26816758D01*
X40085075Y-26848000D01*
X39924925Y-26848000D01*
X39767858Y-26816758D01*
X39619899Y-26755471D01*
X39486745Y-26666501D01*
X39373499Y-26553255D01*
X39284529Y-26420101D01*
X39223242Y-26272142D01*
X39192000Y-26115075D01*
X39192000Y-25954925D01*
X39223242Y-25797858D01*
X39284529Y-25649899D01*
X39373499Y-25516745D01*
X39486745Y-25403499D01*
X39619899Y-25314529D01*
X39767858Y-25253242D01*
X39924925Y-25222000D01*
X40085075Y-25222000D01*
X40242142Y-25253242D01*
X40242142Y-25253242D01*
G37*
G36*
X4047142Y-25253242D02*
G01*
X4195101Y-25314529D01*
X4328255Y-25403499D01*
X4441501Y-25516745D01*
X4530471Y-25649899D01*
X4591758Y-25797858D01*
X4623000Y-25954925D01*
X4623000Y-26115075D01*
X4591758Y-26272142D01*
X4530471Y-26420101D01*
X4441501Y-26553255D01*
X4328255Y-26666501D01*
X4195101Y-26755471D01*
X4047142Y-26816758D01*
X3890075Y-26848000D01*
X3729925Y-26848000D01*
X3572858Y-26816758D01*
X3424899Y-26755471D01*
X3291745Y-26666501D01*
X3178499Y-26553255D01*
X3089529Y-26420101D01*
X3028242Y-26272142D01*
X2997000Y-26115075D01*
X2997000Y-25954925D01*
X3028242Y-25797858D01*
X3089529Y-25649899D01*
X3178499Y-25516745D01*
X3291745Y-25403499D01*
X3424899Y-25314529D01*
X3572858Y-25253242D01*
X3729925Y-25222000D01*
X3890075Y-25222000D01*
X4047142Y-25253242D01*
X4047142Y-25253242D01*
G37*
G36*
X61197142Y-25253242D02*
G01*
X61345101Y-25314529D01*
X61478255Y-25403499D01*
X61591501Y-25516745D01*
X61680471Y-25649899D01*
X61741758Y-25797858D01*
X61773000Y-25954925D01*
X61773000Y-26115075D01*
X61741758Y-26272142D01*
X61680471Y-26420101D01*
X61591501Y-26553255D01*
X61478255Y-26666501D01*
X61345101Y-26755471D01*
X61197142Y-26816758D01*
X61040075Y-26848000D01*
X60879925Y-26848000D01*
X60722858Y-26816758D01*
X60574899Y-26755471D01*
X60441745Y-26666501D01*
X60328499Y-26553255D01*
X60239529Y-26420101D01*
X60178242Y-26272142D01*
X60147000Y-26115075D01*
X60147000Y-25954925D01*
X60178242Y-25797858D01*
X60239529Y-25649899D01*
X60328499Y-25516745D01*
X60441745Y-25403499D01*
X60574899Y-25314529D01*
X60722858Y-25253242D01*
X60879925Y-25222000D01*
X61040075Y-25222000D01*
X61197142Y-25253242D01*
X61197142Y-25253242D01*
G37*
G36*
X82152142Y-25253242D02*
G01*
X82300101Y-25314529D01*
X82433255Y-25403499D01*
X82546501Y-25516745D01*
X82635471Y-25649899D01*
X82696758Y-25797858D01*
X82728000Y-25954925D01*
X82728000Y-26115075D01*
X82696758Y-26272142D01*
X82635471Y-26420101D01*
X82546501Y-26553255D01*
X82433255Y-26666501D01*
X82300101Y-26755471D01*
X82152142Y-26816758D01*
X81995075Y-26848000D01*
X81834925Y-26848000D01*
X81677858Y-26816758D01*
X81529899Y-26755471D01*
X81396745Y-26666501D01*
X81283499Y-26553255D01*
X81194529Y-26420101D01*
X81133242Y-26272142D01*
X81102000Y-26115075D01*
X81102000Y-25954925D01*
X81133242Y-25797858D01*
X81194529Y-25649899D01*
X81283499Y-25516745D01*
X81396745Y-25403499D01*
X81529899Y-25314529D01*
X81677858Y-25253242D01*
X81834925Y-25222000D01*
X81995075Y-25222000D01*
X82152142Y-25253242D01*
X82152142Y-25253242D01*
G37*
G36*
X45957142Y-25253242D02*
G01*
X46105101Y-25314529D01*
X46238255Y-25403499D01*
X46351501Y-25516745D01*
X46440471Y-25649899D01*
X46501758Y-25797858D01*
X46533000Y-25954925D01*
X46533000Y-26115075D01*
X46501758Y-26272142D01*
X46440471Y-26420101D01*
X46351501Y-26553255D01*
X46238255Y-26666501D01*
X46105101Y-26755471D01*
X45957142Y-26816758D01*
X45800075Y-26848000D01*
X45639925Y-26848000D01*
X45482858Y-26816758D01*
X45334899Y-26755471D01*
X45201745Y-26666501D01*
X45088499Y-26553255D01*
X44999529Y-26420101D01*
X44938242Y-26272142D01*
X44907000Y-26115075D01*
X44907000Y-25954925D01*
X44938242Y-25797858D01*
X44999529Y-25649899D01*
X45088499Y-25516745D01*
X45201745Y-25403499D01*
X45334899Y-25314529D01*
X45482858Y-25253242D01*
X45639925Y-25222000D01*
X45800075Y-25222000D01*
X45957142Y-25253242D01*
X45957142Y-25253242D01*
G37*
G36*
X25002142Y-25253242D02*
G01*
X25150101Y-25314529D01*
X25283255Y-25403499D01*
X25396501Y-25516745D01*
X25485471Y-25649899D01*
X25546758Y-25797858D01*
X25578000Y-25954925D01*
X25578000Y-26115075D01*
X25546758Y-26272142D01*
X25485471Y-26420101D01*
X25396501Y-26553255D01*
X25283255Y-26666501D01*
X25150101Y-26755471D01*
X25002142Y-26816758D01*
X24845075Y-26848000D01*
X24684925Y-26848000D01*
X24527858Y-26816758D01*
X24379899Y-26755471D01*
X24246745Y-26666501D01*
X24133499Y-26553255D01*
X24044529Y-26420101D01*
X23983242Y-26272142D01*
X23952000Y-26115075D01*
X23952000Y-25954925D01*
X23983242Y-25797858D01*
X24044529Y-25649899D01*
X24133499Y-25516745D01*
X24246745Y-25403499D01*
X24379899Y-25314529D01*
X24527858Y-25253242D01*
X24684925Y-25222000D01*
X24845075Y-25222000D01*
X25002142Y-25253242D01*
X25002142Y-25253242D01*
G37*
G36*
X19287142Y-25253242D02*
G01*
X19435101Y-25314529D01*
X19568255Y-25403499D01*
X19681501Y-25516745D01*
X19770471Y-25649899D01*
X19831758Y-25797858D01*
X19863000Y-25954925D01*
X19863000Y-26115075D01*
X19831758Y-26272142D01*
X19770471Y-26420101D01*
X19681501Y-26553255D01*
X19568255Y-26666501D01*
X19435101Y-26755471D01*
X19287142Y-26816758D01*
X19130075Y-26848000D01*
X18969925Y-26848000D01*
X18812858Y-26816758D01*
X18664899Y-26755471D01*
X18531745Y-26666501D01*
X18418499Y-26553255D01*
X18329529Y-26420101D01*
X18268242Y-26272142D01*
X18237000Y-26115075D01*
X18237000Y-25954925D01*
X18268242Y-25797858D01*
X18329529Y-25649899D01*
X18418499Y-25516745D01*
X18531745Y-25403499D01*
X18664899Y-25314529D01*
X18812858Y-25253242D01*
X18969925Y-25222000D01*
X19130075Y-25222000D01*
X19287142Y-25253242D01*
X19287142Y-25253242D01*
G37*
G36*
X45957142Y-22713242D02*
G01*
X46105101Y-22774529D01*
X46238255Y-22863499D01*
X46351501Y-22976745D01*
X46440471Y-23109899D01*
X46501758Y-23257858D01*
X46533000Y-23414925D01*
X46533000Y-23575075D01*
X46501758Y-23732142D01*
X46440471Y-23880101D01*
X46351501Y-24013255D01*
X46238255Y-24126501D01*
X46105101Y-24215471D01*
X45957142Y-24276758D01*
X45800075Y-24308000D01*
X45639925Y-24308000D01*
X45482858Y-24276758D01*
X45334899Y-24215471D01*
X45201745Y-24126501D01*
X45088499Y-24013255D01*
X44999529Y-23880101D01*
X44938242Y-23732142D01*
X44907000Y-23575075D01*
X44907000Y-23414925D01*
X44938242Y-23257858D01*
X44999529Y-23109899D01*
X45088499Y-22976745D01*
X45201745Y-22863499D01*
X45334899Y-22774529D01*
X45482858Y-22713242D01*
X45639925Y-22682000D01*
X45800075Y-22682000D01*
X45957142Y-22713242D01*
X45957142Y-22713242D01*
G37*
G36*
X61197142Y-22713242D02*
G01*
X61345101Y-22774529D01*
X61478255Y-22863499D01*
X61591501Y-22976745D01*
X61680471Y-23109899D01*
X61741758Y-23257858D01*
X61773000Y-23414925D01*
X61773000Y-23575075D01*
X61741758Y-23732142D01*
X61680471Y-23880101D01*
X61591501Y-24013255D01*
X61478255Y-24126501D01*
X61345101Y-24215471D01*
X61197142Y-24276758D01*
X61040075Y-24308000D01*
X60879925Y-24308000D01*
X60722858Y-24276758D01*
X60574899Y-24215471D01*
X60441745Y-24126501D01*
X60328499Y-24013255D01*
X60239529Y-23880101D01*
X60178242Y-23732142D01*
X60147000Y-23575075D01*
X60147000Y-23414925D01*
X60178242Y-23257858D01*
X60239529Y-23109899D01*
X60328499Y-22976745D01*
X60441745Y-22863499D01*
X60574899Y-22774529D01*
X60722858Y-22713242D01*
X60879925Y-22682000D01*
X61040075Y-22682000D01*
X61197142Y-22713242D01*
X61197142Y-22713242D01*
G37*
G36*
X40242142Y-22713242D02*
G01*
X40390101Y-22774529D01*
X40523255Y-22863499D01*
X40636501Y-22976745D01*
X40725471Y-23109899D01*
X40786758Y-23257858D01*
X40818000Y-23414925D01*
X40818000Y-23575075D01*
X40786758Y-23732142D01*
X40725471Y-23880101D01*
X40636501Y-24013255D01*
X40523255Y-24126501D01*
X40390101Y-24215471D01*
X40242142Y-24276758D01*
X40085075Y-24308000D01*
X39924925Y-24308000D01*
X39767858Y-24276758D01*
X39619899Y-24215471D01*
X39486745Y-24126501D01*
X39373499Y-24013255D01*
X39284529Y-23880101D01*
X39223242Y-23732142D01*
X39192000Y-23575075D01*
X39192000Y-23414925D01*
X39223242Y-23257858D01*
X39284529Y-23109899D01*
X39373499Y-22976745D01*
X39486745Y-22863499D01*
X39619899Y-22774529D01*
X39767858Y-22713242D01*
X39924925Y-22682000D01*
X40085075Y-22682000D01*
X40242142Y-22713242D01*
X40242142Y-22713242D01*
G37*
G36*
X25002142Y-22713242D02*
G01*
X25150101Y-22774529D01*
X25283255Y-22863499D01*
X25396501Y-22976745D01*
X25485471Y-23109899D01*
X25546758Y-23257858D01*
X25578000Y-23414925D01*
X25578000Y-23575075D01*
X25546758Y-23732142D01*
X25485471Y-23880101D01*
X25396501Y-24013255D01*
X25283255Y-24126501D01*
X25150101Y-24215471D01*
X25002142Y-24276758D01*
X24845075Y-24308000D01*
X24684925Y-24308000D01*
X24527858Y-24276758D01*
X24379899Y-24215471D01*
X24246745Y-24126501D01*
X24133499Y-24013255D01*
X24044529Y-23880101D01*
X23983242Y-23732142D01*
X23952000Y-23575075D01*
X23952000Y-23414925D01*
X23983242Y-23257858D01*
X24044529Y-23109899D01*
X24133499Y-22976745D01*
X24246745Y-22863499D01*
X24379899Y-22774529D01*
X24527858Y-22713242D01*
X24684925Y-22682000D01*
X24845075Y-22682000D01*
X25002142Y-22713242D01*
X25002142Y-22713242D01*
G37*
G36*
X19287142Y-22713242D02*
G01*
X19435101Y-22774529D01*
X19568255Y-22863499D01*
X19681501Y-22976745D01*
X19770471Y-23109899D01*
X19831758Y-23257858D01*
X19863000Y-23414925D01*
X19863000Y-23575075D01*
X19831758Y-23732142D01*
X19770471Y-23880101D01*
X19681501Y-24013255D01*
X19568255Y-24126501D01*
X19435101Y-24215471D01*
X19287142Y-24276758D01*
X19130075Y-24308000D01*
X18969925Y-24308000D01*
X18812858Y-24276758D01*
X18664899Y-24215471D01*
X18531745Y-24126501D01*
X18418499Y-24013255D01*
X18329529Y-23880101D01*
X18268242Y-23732142D01*
X18237000Y-23575075D01*
X18237000Y-23414925D01*
X18268242Y-23257858D01*
X18329529Y-23109899D01*
X18418499Y-22976745D01*
X18531745Y-22863499D01*
X18664899Y-22774529D01*
X18812858Y-22713242D01*
X18969925Y-22682000D01*
X19130075Y-22682000D01*
X19287142Y-22713242D01*
X19287142Y-22713242D01*
G37*
G36*
X4047142Y-22713242D02*
G01*
X4195101Y-22774529D01*
X4328255Y-22863499D01*
X4441501Y-22976745D01*
X4530471Y-23109899D01*
X4591758Y-23257858D01*
X4623000Y-23414925D01*
X4623000Y-23575075D01*
X4591758Y-23732142D01*
X4530471Y-23880101D01*
X4441501Y-24013255D01*
X4328255Y-24126501D01*
X4195101Y-24215471D01*
X4047142Y-24276758D01*
X3890075Y-24308000D01*
X3729925Y-24308000D01*
X3572858Y-24276758D01*
X3424899Y-24215471D01*
X3291745Y-24126501D01*
X3178499Y-24013255D01*
X3089529Y-23880101D01*
X3028242Y-23732142D01*
X2997000Y-23575075D01*
X2997000Y-23414925D01*
X3028242Y-23257858D01*
X3089529Y-23109899D01*
X3178499Y-22976745D01*
X3291745Y-22863499D01*
X3424899Y-22774529D01*
X3572858Y-22713242D01*
X3729925Y-22682000D01*
X3890075Y-22682000D01*
X4047142Y-22713242D01*
X4047142Y-22713242D01*
G37*
G36*
X66912142Y-22713242D02*
G01*
X67060101Y-22774529D01*
X67193255Y-22863499D01*
X67306501Y-22976745D01*
X67395471Y-23109899D01*
X67456758Y-23257858D01*
X67488000Y-23414925D01*
X67488000Y-23575075D01*
X67456758Y-23732142D01*
X67395471Y-23880101D01*
X67306501Y-24013255D01*
X67193255Y-24126501D01*
X67060101Y-24215471D01*
X66912142Y-24276758D01*
X66755075Y-24308000D01*
X66594925Y-24308000D01*
X66437858Y-24276758D01*
X66289899Y-24215471D01*
X66156745Y-24126501D01*
X66043499Y-24013255D01*
X65954529Y-23880101D01*
X65893242Y-23732142D01*
X65862000Y-23575075D01*
X65862000Y-23414925D01*
X65893242Y-23257858D01*
X65954529Y-23109899D01*
X66043499Y-22976745D01*
X66156745Y-22863499D01*
X66289899Y-22774529D01*
X66437858Y-22713242D01*
X66594925Y-22682000D01*
X66755075Y-22682000D01*
X66912142Y-22713242D01*
X66912142Y-22713242D01*
G37*
G36*
X82152142Y-22713242D02*
G01*
X82300101Y-22774529D01*
X82433255Y-22863499D01*
X82546501Y-22976745D01*
X82635471Y-23109899D01*
X82696758Y-23257858D01*
X82728000Y-23414925D01*
X82728000Y-23575075D01*
X82696758Y-23732142D01*
X82635471Y-23880101D01*
X82546501Y-24013255D01*
X82433255Y-24126501D01*
X82300101Y-24215471D01*
X82152142Y-24276758D01*
X81995075Y-24308000D01*
X81834925Y-24308000D01*
X81677858Y-24276758D01*
X81529899Y-24215471D01*
X81396745Y-24126501D01*
X81283499Y-24013255D01*
X81194529Y-23880101D01*
X81133242Y-23732142D01*
X81102000Y-23575075D01*
X81102000Y-23414925D01*
X81133242Y-23257858D01*
X81194529Y-23109899D01*
X81283499Y-22976745D01*
X81396745Y-22863499D01*
X81529899Y-22774529D01*
X81677858Y-22713242D01*
X81834925Y-22682000D01*
X81995075Y-22682000D01*
X82152142Y-22713242D01*
X82152142Y-22713242D01*
G37*
G36*
X9138228Y-20136703D02*
G01*
X9293100Y-20200853D01*
X9432481Y-20293985D01*
X9551015Y-20412519D01*
X9644147Y-20551900D01*
X9708297Y-20706772D01*
X9741000Y-20871184D01*
X9741000Y-21038816D01*
X9708297Y-21203228D01*
X9644147Y-21358100D01*
X9551015Y-21497481D01*
X9432481Y-21616015D01*
X9293100Y-21709147D01*
X9138228Y-21773297D01*
X8973816Y-21806000D01*
X8806184Y-21806000D01*
X8641772Y-21773297D01*
X8486900Y-21709147D01*
X8347519Y-21616015D01*
X8228985Y-21497481D01*
X8135853Y-21358100D01*
X8071703Y-21203228D01*
X8039000Y-21038816D01*
X8039000Y-20871184D01*
X8071703Y-20706772D01*
X8135853Y-20551900D01*
X8228985Y-20412519D01*
X8347519Y-20293985D01*
X8486900Y-20200853D01*
X8641772Y-20136703D01*
X8806184Y-20104000D01*
X8973816Y-20104000D01*
X9138228Y-20136703D01*
X9138228Y-20136703D01*
G37*
G36*
X30093228Y-20136703D02*
G01*
X30248100Y-20200853D01*
X30387481Y-20293985D01*
X30506015Y-20412519D01*
X30599147Y-20551900D01*
X30663297Y-20706772D01*
X30696000Y-20871184D01*
X30696000Y-21038816D01*
X30663297Y-21203228D01*
X30599147Y-21358100D01*
X30506015Y-21497481D01*
X30387481Y-21616015D01*
X30248100Y-21709147D01*
X30093228Y-21773297D01*
X29928816Y-21806000D01*
X29761184Y-21806000D01*
X29596772Y-21773297D01*
X29441900Y-21709147D01*
X29302519Y-21616015D01*
X29183985Y-21497481D01*
X29090853Y-21358100D01*
X29026703Y-21203228D01*
X28994000Y-21038816D01*
X28994000Y-20871184D01*
X29026703Y-20706772D01*
X29090853Y-20551900D01*
X29183985Y-20412519D01*
X29302519Y-20293985D01*
X29441900Y-20200853D01*
X29596772Y-20136703D01*
X29761184Y-20104000D01*
X29928816Y-20104000D01*
X30093228Y-20136703D01*
X30093228Y-20136703D01*
G37*
G36*
X14218228Y-20136703D02*
G01*
X14373100Y-20200853D01*
X14512481Y-20293985D01*
X14631015Y-20412519D01*
X14724147Y-20551900D01*
X14788297Y-20706772D01*
X14821000Y-20871184D01*
X14821000Y-21038816D01*
X14788297Y-21203228D01*
X14724147Y-21358100D01*
X14631015Y-21497481D01*
X14512481Y-21616015D01*
X14373100Y-21709147D01*
X14218228Y-21773297D01*
X14053816Y-21806000D01*
X13886184Y-21806000D01*
X13721772Y-21773297D01*
X13566900Y-21709147D01*
X13427519Y-21616015D01*
X13308985Y-21497481D01*
X13215853Y-21358100D01*
X13151703Y-21203228D01*
X13119000Y-21038816D01*
X13119000Y-20871184D01*
X13151703Y-20706772D01*
X13215853Y-20551900D01*
X13308985Y-20412519D01*
X13427519Y-20293985D01*
X13566900Y-20200853D01*
X13721772Y-20136703D01*
X13886184Y-20104000D01*
X14053816Y-20104000D01*
X14218228Y-20136703D01*
X14218228Y-20136703D01*
G37*
G36*
X35173228Y-20136703D02*
G01*
X35328100Y-20200853D01*
X35467481Y-20293985D01*
X35586015Y-20412519D01*
X35679147Y-20551900D01*
X35743297Y-20706772D01*
X35776000Y-20871184D01*
X35776000Y-21038816D01*
X35743297Y-21203228D01*
X35679147Y-21358100D01*
X35586015Y-21497481D01*
X35467481Y-21616015D01*
X35328100Y-21709147D01*
X35173228Y-21773297D01*
X35008816Y-21806000D01*
X34841184Y-21806000D01*
X34676772Y-21773297D01*
X34521900Y-21709147D01*
X34382519Y-21616015D01*
X34263985Y-21497481D01*
X34170853Y-21358100D01*
X34106703Y-21203228D01*
X34074000Y-21038816D01*
X34074000Y-20871184D01*
X34106703Y-20706772D01*
X34170853Y-20551900D01*
X34263985Y-20412519D01*
X34382519Y-20293985D01*
X34521900Y-20200853D01*
X34676772Y-20136703D01*
X34841184Y-20104000D01*
X35008816Y-20104000D01*
X35173228Y-20136703D01*
X35173228Y-20136703D01*
G37*
G36*
X51048228Y-20136703D02*
G01*
X51203100Y-20200853D01*
X51342481Y-20293985D01*
X51461015Y-20412519D01*
X51554147Y-20551900D01*
X51618297Y-20706772D01*
X51651000Y-20871184D01*
X51651000Y-21038816D01*
X51618297Y-21203228D01*
X51554147Y-21358100D01*
X51461015Y-21497481D01*
X51342481Y-21616015D01*
X51203100Y-21709147D01*
X51048228Y-21773297D01*
X50883816Y-21806000D01*
X50716184Y-21806000D01*
X50551772Y-21773297D01*
X50396900Y-21709147D01*
X50257519Y-21616015D01*
X50138985Y-21497481D01*
X50045853Y-21358100D01*
X49981703Y-21203228D01*
X49949000Y-21038816D01*
X49949000Y-20871184D01*
X49981703Y-20706772D01*
X50045853Y-20551900D01*
X50138985Y-20412519D01*
X50257519Y-20293985D01*
X50396900Y-20200853D01*
X50551772Y-20136703D01*
X50716184Y-20104000D01*
X50883816Y-20104000D01*
X51048228Y-20136703D01*
X51048228Y-20136703D01*
G37*
G36*
X56128228Y-20136703D02*
G01*
X56283100Y-20200853D01*
X56422481Y-20293985D01*
X56541015Y-20412519D01*
X56634147Y-20551900D01*
X56698297Y-20706772D01*
X56731000Y-20871184D01*
X56731000Y-21038816D01*
X56698297Y-21203228D01*
X56634147Y-21358100D01*
X56541015Y-21497481D01*
X56422481Y-21616015D01*
X56283100Y-21709147D01*
X56128228Y-21773297D01*
X55963816Y-21806000D01*
X55796184Y-21806000D01*
X55631772Y-21773297D01*
X55476900Y-21709147D01*
X55337519Y-21616015D01*
X55218985Y-21497481D01*
X55125853Y-21358100D01*
X55061703Y-21203228D01*
X55029000Y-21038816D01*
X55029000Y-20871184D01*
X55061703Y-20706772D01*
X55125853Y-20551900D01*
X55218985Y-20412519D01*
X55337519Y-20293985D01*
X55476900Y-20200853D01*
X55631772Y-20136703D01*
X55796184Y-20104000D01*
X55963816Y-20104000D01*
X56128228Y-20136703D01*
X56128228Y-20136703D01*
G37*
G36*
X72003228Y-20136703D02*
G01*
X72158100Y-20200853D01*
X72297481Y-20293985D01*
X72416015Y-20412519D01*
X72509147Y-20551900D01*
X72573297Y-20706772D01*
X72606000Y-20871184D01*
X72606000Y-21038816D01*
X72573297Y-21203228D01*
X72509147Y-21358100D01*
X72416015Y-21497481D01*
X72297481Y-21616015D01*
X72158100Y-21709147D01*
X72003228Y-21773297D01*
X71838816Y-21806000D01*
X71671184Y-21806000D01*
X71506772Y-21773297D01*
X71351900Y-21709147D01*
X71212519Y-21616015D01*
X71093985Y-21497481D01*
X71000853Y-21358100D01*
X70936703Y-21203228D01*
X70904000Y-21038816D01*
X70904000Y-20871184D01*
X70936703Y-20706772D01*
X71000853Y-20551900D01*
X71093985Y-20412519D01*
X71212519Y-20293985D01*
X71351900Y-20200853D01*
X71506772Y-20136703D01*
X71671184Y-20104000D01*
X71838816Y-20104000D01*
X72003228Y-20136703D01*
X72003228Y-20136703D01*
G37*
G36*
X77083228Y-20136703D02*
G01*
X77238100Y-20200853D01*
X77377481Y-20293985D01*
X77496015Y-20412519D01*
X77589147Y-20551900D01*
X77653297Y-20706772D01*
X77686000Y-20871184D01*
X77686000Y-21038816D01*
X77653297Y-21203228D01*
X77589147Y-21358100D01*
X77496015Y-21497481D01*
X77377481Y-21616015D01*
X77238100Y-21709147D01*
X77083228Y-21773297D01*
X76918816Y-21806000D01*
X76751184Y-21806000D01*
X76586772Y-21773297D01*
X76431900Y-21709147D01*
X76292519Y-21616015D01*
X76173985Y-21497481D01*
X76080853Y-21358100D01*
X76016703Y-21203228D01*
X75984000Y-21038816D01*
X75984000Y-20871184D01*
X76016703Y-20706772D01*
X76080853Y-20551900D01*
X76173985Y-20412519D01*
X76292519Y-20293985D01*
X76431900Y-20200853D01*
X76586772Y-20136703D01*
X76751184Y-20104000D01*
X76918816Y-20104000D01*
X77083228Y-20136703D01*
X77083228Y-20136703D01*
G37*
G36*
X25002142Y-20173242D02*
G01*
X25150101Y-20234529D01*
X25283255Y-20323499D01*
X25396501Y-20436745D01*
X25485471Y-20569899D01*
X25546758Y-20717858D01*
X25578000Y-20874925D01*
X25578000Y-21035075D01*
X25546758Y-21192142D01*
X25485471Y-21340101D01*
X25396501Y-21473255D01*
X25283255Y-21586501D01*
X25150101Y-21675471D01*
X25002142Y-21736758D01*
X24845075Y-21768000D01*
X24684925Y-21768000D01*
X24527858Y-21736758D01*
X24379899Y-21675471D01*
X24246745Y-21586501D01*
X24133499Y-21473255D01*
X24044529Y-21340101D01*
X23983242Y-21192142D01*
X23952000Y-21035075D01*
X23952000Y-20874925D01*
X23983242Y-20717858D01*
X24044529Y-20569899D01*
X24133499Y-20436745D01*
X24246745Y-20323499D01*
X24379899Y-20234529D01*
X24527858Y-20173242D01*
X24684925Y-20142000D01*
X24845075Y-20142000D01*
X25002142Y-20173242D01*
X25002142Y-20173242D01*
G37*
G36*
X4047142Y-20173242D02*
G01*
X4195101Y-20234529D01*
X4328255Y-20323499D01*
X4441501Y-20436745D01*
X4530471Y-20569899D01*
X4591758Y-20717858D01*
X4623000Y-20874925D01*
X4623000Y-21035075D01*
X4591758Y-21192142D01*
X4530471Y-21340101D01*
X4441501Y-21473255D01*
X4328255Y-21586501D01*
X4195101Y-21675471D01*
X4047142Y-21736758D01*
X3890075Y-21768000D01*
X3729925Y-21768000D01*
X3572858Y-21736758D01*
X3424899Y-21675471D01*
X3291745Y-21586501D01*
X3178499Y-21473255D01*
X3089529Y-21340101D01*
X3028242Y-21192142D01*
X2997000Y-21035075D01*
X2997000Y-20874925D01*
X3028242Y-20717858D01*
X3089529Y-20569899D01*
X3178499Y-20436745D01*
X3291745Y-20323499D01*
X3424899Y-20234529D01*
X3572858Y-20173242D01*
X3729925Y-20142000D01*
X3890075Y-20142000D01*
X4047142Y-20173242D01*
X4047142Y-20173242D01*
G37*
G36*
X19287142Y-20173242D02*
G01*
X19435101Y-20234529D01*
X19568255Y-20323499D01*
X19681501Y-20436745D01*
X19770471Y-20569899D01*
X19831758Y-20717858D01*
X19863000Y-20874925D01*
X19863000Y-21035075D01*
X19831758Y-21192142D01*
X19770471Y-21340101D01*
X19681501Y-21473255D01*
X19568255Y-21586501D01*
X19435101Y-21675471D01*
X19287142Y-21736758D01*
X19130075Y-21768000D01*
X18969925Y-21768000D01*
X18812858Y-21736758D01*
X18664899Y-21675471D01*
X18531745Y-21586501D01*
X18418499Y-21473255D01*
X18329529Y-21340101D01*
X18268242Y-21192142D01*
X18237000Y-21035075D01*
X18237000Y-20874925D01*
X18268242Y-20717858D01*
X18329529Y-20569899D01*
X18418499Y-20436745D01*
X18531745Y-20323499D01*
X18664899Y-20234529D01*
X18812858Y-20173242D01*
X18969925Y-20142000D01*
X19130075Y-20142000D01*
X19287142Y-20173242D01*
X19287142Y-20173242D01*
G37*
G36*
X40242142Y-20173242D02*
G01*
X40390101Y-20234529D01*
X40523255Y-20323499D01*
X40636501Y-20436745D01*
X40725471Y-20569899D01*
X40786758Y-20717858D01*
X40818000Y-20874925D01*
X40818000Y-21035075D01*
X40786758Y-21192142D01*
X40725471Y-21340101D01*
X40636501Y-21473255D01*
X40523255Y-21586501D01*
X40390101Y-21675471D01*
X40242142Y-21736758D01*
X40085075Y-21768000D01*
X39924925Y-21768000D01*
X39767858Y-21736758D01*
X39619899Y-21675471D01*
X39486745Y-21586501D01*
X39373499Y-21473255D01*
X39284529Y-21340101D01*
X39223242Y-21192142D01*
X39192000Y-21035075D01*
X39192000Y-20874925D01*
X39223242Y-20717858D01*
X39284529Y-20569899D01*
X39373499Y-20436745D01*
X39486745Y-20323499D01*
X39619899Y-20234529D01*
X39767858Y-20173242D01*
X39924925Y-20142000D01*
X40085075Y-20142000D01*
X40242142Y-20173242D01*
X40242142Y-20173242D01*
G37*
G36*
X45957142Y-20173242D02*
G01*
X46105101Y-20234529D01*
X46238255Y-20323499D01*
X46351501Y-20436745D01*
X46440471Y-20569899D01*
X46501758Y-20717858D01*
X46533000Y-20874925D01*
X46533000Y-21035075D01*
X46501758Y-21192142D01*
X46440471Y-21340101D01*
X46351501Y-21473255D01*
X46238255Y-21586501D01*
X46105101Y-21675471D01*
X45957142Y-21736758D01*
X45800075Y-21768000D01*
X45639925Y-21768000D01*
X45482858Y-21736758D01*
X45334899Y-21675471D01*
X45201745Y-21586501D01*
X45088499Y-21473255D01*
X44999529Y-21340101D01*
X44938242Y-21192142D01*
X44907000Y-21035075D01*
X44907000Y-20874925D01*
X44938242Y-20717858D01*
X44999529Y-20569899D01*
X45088499Y-20436745D01*
X45201745Y-20323499D01*
X45334899Y-20234529D01*
X45482858Y-20173242D01*
X45639925Y-20142000D01*
X45800075Y-20142000D01*
X45957142Y-20173242D01*
X45957142Y-20173242D01*
G37*
G36*
X61197142Y-20173242D02*
G01*
X61345101Y-20234529D01*
X61478255Y-20323499D01*
X61591501Y-20436745D01*
X61680471Y-20569899D01*
X61741758Y-20717858D01*
X61773000Y-20874925D01*
X61773000Y-21035075D01*
X61741758Y-21192142D01*
X61680471Y-21340101D01*
X61591501Y-21473255D01*
X61478255Y-21586501D01*
X61345101Y-21675471D01*
X61197142Y-21736758D01*
X61040075Y-21768000D01*
X60879925Y-21768000D01*
X60722858Y-21736758D01*
X60574899Y-21675471D01*
X60441745Y-21586501D01*
X60328499Y-21473255D01*
X60239529Y-21340101D01*
X60178242Y-21192142D01*
X60147000Y-21035075D01*
X60147000Y-20874925D01*
X60178242Y-20717858D01*
X60239529Y-20569899D01*
X60328499Y-20436745D01*
X60441745Y-20323499D01*
X60574899Y-20234529D01*
X60722858Y-20173242D01*
X60879925Y-20142000D01*
X61040075Y-20142000D01*
X61197142Y-20173242D01*
X61197142Y-20173242D01*
G37*
G36*
X66912142Y-20173242D02*
G01*
X67060101Y-20234529D01*
X67193255Y-20323499D01*
X67306501Y-20436745D01*
X67395471Y-20569899D01*
X67456758Y-20717858D01*
X67488000Y-20874925D01*
X67488000Y-21035075D01*
X67456758Y-21192142D01*
X67395471Y-21340101D01*
X67306501Y-21473255D01*
X67193255Y-21586501D01*
X67060101Y-21675471D01*
X66912142Y-21736758D01*
X66755075Y-21768000D01*
X66594925Y-21768000D01*
X66437858Y-21736758D01*
X66289899Y-21675471D01*
X66156745Y-21586501D01*
X66043499Y-21473255D01*
X65954529Y-21340101D01*
X65893242Y-21192142D01*
X65862000Y-21035075D01*
X65862000Y-20874925D01*
X65893242Y-20717858D01*
X65954529Y-20569899D01*
X66043499Y-20436745D01*
X66156745Y-20323499D01*
X66289899Y-20234529D01*
X66437858Y-20173242D01*
X66594925Y-20142000D01*
X66755075Y-20142000D01*
X66912142Y-20173242D01*
X66912142Y-20173242D01*
G37*
G36*
X82152142Y-20173242D02*
G01*
X82300101Y-20234529D01*
X82433255Y-20323499D01*
X82546501Y-20436745D01*
X82635471Y-20569899D01*
X82696758Y-20717858D01*
X82728000Y-20874925D01*
X82728000Y-21035075D01*
X82696758Y-21192142D01*
X82635471Y-21340101D01*
X82546501Y-21473255D01*
X82433255Y-21586501D01*
X82300101Y-21675471D01*
X82152142Y-21736758D01*
X81995075Y-21768000D01*
X81834925Y-21768000D01*
X81677858Y-21736758D01*
X81529899Y-21675471D01*
X81396745Y-21586501D01*
X81283499Y-21473255D01*
X81194529Y-21340101D01*
X81133242Y-21192142D01*
X81102000Y-21035075D01*
X81102000Y-20874925D01*
X81133242Y-20717858D01*
X81194529Y-20569899D01*
X81283499Y-20436745D01*
X81396745Y-20323499D01*
X81529899Y-20234529D01*
X81677858Y-20173242D01*
X81834925Y-20142000D01*
X81995075Y-20142000D01*
X82152142Y-20173242D01*
X82152142Y-20173242D01*
G37*
G36*
X8254239Y-10781467D02*
G01*
X8568282Y-10843934D01*
X9159926Y-11089001D01*
X9692392Y-11444784D01*
X10145216Y-11897608D01*
X10500999Y-12430074D01*
X10746066Y-13021718D01*
X10746066Y-13021719D01*
X10871000Y-13649803D01*
X10871000Y-14290197D01*
X10831912Y-14486707D01*
X10746066Y-14918282D01*
X10500999Y-15509926D01*
X10145216Y-16042392D01*
X9692392Y-16495216D01*
X9159926Y-16850999D01*
X8568282Y-17096066D01*
X8254239Y-17158533D01*
X7940197Y-17221000D01*
X7299803Y-17221000D01*
X6985761Y-17158533D01*
X6671718Y-17096066D01*
X6080074Y-16850999D01*
X5547608Y-16495216D01*
X5094784Y-16042392D01*
X4739001Y-15509926D01*
X4493934Y-14918282D01*
X4408088Y-14486707D01*
X4369000Y-14290197D01*
X4369000Y-13649803D01*
X4493934Y-13021719D01*
X4493934Y-13021718D01*
X4739001Y-12430074D01*
X5094784Y-11897608D01*
X5547608Y-11444784D01*
X6080074Y-11089001D01*
X6671718Y-10843934D01*
X6985761Y-10781467D01*
X7299803Y-10719000D01*
X7940197Y-10719000D01*
X8254239Y-10781467D01*
X8254239Y-10781467D01*
G37*
G36*
X23137395Y-14960546D02*
G01*
X23310466Y-15032234D01*
X23310467Y-15032235D01*
X23466227Y-15136310D01*
X23598690Y-15268773D01*
X23598691Y-15268775D01*
X23702766Y-15424534D01*
X23774454Y-15597605D01*
X23811000Y-15781333D01*
X23811000Y-15968667D01*
X23774454Y-16152395D01*
X23702766Y-16325466D01*
X23702765Y-16325467D01*
X23598690Y-16481227D01*
X23466227Y-16613690D01*
X23387818Y-16666081D01*
X23310466Y-16717766D01*
X23137395Y-16789454D01*
X22953667Y-16826000D01*
X22766333Y-16826000D01*
X22582605Y-16789454D01*
X22409534Y-16717766D01*
X22332182Y-16666081D01*
X22253773Y-16613690D01*
X22121310Y-16481227D01*
X22017235Y-16325467D01*
X22017234Y-16325466D01*
X21945546Y-16152395D01*
X21909000Y-15968667D01*
X21909000Y-15781333D01*
X21945546Y-15597605D01*
X22017234Y-15424534D01*
X22121309Y-15268775D01*
X22121310Y-15268773D01*
X22253773Y-15136310D01*
X22409533Y-15032235D01*
X22409534Y-15032234D01*
X22582605Y-14960546D01*
X22766333Y-14924000D01*
X22953667Y-14924000D01*
X23137395Y-14960546D01*
X23137395Y-14960546D01*
G37*
G36*
X21271000Y-16826000D02*
G01*
X19369000Y-16826000D01*
X19369000Y-14924000D01*
X21271000Y-14924000D01*
X21271000Y-16826000D01*
X21271000Y-16826000D01*
G37*
G36*
X41591000Y-16826000D02*
G01*
X39689000Y-16826000D01*
X39689000Y-14924000D01*
X41591000Y-14924000D01*
X41591000Y-16826000D01*
X41591000Y-16826000D01*
G37*
G36*
X71397395Y-14960546D02*
G01*
X71570466Y-15032234D01*
X71570467Y-15032235D01*
X71726227Y-15136310D01*
X71858690Y-15268773D01*
X71858691Y-15268775D01*
X71962766Y-15424534D01*
X72034454Y-15597605D01*
X72071000Y-15781333D01*
X72071000Y-15968667D01*
X72034454Y-16152395D01*
X71962766Y-16325466D01*
X71962765Y-16325467D01*
X71858690Y-16481227D01*
X71726227Y-16613690D01*
X71647818Y-16666081D01*
X71570466Y-16717766D01*
X71397395Y-16789454D01*
X71213667Y-16826000D01*
X71026333Y-16826000D01*
X70842605Y-16789454D01*
X70669534Y-16717766D01*
X70592182Y-16666081D01*
X70513773Y-16613690D01*
X70381310Y-16481227D01*
X70277235Y-16325467D01*
X70277234Y-16325466D01*
X70205546Y-16152395D01*
X70169000Y-15968667D01*
X70169000Y-15781333D01*
X70205546Y-15597605D01*
X70277234Y-15424534D01*
X70381309Y-15268775D01*
X70381310Y-15268773D01*
X70513773Y-15136310D01*
X70669533Y-15032235D01*
X70669534Y-15032234D01*
X70842605Y-14960546D01*
X71026333Y-14924000D01*
X71213667Y-14924000D01*
X71397395Y-14960546D01*
X71397395Y-14960546D01*
G37*
G36*
X37107395Y-14960546D02*
G01*
X37280466Y-15032234D01*
X37280467Y-15032235D01*
X37436227Y-15136310D01*
X37568690Y-15268773D01*
X37568691Y-15268775D01*
X37672766Y-15424534D01*
X37744454Y-15597605D01*
X37781000Y-15781333D01*
X37781000Y-15968667D01*
X37744454Y-16152395D01*
X37672766Y-16325466D01*
X37672765Y-16325467D01*
X37568690Y-16481227D01*
X37436227Y-16613690D01*
X37357818Y-16666081D01*
X37280466Y-16717766D01*
X37107395Y-16789454D01*
X36923667Y-16826000D01*
X36736333Y-16826000D01*
X36552605Y-16789454D01*
X36379534Y-16717766D01*
X36302182Y-16666081D01*
X36223773Y-16613690D01*
X36091310Y-16481227D01*
X35987235Y-16325467D01*
X35987234Y-16325466D01*
X35915546Y-16152395D01*
X35879000Y-15968667D01*
X35879000Y-15781333D01*
X35915546Y-15597605D01*
X35987234Y-15424534D01*
X36091309Y-15268775D01*
X36091310Y-15268773D01*
X36223773Y-15136310D01*
X36379533Y-15032235D01*
X36379534Y-15032234D01*
X36552605Y-14960546D01*
X36736333Y-14924000D01*
X36923667Y-14924000D01*
X37107395Y-14960546D01*
X37107395Y-14960546D01*
G37*
G36*
X69531000Y-16826000D02*
G01*
X67629000Y-16826000D01*
X67629000Y-14924000D01*
X69531000Y-14924000D01*
X69531000Y-16826000D01*
X69531000Y-16826000D01*
G37*
G36*
X35241000Y-16826000D02*
G01*
X33339000Y-16826000D01*
X33339000Y-14924000D01*
X35241000Y-14924000D01*
X35241000Y-16826000D01*
X35241000Y-16826000D01*
G37*
G36*
X27621000Y-16826000D02*
G01*
X25719000Y-16826000D01*
X25719000Y-14924000D01*
X27621000Y-14924000D01*
X27621000Y-16826000D01*
X27621000Y-16826000D01*
G37*
G36*
X29487395Y-14960546D02*
G01*
X29660466Y-15032234D01*
X29660467Y-15032235D01*
X29816227Y-15136310D01*
X29948690Y-15268773D01*
X29948691Y-15268775D01*
X30052766Y-15424534D01*
X30124454Y-15597605D01*
X30161000Y-15781333D01*
X30161000Y-15968667D01*
X30124454Y-16152395D01*
X30052766Y-16325466D01*
X30052765Y-16325467D01*
X29948690Y-16481227D01*
X29816227Y-16613690D01*
X29737818Y-16666081D01*
X29660466Y-16717766D01*
X29487395Y-16789454D01*
X29303667Y-16826000D01*
X29116333Y-16826000D01*
X28932605Y-16789454D01*
X28759534Y-16717766D01*
X28682182Y-16666081D01*
X28603773Y-16613690D01*
X28471310Y-16481227D01*
X28367235Y-16325467D01*
X28367234Y-16325466D01*
X28295546Y-16152395D01*
X28259000Y-15968667D01*
X28259000Y-15781333D01*
X28295546Y-15597605D01*
X28367234Y-15424534D01*
X28471309Y-15268775D01*
X28471310Y-15268773D01*
X28603773Y-15136310D01*
X28759533Y-15032235D01*
X28759534Y-15032234D01*
X28932605Y-14960546D01*
X29116333Y-14924000D01*
X29303667Y-14924000D01*
X29487395Y-14960546D01*
X29487395Y-14960546D01*
G37*
G36*
X65047395Y-14960546D02*
G01*
X65220466Y-15032234D01*
X65220467Y-15032235D01*
X65376227Y-15136310D01*
X65508690Y-15268773D01*
X65508691Y-15268775D01*
X65612766Y-15424534D01*
X65684454Y-15597605D01*
X65721000Y-15781333D01*
X65721000Y-15968667D01*
X65684454Y-16152395D01*
X65612766Y-16325466D01*
X65612765Y-16325467D01*
X65508690Y-16481227D01*
X65376227Y-16613690D01*
X65297818Y-16666081D01*
X65220466Y-16717766D01*
X65047395Y-16789454D01*
X64863667Y-16826000D01*
X64676333Y-16826000D01*
X64492605Y-16789454D01*
X64319534Y-16717766D01*
X64242182Y-16666081D01*
X64163773Y-16613690D01*
X64031310Y-16481227D01*
X63927235Y-16325467D01*
X63927234Y-16325466D01*
X63855546Y-16152395D01*
X63819000Y-15968667D01*
X63819000Y-15781333D01*
X63855546Y-15597605D01*
X63927234Y-15424534D01*
X64031309Y-15268775D01*
X64031310Y-15268773D01*
X64163773Y-15136310D01*
X64319533Y-15032235D01*
X64319534Y-15032234D01*
X64492605Y-14960546D01*
X64676333Y-14924000D01*
X64863667Y-14924000D01*
X65047395Y-14960546D01*
X65047395Y-14960546D01*
G37*
G36*
X63181000Y-16826000D02*
G01*
X61279000Y-16826000D01*
X61279000Y-14924000D01*
X63181000Y-14924000D01*
X63181000Y-16826000D01*
X63181000Y-16826000D01*
G37*
G36*
X43457395Y-14960546D02*
G01*
X43630466Y-15032234D01*
X43630467Y-15032235D01*
X43786227Y-15136310D01*
X43918690Y-15268773D01*
X43918691Y-15268775D01*
X44022766Y-15424534D01*
X44094454Y-15597605D01*
X44131000Y-15781333D01*
X44131000Y-15968667D01*
X44094454Y-16152395D01*
X44022766Y-16325466D01*
X44022765Y-16325467D01*
X43918690Y-16481227D01*
X43786227Y-16613690D01*
X43707818Y-16666081D01*
X43630466Y-16717766D01*
X43457395Y-16789454D01*
X43273667Y-16826000D01*
X43086333Y-16826000D01*
X42902605Y-16789454D01*
X42729534Y-16717766D01*
X42652182Y-16666081D01*
X42573773Y-16613690D01*
X42441310Y-16481227D01*
X42337235Y-16325467D01*
X42337234Y-16325466D01*
X42265546Y-16152395D01*
X42229000Y-15968667D01*
X42229000Y-15781333D01*
X42265546Y-15597605D01*
X42337234Y-15424534D01*
X42441309Y-15268775D01*
X42441310Y-15268773D01*
X42573773Y-15136310D01*
X42729533Y-15032235D01*
X42729534Y-15032234D01*
X42902605Y-14960546D01*
X43086333Y-14924000D01*
X43273667Y-14924000D01*
X43457395Y-14960546D01*
X43457395Y-14960546D01*
G37*
G36*
X57427395Y-14960546D02*
G01*
X57600466Y-15032234D01*
X57600467Y-15032235D01*
X57756227Y-15136310D01*
X57888690Y-15268773D01*
X57888691Y-15268775D01*
X57992766Y-15424534D01*
X58064454Y-15597605D01*
X58101000Y-15781333D01*
X58101000Y-15968667D01*
X58064454Y-16152395D01*
X57992766Y-16325466D01*
X57992765Y-16325467D01*
X57888690Y-16481227D01*
X57756227Y-16613690D01*
X57677818Y-16666081D01*
X57600466Y-16717766D01*
X57427395Y-16789454D01*
X57243667Y-16826000D01*
X57056333Y-16826000D01*
X56872605Y-16789454D01*
X56699534Y-16717766D01*
X56622182Y-16666081D01*
X56543773Y-16613690D01*
X56411310Y-16481227D01*
X56307235Y-16325467D01*
X56307234Y-16325466D01*
X56235546Y-16152395D01*
X56199000Y-15968667D01*
X56199000Y-15781333D01*
X56235546Y-15597605D01*
X56307234Y-15424534D01*
X56411309Y-15268775D01*
X56411310Y-15268773D01*
X56543773Y-15136310D01*
X56699533Y-15032235D01*
X56699534Y-15032234D01*
X56872605Y-14960546D01*
X57056333Y-14924000D01*
X57243667Y-14924000D01*
X57427395Y-14960546D01*
X57427395Y-14960546D01*
G37*
G36*
X49211000Y-16826000D02*
G01*
X47309000Y-16826000D01*
X47309000Y-14924000D01*
X49211000Y-14924000D01*
X49211000Y-16826000D01*
X49211000Y-16826000D01*
G37*
G36*
X55561000Y-16826000D02*
G01*
X53659000Y-16826000D01*
X53659000Y-14924000D01*
X55561000Y-14924000D01*
X55561000Y-16826000D01*
X55561000Y-16826000D01*
G37*
G36*
X51077395Y-14960546D02*
G01*
X51250466Y-15032234D01*
X51250467Y-15032235D01*
X51406227Y-15136310D01*
X51538690Y-15268773D01*
X51538691Y-15268775D01*
X51642766Y-15424534D01*
X51714454Y-15597605D01*
X51751000Y-15781333D01*
X51751000Y-15968667D01*
X51714454Y-16152395D01*
X51642766Y-16325466D01*
X51642765Y-16325467D01*
X51538690Y-16481227D01*
X51406227Y-16613690D01*
X51327818Y-16666081D01*
X51250466Y-16717766D01*
X51077395Y-16789454D01*
X50893667Y-16826000D01*
X50706333Y-16826000D01*
X50522605Y-16789454D01*
X50349534Y-16717766D01*
X50272182Y-16666081D01*
X50193773Y-16613690D01*
X50061310Y-16481227D01*
X49957235Y-16325467D01*
X49957234Y-16325466D01*
X49885546Y-16152395D01*
X49849000Y-15968667D01*
X49849000Y-15781333D01*
X49885546Y-15597605D01*
X49957234Y-15424534D01*
X50061309Y-15268775D01*
X50061310Y-15268773D01*
X50193773Y-15136310D01*
X50349533Y-15032235D01*
X50349534Y-15032234D01*
X50522605Y-14960546D01*
X50706333Y-14924000D01*
X50893667Y-14924000D01*
X51077395Y-14960546D01*
X51077395Y-14960546D01*
G37*
G36*
X82446000Y-14501000D02*
G01*
X78844000Y-14501000D01*
X78844000Y-10899000D01*
X82446000Y-10899000D01*
X82446000Y-14501000D01*
X82446000Y-14501000D01*
G37*
G36*
X87621979Y-10913293D02*
G01*
X87755625Y-10953834D01*
X87878784Y-11019664D01*
X87986740Y-11108260D01*
X88075336Y-11216216D01*
X88141166Y-11339375D01*
X88181707Y-11473021D01*
X88196000Y-11618140D01*
X88196000Y-13781860D01*
X88181707Y-13926979D01*
X88141166Y-14060625D01*
X88075336Y-14183784D01*
X87986740Y-14291740D01*
X87878784Y-14380336D01*
X87755625Y-14446166D01*
X87621979Y-14486707D01*
X87476860Y-14501000D01*
X85813140Y-14501000D01*
X85668021Y-14486707D01*
X85534375Y-14446166D01*
X85411216Y-14380336D01*
X85303260Y-14291740D01*
X85214664Y-14183784D01*
X85148834Y-14060625D01*
X85108293Y-13926979D01*
X85094000Y-13781860D01*
X85094000Y-11618140D01*
X85108293Y-11473021D01*
X85148834Y-11339375D01*
X85214664Y-11216216D01*
X85303260Y-11108260D01*
X85411216Y-11019664D01*
X85534375Y-10953834D01*
X85668021Y-10913293D01*
X85813140Y-10899000D01*
X87476860Y-10899000D01*
X87621979Y-10913293D01*
X87621979Y-10913293D01*
G37*
G36*
X84771366Y-6215695D02*
G01*
X84928460Y-6263349D01*
X85073231Y-6340731D01*
X85200128Y-6444872D01*
X85304269Y-6571769D01*
X85381651Y-6716540D01*
X85429305Y-6873634D01*
X85446000Y-7043140D01*
X85446000Y-8956860D01*
X85429305Y-9126366D01*
X85381651Y-9283460D01*
X85304269Y-9428231D01*
X85200128Y-9555128D01*
X85073231Y-9659269D01*
X84928460Y-9736651D01*
X84771366Y-9784305D01*
X84601860Y-9801000D01*
X82688140Y-9801000D01*
X82518634Y-9784305D01*
X82361540Y-9736651D01*
X82216769Y-9659269D01*
X82089872Y-9555128D01*
X81985731Y-9428231D01*
X81908349Y-9283460D01*
X81860695Y-9126366D01*
X81844000Y-8956860D01*
X81844000Y-7043140D01*
X81860695Y-6873634D01*
X81908349Y-6716540D01*
X81985731Y-6571769D01*
X82089872Y-6444872D01*
X82216769Y-6340731D01*
X82361540Y-6263349D01*
X82518634Y-6215695D01*
X82688140Y-6199000D01*
X84601860Y-6199000D01*
X84771366Y-6215695D01*
X84771366Y-6215695D01*
G37*
G36*
X35726823Y-7416313D02*
G01*
X35887242Y-7464976D01*
X35954361Y-7500852D01*
X36035078Y-7543996D01*
X36164659Y-7650341D01*
X36271004Y-7779922D01*
X36271005Y-7779924D01*
X36350024Y-7927758D01*
X36398687Y-8088177D01*
X36415117Y-8255000D01*
X36398687Y-8421823D01*
X36350024Y-8582242D01*
X36309477Y-8658100D01*
X36271004Y-8730078D01*
X36164659Y-8859659D01*
X36035078Y-8966004D01*
X36035076Y-8966005D01*
X35887242Y-9045024D01*
X35726823Y-9093687D01*
X35601804Y-9106000D01*
X35518196Y-9106000D01*
X35393177Y-9093687D01*
X35232758Y-9045024D01*
X35084924Y-8966005D01*
X35084922Y-8966004D01*
X34955341Y-8859659D01*
X34848996Y-8730078D01*
X34810523Y-8658100D01*
X34769976Y-8582242D01*
X34721313Y-8421823D01*
X34704883Y-8255000D01*
X34721313Y-8088177D01*
X34769976Y-7927758D01*
X34848995Y-7779924D01*
X34848996Y-7779922D01*
X34955341Y-7650341D01*
X35084922Y-7543996D01*
X35165639Y-7500852D01*
X35232758Y-7464976D01*
X35393177Y-7416313D01*
X35518196Y-7404000D01*
X35601804Y-7404000D01*
X35726823Y-7416313D01*
X35726823Y-7416313D01*
G37*
G36*
X45968228Y-7436703D02*
G01*
X46123100Y-7500853D01*
X46262481Y-7593985D01*
X46381015Y-7712519D01*
X46474147Y-7851900D01*
X46538297Y-8006772D01*
X46571000Y-8171184D01*
X46571000Y-8338816D01*
X46538297Y-8503228D01*
X46474147Y-8658100D01*
X46381015Y-8797481D01*
X46262481Y-8916015D01*
X46123100Y-9009147D01*
X45968228Y-9073297D01*
X45803816Y-9106000D01*
X45636184Y-9106000D01*
X45471772Y-9073297D01*
X45316900Y-9009147D01*
X45177519Y-8916015D01*
X45058985Y-8797481D01*
X44965853Y-8658100D01*
X44901703Y-8503228D01*
X44869000Y-8338816D01*
X44869000Y-8171184D01*
X44901703Y-8006772D01*
X44965853Y-7851900D01*
X45058985Y-7712519D01*
X45177519Y-7593985D01*
X45316900Y-7500853D01*
X45471772Y-7436703D01*
X45636184Y-7404000D01*
X45803816Y-7404000D01*
X45968228Y-7436703D01*
X45968228Y-7436703D01*
G37*
G36*
X50581000Y-7401000D02*
G01*
X48479000Y-7401000D01*
X48479000Y-5299000D01*
X50581000Y-5299000D01*
X50581000Y-7401000D01*
X50581000Y-7401000D01*
G37*
G36*
X53646564Y-5339389D02*
G01*
X53837833Y-5418615D01*
X53837835Y-5418616D01*
X54009973Y-5533635D01*
X54156365Y-5680027D01*
X54271385Y-5852167D01*
X54350611Y-6043436D01*
X54391000Y-6246484D01*
X54391000Y-6453516D01*
X54350611Y-6656564D01*
X54325768Y-6716540D01*
X54271384Y-6847835D01*
X54156365Y-7019973D01*
X54009973Y-7166365D01*
X53837835Y-7281384D01*
X53837834Y-7281385D01*
X53837833Y-7281385D01*
X53646564Y-7360611D01*
X53443516Y-7401000D01*
X53236484Y-7401000D01*
X53033436Y-7360611D01*
X52842167Y-7281385D01*
X52842166Y-7281385D01*
X52842165Y-7281384D01*
X52670027Y-7166365D01*
X52523635Y-7019973D01*
X52408616Y-6847835D01*
X52354232Y-6716540D01*
X52329389Y-6656564D01*
X52289000Y-6453516D01*
X52289000Y-6246484D01*
X52329389Y-6043436D01*
X52408615Y-5852167D01*
X52523635Y-5680027D01*
X52670027Y-5533635D01*
X52842165Y-5418616D01*
X52842167Y-5418615D01*
X53033436Y-5339389D01*
X53236484Y-5299000D01*
X53443516Y-5299000D01*
X53646564Y-5339389D01*
X53646564Y-5339389D01*
G37*
G36*
X32056564Y-5339389D02*
G01*
X32247833Y-5418615D01*
X32247835Y-5418616D01*
X32419973Y-5533635D01*
X32566365Y-5680027D01*
X32681385Y-5852167D01*
X32760611Y-6043436D01*
X32801000Y-6246484D01*
X32801000Y-6453516D01*
X32760611Y-6656564D01*
X32735768Y-6716540D01*
X32681384Y-6847835D01*
X32566365Y-7019973D01*
X32419973Y-7166365D01*
X32247835Y-7281384D01*
X32247834Y-7281385D01*
X32247833Y-7281385D01*
X32056564Y-7360611D01*
X31853516Y-7401000D01*
X31646484Y-7401000D01*
X31443436Y-7360611D01*
X31252167Y-7281385D01*
X31252166Y-7281385D01*
X31252165Y-7281384D01*
X31080027Y-7166365D01*
X30933635Y-7019973D01*
X30818616Y-6847835D01*
X30764232Y-6716540D01*
X30739389Y-6656564D01*
X30699000Y-6453516D01*
X30699000Y-6246484D01*
X30739389Y-6043436D01*
X30818615Y-5852167D01*
X30933635Y-5680027D01*
X31080027Y-5533635D01*
X31252165Y-5418616D01*
X31252167Y-5418615D01*
X31443436Y-5339389D01*
X31646484Y-5299000D01*
X31853516Y-5299000D01*
X32056564Y-5339389D01*
X32056564Y-5339389D01*
G37*
G36*
X28246564Y-5339389D02*
G01*
X28437833Y-5418615D01*
X28437835Y-5418616D01*
X28609973Y-5533635D01*
X28756365Y-5680027D01*
X28871385Y-5852167D01*
X28950611Y-6043436D01*
X28991000Y-6246484D01*
X28991000Y-6453516D01*
X28950611Y-6656564D01*
X28925768Y-6716540D01*
X28871384Y-6847835D01*
X28756365Y-7019973D01*
X28609973Y-7166365D01*
X28437835Y-7281384D01*
X28437834Y-7281385D01*
X28437833Y-7281385D01*
X28246564Y-7360611D01*
X28043516Y-7401000D01*
X27836484Y-7401000D01*
X27633436Y-7360611D01*
X27442167Y-7281385D01*
X27442166Y-7281385D01*
X27442165Y-7281384D01*
X27270027Y-7166365D01*
X27123635Y-7019973D01*
X27008616Y-6847835D01*
X26954232Y-6716540D01*
X26929389Y-6656564D01*
X26889000Y-6453516D01*
X26889000Y-6246484D01*
X26929389Y-6043436D01*
X27008615Y-5852167D01*
X27123635Y-5680027D01*
X27270027Y-5533635D01*
X27442165Y-5418616D01*
X27442167Y-5418615D01*
X27633436Y-5339389D01*
X27836484Y-5299000D01*
X28043516Y-5299000D01*
X28246564Y-5339389D01*
X28246564Y-5339389D01*
G37*
G36*
X24436564Y-5339389D02*
G01*
X24627833Y-5418615D01*
X24627835Y-5418616D01*
X24799973Y-5533635D01*
X24946365Y-5680027D01*
X25061385Y-5852167D01*
X25140611Y-6043436D01*
X25181000Y-6246484D01*
X25181000Y-6453516D01*
X25140611Y-6656564D01*
X25115768Y-6716540D01*
X25061384Y-6847835D01*
X24946365Y-7019973D01*
X24799973Y-7166365D01*
X24627835Y-7281384D01*
X24627834Y-7281385D01*
X24627833Y-7281385D01*
X24436564Y-7360611D01*
X24233516Y-7401000D01*
X24026484Y-7401000D01*
X23823436Y-7360611D01*
X23632167Y-7281385D01*
X23632166Y-7281385D01*
X23632165Y-7281384D01*
X23460027Y-7166365D01*
X23313635Y-7019973D01*
X23198616Y-6847835D01*
X23144232Y-6716540D01*
X23119389Y-6656564D01*
X23079000Y-6453516D01*
X23079000Y-6246484D01*
X23119389Y-6043436D01*
X23198615Y-5852167D01*
X23313635Y-5680027D01*
X23460027Y-5533635D01*
X23632165Y-5418616D01*
X23632167Y-5418615D01*
X23823436Y-5339389D01*
X24026484Y-5299000D01*
X24233516Y-5299000D01*
X24436564Y-5339389D01*
X24436564Y-5339389D01*
G37*
G36*
X20626564Y-5339389D02*
G01*
X20817833Y-5418615D01*
X20817835Y-5418616D01*
X20989973Y-5533635D01*
X21136365Y-5680027D01*
X21251385Y-5852167D01*
X21330611Y-6043436D01*
X21371000Y-6246484D01*
X21371000Y-6453516D01*
X21330611Y-6656564D01*
X21305768Y-6716540D01*
X21251384Y-6847835D01*
X21136365Y-7019973D01*
X20989973Y-7166365D01*
X20817835Y-7281384D01*
X20817834Y-7281385D01*
X20817833Y-7281385D01*
X20626564Y-7360611D01*
X20423516Y-7401000D01*
X20216484Y-7401000D01*
X20013436Y-7360611D01*
X19822167Y-7281385D01*
X19822166Y-7281385D01*
X19822165Y-7281384D01*
X19650027Y-7166365D01*
X19503635Y-7019973D01*
X19388616Y-6847835D01*
X19334232Y-6716540D01*
X19309389Y-6656564D01*
X19269000Y-6453516D01*
X19269000Y-6246484D01*
X19309389Y-6043436D01*
X19388615Y-5852167D01*
X19503635Y-5680027D01*
X19650027Y-5533635D01*
X19822165Y-5418616D01*
X19822167Y-5418615D01*
X20013436Y-5339389D01*
X20216484Y-5299000D01*
X20423516Y-5299000D01*
X20626564Y-5339389D01*
X20626564Y-5339389D01*
G37*
G36*
X16816564Y-5339389D02*
G01*
X17007833Y-5418615D01*
X17007835Y-5418616D01*
X17179973Y-5533635D01*
X17326365Y-5680027D01*
X17441385Y-5852167D01*
X17520611Y-6043436D01*
X17561000Y-6246484D01*
X17561000Y-6453516D01*
X17520611Y-6656564D01*
X17495768Y-6716540D01*
X17441384Y-6847835D01*
X17326365Y-7019973D01*
X17179973Y-7166365D01*
X17007835Y-7281384D01*
X17007834Y-7281385D01*
X17007833Y-7281385D01*
X16816564Y-7360611D01*
X16613516Y-7401000D01*
X16406484Y-7401000D01*
X16203436Y-7360611D01*
X16012167Y-7281385D01*
X16012166Y-7281385D01*
X16012165Y-7281384D01*
X15840027Y-7166365D01*
X15693635Y-7019973D01*
X15578616Y-6847835D01*
X15524232Y-6716540D01*
X15499389Y-6656564D01*
X15459000Y-6453516D01*
X15459000Y-6246484D01*
X15499389Y-6043436D01*
X15578615Y-5852167D01*
X15693635Y-5680027D01*
X15840027Y-5533635D01*
X16012165Y-5418616D01*
X16012167Y-5418615D01*
X16203436Y-5339389D01*
X16406484Y-5299000D01*
X16613516Y-5299000D01*
X16816564Y-5339389D01*
X16816564Y-5339389D01*
G37*
G36*
X13006564Y-5339389D02*
G01*
X13197833Y-5418615D01*
X13197835Y-5418616D01*
X13369973Y-5533635D01*
X13516365Y-5680027D01*
X13631385Y-5852167D01*
X13710611Y-6043436D01*
X13751000Y-6246484D01*
X13751000Y-6453516D01*
X13710611Y-6656564D01*
X13685768Y-6716540D01*
X13631384Y-6847835D01*
X13516365Y-7019973D01*
X13369973Y-7166365D01*
X13197835Y-7281384D01*
X13197834Y-7281385D01*
X13197833Y-7281385D01*
X13006564Y-7360611D01*
X12803516Y-7401000D01*
X12596484Y-7401000D01*
X12393436Y-7360611D01*
X12202167Y-7281385D01*
X12202166Y-7281385D01*
X12202165Y-7281384D01*
X12030027Y-7166365D01*
X11883635Y-7019973D01*
X11768616Y-6847835D01*
X11714232Y-6716540D01*
X11689389Y-6656564D01*
X11649000Y-6453516D01*
X11649000Y-6246484D01*
X11689389Y-6043436D01*
X11768615Y-5852167D01*
X11883635Y-5680027D01*
X12030027Y-5533635D01*
X12202165Y-5418616D01*
X12202167Y-5418615D01*
X12393436Y-5339389D01*
X12596484Y-5299000D01*
X12803516Y-5299000D01*
X13006564Y-5339389D01*
X13006564Y-5339389D01*
G37*
G36*
X9196564Y-5339389D02*
G01*
X9387833Y-5418615D01*
X9387835Y-5418616D01*
X9559973Y-5533635D01*
X9706365Y-5680027D01*
X9821385Y-5852167D01*
X9900611Y-6043436D01*
X9941000Y-6246484D01*
X9941000Y-6453516D01*
X9900611Y-6656564D01*
X9875768Y-6716540D01*
X9821384Y-6847835D01*
X9706365Y-7019973D01*
X9559973Y-7166365D01*
X9387835Y-7281384D01*
X9387834Y-7281385D01*
X9387833Y-7281385D01*
X9196564Y-7360611D01*
X8993516Y-7401000D01*
X8786484Y-7401000D01*
X8583436Y-7360611D01*
X8392167Y-7281385D01*
X8392166Y-7281385D01*
X8392165Y-7281384D01*
X8220027Y-7166365D01*
X8073635Y-7019973D01*
X7958616Y-6847835D01*
X7904232Y-6716540D01*
X7879389Y-6656564D01*
X7839000Y-6453516D01*
X7839000Y-6246484D01*
X7879389Y-6043436D01*
X7958615Y-5852167D01*
X8073635Y-5680027D01*
X8220027Y-5533635D01*
X8392165Y-5418616D01*
X8392167Y-5418615D01*
X8583436Y-5339389D01*
X8786484Y-5299000D01*
X8993516Y-5299000D01*
X9196564Y-5339389D01*
X9196564Y-5339389D01*
G37*
G36*
X6131000Y-7401000D02*
G01*
X4029000Y-7401000D01*
X4029000Y-5299000D01*
X6131000Y-5299000D01*
X6131000Y-7401000D01*
X6131000Y-7401000D01*
G37*
G36*
X61266564Y-5339389D02*
G01*
X61457833Y-5418615D01*
X61457835Y-5418616D01*
X61629973Y-5533635D01*
X61776365Y-5680027D01*
X61891385Y-5852167D01*
X61970611Y-6043436D01*
X62011000Y-6246484D01*
X62011000Y-6453516D01*
X61970611Y-6656564D01*
X61945768Y-6716540D01*
X61891384Y-6847835D01*
X61776365Y-7019973D01*
X61629973Y-7166365D01*
X61457835Y-7281384D01*
X61457834Y-7281385D01*
X61457833Y-7281385D01*
X61266564Y-7360611D01*
X61063516Y-7401000D01*
X60856484Y-7401000D01*
X60653436Y-7360611D01*
X60462167Y-7281385D01*
X60462166Y-7281385D01*
X60462165Y-7281384D01*
X60290027Y-7166365D01*
X60143635Y-7019973D01*
X60028616Y-6847835D01*
X59974232Y-6716540D01*
X59949389Y-6656564D01*
X59909000Y-6453516D01*
X59909000Y-6246484D01*
X59949389Y-6043436D01*
X60028615Y-5852167D01*
X60143635Y-5680027D01*
X60290027Y-5533635D01*
X60462165Y-5418616D01*
X60462167Y-5418615D01*
X60653436Y-5339389D01*
X60856484Y-5299000D01*
X61063516Y-5299000D01*
X61266564Y-5339389D01*
X61266564Y-5339389D01*
G37*
G36*
X68886564Y-5339389D02*
G01*
X69077833Y-5418615D01*
X69077835Y-5418616D01*
X69249973Y-5533635D01*
X69396365Y-5680027D01*
X69511385Y-5852167D01*
X69590611Y-6043436D01*
X69631000Y-6246484D01*
X69631000Y-6453516D01*
X69590611Y-6656564D01*
X69565768Y-6716540D01*
X69511384Y-6847835D01*
X69396365Y-7019973D01*
X69249973Y-7166365D01*
X69077835Y-7281384D01*
X69077834Y-7281385D01*
X69077833Y-7281385D01*
X68886564Y-7360611D01*
X68683516Y-7401000D01*
X68476484Y-7401000D01*
X68273436Y-7360611D01*
X68082167Y-7281385D01*
X68082166Y-7281385D01*
X68082165Y-7281384D01*
X67910027Y-7166365D01*
X67763635Y-7019973D01*
X67648616Y-6847835D01*
X67594232Y-6716540D01*
X67569389Y-6656564D01*
X67529000Y-6453516D01*
X67529000Y-6246484D01*
X67569389Y-6043436D01*
X67648615Y-5852167D01*
X67763635Y-5680027D01*
X67910027Y-5533635D01*
X68082165Y-5418616D01*
X68082167Y-5418615D01*
X68273436Y-5339389D01*
X68476484Y-5299000D01*
X68683516Y-5299000D01*
X68886564Y-5339389D01*
X68886564Y-5339389D01*
G37*
G36*
X76506564Y-5339389D02*
G01*
X76697833Y-5418615D01*
X76697835Y-5418616D01*
X76869973Y-5533635D01*
X77016365Y-5680027D01*
X77131385Y-5852167D01*
X77210611Y-6043436D01*
X77251000Y-6246484D01*
X77251000Y-6453516D01*
X77210611Y-6656564D01*
X77185768Y-6716540D01*
X77131384Y-6847835D01*
X77016365Y-7019973D01*
X76869973Y-7166365D01*
X76697835Y-7281384D01*
X76697834Y-7281385D01*
X76697833Y-7281385D01*
X76506564Y-7360611D01*
X76303516Y-7401000D01*
X76096484Y-7401000D01*
X75893436Y-7360611D01*
X75702167Y-7281385D01*
X75702166Y-7281385D01*
X75702165Y-7281384D01*
X75530027Y-7166365D01*
X75383635Y-7019973D01*
X75268616Y-6847835D01*
X75214232Y-6716540D01*
X75189389Y-6656564D01*
X75149000Y-6453516D01*
X75149000Y-6246484D01*
X75189389Y-6043436D01*
X75268615Y-5852167D01*
X75383635Y-5680027D01*
X75530027Y-5533635D01*
X75702165Y-5418616D01*
X75702167Y-5418615D01*
X75893436Y-5339389D01*
X76096484Y-5299000D01*
X76303516Y-5299000D01*
X76506564Y-5339389D01*
X76506564Y-5339389D01*
G37*
G36*
X57456564Y-5339389D02*
G01*
X57647833Y-5418615D01*
X57647835Y-5418616D01*
X57819973Y-5533635D01*
X57966365Y-5680027D01*
X58081385Y-5852167D01*
X58160611Y-6043436D01*
X58201000Y-6246484D01*
X58201000Y-6453516D01*
X58160611Y-6656564D01*
X58135768Y-6716540D01*
X58081384Y-6847835D01*
X57966365Y-7019973D01*
X57819973Y-7166365D01*
X57647835Y-7281384D01*
X57647834Y-7281385D01*
X57647833Y-7281385D01*
X57456564Y-7360611D01*
X57253516Y-7401000D01*
X57046484Y-7401000D01*
X56843436Y-7360611D01*
X56652167Y-7281385D01*
X56652166Y-7281385D01*
X56652165Y-7281384D01*
X56480027Y-7166365D01*
X56333635Y-7019973D01*
X56218616Y-6847835D01*
X56164232Y-6716540D01*
X56139389Y-6656564D01*
X56099000Y-6453516D01*
X56099000Y-6246484D01*
X56139389Y-6043436D01*
X56218615Y-5852167D01*
X56333635Y-5680027D01*
X56480027Y-5533635D01*
X56652165Y-5418616D01*
X56652167Y-5418615D01*
X56843436Y-5339389D01*
X57046484Y-5299000D01*
X57253516Y-5299000D01*
X57456564Y-5339389D01*
X57456564Y-5339389D01*
G37*
G36*
X65076564Y-5339389D02*
G01*
X65267833Y-5418615D01*
X65267835Y-5418616D01*
X65439973Y-5533635D01*
X65586365Y-5680027D01*
X65701385Y-5852167D01*
X65780611Y-6043436D01*
X65821000Y-6246484D01*
X65821000Y-6453516D01*
X65780611Y-6656564D01*
X65755768Y-6716540D01*
X65701384Y-6847835D01*
X65586365Y-7019973D01*
X65439973Y-7166365D01*
X65267835Y-7281384D01*
X65267834Y-7281385D01*
X65267833Y-7281385D01*
X65076564Y-7360611D01*
X64873516Y-7401000D01*
X64666484Y-7401000D01*
X64463436Y-7360611D01*
X64272167Y-7281385D01*
X64272166Y-7281385D01*
X64272165Y-7281384D01*
X64100027Y-7166365D01*
X63953635Y-7019973D01*
X63838616Y-6847835D01*
X63784232Y-6716540D01*
X63759389Y-6656564D01*
X63719000Y-6453516D01*
X63719000Y-6246484D01*
X63759389Y-6043436D01*
X63838615Y-5852167D01*
X63953635Y-5680027D01*
X64100027Y-5533635D01*
X64272165Y-5418616D01*
X64272167Y-5418615D01*
X64463436Y-5339389D01*
X64666484Y-5299000D01*
X64873516Y-5299000D01*
X65076564Y-5339389D01*
X65076564Y-5339389D01*
G37*
G36*
X72696564Y-5339389D02*
G01*
X72887833Y-5418615D01*
X72887835Y-5418616D01*
X73059973Y-5533635D01*
X73206365Y-5680027D01*
X73321385Y-5852167D01*
X73400611Y-6043436D01*
X73441000Y-6246484D01*
X73441000Y-6453516D01*
X73400611Y-6656564D01*
X73375768Y-6716540D01*
X73321384Y-6847835D01*
X73206365Y-7019973D01*
X73059973Y-7166365D01*
X72887835Y-7281384D01*
X72887834Y-7281385D01*
X72887833Y-7281385D01*
X72696564Y-7360611D01*
X72493516Y-7401000D01*
X72286484Y-7401000D01*
X72083436Y-7360611D01*
X71892167Y-7281385D01*
X71892166Y-7281385D01*
X71892165Y-7281384D01*
X71720027Y-7166365D01*
X71573635Y-7019973D01*
X71458616Y-6847835D01*
X71404232Y-6716540D01*
X71379389Y-6656564D01*
X71339000Y-6453516D01*
X71339000Y-6246484D01*
X71379389Y-6043436D01*
X71458615Y-5852167D01*
X71573635Y-5680027D01*
X71720027Y-5533635D01*
X71892165Y-5418616D01*
X71892167Y-5418615D01*
X72083436Y-5339389D01*
X72286484Y-5299000D01*
X72493516Y-5299000D01*
X72696564Y-5339389D01*
X72696564Y-5339389D01*
G37*
G36*
X35726823Y-3606313D02*
G01*
X35887242Y-3654976D01*
X35954361Y-3690852D01*
X36035078Y-3733996D01*
X36164659Y-3840341D01*
X36271004Y-3969922D01*
X36271005Y-3969924D01*
X36350024Y-4117758D01*
X36398687Y-4278177D01*
X36415117Y-4445000D01*
X36398687Y-4611823D01*
X36350024Y-4772242D01*
X36309477Y-4848100D01*
X36271004Y-4920078D01*
X36164659Y-5049659D01*
X36035078Y-5156004D01*
X36035076Y-5156005D01*
X35887242Y-5235024D01*
X35726823Y-5283687D01*
X35601804Y-5296000D01*
X35518196Y-5296000D01*
X35393177Y-5283687D01*
X35232758Y-5235024D01*
X35084924Y-5156005D01*
X35084922Y-5156004D01*
X34955341Y-5049659D01*
X34848996Y-4920078D01*
X34810523Y-4848100D01*
X34769976Y-4772242D01*
X34721313Y-4611823D01*
X34704883Y-4445000D01*
X34721313Y-4278177D01*
X34769976Y-4117758D01*
X34848995Y-3969924D01*
X34848996Y-3969922D01*
X34955341Y-3840341D01*
X35084922Y-3733996D01*
X35165639Y-3690852D01*
X35232758Y-3654976D01*
X35393177Y-3606313D01*
X35518196Y-3594000D01*
X35601804Y-3594000D01*
X35726823Y-3606313D01*
X35726823Y-3606313D01*
G37*
G36*
X45968228Y-3626703D02*
G01*
X46123100Y-3690853D01*
X46262481Y-3783985D01*
X46381015Y-3902519D01*
X46474147Y-4041900D01*
X46538297Y-4196772D01*
X46571000Y-4361184D01*
X46571000Y-4528816D01*
X46538297Y-4693228D01*
X46474147Y-4848100D01*
X46381015Y-4987481D01*
X46262481Y-5106015D01*
X46123100Y-5199147D01*
X45968228Y-5263297D01*
X45803816Y-5296000D01*
X45636184Y-5296000D01*
X45471772Y-5263297D01*
X45316900Y-5199147D01*
X45177519Y-5106015D01*
X45058985Y-4987481D01*
X44965853Y-4848100D01*
X44901703Y-4693228D01*
X44869000Y-4528816D01*
X44869000Y-4361184D01*
X44901703Y-4196772D01*
X44965853Y-4041900D01*
X45058985Y-3902519D01*
X45177519Y-3783985D01*
X45316900Y-3690853D01*
X45471772Y-3626703D01*
X45636184Y-3594000D01*
X45803816Y-3594000D01*
X45968228Y-3626703D01*
X45968228Y-3626703D01*
G37*
M02*
