G04 #@! TF.GenerationSoftware,KiCad,Pcbnew,(5.1.9)-1*
G04 #@! TF.CreationDate,2021-10-12T14:51:58-04:00*
G04 #@! TF.ProjectId,doublemagfixture,646f7562-6c65-46d6-9167-666978747572,rev?*
G04 #@! TF.SameCoordinates,Original*
G04 #@! TF.FileFunction,Soldermask,Top*
G04 #@! TF.FilePolarity,Negative*
%FSLAX46Y46*%
G04 Gerber Fmt 4.6, Leading zero omitted, Abs format (unit mm)*
G04 Created by KiCad (PCBNEW (5.1.9)-1) date 2021-10-12 14:51:58*
%MOMM*%
%LPD*%
G01*
G04 APERTURE LIST*
%ADD10C,1.800000*%
%ADD11R,1.800000X1.800000*%
%ADD12C,1.524000*%
%ADD13R,1.524000X1.524000*%
%ADD14C,6.400000*%
%ADD15O,1.600000X1.600000*%
%ADD16C,1.600000*%
%ADD17C,2.000000*%
%ADD18R,2.000000X2.000000*%
%ADD19R,3.500000X3.500000*%
G04 APERTURE END LIST*
D10*
X76200000Y-14605000D03*
D11*
X73660000Y-14605000D03*
D10*
X69215000Y-14605000D03*
D11*
X66675000Y-14605000D03*
D10*
X59055000Y-14605000D03*
D11*
X56515000Y-14605000D03*
D10*
X52070000Y-14605000D03*
D11*
X49530000Y-14605000D03*
D10*
X41910000Y-14605000D03*
D11*
X39370000Y-14605000D03*
D10*
X34925000Y-14605000D03*
D11*
X32385000Y-14605000D03*
D10*
X24765000Y-14605000D03*
D11*
X22225000Y-14605000D03*
D10*
X17780000Y-14605000D03*
D11*
X15240000Y-14605000D03*
D12*
X81915000Y-51435000D03*
X81915000Y-53975000D03*
X81915000Y-48895000D03*
X81915000Y-41275000D03*
X81915000Y-38735000D03*
X81915000Y-36195000D03*
X81915000Y-33655000D03*
X81915000Y-31115000D03*
X81915000Y-28575000D03*
X66675000Y-26035000D03*
X66675000Y-28575000D03*
X66675000Y-36195000D03*
X66675000Y-38735000D03*
X66675000Y-41275000D03*
X66675000Y-48895000D03*
X81915000Y-59055000D03*
X81915000Y-56515000D03*
X81915000Y-46355000D03*
X81915000Y-43815000D03*
X81915000Y-26035000D03*
X81915000Y-23495000D03*
X81915000Y-20955000D03*
X66675000Y-20955000D03*
X66675000Y-23495000D03*
X66675000Y-31115000D03*
X66675000Y-33655000D03*
X66675000Y-43815000D03*
X66675000Y-46355000D03*
X66675000Y-51435000D03*
X66675000Y-53975000D03*
X66675000Y-56515000D03*
D13*
X66675000Y-59055000D03*
D12*
X60960000Y-51435000D03*
X60960000Y-53975000D03*
X60960000Y-48895000D03*
X60960000Y-41275000D03*
X60960000Y-38735000D03*
X60960000Y-36195000D03*
X60960000Y-33655000D03*
X60960000Y-31115000D03*
X60960000Y-28575000D03*
X45720000Y-26035000D03*
X45720000Y-28575000D03*
X45720000Y-36195000D03*
X45720000Y-38735000D03*
X45720000Y-41275000D03*
X45720000Y-48895000D03*
X60960000Y-59055000D03*
X60960000Y-56515000D03*
X60960000Y-46355000D03*
X60960000Y-43815000D03*
X60960000Y-26035000D03*
X60960000Y-23495000D03*
X60960000Y-20955000D03*
X45720000Y-20955000D03*
X45720000Y-23495000D03*
X45720000Y-31115000D03*
X45720000Y-33655000D03*
X45720000Y-43815000D03*
X45720000Y-46355000D03*
X45720000Y-51435000D03*
X45720000Y-53975000D03*
X45720000Y-56515000D03*
D13*
X45720000Y-59055000D03*
D12*
X40005000Y-51435000D03*
X40005000Y-53975000D03*
X40005000Y-48895000D03*
X40005000Y-41275000D03*
X40005000Y-38735000D03*
X40005000Y-36195000D03*
X40005000Y-33655000D03*
X40005000Y-31115000D03*
X40005000Y-28575000D03*
X24765000Y-26035000D03*
X24765000Y-28575000D03*
X24765000Y-36195000D03*
X24765000Y-38735000D03*
X24765000Y-41275000D03*
X24765000Y-48895000D03*
X40005000Y-59055000D03*
X40005000Y-56515000D03*
X40005000Y-46355000D03*
X40005000Y-43815000D03*
X40005000Y-26035000D03*
X40005000Y-23495000D03*
X40005000Y-20955000D03*
X24765000Y-20955000D03*
X24765000Y-23495000D03*
X24765000Y-31115000D03*
X24765000Y-33655000D03*
X24765000Y-43815000D03*
X24765000Y-46355000D03*
X24765000Y-51435000D03*
X24765000Y-53975000D03*
X24765000Y-56515000D03*
D13*
X24765000Y-59055000D03*
D12*
X19050000Y-51435000D03*
X19050000Y-53975000D03*
X19050000Y-48895000D03*
X19050000Y-41275000D03*
X19050000Y-38735000D03*
X19050000Y-36195000D03*
X19050000Y-33655000D03*
X19050000Y-31115000D03*
X19050000Y-28575000D03*
X3810000Y-26035000D03*
X3810000Y-28575000D03*
X3810000Y-36195000D03*
X3810000Y-38735000D03*
X3810000Y-41275000D03*
X3810000Y-48895000D03*
X19050000Y-59055000D03*
X19050000Y-56515000D03*
X19050000Y-46355000D03*
X19050000Y-43815000D03*
X19050000Y-26035000D03*
X19050000Y-23495000D03*
X19050000Y-20955000D03*
X3810000Y-20955000D03*
X3810000Y-23495000D03*
X3810000Y-31115000D03*
X3810000Y-33655000D03*
X3810000Y-43815000D03*
X3810000Y-46355000D03*
X3810000Y-51435000D03*
X3810000Y-53975000D03*
X3810000Y-56515000D03*
D13*
X3810000Y-59055000D03*
D14*
X86360000Y-70485000D03*
X5080000Y-70485000D03*
X7620000Y-13970000D03*
D15*
X35560000Y-7620000D03*
D16*
X45720000Y-7620000D03*
D15*
X35560000Y-4445000D03*
D16*
X45720000Y-4445000D03*
D15*
X76835000Y-31115000D03*
D16*
X76835000Y-20955000D03*
D15*
X71755000Y-31115000D03*
D16*
X71755000Y-20955000D03*
D15*
X55880000Y-31115000D03*
D16*
X55880000Y-20955000D03*
D15*
X50800000Y-31115000D03*
D16*
X50800000Y-20955000D03*
D15*
X34925000Y-31115000D03*
D16*
X34925000Y-20955000D03*
D15*
X29845000Y-31115000D03*
D16*
X29845000Y-20955000D03*
D15*
X13970000Y-31115000D03*
D16*
X13970000Y-20955000D03*
D15*
X8890000Y-31115000D03*
D16*
X8890000Y-20955000D03*
D17*
X31750000Y-6350000D03*
X27940000Y-6350000D03*
X24130000Y-6350000D03*
X20320000Y-6350000D03*
X16510000Y-6350000D03*
X12700000Y-6350000D03*
X8890000Y-6350000D03*
D18*
X5080000Y-6350000D03*
D17*
X76200000Y-6350000D03*
X72390000Y-6350000D03*
X68580000Y-6350000D03*
X64770000Y-6350000D03*
X60960000Y-6350000D03*
X57150000Y-6350000D03*
X53340000Y-6350000D03*
D18*
X49530000Y-6350000D03*
D17*
X78105000Y-71120000D03*
X74295000Y-71120000D03*
X70485000Y-71120000D03*
D18*
X66675000Y-71120000D03*
D17*
X42545000Y-71120000D03*
X38735000Y-71120000D03*
X34925000Y-71120000D03*
D18*
X31115000Y-71120000D03*
D17*
X60325000Y-71120000D03*
X56515000Y-71120000D03*
X52705000Y-71120000D03*
D18*
X48895000Y-71120000D03*
D17*
X24765000Y-71120000D03*
X20955000Y-71120000D03*
X17145000Y-71120000D03*
D18*
X13335000Y-71120000D03*
D19*
X80645000Y-12700000D03*
G36*
G01*
X88145000Y-11700000D02*
X88145000Y-13700000D01*
G75*
G02*
X87395000Y-14450000I-750000J0D01*
G01*
X85895000Y-14450000D01*
G75*
G02*
X85145000Y-13700000I0J750000D01*
G01*
X85145000Y-11700000D01*
G75*
G02*
X85895000Y-10950000I750000J0D01*
G01*
X87395000Y-10950000D01*
G75*
G02*
X88145000Y-11700000I0J-750000D01*
G01*
G37*
G36*
G01*
X85395000Y-7125000D02*
X85395000Y-8875000D01*
G75*
G02*
X84520000Y-9750000I-875000J0D01*
G01*
X82770000Y-9750000D01*
G75*
G02*
X81895000Y-8875000I0J875000D01*
G01*
X81895000Y-7125000D01*
G75*
G02*
X82770000Y-6250000I875000J0D01*
G01*
X84520000Y-6250000D01*
G75*
G02*
X85395000Y-7125000I0J-875000D01*
G01*
G37*
M02*
