%FSLAX45Y45*%
G04 Gerber Fmt 4.5, Leading zero omitted, Abs format (unit mm)*
G04 Created by KiCad (PCBNEW (5.1.9)-1) date 2021-10-13 12:16:13*
%MOMM*%
%LPD*%
G01*
G04 APERTURE LIST*
%TA.AperFunction,Profile*%
%ADD10C,0.050000*%
%TD*%
%ADD11C,0.200000*%
%ADD12C,0.300000*%
G04 APERTURE END LIST*
D10*
X6921500Y-8318500D02*
G75*
G02*
X6667500Y-8064500I0J254000D01*
G01*
X16192500Y-8064500D02*
G75*
G02*
X15938500Y-8318500I-254000J0D01*
G01*
X15938500Y-5651500D02*
G75*
G02*
X16192500Y-5905500I0J-254000D01*
G01*
X6667500Y-5905500D02*
G75*
G02*
X6921500Y-5651500I254000J0D01*
G01*
X6667500Y-8064500D02*
X6667500Y-5905500D01*
X15938500Y-8318500D02*
X6921500Y-8318500D01*
X16192500Y-5905500D02*
X16192500Y-8064500D01*
X6921500Y-5651500D02*
X15938500Y-5651500D01*
D11*
X6803000Y-7565000D02*
X6913000Y-7675000D01*
X6913000Y-7565000D02*
X6803000Y-7675000D01*
X7184000Y-7565000D02*
X7294000Y-7675000D01*
X7294000Y-7565000D02*
X7184000Y-7675000D01*
X7565000Y-7565000D02*
X7675000Y-7675000D01*
X7675000Y-7565000D02*
X7565000Y-7675000D01*
X7628500Y-6295000D02*
X7738500Y-6405000D01*
X7738500Y-6295000D02*
X7628500Y-6405000D01*
X7946000Y-7565000D02*
X8056000Y-7675000D01*
X8056000Y-7565000D02*
X7946000Y-7675000D01*
X8009500Y-6295000D02*
X8119500Y-6405000D01*
X8119500Y-6295000D02*
X8009500Y-6405000D01*
X8390500Y-6295000D02*
X8500500Y-6405000D01*
X8500500Y-6295000D02*
X8390500Y-6405000D01*
X8390500Y-7565000D02*
X8500500Y-7675000D01*
X8500500Y-7565000D02*
X8390500Y-7675000D01*
X8771500Y-6295000D02*
X8881500Y-6405000D01*
X8881500Y-6295000D02*
X8771500Y-6405000D01*
X8771500Y-7565000D02*
X8881500Y-7675000D01*
X8881500Y-7565000D02*
X8771500Y-7675000D01*
X9152500Y-7565000D02*
X9262500Y-7675000D01*
X9262500Y-7565000D02*
X9152500Y-7675000D01*
X9216000Y-6295000D02*
X9326000Y-6405000D01*
X9326000Y-6295000D02*
X9216000Y-6405000D01*
X9533500Y-7565000D02*
X9643500Y-7675000D01*
X9643500Y-7565000D02*
X9533500Y-7675000D01*
X9597000Y-6295000D02*
X9707000Y-6405000D01*
X9707000Y-6295000D02*
X9597000Y-6405000D01*
X9978000Y-6295000D02*
X10088000Y-6405000D01*
X10088000Y-6295000D02*
X9978000Y-6405000D01*
X9978000Y-7565000D02*
X10088000Y-7675000D01*
X10088000Y-7565000D02*
X9978000Y-7675000D01*
X10359000Y-6295000D02*
X10469000Y-6405000D01*
X10469000Y-6295000D02*
X10359000Y-6405000D01*
X10359000Y-7565000D02*
X10469000Y-7675000D01*
X10469000Y-7565000D02*
X10359000Y-7675000D01*
X10740000Y-7565000D02*
X10850000Y-7675000D01*
X10850000Y-7565000D02*
X10740000Y-7675000D01*
X10803500Y-6295000D02*
X10913500Y-6405000D01*
X10913500Y-6295000D02*
X10803500Y-6405000D01*
X11121000Y-7565000D02*
X11231000Y-7675000D01*
X11231000Y-7565000D02*
X11121000Y-7675000D01*
X11184500Y-6295000D02*
X11294500Y-6405000D01*
X11294500Y-6295000D02*
X11184500Y-6405000D01*
X11565500Y-6295000D02*
X11675500Y-6405000D01*
X11675500Y-6295000D02*
X11565500Y-6405000D01*
X11629000Y-7565000D02*
X11739000Y-7675000D01*
X11739000Y-7565000D02*
X11629000Y-7675000D01*
X11946500Y-6295000D02*
X12056500Y-6405000D01*
X12056500Y-6295000D02*
X11946500Y-6405000D01*
X12010000Y-7565000D02*
X12120000Y-7675000D01*
X12120000Y-7565000D02*
X12010000Y-7675000D01*
X12391000Y-6295000D02*
X12501000Y-6405000D01*
X12501000Y-6295000D02*
X12391000Y-6405000D01*
X12391000Y-7565000D02*
X12501000Y-7675000D01*
X12501000Y-7565000D02*
X12391000Y-7675000D01*
X12772000Y-6295000D02*
X12882000Y-6405000D01*
X12882000Y-6295000D02*
X12772000Y-6405000D01*
X12772000Y-7565000D02*
X12882000Y-7675000D01*
X12882000Y-7565000D02*
X12772000Y-7675000D01*
X13153000Y-6295000D02*
X13263000Y-6405000D01*
X13263000Y-6295000D02*
X13153000Y-6405000D01*
X13216500Y-7565000D02*
X13326500Y-7675000D01*
X13326500Y-7565000D02*
X13216500Y-7675000D01*
X13534000Y-6295000D02*
X13644000Y-6405000D01*
X13644000Y-6295000D02*
X13534000Y-6405000D01*
X13597500Y-7565000D02*
X13707500Y-7675000D01*
X13707500Y-7565000D02*
X13597500Y-7675000D01*
X13978500Y-6295000D02*
X14088500Y-6405000D01*
X14088500Y-6295000D02*
X13978500Y-6405000D01*
X13978500Y-7565000D02*
X14088500Y-7675000D01*
X14088500Y-7565000D02*
X13978500Y-7675000D01*
X14359500Y-6295000D02*
X14469500Y-6405000D01*
X14469500Y-6295000D02*
X14359500Y-6405000D01*
X14359500Y-7565000D02*
X14469500Y-7675000D01*
X14469500Y-7565000D02*
X14359500Y-7675000D01*
X14740500Y-6295000D02*
X14850500Y-6405000D01*
X14850500Y-6295000D02*
X14740500Y-6405000D01*
X14804000Y-7565000D02*
X14914000Y-7675000D01*
X14914000Y-7565000D02*
X14804000Y-7675000D01*
X15121500Y-6295000D02*
X15231500Y-6405000D01*
X15231500Y-6295000D02*
X15121500Y-6405000D01*
X15185000Y-7565000D02*
X15295000Y-7675000D01*
X15295000Y-7565000D02*
X15185000Y-7675000D01*
X15566000Y-7565000D02*
X15676000Y-7675000D01*
X15676000Y-7565000D02*
X15566000Y-7675000D01*
X15947000Y-7565000D02*
X16057000Y-7675000D01*
X16057000Y-7565000D02*
X15947000Y-7675000D01*
X7272000Y-6858000D02*
G75*
G03*
X7272000Y-6858000I-160000J0D01*
G01*
X15908000Y-6858000D02*
G75*
G03*
X15908000Y-6858000I-160000J0D01*
G01*
D12*
X6951428Y-8786714D02*
X6951428Y-8486714D01*
X7022857Y-8486714D01*
X7065714Y-8501000D01*
X7094286Y-8529572D01*
X7108571Y-8558143D01*
X7122857Y-8615286D01*
X7122857Y-8658143D01*
X7108571Y-8715286D01*
X7094286Y-8743857D01*
X7065714Y-8772429D01*
X7022857Y-8786714D01*
X6951428Y-8786714D01*
X7251428Y-8786714D02*
X7251428Y-8586714D01*
X7251428Y-8643857D02*
X7265714Y-8615286D01*
X7280000Y-8601000D01*
X7308571Y-8586714D01*
X7337143Y-8586714D01*
X7437143Y-8786714D02*
X7437143Y-8586714D01*
X7437143Y-8486714D02*
X7422857Y-8501000D01*
X7437143Y-8515286D01*
X7451428Y-8501000D01*
X7437143Y-8486714D01*
X7437143Y-8515286D01*
X7622857Y-8786714D02*
X7594286Y-8772429D01*
X7580000Y-8743857D01*
X7580000Y-8486714D01*
X7780000Y-8786714D02*
X7751428Y-8772429D01*
X7737143Y-8743857D01*
X7737143Y-8486714D01*
X8122857Y-8786714D02*
X8122857Y-8486714D01*
X8222857Y-8701000D01*
X8322857Y-8486714D01*
X8322857Y-8786714D01*
X8594286Y-8786714D02*
X8594286Y-8629572D01*
X8580000Y-8601000D01*
X8551428Y-8586714D01*
X8494286Y-8586714D01*
X8465714Y-8601000D01*
X8594286Y-8772429D02*
X8565714Y-8786714D01*
X8494286Y-8786714D01*
X8465714Y-8772429D01*
X8451428Y-8743857D01*
X8451428Y-8715286D01*
X8465714Y-8686714D01*
X8494286Y-8672429D01*
X8565714Y-8672429D01*
X8594286Y-8658143D01*
X8737143Y-8586714D02*
X8737143Y-8886714D01*
X8737143Y-8601000D02*
X8765714Y-8586714D01*
X8822857Y-8586714D01*
X8851428Y-8601000D01*
X8865714Y-8615286D01*
X8880000Y-8643857D01*
X8880000Y-8729572D01*
X8865714Y-8758143D01*
X8851428Y-8772429D01*
X8822857Y-8786714D01*
X8765714Y-8786714D01*
X8737143Y-8772429D01*
X9008571Y-8758143D02*
X9022857Y-8772429D01*
X9008571Y-8786714D01*
X8994286Y-8772429D01*
X9008571Y-8758143D01*
X9008571Y-8786714D01*
X9008571Y-8601000D02*
X9022857Y-8615286D01*
X9008571Y-8629572D01*
X8994286Y-8615286D01*
X9008571Y-8601000D01*
X9008571Y-8629572D01*
X6555000Y-9226000D02*
X6665000Y-9336000D01*
X6665000Y-9226000D02*
X6555000Y-9336000D01*
X7108571Y-9416714D02*
X6937143Y-9416714D01*
X7022857Y-9416714D02*
X7022857Y-9116714D01*
X6994286Y-9159572D01*
X6965714Y-9188143D01*
X6937143Y-9202429D01*
X7237143Y-9388143D02*
X7251428Y-9402429D01*
X7237143Y-9416714D01*
X7222857Y-9402429D01*
X7237143Y-9388143D01*
X7237143Y-9416714D01*
X7537143Y-9416714D02*
X7365714Y-9416714D01*
X7451428Y-9416714D02*
X7451428Y-9116714D01*
X7422857Y-9159572D01*
X7394286Y-9188143D01*
X7365714Y-9202429D01*
X7722857Y-9116714D02*
X7751428Y-9116714D01*
X7780000Y-9131000D01*
X7794286Y-9145286D01*
X7808571Y-9173857D01*
X7822857Y-9231000D01*
X7822857Y-9302429D01*
X7808571Y-9359572D01*
X7794286Y-9388143D01*
X7780000Y-9402429D01*
X7751428Y-9416714D01*
X7722857Y-9416714D01*
X7694286Y-9402429D01*
X7680000Y-9388143D01*
X7665714Y-9359572D01*
X7651428Y-9302429D01*
X7651428Y-9231000D01*
X7665714Y-9173857D01*
X7680000Y-9145286D01*
X7694286Y-9131000D01*
X7722857Y-9116714D01*
X7951428Y-9416714D02*
X7951428Y-9216714D01*
X7951428Y-9245286D02*
X7965714Y-9231000D01*
X7994286Y-9216714D01*
X8037143Y-9216714D01*
X8065714Y-9231000D01*
X8080000Y-9259572D01*
X8080000Y-9416714D01*
X8080000Y-9259572D02*
X8094286Y-9231000D01*
X8122857Y-9216714D01*
X8165714Y-9216714D01*
X8194286Y-9231000D01*
X8208571Y-9259572D01*
X8208571Y-9416714D01*
X8351428Y-9416714D02*
X8351428Y-9216714D01*
X8351428Y-9245286D02*
X8365714Y-9231000D01*
X8394286Y-9216714D01*
X8437143Y-9216714D01*
X8465714Y-9231000D01*
X8480000Y-9259572D01*
X8480000Y-9416714D01*
X8480000Y-9259572D02*
X8494286Y-9231000D01*
X8522857Y-9216714D01*
X8565714Y-9216714D01*
X8594286Y-9231000D01*
X8608571Y-9259572D01*
X8608571Y-9416714D01*
X9194286Y-9102429D02*
X8937143Y-9488143D01*
X9580000Y-9116714D02*
X9608571Y-9116714D01*
X9637143Y-9131000D01*
X9651428Y-9145286D01*
X9665714Y-9173857D01*
X9680000Y-9231000D01*
X9680000Y-9302429D01*
X9665714Y-9359572D01*
X9651428Y-9388143D01*
X9637143Y-9402429D01*
X9608571Y-9416714D01*
X9580000Y-9416714D01*
X9551428Y-9402429D01*
X9537143Y-9388143D01*
X9522857Y-9359572D01*
X9508571Y-9302429D01*
X9508571Y-9231000D01*
X9522857Y-9173857D01*
X9537143Y-9145286D01*
X9551428Y-9131000D01*
X9580000Y-9116714D01*
X9808571Y-9388143D02*
X9822857Y-9402429D01*
X9808571Y-9416714D01*
X9794286Y-9402429D01*
X9808571Y-9388143D01*
X9808571Y-9416714D01*
X10008571Y-9116714D02*
X10037143Y-9116714D01*
X10065714Y-9131000D01*
X10080000Y-9145286D01*
X10094286Y-9173857D01*
X10108571Y-9231000D01*
X10108571Y-9302429D01*
X10094286Y-9359572D01*
X10080000Y-9388143D01*
X10065714Y-9402429D01*
X10037143Y-9416714D01*
X10008571Y-9416714D01*
X9980000Y-9402429D01*
X9965714Y-9388143D01*
X9951428Y-9359572D01*
X9937143Y-9302429D01*
X9937143Y-9231000D01*
X9951428Y-9173857D01*
X9965714Y-9145286D01*
X9980000Y-9131000D01*
X10008571Y-9116714D01*
X10365714Y-9216714D02*
X10365714Y-9416714D01*
X10294286Y-9102429D02*
X10222857Y-9316714D01*
X10408571Y-9316714D01*
X10494286Y-9116714D02*
X10680000Y-9116714D01*
X10580000Y-9231000D01*
X10622857Y-9231000D01*
X10651428Y-9245286D01*
X10665714Y-9259572D01*
X10680000Y-9288143D01*
X10680000Y-9359572D01*
X10665714Y-9388143D01*
X10651428Y-9402429D01*
X10622857Y-9416714D01*
X10537143Y-9416714D01*
X10508571Y-9402429D01*
X10494286Y-9388143D01*
X10794286Y-9116714D02*
X10794286Y-9173857D01*
X10908571Y-9116714D02*
X10908571Y-9173857D01*
X11351428Y-9531000D02*
X11337143Y-9516714D01*
X11308571Y-9473857D01*
X11294286Y-9445286D01*
X11280000Y-9402429D01*
X11265714Y-9331000D01*
X11265714Y-9273857D01*
X11280000Y-9202429D01*
X11294286Y-9159572D01*
X11308571Y-9131000D01*
X11337143Y-9088143D01*
X11351428Y-9073857D01*
X11594286Y-9216714D02*
X11594286Y-9416714D01*
X11522857Y-9102429D02*
X11451428Y-9316714D01*
X11637143Y-9316714D01*
X11880000Y-9216714D02*
X11880000Y-9416714D01*
X11808571Y-9102429D02*
X11737143Y-9316714D01*
X11922857Y-9316714D01*
X12265714Y-9416714D02*
X12265714Y-9116714D01*
X12394286Y-9416714D02*
X12394286Y-9259572D01*
X12380000Y-9231000D01*
X12351428Y-9216714D01*
X12308571Y-9216714D01*
X12280000Y-9231000D01*
X12265714Y-9245286D01*
X12580000Y-9416714D02*
X12551428Y-9402429D01*
X12537143Y-9388143D01*
X12522857Y-9359572D01*
X12522857Y-9273857D01*
X12537143Y-9245286D01*
X12551428Y-9231000D01*
X12580000Y-9216714D01*
X12622857Y-9216714D01*
X12651428Y-9231000D01*
X12665714Y-9245286D01*
X12680000Y-9273857D01*
X12680000Y-9359572D01*
X12665714Y-9388143D01*
X12651428Y-9402429D01*
X12622857Y-9416714D01*
X12580000Y-9416714D01*
X12851428Y-9416714D02*
X12822857Y-9402429D01*
X12808571Y-9373857D01*
X12808571Y-9116714D01*
X13080000Y-9402429D02*
X13051428Y-9416714D01*
X12994286Y-9416714D01*
X12965714Y-9402429D01*
X12951428Y-9373857D01*
X12951428Y-9259572D01*
X12965714Y-9231000D01*
X12994286Y-9216714D01*
X13051428Y-9216714D01*
X13080000Y-9231000D01*
X13094286Y-9259572D01*
X13094286Y-9288143D01*
X12951428Y-9316714D01*
X13208571Y-9402429D02*
X13237143Y-9416714D01*
X13294286Y-9416714D01*
X13322857Y-9402429D01*
X13337143Y-9373857D01*
X13337143Y-9359572D01*
X13322857Y-9331000D01*
X13294286Y-9316714D01*
X13251428Y-9316714D01*
X13222857Y-9302429D01*
X13208571Y-9273857D01*
X13208571Y-9259572D01*
X13222857Y-9231000D01*
X13251428Y-9216714D01*
X13294286Y-9216714D01*
X13322857Y-9231000D01*
X13437143Y-9531000D02*
X13451428Y-9516714D01*
X13480000Y-9473857D01*
X13494286Y-9445286D01*
X13508571Y-9402429D01*
X13522857Y-9331000D01*
X13522857Y-9273857D01*
X13508571Y-9202429D01*
X13494286Y-9159572D01*
X13480000Y-9131000D01*
X13451428Y-9088143D01*
X13437143Y-9073857D01*
X6665000Y-9677000D02*
G75*
G03*
X6665000Y-9677000I-160000J0D01*
G01*
X6922857Y-9512714D02*
X7108571Y-9512714D01*
X7008571Y-9627000D01*
X7051428Y-9627000D01*
X7080000Y-9641286D01*
X7094286Y-9655572D01*
X7108571Y-9684143D01*
X7108571Y-9755572D01*
X7094286Y-9784143D01*
X7080000Y-9798429D01*
X7051428Y-9812714D01*
X6965714Y-9812714D01*
X6937143Y-9798429D01*
X6922857Y-9784143D01*
X7237143Y-9784143D02*
X7251428Y-9798429D01*
X7237143Y-9812714D01*
X7222857Y-9798429D01*
X7237143Y-9784143D01*
X7237143Y-9812714D01*
X7365714Y-9541286D02*
X7380000Y-9527000D01*
X7408571Y-9512714D01*
X7480000Y-9512714D01*
X7508571Y-9527000D01*
X7522857Y-9541286D01*
X7537143Y-9569857D01*
X7537143Y-9598429D01*
X7522857Y-9641286D01*
X7351428Y-9812714D01*
X7537143Y-9812714D01*
X7722857Y-9512714D02*
X7751428Y-9512714D01*
X7780000Y-9527000D01*
X7794286Y-9541286D01*
X7808571Y-9569857D01*
X7822857Y-9627000D01*
X7822857Y-9698429D01*
X7808571Y-9755572D01*
X7794286Y-9784143D01*
X7780000Y-9798429D01*
X7751428Y-9812714D01*
X7722857Y-9812714D01*
X7694286Y-9798429D01*
X7680000Y-9784143D01*
X7665714Y-9755572D01*
X7651428Y-9698429D01*
X7651428Y-9627000D01*
X7665714Y-9569857D01*
X7680000Y-9541286D01*
X7694286Y-9527000D01*
X7722857Y-9512714D01*
X7951428Y-9812714D02*
X7951428Y-9612714D01*
X7951428Y-9641286D02*
X7965714Y-9627000D01*
X7994286Y-9612714D01*
X8037143Y-9612714D01*
X8065714Y-9627000D01*
X8080000Y-9655572D01*
X8080000Y-9812714D01*
X8080000Y-9655572D02*
X8094286Y-9627000D01*
X8122857Y-9612714D01*
X8165714Y-9612714D01*
X8194286Y-9627000D01*
X8208571Y-9655572D01*
X8208571Y-9812714D01*
X8351428Y-9812714D02*
X8351428Y-9612714D01*
X8351428Y-9641286D02*
X8365714Y-9627000D01*
X8394286Y-9612714D01*
X8437143Y-9612714D01*
X8465714Y-9627000D01*
X8480000Y-9655572D01*
X8480000Y-9812714D01*
X8480000Y-9655572D02*
X8494286Y-9627000D01*
X8522857Y-9612714D01*
X8565714Y-9612714D01*
X8594286Y-9627000D01*
X8608571Y-9655572D01*
X8608571Y-9812714D01*
X9194286Y-9498429D02*
X8937143Y-9884143D01*
X9580000Y-9512714D02*
X9608571Y-9512714D01*
X9637143Y-9527000D01*
X9651428Y-9541286D01*
X9665714Y-9569857D01*
X9680000Y-9627000D01*
X9680000Y-9698429D01*
X9665714Y-9755572D01*
X9651428Y-9784143D01*
X9637143Y-9798429D01*
X9608571Y-9812714D01*
X9580000Y-9812714D01*
X9551428Y-9798429D01*
X9537143Y-9784143D01*
X9522857Y-9755572D01*
X9508571Y-9698429D01*
X9508571Y-9627000D01*
X9522857Y-9569857D01*
X9537143Y-9541286D01*
X9551428Y-9527000D01*
X9580000Y-9512714D01*
X9808571Y-9784143D02*
X9822857Y-9798429D01*
X9808571Y-9812714D01*
X9794286Y-9798429D01*
X9808571Y-9784143D01*
X9808571Y-9812714D01*
X10108571Y-9812714D02*
X9937143Y-9812714D01*
X10022857Y-9812714D02*
X10022857Y-9512714D01*
X9994286Y-9555572D01*
X9965714Y-9584143D01*
X9937143Y-9598429D01*
X10222857Y-9541286D02*
X10237143Y-9527000D01*
X10265714Y-9512714D01*
X10337143Y-9512714D01*
X10365714Y-9527000D01*
X10380000Y-9541286D01*
X10394286Y-9569857D01*
X10394286Y-9598429D01*
X10380000Y-9641286D01*
X10208571Y-9812714D01*
X10394286Y-9812714D01*
X10651428Y-9512714D02*
X10594286Y-9512714D01*
X10565714Y-9527000D01*
X10551428Y-9541286D01*
X10522857Y-9584143D01*
X10508571Y-9641286D01*
X10508571Y-9755572D01*
X10522857Y-9784143D01*
X10537143Y-9798429D01*
X10565714Y-9812714D01*
X10622857Y-9812714D01*
X10651428Y-9798429D01*
X10665714Y-9784143D01*
X10680000Y-9755572D01*
X10680000Y-9684143D01*
X10665714Y-9655572D01*
X10651428Y-9641286D01*
X10622857Y-9627000D01*
X10565714Y-9627000D01*
X10537143Y-9641286D01*
X10522857Y-9655572D01*
X10508571Y-9684143D01*
X10794286Y-9512714D02*
X10794286Y-9569857D01*
X10908571Y-9512714D02*
X10908571Y-9569857D01*
X11351428Y-9927000D02*
X11337143Y-9912714D01*
X11308571Y-9869857D01*
X11294286Y-9841286D01*
X11280000Y-9798429D01*
X11265714Y-9727000D01*
X11265714Y-9669857D01*
X11280000Y-9598429D01*
X11294286Y-9555572D01*
X11308571Y-9527000D01*
X11337143Y-9484143D01*
X11351428Y-9469857D01*
X11451428Y-9541286D02*
X11465714Y-9527000D01*
X11494286Y-9512714D01*
X11565714Y-9512714D01*
X11594286Y-9527000D01*
X11608571Y-9541286D01*
X11622857Y-9569857D01*
X11622857Y-9598429D01*
X11608571Y-9641286D01*
X11437143Y-9812714D01*
X11622857Y-9812714D01*
X11980000Y-9812714D02*
X11980000Y-9512714D01*
X12108571Y-9812714D02*
X12108571Y-9655572D01*
X12094286Y-9627000D01*
X12065714Y-9612714D01*
X12022857Y-9612714D01*
X11994286Y-9627000D01*
X11980000Y-9641286D01*
X12294286Y-9812714D02*
X12265714Y-9798429D01*
X12251428Y-9784143D01*
X12237143Y-9755572D01*
X12237143Y-9669857D01*
X12251428Y-9641286D01*
X12265714Y-9627000D01*
X12294286Y-9612714D01*
X12337143Y-9612714D01*
X12365714Y-9627000D01*
X12380000Y-9641286D01*
X12394286Y-9669857D01*
X12394286Y-9755572D01*
X12380000Y-9784143D01*
X12365714Y-9798429D01*
X12337143Y-9812714D01*
X12294286Y-9812714D01*
X12565714Y-9812714D02*
X12537143Y-9798429D01*
X12522857Y-9769857D01*
X12522857Y-9512714D01*
X12794286Y-9798429D02*
X12765714Y-9812714D01*
X12708571Y-9812714D01*
X12680000Y-9798429D01*
X12665714Y-9769857D01*
X12665714Y-9655572D01*
X12680000Y-9627000D01*
X12708571Y-9612714D01*
X12765714Y-9612714D01*
X12794286Y-9627000D01*
X12808571Y-9655572D01*
X12808571Y-9684143D01*
X12665714Y-9712714D01*
X12922857Y-9798429D02*
X12951428Y-9812714D01*
X13008571Y-9812714D01*
X13037143Y-9798429D01*
X13051428Y-9769857D01*
X13051428Y-9755572D01*
X13037143Y-9727000D01*
X13008571Y-9712714D01*
X12965714Y-9712714D01*
X12937143Y-9698429D01*
X12922857Y-9669857D01*
X12922857Y-9655572D01*
X12937143Y-9627000D01*
X12965714Y-9612714D01*
X13008571Y-9612714D01*
X13037143Y-9627000D01*
X13151428Y-9927000D02*
X13165714Y-9912714D01*
X13194286Y-9869857D01*
X13208571Y-9841286D01*
X13222857Y-9798429D01*
X13237143Y-9727000D01*
X13237143Y-9669857D01*
X13222857Y-9598429D01*
X13208571Y-9555572D01*
X13194286Y-9527000D01*
X13165714Y-9484143D01*
X13151428Y-9469857D01*
M02*
