G04 #@! TF.GenerationSoftware,KiCad,Pcbnew,(5.1.9)-1*
G04 #@! TF.CreationDate,2021-10-13T12:16:08-04:00*
G04 #@! TF.ProjectId,doublemag-breakout-big,646f7562-6c65-46d6-9167-2d627265616b,rev?*
G04 #@! TF.SameCoordinates,Original*
G04 #@! TF.FileFunction,Soldermask,Bot*
G04 #@! TF.FilePolarity,Negative*
%FSLAX46Y46*%
G04 Gerber Fmt 4.6, Leading zero omitted, Abs format (unit mm)*
G04 Created by KiCad (PCBNEW (5.1.9)-1) date 2021-10-13 12:16:08*
%MOMM*%
%LPD*%
G01*
G04 APERTURE LIST*
%ADD10C,6.400000*%
%ADD11C,2.000000*%
%ADD12R,2.000000X2.000000*%
G04 APERTURE END LIST*
D10*
X157480000Y-68580000D03*
X71120000Y-68580000D03*
D11*
X160020000Y-76200000D03*
X156210000Y-76200000D03*
X152400000Y-76200000D03*
D12*
X148590000Y-76200000D03*
D11*
X144145000Y-76200000D03*
X140335000Y-76200000D03*
X136525000Y-76200000D03*
D12*
X132715000Y-76200000D03*
D11*
X128270000Y-76200000D03*
X124460000Y-76200000D03*
X120650000Y-76200000D03*
D12*
X116840000Y-76200000D03*
D11*
X111760000Y-76200000D03*
X107950000Y-76200000D03*
X104140000Y-76200000D03*
D12*
X100330000Y-76200000D03*
D11*
X95885000Y-76200000D03*
X92075000Y-76200000D03*
X88265000Y-76200000D03*
D12*
X84455000Y-76200000D03*
D11*
X80010000Y-76200000D03*
X76200000Y-76200000D03*
X72390000Y-76200000D03*
D12*
X68580000Y-76200000D03*
D11*
X151765000Y-63500000D03*
X147955000Y-63500000D03*
X144145000Y-63500000D03*
D12*
X140335000Y-63500000D03*
D11*
X135890000Y-63500000D03*
X132080000Y-63500000D03*
X128270000Y-63500000D03*
D12*
X124460000Y-63500000D03*
D11*
X120015000Y-63500000D03*
X116205000Y-63500000D03*
X112395000Y-63500000D03*
D12*
X108585000Y-63500000D03*
D11*
X104140000Y-63500000D03*
X100330000Y-63500000D03*
X96520000Y-63500000D03*
D12*
X92710000Y-63500000D03*
D11*
X88265000Y-63500000D03*
X84455000Y-63500000D03*
X80645000Y-63500000D03*
D12*
X76835000Y-63500000D03*
M02*
