G04 #@! TF.GenerationSoftware,KiCad,Pcbnew,(5.1.9)-1*
G04 #@! TF.CreationDate,2021-10-13T12:16:08-04:00*
G04 #@! TF.ProjectId,doublemag-breakout-big,646f7562-6c65-46d6-9167-2d627265616b,rev?*
G04 #@! TF.SameCoordinates,Original*
G04 #@! TF.FileFunction,Legend,Bot*
G04 #@! TF.FilePolarity,Positive*
%FSLAX46Y46*%
G04 Gerber Fmt 4.6, Leading zero omitted, Abs format (unit mm)*
G04 Created by KiCad (PCBNEW (5.1.9)-1) date 2021-10-13 12:16:08*
%MOMM*%
%LPD*%
G01*
G04 APERTURE LIST*
%ADD10C,0.150000*%
%ADD11C,0.350000*%
%ADD12C,6.400000*%
%ADD13C,2.000000*%
%ADD14R,2.000000X2.000000*%
G04 APERTURE END LIST*
D10*
X155587238Y-80841904D02*
X155587238Y-81413333D01*
X155625333Y-81527619D01*
X155701523Y-81603809D01*
X155815809Y-81641904D01*
X155892000Y-81641904D01*
X154825333Y-81641904D02*
X155206285Y-81641904D01*
X155206285Y-80841904D01*
X154101523Y-81565714D02*
X154139619Y-81603809D01*
X154253904Y-81641904D01*
X154330095Y-81641904D01*
X154444380Y-81603809D01*
X154520571Y-81527619D01*
X154558666Y-81451428D01*
X154596761Y-81299047D01*
X154596761Y-81184761D01*
X154558666Y-81032380D01*
X154520571Y-80956190D01*
X154444380Y-80880000D01*
X154330095Y-80841904D01*
X154253904Y-80841904D01*
X154139619Y-80880000D01*
X154101523Y-80918095D01*
X153530095Y-80841904D02*
X153530095Y-81413333D01*
X153568190Y-81527619D01*
X153644380Y-81603809D01*
X153758666Y-81641904D01*
X153834857Y-81641904D01*
X152768190Y-81641904D02*
X153149142Y-81641904D01*
X153149142Y-80841904D01*
X152044380Y-81565714D02*
X152082476Y-81603809D01*
X152196761Y-81641904D01*
X152272952Y-81641904D01*
X152387238Y-81603809D01*
X152463428Y-81527619D01*
X152501523Y-81451428D01*
X152539619Y-81299047D01*
X152539619Y-81184761D01*
X152501523Y-81032380D01*
X152463428Y-80956190D01*
X152387238Y-80880000D01*
X152272952Y-80841904D01*
X152196761Y-80841904D01*
X152082476Y-80880000D01*
X152044380Y-80918095D01*
X151472952Y-80841904D02*
X151472952Y-81413333D01*
X151511047Y-81527619D01*
X151587238Y-81603809D01*
X151701523Y-81641904D01*
X151777714Y-81641904D01*
X150711047Y-81641904D02*
X151092000Y-81641904D01*
X151092000Y-80841904D01*
X149987238Y-81565714D02*
X150025333Y-81603809D01*
X150139619Y-81641904D01*
X150215809Y-81641904D01*
X150330095Y-81603809D01*
X150406285Y-81527619D01*
X150444380Y-81451428D01*
X150482476Y-81299047D01*
X150482476Y-81184761D01*
X150444380Y-81032380D01*
X150406285Y-80956190D01*
X150330095Y-80880000D01*
X150215809Y-80841904D01*
X150139619Y-80841904D01*
X150025333Y-80880000D01*
X149987238Y-80918095D01*
X149415809Y-80841904D02*
X149415809Y-81413333D01*
X149453904Y-81527619D01*
X149530095Y-81603809D01*
X149644380Y-81641904D01*
X149720571Y-81641904D01*
X148653904Y-81641904D02*
X149034857Y-81641904D01*
X149034857Y-80841904D01*
X147930095Y-81565714D02*
X147968190Y-81603809D01*
X148082476Y-81641904D01*
X148158666Y-81641904D01*
X148272952Y-81603809D01*
X148349142Y-81527619D01*
X148387238Y-81451428D01*
X148425333Y-81299047D01*
X148425333Y-81184761D01*
X148387238Y-81032380D01*
X148349142Y-80956190D01*
X148272952Y-80880000D01*
X148158666Y-80841904D01*
X148082476Y-80841904D01*
X147968190Y-80880000D01*
X147930095Y-80918095D01*
D11*
X114300000Y-82550000D02*
X114300000Y-72390000D01*
X127635000Y-69850000D02*
X149860000Y-69850000D01*
X78740000Y-69850000D02*
X100965000Y-69850000D01*
D10*
X126204761Y-69477380D02*
X126204761Y-68477380D01*
X125966666Y-68477380D01*
X125823809Y-68525000D01*
X125728571Y-68620238D01*
X125680952Y-68715476D01*
X125633333Y-68905952D01*
X125633333Y-69048809D01*
X125680952Y-69239285D01*
X125728571Y-69334523D01*
X125823809Y-69429761D01*
X125966666Y-69477380D01*
X126204761Y-69477380D01*
X124823809Y-69429761D02*
X124919047Y-69477380D01*
X125109523Y-69477380D01*
X125204761Y-69429761D01*
X125252380Y-69334523D01*
X125252380Y-68953571D01*
X125204761Y-68858333D01*
X125109523Y-68810714D01*
X124919047Y-68810714D01*
X124823809Y-68858333D01*
X124776190Y-68953571D01*
X124776190Y-69048809D01*
X125252380Y-69144047D01*
X124395238Y-69429761D02*
X124300000Y-69477380D01*
X124109523Y-69477380D01*
X124014285Y-69429761D01*
X123966666Y-69334523D01*
X123966666Y-69286904D01*
X124014285Y-69191666D01*
X124109523Y-69144047D01*
X124252380Y-69144047D01*
X124347619Y-69096428D01*
X124395238Y-69001190D01*
X124395238Y-68953571D01*
X124347619Y-68858333D01*
X124252380Y-68810714D01*
X124109523Y-68810714D01*
X124014285Y-68858333D01*
X123538095Y-69477380D02*
X123538095Y-68810714D01*
X123538095Y-68477380D02*
X123585714Y-68525000D01*
X123538095Y-68572619D01*
X123490476Y-68525000D01*
X123538095Y-68477380D01*
X123538095Y-68572619D01*
X122633333Y-68810714D02*
X122633333Y-69620238D01*
X122680952Y-69715476D01*
X122728571Y-69763095D01*
X122823809Y-69810714D01*
X122966666Y-69810714D01*
X123061904Y-69763095D01*
X122633333Y-69429761D02*
X122728571Y-69477380D01*
X122919047Y-69477380D01*
X123014285Y-69429761D01*
X123061904Y-69382142D01*
X123109523Y-69286904D01*
X123109523Y-69001190D01*
X123061904Y-68905952D01*
X123014285Y-68858333D01*
X122919047Y-68810714D01*
X122728571Y-68810714D01*
X122633333Y-68858333D01*
X122157142Y-68810714D02*
X122157142Y-69477380D01*
X122157142Y-68905952D02*
X122109523Y-68858333D01*
X122014285Y-68810714D01*
X121871428Y-68810714D01*
X121776190Y-68858333D01*
X121728571Y-68953571D01*
X121728571Y-69477380D01*
X120871428Y-69429761D02*
X120966666Y-69477380D01*
X121157142Y-69477380D01*
X121252380Y-69429761D01*
X121300000Y-69334523D01*
X121300000Y-68953571D01*
X121252380Y-68858333D01*
X121157142Y-68810714D01*
X120966666Y-68810714D01*
X120871428Y-68858333D01*
X120823809Y-68953571D01*
X120823809Y-69048809D01*
X121300000Y-69144047D01*
X119966666Y-69477380D02*
X119966666Y-68477380D01*
X119966666Y-69429761D02*
X120061904Y-69477380D01*
X120252380Y-69477380D01*
X120347619Y-69429761D01*
X120395238Y-69382142D01*
X120442857Y-69286904D01*
X120442857Y-69001190D01*
X120395238Y-68905952D01*
X120347619Y-68858333D01*
X120252380Y-68810714D01*
X120061904Y-68810714D01*
X119966666Y-68858333D01*
X118871428Y-68810714D02*
X118490476Y-68810714D01*
X118728571Y-69477380D02*
X118728571Y-68620238D01*
X118680952Y-68525000D01*
X118585714Y-68477380D01*
X118490476Y-68477380D01*
X118014285Y-69477380D02*
X118109523Y-69429761D01*
X118157142Y-69382142D01*
X118204761Y-69286904D01*
X118204761Y-69001190D01*
X118157142Y-68905952D01*
X118109523Y-68858333D01*
X118014285Y-68810714D01*
X117871428Y-68810714D01*
X117776190Y-68858333D01*
X117728571Y-68905952D01*
X117680952Y-69001190D01*
X117680952Y-69286904D01*
X117728571Y-69382142D01*
X117776190Y-69429761D01*
X117871428Y-69477380D01*
X118014285Y-69477380D01*
X117252380Y-69477380D02*
X117252380Y-68810714D01*
X117252380Y-69001190D02*
X117204761Y-68905952D01*
X117157142Y-68858333D01*
X117061904Y-68810714D01*
X116966666Y-68810714D01*
X115347619Y-69477380D02*
X115919047Y-69477380D01*
X115633333Y-69477380D02*
X115633333Y-68477380D01*
X115728571Y-68620238D01*
X115823809Y-68715476D01*
X115919047Y-68763095D01*
X115014285Y-69477380D02*
X114490476Y-68810714D01*
X115014285Y-68810714D02*
X114490476Y-69477380D01*
X113680952Y-68810714D02*
X113680952Y-69477380D01*
X113919047Y-68429761D02*
X114157142Y-69144047D01*
X113538095Y-69144047D01*
X112490476Y-68477380D02*
X111871428Y-68477380D01*
X112204761Y-68858333D01*
X112061904Y-68858333D01*
X111966666Y-68905952D01*
X111919047Y-68953571D01*
X111871428Y-69048809D01*
X111871428Y-69286904D01*
X111919047Y-69382142D01*
X111966666Y-69429761D01*
X112061904Y-69477380D01*
X112347619Y-69477380D01*
X112442857Y-69429761D01*
X112490476Y-69382142D01*
X111442857Y-69382142D02*
X111395238Y-69429761D01*
X111442857Y-69477380D01*
X111490476Y-69429761D01*
X111442857Y-69382142D01*
X111442857Y-69477380D01*
X110823809Y-68905952D02*
X110919047Y-68858333D01*
X110966666Y-68810714D01*
X111014285Y-68715476D01*
X111014285Y-68667857D01*
X110966666Y-68572619D01*
X110919047Y-68525000D01*
X110823809Y-68477380D01*
X110633333Y-68477380D01*
X110538095Y-68525000D01*
X110490476Y-68572619D01*
X110442857Y-68667857D01*
X110442857Y-68715476D01*
X110490476Y-68810714D01*
X110538095Y-68858333D01*
X110633333Y-68905952D01*
X110823809Y-68905952D01*
X110919047Y-68953571D01*
X110966666Y-69001190D01*
X111014285Y-69096428D01*
X111014285Y-69286904D01*
X110966666Y-69382142D01*
X110919047Y-69429761D01*
X110823809Y-69477380D01*
X110633333Y-69477380D01*
X110538095Y-69429761D01*
X110490476Y-69382142D01*
X110442857Y-69286904D01*
X110442857Y-69096428D01*
X110490476Y-69001190D01*
X110538095Y-68953571D01*
X110633333Y-68905952D01*
X109490476Y-69477380D02*
X110061904Y-69477380D01*
X109776190Y-69477380D02*
X109776190Y-68477380D01*
X109871428Y-68620238D01*
X109966666Y-68715476D01*
X110061904Y-68763095D01*
X109061904Y-69477380D02*
X109061904Y-68810714D01*
X109061904Y-68905952D02*
X109014285Y-68858333D01*
X108919047Y-68810714D01*
X108776190Y-68810714D01*
X108680952Y-68858333D01*
X108633333Y-68953571D01*
X108633333Y-69477380D01*
X108633333Y-68953571D02*
X108585714Y-68858333D01*
X108490476Y-68810714D01*
X108347619Y-68810714D01*
X108252380Y-68858333D01*
X108204761Y-68953571D01*
X108204761Y-69477380D01*
X107728571Y-69477380D02*
X107728571Y-68810714D01*
X107728571Y-68905952D02*
X107680952Y-68858333D01*
X107585714Y-68810714D01*
X107442857Y-68810714D01*
X107347619Y-68858333D01*
X107300000Y-68953571D01*
X107300000Y-69477380D01*
X107300000Y-68953571D02*
X107252380Y-68858333D01*
X107157142Y-68810714D01*
X107014285Y-68810714D01*
X106919047Y-68858333D01*
X106871428Y-68953571D01*
X106871428Y-69477380D01*
X105633333Y-68810714D02*
X105633333Y-69810714D01*
X105633333Y-68858333D02*
X105538095Y-68810714D01*
X105347619Y-68810714D01*
X105252380Y-68858333D01*
X105204761Y-68905952D01*
X105157142Y-69001190D01*
X105157142Y-69286904D01*
X105204761Y-69382142D01*
X105252380Y-69429761D01*
X105347619Y-69477380D01*
X105538095Y-69477380D01*
X105633333Y-69429761D01*
X104728571Y-69477380D02*
X104728571Y-68810714D01*
X104728571Y-68477380D02*
X104776190Y-68525000D01*
X104728571Y-68572619D01*
X104680952Y-68525000D01*
X104728571Y-68477380D01*
X104728571Y-68572619D01*
X104395238Y-68810714D02*
X104014285Y-68810714D01*
X104252380Y-68477380D02*
X104252380Y-69334523D01*
X104204761Y-69429761D01*
X104109523Y-69477380D01*
X104014285Y-69477380D01*
X103252380Y-69429761D02*
X103347619Y-69477380D01*
X103538095Y-69477380D01*
X103633333Y-69429761D01*
X103680952Y-69382142D01*
X103728571Y-69286904D01*
X103728571Y-69001190D01*
X103680952Y-68905952D01*
X103633333Y-68858333D01*
X103538095Y-68810714D01*
X103347619Y-68810714D01*
X103252380Y-68858333D01*
X102823809Y-69477380D02*
X102823809Y-68477380D01*
X102395238Y-69477380D02*
X102395238Y-68953571D01*
X102442857Y-68858333D01*
X102538095Y-68810714D01*
X102680952Y-68810714D01*
X102776190Y-68858333D01*
X102823809Y-68905952D01*
X120252380Y-71079761D02*
X120109523Y-71127380D01*
X119871428Y-71127380D01*
X119776190Y-71079761D01*
X119728571Y-71032142D01*
X119680952Y-70936904D01*
X119680952Y-70841666D01*
X119728571Y-70746428D01*
X119776190Y-70698809D01*
X119871428Y-70651190D01*
X120061904Y-70603571D01*
X120157142Y-70555952D01*
X120204761Y-70508333D01*
X120252380Y-70413095D01*
X120252380Y-70317857D01*
X120204761Y-70222619D01*
X120157142Y-70175000D01*
X120061904Y-70127380D01*
X119823809Y-70127380D01*
X119680952Y-70175000D01*
X118823809Y-71079761D02*
X118919047Y-71127380D01*
X119109523Y-71127380D01*
X119204761Y-71079761D01*
X119252380Y-71032142D01*
X119300000Y-70936904D01*
X119300000Y-70651190D01*
X119252380Y-70555952D01*
X119204761Y-70508333D01*
X119109523Y-70460714D01*
X118919047Y-70460714D01*
X118823809Y-70508333D01*
X118395238Y-71127380D02*
X118395238Y-70460714D01*
X118395238Y-70651190D02*
X118347619Y-70555952D01*
X118300000Y-70508333D01*
X118204761Y-70460714D01*
X118109523Y-70460714D01*
X117395238Y-71079761D02*
X117490476Y-71127380D01*
X117680952Y-71127380D01*
X117776190Y-71079761D01*
X117823809Y-70984523D01*
X117823809Y-70603571D01*
X117776190Y-70508333D01*
X117680952Y-70460714D01*
X117490476Y-70460714D01*
X117395238Y-70508333D01*
X117347619Y-70603571D01*
X117347619Y-70698809D01*
X117823809Y-70794047D01*
X117014285Y-70460714D02*
X116823809Y-71127380D01*
X116633333Y-70651190D01*
X116442857Y-71127380D01*
X116252380Y-70460714D01*
X115252380Y-70127380D02*
X114680952Y-70127380D01*
X114966666Y-71127380D02*
X114966666Y-70127380D01*
X113966666Y-71079761D02*
X114061904Y-71127380D01*
X114252380Y-71127380D01*
X114347619Y-71079761D01*
X114395238Y-70984523D01*
X114395238Y-70603571D01*
X114347619Y-70508333D01*
X114252380Y-70460714D01*
X114061904Y-70460714D01*
X113966666Y-70508333D01*
X113919047Y-70603571D01*
X113919047Y-70698809D01*
X114395238Y-70794047D01*
X113490476Y-71127380D02*
X113490476Y-70460714D01*
X113490476Y-70651190D02*
X113442857Y-70555952D01*
X113395238Y-70508333D01*
X113300000Y-70460714D01*
X113204761Y-70460714D01*
X112871428Y-71127380D02*
X112871428Y-70460714D01*
X112871428Y-70555952D02*
X112823809Y-70508333D01*
X112728571Y-70460714D01*
X112585714Y-70460714D01*
X112490476Y-70508333D01*
X112442857Y-70603571D01*
X112442857Y-71127380D01*
X112442857Y-70603571D02*
X112395238Y-70508333D01*
X112300000Y-70460714D01*
X112157142Y-70460714D01*
X112061904Y-70508333D01*
X112014285Y-70603571D01*
X112014285Y-71127380D01*
X111538095Y-71127380D02*
X111538095Y-70460714D01*
X111538095Y-70127380D02*
X111585714Y-70175000D01*
X111538095Y-70222619D01*
X111490476Y-70175000D01*
X111538095Y-70127380D01*
X111538095Y-70222619D01*
X111061904Y-70460714D02*
X111061904Y-71127380D01*
X111061904Y-70555952D02*
X111014285Y-70508333D01*
X110919047Y-70460714D01*
X110776190Y-70460714D01*
X110680952Y-70508333D01*
X110633333Y-70603571D01*
X110633333Y-71127380D01*
X109728571Y-71127380D02*
X109728571Y-70603571D01*
X109776190Y-70508333D01*
X109871428Y-70460714D01*
X110061904Y-70460714D01*
X110157142Y-70508333D01*
X109728571Y-71079761D02*
X109823809Y-71127380D01*
X110061904Y-71127380D01*
X110157142Y-71079761D01*
X110204761Y-70984523D01*
X110204761Y-70889285D01*
X110157142Y-70794047D01*
X110061904Y-70746428D01*
X109823809Y-70746428D01*
X109728571Y-70698809D01*
X109109523Y-71127380D02*
X109204761Y-71079761D01*
X109252380Y-70984523D01*
X109252380Y-70127380D01*
X108776190Y-71079761D02*
X108680952Y-71127380D01*
X108490476Y-71127380D01*
X108395238Y-71079761D01*
X108347619Y-70984523D01*
X108347619Y-70936904D01*
X108395238Y-70841666D01*
X108490476Y-70794047D01*
X108633333Y-70794047D01*
X108728571Y-70746428D01*
X108776190Y-70651190D01*
X108776190Y-70603571D01*
X108728571Y-70508333D01*
X108633333Y-70460714D01*
X108490476Y-70460714D01*
X108395238Y-70508333D01*
%LPC*%
D12*
X157480000Y-68580000D03*
X71120000Y-68580000D03*
D13*
X160020000Y-76200000D03*
X156210000Y-76200000D03*
X152400000Y-76200000D03*
D14*
X148590000Y-76200000D03*
D13*
X144145000Y-76200000D03*
X140335000Y-76200000D03*
X136525000Y-76200000D03*
D14*
X132715000Y-76200000D03*
D13*
X128270000Y-76200000D03*
X124460000Y-76200000D03*
X120650000Y-76200000D03*
D14*
X116840000Y-76200000D03*
D13*
X111760000Y-76200000D03*
X107950000Y-76200000D03*
X104140000Y-76200000D03*
D14*
X100330000Y-76200000D03*
D13*
X95885000Y-76200000D03*
X92075000Y-76200000D03*
X88265000Y-76200000D03*
D14*
X84455000Y-76200000D03*
D13*
X80010000Y-76200000D03*
X76200000Y-76200000D03*
X72390000Y-76200000D03*
D14*
X68580000Y-76200000D03*
D13*
X151765000Y-63500000D03*
X147955000Y-63500000D03*
X144145000Y-63500000D03*
D14*
X140335000Y-63500000D03*
D13*
X135890000Y-63500000D03*
X132080000Y-63500000D03*
X128270000Y-63500000D03*
D14*
X124460000Y-63500000D03*
D13*
X120015000Y-63500000D03*
X116205000Y-63500000D03*
X112395000Y-63500000D03*
D14*
X108585000Y-63500000D03*
D13*
X104140000Y-63500000D03*
X100330000Y-63500000D03*
X96520000Y-63500000D03*
D14*
X92710000Y-63500000D03*
D13*
X88265000Y-63500000D03*
X84455000Y-63500000D03*
X80645000Y-63500000D03*
D14*
X76835000Y-63500000D03*
M02*
