G04 #@! TF.GenerationSoftware,KiCad,Pcbnew,(5.1.9)-1*
G04 #@! TF.CreationDate,2021-10-13T12:16:08-04:00*
G04 #@! TF.ProjectId,doublemag-breakout-big,646f7562-6c65-46d6-9167-2d627265616b,rev?*
G04 #@! TF.SameCoordinates,Original*
G04 #@! TF.FileFunction,Legend,Top*
G04 #@! TF.FilePolarity,Positive*
%FSLAX46Y46*%
G04 Gerber Fmt 4.6, Leading zero omitted, Abs format (unit mm)*
G04 Created by KiCad (PCBNEW (5.1.9)-1) date 2021-10-13 12:16:08*
%MOMM*%
%LPD*%
G01*
G04 APERTURE LIST*
%ADD10C,0.200000*%
%ADD11C,0.150000*%
%ADD12C,0.350000*%
%ADD13C,6.400000*%
%ADD14C,2.000000*%
%ADD15R,2.000000X2.000000*%
G04 APERTURE END LIST*
D10*
X82232500Y-79692500D02*
X82232500Y-82550000D01*
X98107500Y-79692500D02*
X98107500Y-82550000D01*
X130492500Y-79692500D02*
X130492500Y-82550000D01*
X146367500Y-79692500D02*
X146367500Y-82550000D01*
X138112500Y-57150000D02*
X138112500Y-60007500D01*
X122237500Y-57150000D02*
X122237500Y-60007500D01*
X106362500Y-57150000D02*
X106362500Y-60007500D01*
X90487500Y-57150000D02*
X90487500Y-60007500D01*
D11*
X151638095Y-80145000D02*
X151542857Y-80097380D01*
X151400000Y-80097380D01*
X151257142Y-80145000D01*
X151161904Y-80240238D01*
X151114285Y-80335476D01*
X151066666Y-80525952D01*
X151066666Y-80668809D01*
X151114285Y-80859285D01*
X151161904Y-80954523D01*
X151257142Y-81049761D01*
X151400000Y-81097380D01*
X151495238Y-81097380D01*
X151638095Y-81049761D01*
X151685714Y-81002142D01*
X151685714Y-80668809D01*
X151495238Y-80668809D01*
X152114285Y-81097380D02*
X152114285Y-80097380D01*
X152685714Y-81097380D01*
X152685714Y-80097380D01*
X153161904Y-81097380D02*
X153161904Y-80097380D01*
X153400000Y-80097380D01*
X153542857Y-80145000D01*
X153638095Y-80240238D01*
X153685714Y-80335476D01*
X153733333Y-80525952D01*
X153733333Y-80668809D01*
X153685714Y-80859285D01*
X153638095Y-80954523D01*
X153542857Y-81049761D01*
X153400000Y-81097380D01*
X153161904Y-81097380D01*
X148232857Y-81097380D02*
X148137619Y-81049761D01*
X148090000Y-80954523D01*
X148090000Y-80097380D01*
X149137619Y-81097380D02*
X148566190Y-81097380D01*
X148851904Y-81097380D02*
X148851904Y-80097380D01*
X148756666Y-80240238D01*
X148661428Y-80335476D01*
X148566190Y-80383095D01*
X159234285Y-81097380D02*
X159234285Y-80097380D01*
X159805714Y-81097380D01*
X159805714Y-80097380D01*
X160853333Y-81002142D02*
X160805714Y-81049761D01*
X160662857Y-81097380D01*
X160567619Y-81097380D01*
X160424761Y-81049761D01*
X160329523Y-80954523D01*
X160281904Y-80859285D01*
X160234285Y-80668809D01*
X160234285Y-80525952D01*
X160281904Y-80335476D01*
X160329523Y-80240238D01*
X160424761Y-80145000D01*
X160567619Y-80097380D01*
X160662857Y-80097380D01*
X160805714Y-80145000D01*
X160853333Y-80192619D01*
X155424285Y-81097380D02*
X155424285Y-80097380D01*
X155995714Y-81097380D01*
X155995714Y-80097380D01*
X157043333Y-81002142D02*
X156995714Y-81049761D01*
X156852857Y-81097380D01*
X156757619Y-81097380D01*
X156614761Y-81049761D01*
X156519523Y-80954523D01*
X156471904Y-80859285D01*
X156424285Y-80668809D01*
X156424285Y-80525952D01*
X156471904Y-80335476D01*
X156519523Y-80240238D01*
X156614761Y-80145000D01*
X156757619Y-80097380D01*
X156852857Y-80097380D01*
X156995714Y-80145000D01*
X157043333Y-80192619D01*
X110974285Y-81097380D02*
X110974285Y-80097380D01*
X111545714Y-81097380D01*
X111545714Y-80097380D01*
X112593333Y-81002142D02*
X112545714Y-81049761D01*
X112402857Y-81097380D01*
X112307619Y-81097380D01*
X112164761Y-81049761D01*
X112069523Y-80954523D01*
X112021904Y-80859285D01*
X111974285Y-80668809D01*
X111974285Y-80525952D01*
X112021904Y-80335476D01*
X112069523Y-80240238D01*
X112164761Y-80145000D01*
X112307619Y-80097380D01*
X112402857Y-80097380D01*
X112545714Y-80145000D01*
X112593333Y-80192619D01*
X107164285Y-81097380D02*
X107164285Y-80097380D01*
X107735714Y-81097380D01*
X107735714Y-80097380D01*
X108783333Y-81002142D02*
X108735714Y-81049761D01*
X108592857Y-81097380D01*
X108497619Y-81097380D01*
X108354761Y-81049761D01*
X108259523Y-80954523D01*
X108211904Y-80859285D01*
X108164285Y-80668809D01*
X108164285Y-80525952D01*
X108211904Y-80335476D01*
X108259523Y-80240238D01*
X108354761Y-80145000D01*
X108497619Y-80097380D01*
X108592857Y-80097380D01*
X108735714Y-80145000D01*
X108783333Y-80192619D01*
X103378095Y-80145000D02*
X103282857Y-80097380D01*
X103140000Y-80097380D01*
X102997142Y-80145000D01*
X102901904Y-80240238D01*
X102854285Y-80335476D01*
X102806666Y-80525952D01*
X102806666Y-80668809D01*
X102854285Y-80859285D01*
X102901904Y-80954523D01*
X102997142Y-81049761D01*
X103140000Y-81097380D01*
X103235238Y-81097380D01*
X103378095Y-81049761D01*
X103425714Y-81002142D01*
X103425714Y-80668809D01*
X103235238Y-80668809D01*
X103854285Y-81097380D02*
X103854285Y-80097380D01*
X104425714Y-81097380D01*
X104425714Y-80097380D01*
X104901904Y-81097380D02*
X104901904Y-80097380D01*
X105140000Y-80097380D01*
X105282857Y-80145000D01*
X105378095Y-80240238D01*
X105425714Y-80335476D01*
X105473333Y-80525952D01*
X105473333Y-80668809D01*
X105425714Y-80859285D01*
X105378095Y-80954523D01*
X105282857Y-81049761D01*
X105140000Y-81097380D01*
X104901904Y-81097380D01*
X99972857Y-81097380D02*
X99877619Y-81049761D01*
X99830000Y-80954523D01*
X99830000Y-80097380D01*
X100544285Y-80097380D02*
X100639523Y-80097380D01*
X100734761Y-80145000D01*
X100782380Y-80192619D01*
X100830000Y-80287857D01*
X100877619Y-80478333D01*
X100877619Y-80716428D01*
X100830000Y-80906904D01*
X100782380Y-81002142D01*
X100734761Y-81049761D01*
X100639523Y-81097380D01*
X100544285Y-81097380D01*
X100449047Y-81049761D01*
X100401428Y-81002142D01*
X100353809Y-80906904D01*
X100306190Y-80716428D01*
X100306190Y-80478333D01*
X100353809Y-80287857D01*
X100401428Y-80192619D01*
X100449047Y-80145000D01*
X100544285Y-80097380D01*
X150979285Y-59507380D02*
X150979285Y-58507380D01*
X151550714Y-59507380D01*
X151550714Y-58507380D01*
X152598333Y-59412142D02*
X152550714Y-59459761D01*
X152407857Y-59507380D01*
X152312619Y-59507380D01*
X152169761Y-59459761D01*
X152074523Y-59364523D01*
X152026904Y-59269285D01*
X151979285Y-59078809D01*
X151979285Y-58935952D01*
X152026904Y-58745476D01*
X152074523Y-58650238D01*
X152169761Y-58555000D01*
X152312619Y-58507380D01*
X152407857Y-58507380D01*
X152550714Y-58555000D01*
X152598333Y-58602619D01*
X147193095Y-58555000D02*
X147097857Y-58507380D01*
X146955000Y-58507380D01*
X146812142Y-58555000D01*
X146716904Y-58650238D01*
X146669285Y-58745476D01*
X146621666Y-58935952D01*
X146621666Y-59078809D01*
X146669285Y-59269285D01*
X146716904Y-59364523D01*
X146812142Y-59459761D01*
X146955000Y-59507380D01*
X147050238Y-59507380D01*
X147193095Y-59459761D01*
X147240714Y-59412142D01*
X147240714Y-59078809D01*
X147050238Y-59078809D01*
X147669285Y-59507380D02*
X147669285Y-58507380D01*
X148240714Y-59507380D01*
X148240714Y-58507380D01*
X148716904Y-59507380D02*
X148716904Y-58507380D01*
X148955000Y-58507380D01*
X149097857Y-58555000D01*
X149193095Y-58650238D01*
X149240714Y-58745476D01*
X149288333Y-58935952D01*
X149288333Y-59078809D01*
X149240714Y-59269285D01*
X149193095Y-59364523D01*
X149097857Y-59459761D01*
X148955000Y-59507380D01*
X148716904Y-59507380D01*
X143787857Y-59507380D02*
X143692619Y-59459761D01*
X143645000Y-59364523D01*
X143645000Y-58507380D01*
X144692619Y-59507380D02*
X144121190Y-59507380D01*
X144406904Y-59507380D02*
X144406904Y-58507380D01*
X144311666Y-58650238D01*
X144216428Y-58745476D01*
X144121190Y-58793095D01*
X139977857Y-59507380D02*
X139882619Y-59459761D01*
X139835000Y-59364523D01*
X139835000Y-58507380D01*
X140549285Y-58507380D02*
X140644523Y-58507380D01*
X140739761Y-58555000D01*
X140787380Y-58602619D01*
X140835000Y-58697857D01*
X140882619Y-58888333D01*
X140882619Y-59126428D01*
X140835000Y-59316904D01*
X140787380Y-59412142D01*
X140739761Y-59459761D01*
X140644523Y-59507380D01*
X140549285Y-59507380D01*
X140454047Y-59459761D01*
X140406428Y-59412142D01*
X140358809Y-59316904D01*
X140311190Y-59126428D01*
X140311190Y-58888333D01*
X140358809Y-58697857D01*
X140406428Y-58602619D01*
X140454047Y-58555000D01*
X140549285Y-58507380D01*
X79462380Y-80573571D02*
X79605238Y-80621190D01*
X79652857Y-80668809D01*
X79700476Y-80764047D01*
X79700476Y-80906904D01*
X79652857Y-81002142D01*
X79605238Y-81049761D01*
X79510000Y-81097380D01*
X79129047Y-81097380D01*
X79129047Y-80097380D01*
X79462380Y-80097380D01*
X79557619Y-80145000D01*
X79605238Y-80192619D01*
X79652857Y-80287857D01*
X79652857Y-80383095D01*
X79605238Y-80478333D01*
X79557619Y-80525952D01*
X79462380Y-80573571D01*
X79129047Y-80573571D01*
X80129047Y-80716428D02*
X80890952Y-80716428D01*
X80510000Y-81097380D02*
X80510000Y-80335476D01*
X71532857Y-80811666D02*
X72009047Y-80811666D01*
X71437619Y-81097380D02*
X71770952Y-80097380D01*
X72104285Y-81097380D01*
X72437619Y-80716428D02*
X73199523Y-80716428D01*
X72818571Y-81097380D02*
X72818571Y-80335476D01*
X75652380Y-80573571D02*
X75795238Y-80621190D01*
X75842857Y-80668809D01*
X75890476Y-80764047D01*
X75890476Y-80906904D01*
X75842857Y-81002142D01*
X75795238Y-81049761D01*
X75700000Y-81097380D01*
X75319047Y-81097380D01*
X75319047Y-80097380D01*
X75652380Y-80097380D01*
X75747619Y-80145000D01*
X75795238Y-80192619D01*
X75842857Y-80287857D01*
X75842857Y-80383095D01*
X75795238Y-80478333D01*
X75747619Y-80525952D01*
X75652380Y-80573571D01*
X75319047Y-80573571D01*
X76319047Y-80716428D02*
X77080952Y-80716428D01*
X67722857Y-80811666D02*
X68199047Y-80811666D01*
X67627619Y-81097380D02*
X67960952Y-80097380D01*
X68294285Y-81097380D01*
X68627619Y-80716428D02*
X69389523Y-80716428D01*
X87407857Y-80811666D02*
X87884047Y-80811666D01*
X87312619Y-81097380D02*
X87645952Y-80097380D01*
X87979285Y-81097380D01*
X88312619Y-80716428D02*
X89074523Y-80716428D01*
X88693571Y-81097380D02*
X88693571Y-80335476D01*
X83597857Y-80811666D02*
X84074047Y-80811666D01*
X83502619Y-81097380D02*
X83835952Y-80097380D01*
X84169285Y-81097380D01*
X84502619Y-80716428D02*
X85264523Y-80716428D01*
X95337380Y-80573571D02*
X95480238Y-80621190D01*
X95527857Y-80668809D01*
X95575476Y-80764047D01*
X95575476Y-80906904D01*
X95527857Y-81002142D01*
X95480238Y-81049761D01*
X95385000Y-81097380D01*
X95004047Y-81097380D01*
X95004047Y-80097380D01*
X95337380Y-80097380D01*
X95432619Y-80145000D01*
X95480238Y-80192619D01*
X95527857Y-80287857D01*
X95527857Y-80383095D01*
X95480238Y-80478333D01*
X95432619Y-80525952D01*
X95337380Y-80573571D01*
X95004047Y-80573571D01*
X96004047Y-80716428D02*
X96765952Y-80716428D01*
X96385000Y-81097380D02*
X96385000Y-80335476D01*
X91527380Y-80573571D02*
X91670238Y-80621190D01*
X91717857Y-80668809D01*
X91765476Y-80764047D01*
X91765476Y-80906904D01*
X91717857Y-81002142D01*
X91670238Y-81049761D01*
X91575000Y-81097380D01*
X91194047Y-81097380D01*
X91194047Y-80097380D01*
X91527380Y-80097380D01*
X91622619Y-80145000D01*
X91670238Y-80192619D01*
X91717857Y-80287857D01*
X91717857Y-80383095D01*
X91670238Y-80478333D01*
X91622619Y-80525952D01*
X91527380Y-80573571D01*
X91194047Y-80573571D01*
X92194047Y-80716428D02*
X92955952Y-80716428D01*
X119792857Y-80811666D02*
X120269047Y-80811666D01*
X119697619Y-81097380D02*
X120030952Y-80097380D01*
X120364285Y-81097380D01*
X120697619Y-80716428D02*
X121459523Y-80716428D01*
X121078571Y-81097380D02*
X121078571Y-80335476D01*
X115982857Y-80811666D02*
X116459047Y-80811666D01*
X115887619Y-81097380D02*
X116220952Y-80097380D01*
X116554285Y-81097380D01*
X116887619Y-80716428D02*
X117649523Y-80716428D01*
X123912380Y-80573571D02*
X124055238Y-80621190D01*
X124102857Y-80668809D01*
X124150476Y-80764047D01*
X124150476Y-80906904D01*
X124102857Y-81002142D01*
X124055238Y-81049761D01*
X123960000Y-81097380D01*
X123579047Y-81097380D01*
X123579047Y-80097380D01*
X123912380Y-80097380D01*
X124007619Y-80145000D01*
X124055238Y-80192619D01*
X124102857Y-80287857D01*
X124102857Y-80383095D01*
X124055238Y-80478333D01*
X124007619Y-80525952D01*
X123912380Y-80573571D01*
X123579047Y-80573571D01*
X124579047Y-80716428D02*
X125340952Y-80716428D01*
X127722380Y-80573571D02*
X127865238Y-80621190D01*
X127912857Y-80668809D01*
X127960476Y-80764047D01*
X127960476Y-80906904D01*
X127912857Y-81002142D01*
X127865238Y-81049761D01*
X127770000Y-81097380D01*
X127389047Y-81097380D01*
X127389047Y-80097380D01*
X127722380Y-80097380D01*
X127817619Y-80145000D01*
X127865238Y-80192619D01*
X127912857Y-80287857D01*
X127912857Y-80383095D01*
X127865238Y-80478333D01*
X127817619Y-80525952D01*
X127722380Y-80573571D01*
X127389047Y-80573571D01*
X128389047Y-80716428D02*
X129150952Y-80716428D01*
X128770000Y-81097380D02*
X128770000Y-80335476D01*
X132492857Y-80811666D02*
X132969047Y-80811666D01*
X132397619Y-81097380D02*
X132730952Y-80097380D01*
X133064285Y-81097380D01*
X133397619Y-80716428D02*
X134159523Y-80716428D01*
X136302857Y-80811666D02*
X136779047Y-80811666D01*
X136207619Y-81097380D02*
X136540952Y-80097380D01*
X136874285Y-81097380D01*
X137207619Y-80716428D02*
X137969523Y-80716428D01*
X137588571Y-81097380D02*
X137588571Y-80335476D01*
X144232380Y-80573571D02*
X144375238Y-80621190D01*
X144422857Y-80668809D01*
X144470476Y-80764047D01*
X144470476Y-80906904D01*
X144422857Y-81002142D01*
X144375238Y-81049761D01*
X144280000Y-81097380D01*
X143899047Y-81097380D01*
X143899047Y-80097380D01*
X144232380Y-80097380D01*
X144327619Y-80145000D01*
X144375238Y-80192619D01*
X144422857Y-80287857D01*
X144422857Y-80383095D01*
X144375238Y-80478333D01*
X144327619Y-80525952D01*
X144232380Y-80573571D01*
X143899047Y-80573571D01*
X144899047Y-80716428D02*
X145660952Y-80716428D01*
X145280000Y-81097380D02*
X145280000Y-80335476D01*
X140422380Y-80573571D02*
X140565238Y-80621190D01*
X140612857Y-80668809D01*
X140660476Y-80764047D01*
X140660476Y-80906904D01*
X140612857Y-81002142D01*
X140565238Y-81049761D01*
X140470000Y-81097380D01*
X140089047Y-81097380D01*
X140089047Y-80097380D01*
X140422380Y-80097380D01*
X140517619Y-80145000D01*
X140565238Y-80192619D01*
X140612857Y-80287857D01*
X140612857Y-80383095D01*
X140565238Y-80478333D01*
X140517619Y-80525952D01*
X140422380Y-80573571D01*
X140089047Y-80573571D01*
X141089047Y-80716428D02*
X141850952Y-80716428D01*
X123602857Y-59221666D02*
X124079047Y-59221666D01*
X123507619Y-59507380D02*
X123840952Y-58507380D01*
X124174285Y-59507380D01*
X124507619Y-59126428D02*
X125269523Y-59126428D01*
X135342380Y-58983571D02*
X135485238Y-59031190D01*
X135532857Y-59078809D01*
X135580476Y-59174047D01*
X135580476Y-59316904D01*
X135532857Y-59412142D01*
X135485238Y-59459761D01*
X135390000Y-59507380D01*
X135009047Y-59507380D01*
X135009047Y-58507380D01*
X135342380Y-58507380D01*
X135437619Y-58555000D01*
X135485238Y-58602619D01*
X135532857Y-58697857D01*
X135532857Y-58793095D01*
X135485238Y-58888333D01*
X135437619Y-58935952D01*
X135342380Y-58983571D01*
X135009047Y-58983571D01*
X136009047Y-59126428D02*
X136770952Y-59126428D01*
X136390000Y-59507380D02*
X136390000Y-58745476D01*
X127412857Y-59221666D02*
X127889047Y-59221666D01*
X127317619Y-59507380D02*
X127650952Y-58507380D01*
X127984285Y-59507380D01*
X128317619Y-59126428D02*
X129079523Y-59126428D01*
X128698571Y-59507380D02*
X128698571Y-58745476D01*
X131532380Y-58983571D02*
X131675238Y-59031190D01*
X131722857Y-59078809D01*
X131770476Y-59174047D01*
X131770476Y-59316904D01*
X131722857Y-59412142D01*
X131675238Y-59459761D01*
X131580000Y-59507380D01*
X131199047Y-59507380D01*
X131199047Y-58507380D01*
X131532380Y-58507380D01*
X131627619Y-58555000D01*
X131675238Y-58602619D01*
X131722857Y-58697857D01*
X131722857Y-58793095D01*
X131675238Y-58888333D01*
X131627619Y-58935952D01*
X131532380Y-58983571D01*
X131199047Y-58983571D01*
X132199047Y-59126428D02*
X132960952Y-59126428D01*
X107727857Y-59221666D02*
X108204047Y-59221666D01*
X107632619Y-59507380D02*
X107965952Y-58507380D01*
X108299285Y-59507380D01*
X108632619Y-59126428D02*
X109394523Y-59126428D01*
X111537857Y-59221666D02*
X112014047Y-59221666D01*
X111442619Y-59507380D02*
X111775952Y-58507380D01*
X112109285Y-59507380D01*
X112442619Y-59126428D02*
X113204523Y-59126428D01*
X112823571Y-59507380D02*
X112823571Y-58745476D01*
X119467380Y-58983571D02*
X119610238Y-59031190D01*
X119657857Y-59078809D01*
X119705476Y-59174047D01*
X119705476Y-59316904D01*
X119657857Y-59412142D01*
X119610238Y-59459761D01*
X119515000Y-59507380D01*
X119134047Y-59507380D01*
X119134047Y-58507380D01*
X119467380Y-58507380D01*
X119562619Y-58555000D01*
X119610238Y-58602619D01*
X119657857Y-58697857D01*
X119657857Y-58793095D01*
X119610238Y-58888333D01*
X119562619Y-58935952D01*
X119467380Y-58983571D01*
X119134047Y-58983571D01*
X120134047Y-59126428D02*
X120895952Y-59126428D01*
X120515000Y-59507380D02*
X120515000Y-58745476D01*
X115657380Y-58983571D02*
X115800238Y-59031190D01*
X115847857Y-59078809D01*
X115895476Y-59174047D01*
X115895476Y-59316904D01*
X115847857Y-59412142D01*
X115800238Y-59459761D01*
X115705000Y-59507380D01*
X115324047Y-59507380D01*
X115324047Y-58507380D01*
X115657380Y-58507380D01*
X115752619Y-58555000D01*
X115800238Y-58602619D01*
X115847857Y-58697857D01*
X115847857Y-58793095D01*
X115800238Y-58888333D01*
X115752619Y-58935952D01*
X115657380Y-58983571D01*
X115324047Y-58983571D01*
X116324047Y-59126428D02*
X117085952Y-59126428D01*
X95662857Y-59221666D02*
X96139047Y-59221666D01*
X95567619Y-59507380D02*
X95900952Y-58507380D01*
X96234285Y-59507380D01*
X96567619Y-59126428D02*
X97329523Y-59126428D01*
X96948571Y-59507380D02*
X96948571Y-58745476D01*
X103592380Y-58983571D02*
X103735238Y-59031190D01*
X103782857Y-59078809D01*
X103830476Y-59174047D01*
X103830476Y-59316904D01*
X103782857Y-59412142D01*
X103735238Y-59459761D01*
X103640000Y-59507380D01*
X103259047Y-59507380D01*
X103259047Y-58507380D01*
X103592380Y-58507380D01*
X103687619Y-58555000D01*
X103735238Y-58602619D01*
X103782857Y-58697857D01*
X103782857Y-58793095D01*
X103735238Y-58888333D01*
X103687619Y-58935952D01*
X103592380Y-58983571D01*
X103259047Y-58983571D01*
X104259047Y-59126428D02*
X105020952Y-59126428D01*
X104640000Y-59507380D02*
X104640000Y-58745476D01*
X91852857Y-59221666D02*
X92329047Y-59221666D01*
X91757619Y-59507380D02*
X92090952Y-58507380D01*
X92424285Y-59507380D01*
X92757619Y-59126428D02*
X93519523Y-59126428D01*
X99782380Y-58983571D02*
X99925238Y-59031190D01*
X99972857Y-59078809D01*
X100020476Y-59174047D01*
X100020476Y-59316904D01*
X99972857Y-59412142D01*
X99925238Y-59459761D01*
X99830000Y-59507380D01*
X99449047Y-59507380D01*
X99449047Y-58507380D01*
X99782380Y-58507380D01*
X99877619Y-58555000D01*
X99925238Y-58602619D01*
X99972857Y-58697857D01*
X99972857Y-58793095D01*
X99925238Y-58888333D01*
X99877619Y-58935952D01*
X99782380Y-58983571D01*
X99449047Y-58983571D01*
X100449047Y-59126428D02*
X101210952Y-59126428D01*
X87717380Y-58983571D02*
X87860238Y-59031190D01*
X87907857Y-59078809D01*
X87955476Y-59174047D01*
X87955476Y-59316904D01*
X87907857Y-59412142D01*
X87860238Y-59459761D01*
X87765000Y-59507380D01*
X87384047Y-59507380D01*
X87384047Y-58507380D01*
X87717380Y-58507380D01*
X87812619Y-58555000D01*
X87860238Y-58602619D01*
X87907857Y-58697857D01*
X87907857Y-58793095D01*
X87860238Y-58888333D01*
X87812619Y-58935952D01*
X87717380Y-58983571D01*
X87384047Y-58983571D01*
X88384047Y-59126428D02*
X89145952Y-59126428D01*
X88765000Y-59507380D02*
X88765000Y-58745476D01*
X83907380Y-58983571D02*
X84050238Y-59031190D01*
X84097857Y-59078809D01*
X84145476Y-59174047D01*
X84145476Y-59316904D01*
X84097857Y-59412142D01*
X84050238Y-59459761D01*
X83955000Y-59507380D01*
X83574047Y-59507380D01*
X83574047Y-58507380D01*
X83907380Y-58507380D01*
X84002619Y-58555000D01*
X84050238Y-58602619D01*
X84097857Y-58697857D01*
X84097857Y-58793095D01*
X84050238Y-58888333D01*
X84002619Y-58935952D01*
X83907380Y-58983571D01*
X83574047Y-58983571D01*
X84574047Y-59126428D02*
X85335952Y-59126428D01*
X79787857Y-59221666D02*
X80264047Y-59221666D01*
X79692619Y-59507380D02*
X80025952Y-58507380D01*
X80359285Y-59507380D01*
X80692619Y-59126428D02*
X81454523Y-59126428D01*
X81073571Y-59507380D02*
X81073571Y-58745476D01*
X75977857Y-59221666D02*
X76454047Y-59221666D01*
X75882619Y-59507380D02*
X76215952Y-58507380D01*
X76549285Y-59507380D01*
X76882619Y-59126428D02*
X77644523Y-59126428D01*
D12*
X127635000Y-69850000D02*
X149860000Y-69850000D01*
X78740000Y-69850000D02*
X100965000Y-69850000D01*
D10*
X153670000Y-57150000D02*
X153670000Y-66992500D01*
X74930000Y-57150000D02*
X74930000Y-66992500D01*
X74930000Y-66992500D02*
X153670000Y-66992500D01*
X114300000Y-72707500D02*
X161290000Y-72707500D01*
X114300000Y-72707500D02*
X67310000Y-72707500D01*
D12*
X114300000Y-82550000D02*
X114300000Y-72390000D01*
D11*
X149543095Y-82367380D02*
X149066904Y-82367380D01*
X149066904Y-81367380D01*
X149876428Y-82367380D02*
X149876428Y-81700714D01*
X149876428Y-81367380D02*
X149828809Y-81415000D01*
X149876428Y-81462619D01*
X149924047Y-81415000D01*
X149876428Y-81367380D01*
X149876428Y-81462619D01*
X150352619Y-82367380D02*
X150352619Y-81700714D01*
X150352619Y-81795952D02*
X150400238Y-81748333D01*
X150495476Y-81700714D01*
X150638333Y-81700714D01*
X150733571Y-81748333D01*
X150781190Y-81843571D01*
X150781190Y-82367380D01*
X150781190Y-81843571D02*
X150828809Y-81748333D01*
X150924047Y-81700714D01*
X151066904Y-81700714D01*
X151162142Y-81748333D01*
X151209761Y-81843571D01*
X151209761Y-82367380D01*
X151685952Y-82367380D02*
X151685952Y-81700714D01*
X151685952Y-81367380D02*
X151638333Y-81415000D01*
X151685952Y-81462619D01*
X151733571Y-81415000D01*
X151685952Y-81367380D01*
X151685952Y-81462619D01*
X152019285Y-81700714D02*
X152400238Y-81700714D01*
X152162142Y-81367380D02*
X152162142Y-82224523D01*
X152209761Y-82319761D01*
X152305000Y-82367380D01*
X152400238Y-82367380D01*
X153447857Y-82319761D02*
X153590714Y-82367380D01*
X153828809Y-82367380D01*
X153924047Y-82319761D01*
X153971666Y-82272142D01*
X154019285Y-82176904D01*
X154019285Y-82081666D01*
X153971666Y-81986428D01*
X153924047Y-81938809D01*
X153828809Y-81891190D01*
X153638333Y-81843571D01*
X153543095Y-81795952D01*
X153495476Y-81748333D01*
X153447857Y-81653095D01*
X153447857Y-81557857D01*
X153495476Y-81462619D01*
X153543095Y-81415000D01*
X153638333Y-81367380D01*
X153876428Y-81367380D01*
X154019285Y-81415000D01*
X154352619Y-81700714D02*
X154543095Y-82367380D01*
X154733571Y-81891190D01*
X154924047Y-82367380D01*
X155114523Y-81700714D01*
X155495476Y-82367380D02*
X155495476Y-81700714D01*
X155495476Y-81367380D02*
X155447857Y-81415000D01*
X155495476Y-81462619D01*
X155543095Y-81415000D01*
X155495476Y-81367380D01*
X155495476Y-81462619D01*
X155828809Y-81700714D02*
X156209761Y-81700714D01*
X155971666Y-81367380D02*
X155971666Y-82224523D01*
X156019285Y-82319761D01*
X156114523Y-82367380D01*
X156209761Y-82367380D01*
X156971666Y-82319761D02*
X156876428Y-82367380D01*
X156685952Y-82367380D01*
X156590714Y-82319761D01*
X156543095Y-82272142D01*
X156495476Y-82176904D01*
X156495476Y-81891190D01*
X156543095Y-81795952D01*
X156590714Y-81748333D01*
X156685952Y-81700714D01*
X156876428Y-81700714D01*
X156971666Y-81748333D01*
X157400238Y-82367380D02*
X157400238Y-81367380D01*
X157828809Y-82367380D02*
X157828809Y-81843571D01*
X157781190Y-81748333D01*
X157685952Y-81700714D01*
X157543095Y-81700714D01*
X157447857Y-81748333D01*
X157400238Y-81795952D01*
X159019285Y-81462619D02*
X159066904Y-81415000D01*
X159162142Y-81367380D01*
X159400238Y-81367380D01*
X159495476Y-81415000D01*
X159543095Y-81462619D01*
X159590714Y-81557857D01*
X159590714Y-81653095D01*
X159543095Y-81795952D01*
X158971666Y-82367380D01*
X159590714Y-82367380D01*
X101283095Y-82367380D02*
X100806904Y-82367380D01*
X100806904Y-81367380D01*
X101616428Y-82367380D02*
X101616428Y-81700714D01*
X101616428Y-81367380D02*
X101568809Y-81415000D01*
X101616428Y-81462619D01*
X101664047Y-81415000D01*
X101616428Y-81367380D01*
X101616428Y-81462619D01*
X102092619Y-82367380D02*
X102092619Y-81700714D01*
X102092619Y-81795952D02*
X102140238Y-81748333D01*
X102235476Y-81700714D01*
X102378333Y-81700714D01*
X102473571Y-81748333D01*
X102521190Y-81843571D01*
X102521190Y-82367380D01*
X102521190Y-81843571D02*
X102568809Y-81748333D01*
X102664047Y-81700714D01*
X102806904Y-81700714D01*
X102902142Y-81748333D01*
X102949761Y-81843571D01*
X102949761Y-82367380D01*
X103425952Y-82367380D02*
X103425952Y-81700714D01*
X103425952Y-81367380D02*
X103378333Y-81415000D01*
X103425952Y-81462619D01*
X103473571Y-81415000D01*
X103425952Y-81367380D01*
X103425952Y-81462619D01*
X103759285Y-81700714D02*
X104140238Y-81700714D01*
X103902142Y-81367380D02*
X103902142Y-82224523D01*
X103949761Y-82319761D01*
X104045000Y-82367380D01*
X104140238Y-82367380D01*
X105187857Y-82319761D02*
X105330714Y-82367380D01*
X105568809Y-82367380D01*
X105664047Y-82319761D01*
X105711666Y-82272142D01*
X105759285Y-82176904D01*
X105759285Y-82081666D01*
X105711666Y-81986428D01*
X105664047Y-81938809D01*
X105568809Y-81891190D01*
X105378333Y-81843571D01*
X105283095Y-81795952D01*
X105235476Y-81748333D01*
X105187857Y-81653095D01*
X105187857Y-81557857D01*
X105235476Y-81462619D01*
X105283095Y-81415000D01*
X105378333Y-81367380D01*
X105616428Y-81367380D01*
X105759285Y-81415000D01*
X106092619Y-81700714D02*
X106283095Y-82367380D01*
X106473571Y-81891190D01*
X106664047Y-82367380D01*
X106854523Y-81700714D01*
X107235476Y-82367380D02*
X107235476Y-81700714D01*
X107235476Y-81367380D02*
X107187857Y-81415000D01*
X107235476Y-81462619D01*
X107283095Y-81415000D01*
X107235476Y-81367380D01*
X107235476Y-81462619D01*
X107568809Y-81700714D02*
X107949761Y-81700714D01*
X107711666Y-81367380D02*
X107711666Y-82224523D01*
X107759285Y-82319761D01*
X107854523Y-82367380D01*
X107949761Y-82367380D01*
X108711666Y-82319761D02*
X108616428Y-82367380D01*
X108425952Y-82367380D01*
X108330714Y-82319761D01*
X108283095Y-82272142D01*
X108235476Y-82176904D01*
X108235476Y-81891190D01*
X108283095Y-81795952D01*
X108330714Y-81748333D01*
X108425952Y-81700714D01*
X108616428Y-81700714D01*
X108711666Y-81748333D01*
X109140238Y-82367380D02*
X109140238Y-81367380D01*
X109568809Y-82367380D02*
X109568809Y-81843571D01*
X109521190Y-81748333D01*
X109425952Y-81700714D01*
X109283095Y-81700714D01*
X109187857Y-81748333D01*
X109140238Y-81795952D01*
X111330714Y-82367380D02*
X110759285Y-82367380D01*
X111045000Y-82367380D02*
X111045000Y-81367380D01*
X110949761Y-81510238D01*
X110854523Y-81605476D01*
X110759285Y-81653095D01*
X141311904Y-58237380D02*
X140835714Y-58237380D01*
X140835714Y-57237380D01*
X141645238Y-58237380D02*
X141645238Y-57570714D01*
X141645238Y-57237380D02*
X141597619Y-57285000D01*
X141645238Y-57332619D01*
X141692857Y-57285000D01*
X141645238Y-57237380D01*
X141645238Y-57332619D01*
X142121428Y-58237380D02*
X142121428Y-57570714D01*
X142121428Y-57665952D02*
X142169047Y-57618333D01*
X142264285Y-57570714D01*
X142407142Y-57570714D01*
X142502380Y-57618333D01*
X142550000Y-57713571D01*
X142550000Y-58237380D01*
X142550000Y-57713571D02*
X142597619Y-57618333D01*
X142692857Y-57570714D01*
X142835714Y-57570714D01*
X142930952Y-57618333D01*
X142978571Y-57713571D01*
X142978571Y-58237380D01*
X143454761Y-58237380D02*
X143454761Y-57570714D01*
X143454761Y-57237380D02*
X143407142Y-57285000D01*
X143454761Y-57332619D01*
X143502380Y-57285000D01*
X143454761Y-57237380D01*
X143454761Y-57332619D01*
X143788095Y-57570714D02*
X144169047Y-57570714D01*
X143930952Y-57237380D02*
X143930952Y-58094523D01*
X143978571Y-58189761D01*
X144073809Y-58237380D01*
X144169047Y-58237380D01*
X145216666Y-58189761D02*
X145359523Y-58237380D01*
X145597619Y-58237380D01*
X145692857Y-58189761D01*
X145740476Y-58142142D01*
X145788095Y-58046904D01*
X145788095Y-57951666D01*
X145740476Y-57856428D01*
X145692857Y-57808809D01*
X145597619Y-57761190D01*
X145407142Y-57713571D01*
X145311904Y-57665952D01*
X145264285Y-57618333D01*
X145216666Y-57523095D01*
X145216666Y-57427857D01*
X145264285Y-57332619D01*
X145311904Y-57285000D01*
X145407142Y-57237380D01*
X145645238Y-57237380D01*
X145788095Y-57285000D01*
X146121428Y-57570714D02*
X146311904Y-58237380D01*
X146502380Y-57761190D01*
X146692857Y-58237380D01*
X146883333Y-57570714D01*
X147264285Y-58237380D02*
X147264285Y-57570714D01*
X147264285Y-57237380D02*
X147216666Y-57285000D01*
X147264285Y-57332619D01*
X147311904Y-57285000D01*
X147264285Y-57237380D01*
X147264285Y-57332619D01*
X147597619Y-57570714D02*
X147978571Y-57570714D01*
X147740476Y-57237380D02*
X147740476Y-58094523D01*
X147788095Y-58189761D01*
X147883333Y-58237380D01*
X147978571Y-58237380D01*
X148740476Y-58189761D02*
X148645238Y-58237380D01*
X148454761Y-58237380D01*
X148359523Y-58189761D01*
X148311904Y-58142142D01*
X148264285Y-58046904D01*
X148264285Y-57761190D01*
X148311904Y-57665952D01*
X148359523Y-57618333D01*
X148454761Y-57570714D01*
X148645238Y-57570714D01*
X148740476Y-57618333D01*
X149169047Y-58237380D02*
X149169047Y-57237380D01*
X149597619Y-58237380D02*
X149597619Y-57713571D01*
X149550000Y-57618333D01*
X149454761Y-57570714D01*
X149311904Y-57570714D01*
X149216666Y-57618333D01*
X149169047Y-57665952D01*
X150454761Y-58189761D02*
X150359523Y-58237380D01*
X150169047Y-58237380D01*
X150073809Y-58189761D01*
X150026190Y-58094523D01*
X150026190Y-57713571D01*
X150073809Y-57618333D01*
X150169047Y-57570714D01*
X150359523Y-57570714D01*
X150454761Y-57618333D01*
X150502380Y-57713571D01*
X150502380Y-57808809D01*
X150026190Y-57904047D01*
X150883333Y-58189761D02*
X150978571Y-58237380D01*
X151169047Y-58237380D01*
X151264285Y-58189761D01*
X151311904Y-58094523D01*
X151311904Y-58046904D01*
X151264285Y-57951666D01*
X151169047Y-57904047D01*
X151026190Y-57904047D01*
X150930952Y-57856428D01*
X150883333Y-57761190D01*
X150883333Y-57713571D01*
X150930952Y-57618333D01*
X151026190Y-57570714D01*
X151169047Y-57570714D01*
X151264285Y-57618333D01*
X135739523Y-82367380D02*
X135739523Y-81367380D01*
X136072857Y-82081666D01*
X136406190Y-81367380D01*
X136406190Y-82367380D01*
X137025238Y-82367380D02*
X136930000Y-82319761D01*
X136882380Y-82272142D01*
X136834761Y-82176904D01*
X136834761Y-81891190D01*
X136882380Y-81795952D01*
X136930000Y-81748333D01*
X137025238Y-81700714D01*
X137168095Y-81700714D01*
X137263333Y-81748333D01*
X137310952Y-81795952D01*
X137358571Y-81891190D01*
X137358571Y-82176904D01*
X137310952Y-82272142D01*
X137263333Y-82319761D01*
X137168095Y-82367380D01*
X137025238Y-82367380D01*
X137644285Y-81700714D02*
X138025238Y-81700714D01*
X137787142Y-81367380D02*
X137787142Y-82224523D01*
X137834761Y-82319761D01*
X137930000Y-82367380D01*
X138025238Y-82367380D01*
X138501428Y-82367380D02*
X138406190Y-82319761D01*
X138358571Y-82272142D01*
X138310952Y-82176904D01*
X138310952Y-81891190D01*
X138358571Y-81795952D01*
X138406190Y-81748333D01*
X138501428Y-81700714D01*
X138644285Y-81700714D01*
X138739523Y-81748333D01*
X138787142Y-81795952D01*
X138834761Y-81891190D01*
X138834761Y-82176904D01*
X138787142Y-82272142D01*
X138739523Y-82319761D01*
X138644285Y-82367380D01*
X138501428Y-82367380D01*
X139263333Y-82367380D02*
X139263333Y-81700714D01*
X139263333Y-81891190D02*
X139310952Y-81795952D01*
X139358571Y-81748333D01*
X139453809Y-81700714D01*
X139549047Y-81700714D01*
X141072857Y-81700714D02*
X141072857Y-82367380D01*
X140834761Y-81319761D02*
X140596666Y-82034047D01*
X141215714Y-82034047D01*
X127484523Y-58237380D02*
X127484523Y-57237380D01*
X127817857Y-57951666D01*
X128151190Y-57237380D01*
X128151190Y-58237380D01*
X128770238Y-58237380D02*
X128675000Y-58189761D01*
X128627380Y-58142142D01*
X128579761Y-58046904D01*
X128579761Y-57761190D01*
X128627380Y-57665952D01*
X128675000Y-57618333D01*
X128770238Y-57570714D01*
X128913095Y-57570714D01*
X129008333Y-57618333D01*
X129055952Y-57665952D01*
X129103571Y-57761190D01*
X129103571Y-58046904D01*
X129055952Y-58142142D01*
X129008333Y-58189761D01*
X128913095Y-58237380D01*
X128770238Y-58237380D01*
X129389285Y-57570714D02*
X129770238Y-57570714D01*
X129532142Y-57237380D02*
X129532142Y-58094523D01*
X129579761Y-58189761D01*
X129675000Y-58237380D01*
X129770238Y-58237380D01*
X130246428Y-58237380D02*
X130151190Y-58189761D01*
X130103571Y-58142142D01*
X130055952Y-58046904D01*
X130055952Y-57761190D01*
X130103571Y-57665952D01*
X130151190Y-57618333D01*
X130246428Y-57570714D01*
X130389285Y-57570714D01*
X130484523Y-57618333D01*
X130532142Y-57665952D01*
X130579761Y-57761190D01*
X130579761Y-58046904D01*
X130532142Y-58142142D01*
X130484523Y-58189761D01*
X130389285Y-58237380D01*
X130246428Y-58237380D01*
X131008333Y-58237380D02*
X131008333Y-57570714D01*
X131008333Y-57761190D02*
X131055952Y-57665952D01*
X131103571Y-57618333D01*
X131198809Y-57570714D01*
X131294047Y-57570714D01*
X132817857Y-57570714D02*
X132817857Y-58237380D01*
X132579761Y-57189761D02*
X132341666Y-57904047D01*
X132960714Y-57904047D01*
X120499523Y-82367380D02*
X120499523Y-81367380D01*
X120832857Y-82081666D01*
X121166190Y-81367380D01*
X121166190Y-82367380D01*
X121785238Y-82367380D02*
X121690000Y-82319761D01*
X121642380Y-82272142D01*
X121594761Y-82176904D01*
X121594761Y-81891190D01*
X121642380Y-81795952D01*
X121690000Y-81748333D01*
X121785238Y-81700714D01*
X121928095Y-81700714D01*
X122023333Y-81748333D01*
X122070952Y-81795952D01*
X122118571Y-81891190D01*
X122118571Y-82176904D01*
X122070952Y-82272142D01*
X122023333Y-82319761D01*
X121928095Y-82367380D01*
X121785238Y-82367380D01*
X122404285Y-81700714D02*
X122785238Y-81700714D01*
X122547142Y-81367380D02*
X122547142Y-82224523D01*
X122594761Y-82319761D01*
X122690000Y-82367380D01*
X122785238Y-82367380D01*
X123261428Y-82367380D02*
X123166190Y-82319761D01*
X123118571Y-82272142D01*
X123070952Y-82176904D01*
X123070952Y-81891190D01*
X123118571Y-81795952D01*
X123166190Y-81748333D01*
X123261428Y-81700714D01*
X123404285Y-81700714D01*
X123499523Y-81748333D01*
X123547142Y-81795952D01*
X123594761Y-81891190D01*
X123594761Y-82176904D01*
X123547142Y-82272142D01*
X123499523Y-82319761D01*
X123404285Y-82367380D01*
X123261428Y-82367380D01*
X124023333Y-82367380D02*
X124023333Y-81700714D01*
X124023333Y-81891190D02*
X124070952Y-81795952D01*
X124118571Y-81748333D01*
X124213809Y-81700714D01*
X124309047Y-81700714D01*
X125309047Y-81367380D02*
X125928095Y-81367380D01*
X125594761Y-81748333D01*
X125737619Y-81748333D01*
X125832857Y-81795952D01*
X125880476Y-81843571D01*
X125928095Y-81938809D01*
X125928095Y-82176904D01*
X125880476Y-82272142D01*
X125832857Y-82319761D01*
X125737619Y-82367380D01*
X125451904Y-82367380D01*
X125356666Y-82319761D01*
X125309047Y-82272142D01*
X111609523Y-58237380D02*
X111609523Y-57237380D01*
X111942857Y-57951666D01*
X112276190Y-57237380D01*
X112276190Y-58237380D01*
X112895238Y-58237380D02*
X112800000Y-58189761D01*
X112752380Y-58142142D01*
X112704761Y-58046904D01*
X112704761Y-57761190D01*
X112752380Y-57665952D01*
X112800000Y-57618333D01*
X112895238Y-57570714D01*
X113038095Y-57570714D01*
X113133333Y-57618333D01*
X113180952Y-57665952D01*
X113228571Y-57761190D01*
X113228571Y-58046904D01*
X113180952Y-58142142D01*
X113133333Y-58189761D01*
X113038095Y-58237380D01*
X112895238Y-58237380D01*
X113514285Y-57570714D02*
X113895238Y-57570714D01*
X113657142Y-57237380D02*
X113657142Y-58094523D01*
X113704761Y-58189761D01*
X113800000Y-58237380D01*
X113895238Y-58237380D01*
X114371428Y-58237380D02*
X114276190Y-58189761D01*
X114228571Y-58142142D01*
X114180952Y-58046904D01*
X114180952Y-57761190D01*
X114228571Y-57665952D01*
X114276190Y-57618333D01*
X114371428Y-57570714D01*
X114514285Y-57570714D01*
X114609523Y-57618333D01*
X114657142Y-57665952D01*
X114704761Y-57761190D01*
X114704761Y-58046904D01*
X114657142Y-58142142D01*
X114609523Y-58189761D01*
X114514285Y-58237380D01*
X114371428Y-58237380D01*
X115133333Y-58237380D02*
X115133333Y-57570714D01*
X115133333Y-57761190D02*
X115180952Y-57665952D01*
X115228571Y-57618333D01*
X115323809Y-57570714D01*
X115419047Y-57570714D01*
X116419047Y-57237380D02*
X117038095Y-57237380D01*
X116704761Y-57618333D01*
X116847619Y-57618333D01*
X116942857Y-57665952D01*
X116990476Y-57713571D01*
X117038095Y-57808809D01*
X117038095Y-58046904D01*
X116990476Y-58142142D01*
X116942857Y-58189761D01*
X116847619Y-58237380D01*
X116561904Y-58237380D01*
X116466666Y-58189761D01*
X116419047Y-58142142D01*
X87479523Y-82367380D02*
X87479523Y-81367380D01*
X87812857Y-82081666D01*
X88146190Y-81367380D01*
X88146190Y-82367380D01*
X88765238Y-82367380D02*
X88670000Y-82319761D01*
X88622380Y-82272142D01*
X88574761Y-82176904D01*
X88574761Y-81891190D01*
X88622380Y-81795952D01*
X88670000Y-81748333D01*
X88765238Y-81700714D01*
X88908095Y-81700714D01*
X89003333Y-81748333D01*
X89050952Y-81795952D01*
X89098571Y-81891190D01*
X89098571Y-82176904D01*
X89050952Y-82272142D01*
X89003333Y-82319761D01*
X88908095Y-82367380D01*
X88765238Y-82367380D01*
X89384285Y-81700714D02*
X89765238Y-81700714D01*
X89527142Y-81367380D02*
X89527142Y-82224523D01*
X89574761Y-82319761D01*
X89670000Y-82367380D01*
X89765238Y-82367380D01*
X90241428Y-82367380D02*
X90146190Y-82319761D01*
X90098571Y-82272142D01*
X90050952Y-82176904D01*
X90050952Y-81891190D01*
X90098571Y-81795952D01*
X90146190Y-81748333D01*
X90241428Y-81700714D01*
X90384285Y-81700714D01*
X90479523Y-81748333D01*
X90527142Y-81795952D01*
X90574761Y-81891190D01*
X90574761Y-82176904D01*
X90527142Y-82272142D01*
X90479523Y-82319761D01*
X90384285Y-82367380D01*
X90241428Y-82367380D01*
X91003333Y-82367380D02*
X91003333Y-81700714D01*
X91003333Y-81891190D02*
X91050952Y-81795952D01*
X91098571Y-81748333D01*
X91193809Y-81700714D01*
X91289047Y-81700714D01*
X92336666Y-81462619D02*
X92384285Y-81415000D01*
X92479523Y-81367380D01*
X92717619Y-81367380D01*
X92812857Y-81415000D01*
X92860476Y-81462619D01*
X92908095Y-81557857D01*
X92908095Y-81653095D01*
X92860476Y-81795952D01*
X92289047Y-82367380D01*
X92908095Y-82367380D01*
X95734523Y-58237380D02*
X95734523Y-57237380D01*
X96067857Y-57951666D01*
X96401190Y-57237380D01*
X96401190Y-58237380D01*
X97020238Y-58237380D02*
X96925000Y-58189761D01*
X96877380Y-58142142D01*
X96829761Y-58046904D01*
X96829761Y-57761190D01*
X96877380Y-57665952D01*
X96925000Y-57618333D01*
X97020238Y-57570714D01*
X97163095Y-57570714D01*
X97258333Y-57618333D01*
X97305952Y-57665952D01*
X97353571Y-57761190D01*
X97353571Y-58046904D01*
X97305952Y-58142142D01*
X97258333Y-58189761D01*
X97163095Y-58237380D01*
X97020238Y-58237380D01*
X97639285Y-57570714D02*
X98020238Y-57570714D01*
X97782142Y-57237380D02*
X97782142Y-58094523D01*
X97829761Y-58189761D01*
X97925000Y-58237380D01*
X98020238Y-58237380D01*
X98496428Y-58237380D02*
X98401190Y-58189761D01*
X98353571Y-58142142D01*
X98305952Y-58046904D01*
X98305952Y-57761190D01*
X98353571Y-57665952D01*
X98401190Y-57618333D01*
X98496428Y-57570714D01*
X98639285Y-57570714D01*
X98734523Y-57618333D01*
X98782142Y-57665952D01*
X98829761Y-57761190D01*
X98829761Y-58046904D01*
X98782142Y-58142142D01*
X98734523Y-58189761D01*
X98639285Y-58237380D01*
X98496428Y-58237380D01*
X99258333Y-58237380D02*
X99258333Y-57570714D01*
X99258333Y-57761190D02*
X99305952Y-57665952D01*
X99353571Y-57618333D01*
X99448809Y-57570714D01*
X99544047Y-57570714D01*
X100591666Y-57332619D02*
X100639285Y-57285000D01*
X100734523Y-57237380D01*
X100972619Y-57237380D01*
X101067857Y-57285000D01*
X101115476Y-57332619D01*
X101163095Y-57427857D01*
X101163095Y-57523095D01*
X101115476Y-57665952D01*
X100544047Y-58237380D01*
X101163095Y-58237380D01*
X71604523Y-82367380D02*
X71604523Y-81367380D01*
X71937857Y-82081666D01*
X72271190Y-81367380D01*
X72271190Y-82367380D01*
X72890238Y-82367380D02*
X72795000Y-82319761D01*
X72747380Y-82272142D01*
X72699761Y-82176904D01*
X72699761Y-81891190D01*
X72747380Y-81795952D01*
X72795000Y-81748333D01*
X72890238Y-81700714D01*
X73033095Y-81700714D01*
X73128333Y-81748333D01*
X73175952Y-81795952D01*
X73223571Y-81891190D01*
X73223571Y-82176904D01*
X73175952Y-82272142D01*
X73128333Y-82319761D01*
X73033095Y-82367380D01*
X72890238Y-82367380D01*
X73509285Y-81700714D02*
X73890238Y-81700714D01*
X73652142Y-81367380D02*
X73652142Y-82224523D01*
X73699761Y-82319761D01*
X73795000Y-82367380D01*
X73890238Y-82367380D01*
X74366428Y-82367380D02*
X74271190Y-82319761D01*
X74223571Y-82272142D01*
X74175952Y-82176904D01*
X74175952Y-81891190D01*
X74223571Y-81795952D01*
X74271190Y-81748333D01*
X74366428Y-81700714D01*
X74509285Y-81700714D01*
X74604523Y-81748333D01*
X74652142Y-81795952D01*
X74699761Y-81891190D01*
X74699761Y-82176904D01*
X74652142Y-82272142D01*
X74604523Y-82319761D01*
X74509285Y-82367380D01*
X74366428Y-82367380D01*
X75128333Y-82367380D02*
X75128333Y-81700714D01*
X75128333Y-81891190D02*
X75175952Y-81795952D01*
X75223571Y-81748333D01*
X75318809Y-81700714D01*
X75414047Y-81700714D01*
X77033095Y-82367380D02*
X76461666Y-82367380D01*
X76747380Y-82367380D02*
X76747380Y-81367380D01*
X76652142Y-81510238D01*
X76556904Y-81605476D01*
X76461666Y-81653095D01*
X79859523Y-58237380D02*
X79859523Y-57237380D01*
X80192857Y-57951666D01*
X80526190Y-57237380D01*
X80526190Y-58237380D01*
X81145238Y-58237380D02*
X81050000Y-58189761D01*
X81002380Y-58142142D01*
X80954761Y-58046904D01*
X80954761Y-57761190D01*
X81002380Y-57665952D01*
X81050000Y-57618333D01*
X81145238Y-57570714D01*
X81288095Y-57570714D01*
X81383333Y-57618333D01*
X81430952Y-57665952D01*
X81478571Y-57761190D01*
X81478571Y-58046904D01*
X81430952Y-58142142D01*
X81383333Y-58189761D01*
X81288095Y-58237380D01*
X81145238Y-58237380D01*
X81764285Y-57570714D02*
X82145238Y-57570714D01*
X81907142Y-57237380D02*
X81907142Y-58094523D01*
X81954761Y-58189761D01*
X82050000Y-58237380D01*
X82145238Y-58237380D01*
X82621428Y-58237380D02*
X82526190Y-58189761D01*
X82478571Y-58142142D01*
X82430952Y-58046904D01*
X82430952Y-57761190D01*
X82478571Y-57665952D01*
X82526190Y-57618333D01*
X82621428Y-57570714D01*
X82764285Y-57570714D01*
X82859523Y-57618333D01*
X82907142Y-57665952D01*
X82954761Y-57761190D01*
X82954761Y-58046904D01*
X82907142Y-58142142D01*
X82859523Y-58189761D01*
X82764285Y-58237380D01*
X82621428Y-58237380D01*
X83383333Y-58237380D02*
X83383333Y-57570714D01*
X83383333Y-57761190D02*
X83430952Y-57665952D01*
X83478571Y-57618333D01*
X83573809Y-57570714D01*
X83669047Y-57570714D01*
X85288095Y-58237380D02*
X84716666Y-58237380D01*
X85002380Y-58237380D02*
X85002380Y-57237380D01*
X84907142Y-57380238D01*
X84811904Y-57475476D01*
X84716666Y-57523095D01*
X104276190Y-68953571D02*
X104419047Y-69001190D01*
X104466666Y-69048809D01*
X104514285Y-69144047D01*
X104514285Y-69286904D01*
X104466666Y-69382142D01*
X104419047Y-69429761D01*
X104323809Y-69477380D01*
X103942857Y-69477380D01*
X103942857Y-68477380D01*
X104276190Y-68477380D01*
X104371428Y-68525000D01*
X104419047Y-68572619D01*
X104466666Y-68667857D01*
X104466666Y-68763095D01*
X104419047Y-68858333D01*
X104371428Y-68905952D01*
X104276190Y-68953571D01*
X103942857Y-68953571D01*
X104942857Y-69477380D02*
X104942857Y-68810714D01*
X104942857Y-68477380D02*
X104895238Y-68525000D01*
X104942857Y-68572619D01*
X104990476Y-68525000D01*
X104942857Y-68477380D01*
X104942857Y-68572619D01*
X105847619Y-68810714D02*
X105847619Y-69620238D01*
X105800000Y-69715476D01*
X105752380Y-69763095D01*
X105657142Y-69810714D01*
X105514285Y-69810714D01*
X105419047Y-69763095D01*
X105847619Y-69429761D02*
X105752380Y-69477380D01*
X105561904Y-69477380D01*
X105466666Y-69429761D01*
X105419047Y-69382142D01*
X105371428Y-69286904D01*
X105371428Y-69001190D01*
X105419047Y-68905952D01*
X105466666Y-68858333D01*
X105561904Y-68810714D01*
X105752380Y-68810714D01*
X105847619Y-68858333D01*
X107133333Y-68477380D02*
X107038095Y-68667857D01*
X107704761Y-69477380D02*
X107609523Y-69429761D01*
X107561904Y-69382142D01*
X107514285Y-69286904D01*
X107514285Y-69001190D01*
X107561904Y-68905952D01*
X107609523Y-68858333D01*
X107704761Y-68810714D01*
X107847619Y-68810714D01*
X107942857Y-68858333D01*
X107990476Y-68905952D01*
X108038095Y-69001190D01*
X108038095Y-69286904D01*
X107990476Y-69382142D01*
X107942857Y-69429761D01*
X107847619Y-69477380D01*
X107704761Y-69477380D01*
X108609523Y-69477380D02*
X108514285Y-69429761D01*
X108466666Y-69334523D01*
X108466666Y-68477380D01*
X109752380Y-69477380D02*
X109752380Y-68477380D01*
X109752380Y-68858333D02*
X109847619Y-68810714D01*
X110038095Y-68810714D01*
X110133333Y-68858333D01*
X110180952Y-68905952D01*
X110228571Y-69001190D01*
X110228571Y-69286904D01*
X110180952Y-69382142D01*
X110133333Y-69429761D01*
X110038095Y-69477380D01*
X109847619Y-69477380D01*
X109752380Y-69429761D01*
X110657142Y-69477380D02*
X110657142Y-68810714D01*
X110657142Y-69001190D02*
X110704761Y-68905952D01*
X110752380Y-68858333D01*
X110847619Y-68810714D01*
X110942857Y-68810714D01*
X111657142Y-69429761D02*
X111561904Y-69477380D01*
X111371428Y-69477380D01*
X111276190Y-69429761D01*
X111228571Y-69334523D01*
X111228571Y-68953571D01*
X111276190Y-68858333D01*
X111371428Y-68810714D01*
X111561904Y-68810714D01*
X111657142Y-68858333D01*
X111704761Y-68953571D01*
X111704761Y-69048809D01*
X111228571Y-69144047D01*
X112561904Y-69477380D02*
X112561904Y-68953571D01*
X112514285Y-68858333D01*
X112419047Y-68810714D01*
X112228571Y-68810714D01*
X112133333Y-68858333D01*
X112561904Y-69429761D02*
X112466666Y-69477380D01*
X112228571Y-69477380D01*
X112133333Y-69429761D01*
X112085714Y-69334523D01*
X112085714Y-69239285D01*
X112133333Y-69144047D01*
X112228571Y-69096428D01*
X112466666Y-69096428D01*
X112561904Y-69048809D01*
X113038095Y-69477380D02*
X113038095Y-68477380D01*
X113133333Y-69096428D02*
X113419047Y-69477380D01*
X113419047Y-68810714D02*
X113038095Y-69191666D01*
X113990476Y-69477380D02*
X113895238Y-69429761D01*
X113847619Y-69382142D01*
X113800000Y-69286904D01*
X113800000Y-69001190D01*
X113847619Y-68905952D01*
X113895238Y-68858333D01*
X113990476Y-68810714D01*
X114133333Y-68810714D01*
X114228571Y-68858333D01*
X114276190Y-68905952D01*
X114323809Y-69001190D01*
X114323809Y-69286904D01*
X114276190Y-69382142D01*
X114228571Y-69429761D01*
X114133333Y-69477380D01*
X113990476Y-69477380D01*
X115180952Y-68810714D02*
X115180952Y-69477380D01*
X114752380Y-68810714D02*
X114752380Y-69334523D01*
X114800000Y-69429761D01*
X114895238Y-69477380D01*
X115038095Y-69477380D01*
X115133333Y-69429761D01*
X115180952Y-69382142D01*
X115514285Y-68810714D02*
X115895238Y-68810714D01*
X115657142Y-68477380D02*
X115657142Y-69334523D01*
X115704761Y-69429761D01*
X115800000Y-69477380D01*
X115895238Y-69477380D01*
X116990476Y-69477380D02*
X116990476Y-68477380D01*
X116990476Y-68858333D02*
X117085714Y-68810714D01*
X117276190Y-68810714D01*
X117371428Y-68858333D01*
X117419047Y-68905952D01*
X117466666Y-69001190D01*
X117466666Y-69286904D01*
X117419047Y-69382142D01*
X117371428Y-69429761D01*
X117276190Y-69477380D01*
X117085714Y-69477380D01*
X116990476Y-69429761D01*
X118038095Y-69477380D02*
X117942857Y-69429761D01*
X117895238Y-69382142D01*
X117847619Y-69286904D01*
X117847619Y-69001190D01*
X117895238Y-68905952D01*
X117942857Y-68858333D01*
X118038095Y-68810714D01*
X118180952Y-68810714D01*
X118276190Y-68858333D01*
X118323809Y-68905952D01*
X118371428Y-69001190D01*
X118371428Y-69286904D01*
X118323809Y-69382142D01*
X118276190Y-69429761D01*
X118180952Y-69477380D01*
X118038095Y-69477380D01*
X119228571Y-69477380D02*
X119228571Y-68953571D01*
X119180952Y-68858333D01*
X119085714Y-68810714D01*
X118895238Y-68810714D01*
X118800000Y-68858333D01*
X119228571Y-69429761D02*
X119133333Y-69477380D01*
X118895238Y-69477380D01*
X118800000Y-69429761D01*
X118752380Y-69334523D01*
X118752380Y-69239285D01*
X118800000Y-69144047D01*
X118895238Y-69096428D01*
X119133333Y-69096428D01*
X119228571Y-69048809D01*
X119704761Y-69477380D02*
X119704761Y-68810714D01*
X119704761Y-69001190D02*
X119752380Y-68905952D01*
X119800000Y-68858333D01*
X119895238Y-68810714D01*
X119990476Y-68810714D01*
X120752380Y-69477380D02*
X120752380Y-68477380D01*
X120752380Y-69429761D02*
X120657142Y-69477380D01*
X120466666Y-69477380D01*
X120371428Y-69429761D01*
X120323809Y-69382142D01*
X120276190Y-69286904D01*
X120276190Y-69001190D01*
X120323809Y-68905952D01*
X120371428Y-68858333D01*
X120466666Y-68810714D01*
X120657142Y-68810714D01*
X120752380Y-68858333D01*
X121895238Y-68810714D02*
X122133333Y-69477380D01*
X122371428Y-68810714D01*
X123276190Y-69477380D02*
X122704761Y-69477380D01*
X122990476Y-69477380D02*
X122990476Y-68477380D01*
X122895238Y-68620238D01*
X122800000Y-68715476D01*
X122704761Y-68763095D01*
X123704761Y-69382142D02*
X123752380Y-69429761D01*
X123704761Y-69477380D01*
X123657142Y-69429761D01*
X123704761Y-69382142D01*
X123704761Y-69477380D01*
X124371428Y-68477380D02*
X124466666Y-68477380D01*
X124561904Y-68525000D01*
X124609523Y-68572619D01*
X124657142Y-68667857D01*
X124704761Y-68858333D01*
X124704761Y-69096428D01*
X124657142Y-69286904D01*
X124609523Y-69382142D01*
X124561904Y-69429761D01*
X124466666Y-69477380D01*
X124371428Y-69477380D01*
X124276190Y-69429761D01*
X124228571Y-69382142D01*
X124180952Y-69286904D01*
X124133333Y-69096428D01*
X124133333Y-68858333D01*
X124180952Y-68667857D01*
X124228571Y-68572619D01*
X124276190Y-68525000D01*
X124371428Y-68477380D01*
X104180952Y-71127380D02*
X104180952Y-70127380D01*
X104419047Y-70127380D01*
X104561904Y-70175000D01*
X104657142Y-70270238D01*
X104704761Y-70365476D01*
X104752380Y-70555952D01*
X104752380Y-70698809D01*
X104704761Y-70889285D01*
X104657142Y-70984523D01*
X104561904Y-71079761D01*
X104419047Y-71127380D01*
X104180952Y-71127380D01*
X105561904Y-71079761D02*
X105466666Y-71127380D01*
X105276190Y-71127380D01*
X105180952Y-71079761D01*
X105133333Y-70984523D01*
X105133333Y-70603571D01*
X105180952Y-70508333D01*
X105276190Y-70460714D01*
X105466666Y-70460714D01*
X105561904Y-70508333D01*
X105609523Y-70603571D01*
X105609523Y-70698809D01*
X105133333Y-70794047D01*
X105990476Y-71079761D02*
X106085714Y-71127380D01*
X106276190Y-71127380D01*
X106371428Y-71079761D01*
X106419047Y-70984523D01*
X106419047Y-70936904D01*
X106371428Y-70841666D01*
X106276190Y-70794047D01*
X106133333Y-70794047D01*
X106038095Y-70746428D01*
X105990476Y-70651190D01*
X105990476Y-70603571D01*
X106038095Y-70508333D01*
X106133333Y-70460714D01*
X106276190Y-70460714D01*
X106371428Y-70508333D01*
X106847619Y-71127380D02*
X106847619Y-70460714D01*
X106847619Y-70127380D02*
X106799999Y-70175000D01*
X106847619Y-70222619D01*
X106895238Y-70175000D01*
X106847619Y-70127380D01*
X106847619Y-70222619D01*
X107752380Y-70460714D02*
X107752380Y-71270238D01*
X107704761Y-71365476D01*
X107657142Y-71413095D01*
X107561904Y-71460714D01*
X107419047Y-71460714D01*
X107323809Y-71413095D01*
X107752380Y-71079761D02*
X107657142Y-71127380D01*
X107466666Y-71127380D01*
X107371428Y-71079761D01*
X107323809Y-71032142D01*
X107276190Y-70936904D01*
X107276190Y-70651190D01*
X107323809Y-70555952D01*
X107371428Y-70508333D01*
X107466666Y-70460714D01*
X107657142Y-70460714D01*
X107752380Y-70508333D01*
X108228571Y-70460714D02*
X108228571Y-71127380D01*
X108228571Y-70555952D02*
X108276190Y-70508333D01*
X108371428Y-70460714D01*
X108514285Y-70460714D01*
X108609523Y-70508333D01*
X108657142Y-70603571D01*
X108657142Y-71127380D01*
X109514285Y-71079761D02*
X109419047Y-71127380D01*
X109228571Y-71127380D01*
X109133333Y-71079761D01*
X109085714Y-70984523D01*
X109085714Y-70603571D01*
X109133333Y-70508333D01*
X109228571Y-70460714D01*
X109419047Y-70460714D01*
X109514285Y-70508333D01*
X109561904Y-70603571D01*
X109561904Y-70698809D01*
X109085714Y-70794047D01*
X110419047Y-71127380D02*
X110419047Y-70127380D01*
X110419047Y-71079761D02*
X110323809Y-71127380D01*
X110133333Y-71127380D01*
X110038095Y-71079761D01*
X109990476Y-71032142D01*
X109942857Y-70936904D01*
X109942857Y-70651190D01*
X109990476Y-70555952D01*
X110038095Y-70508333D01*
X110133333Y-70460714D01*
X110323809Y-70460714D01*
X110419047Y-70508333D01*
X111657142Y-71127380D02*
X111657142Y-70127380D01*
X111657142Y-70508333D02*
X111752380Y-70460714D01*
X111942857Y-70460714D01*
X112038095Y-70508333D01*
X112085714Y-70555952D01*
X112133333Y-70651190D01*
X112133333Y-70936904D01*
X112085714Y-71032142D01*
X112038095Y-71079761D01*
X111942857Y-71127380D01*
X111752380Y-71127380D01*
X111657142Y-71079761D01*
X112466666Y-70460714D02*
X112704761Y-71127380D01*
X112942857Y-70460714D02*
X112704761Y-71127380D01*
X112609523Y-71365476D01*
X112561904Y-71413095D01*
X112466666Y-71460714D01*
X114657142Y-71127380D02*
X114323809Y-70651190D01*
X114085714Y-71127380D02*
X114085714Y-70127380D01*
X114466666Y-70127380D01*
X114561904Y-70175000D01*
X114609523Y-70222619D01*
X114657142Y-70317857D01*
X114657142Y-70460714D01*
X114609523Y-70555952D01*
X114561904Y-70603571D01*
X114466666Y-70651190D01*
X114085714Y-70651190D01*
X115228571Y-71127380D02*
X115133333Y-71079761D01*
X115085714Y-71032142D01*
X115038095Y-70936904D01*
X115038095Y-70651190D01*
X115085714Y-70555952D01*
X115133333Y-70508333D01*
X115228571Y-70460714D01*
X115371428Y-70460714D01*
X115466666Y-70508333D01*
X115514285Y-70555952D01*
X115561904Y-70651190D01*
X115561904Y-70936904D01*
X115514285Y-71032142D01*
X115466666Y-71079761D01*
X115371428Y-71127380D01*
X115228571Y-71127380D01*
X115990476Y-71127380D02*
X115990476Y-70127380D01*
X115990476Y-70508333D02*
X116085714Y-70460714D01*
X116276190Y-70460714D01*
X116371428Y-70508333D01*
X116419047Y-70555952D01*
X116466666Y-70651190D01*
X116466666Y-70936904D01*
X116419047Y-71032142D01*
X116371428Y-71079761D01*
X116276190Y-71127380D01*
X116085714Y-71127380D01*
X115990476Y-71079761D01*
X116895238Y-71127380D02*
X116895238Y-70460714D01*
X116895238Y-70127380D02*
X116847619Y-70175000D01*
X116895238Y-70222619D01*
X116942857Y-70175000D01*
X116895238Y-70127380D01*
X116895238Y-70222619D01*
X117371428Y-70460714D02*
X117371428Y-71127380D01*
X117371428Y-70555952D02*
X117419047Y-70508333D01*
X117514285Y-70460714D01*
X117657142Y-70460714D01*
X117752380Y-70508333D01*
X117799999Y-70603571D01*
X117799999Y-71127380D01*
X119514285Y-71127380D02*
X119038095Y-71127380D01*
X119038095Y-70127380D01*
X119847619Y-71032142D02*
X119895238Y-71079761D01*
X119847619Y-71127380D01*
X119799999Y-71079761D01*
X119847619Y-71032142D01*
X119847619Y-71127380D01*
X121038095Y-70222619D02*
X121085714Y-70175000D01*
X121180952Y-70127380D01*
X121419047Y-70127380D01*
X121514285Y-70175000D01*
X121561904Y-70222619D01*
X121609523Y-70317857D01*
X121609523Y-70413095D01*
X121561904Y-70555952D01*
X120990476Y-71127380D01*
X121609523Y-71127380D01*
X122228571Y-70127380D02*
X122323809Y-70127380D01*
X122419047Y-70175000D01*
X122466666Y-70222619D01*
X122514285Y-70317857D01*
X122561904Y-70508333D01*
X122561904Y-70746428D01*
X122514285Y-70936904D01*
X122466666Y-71032142D01*
X122419047Y-71079761D01*
X122323809Y-71127380D01*
X122228571Y-71127380D01*
X122133333Y-71079761D01*
X122085714Y-71032142D01*
X122038095Y-70936904D01*
X121990476Y-70746428D01*
X121990476Y-70508333D01*
X122038095Y-70317857D01*
X122085714Y-70222619D01*
X122133333Y-70175000D01*
X122228571Y-70127380D01*
X122942857Y-70222619D02*
X122990476Y-70175000D01*
X123085714Y-70127380D01*
X123323809Y-70127380D01*
X123419047Y-70175000D01*
X123466666Y-70222619D01*
X123514285Y-70317857D01*
X123514285Y-70413095D01*
X123466666Y-70555952D01*
X122895238Y-71127380D01*
X123514285Y-71127380D01*
X124466666Y-71127380D02*
X123895238Y-71127380D01*
X124180952Y-71127380D02*
X124180952Y-70127380D01*
X124085714Y-70270238D01*
X123990476Y-70365476D01*
X123895238Y-70413095D01*
X70310476Y-64587380D02*
X70310476Y-63587380D01*
X70643809Y-64301666D01*
X70977142Y-63587380D01*
X70977142Y-64587380D01*
X71358095Y-63587380D02*
X71977142Y-63587380D01*
X71643809Y-63968333D01*
X71786666Y-63968333D01*
X71881904Y-64015952D01*
X71929523Y-64063571D01*
X71977142Y-64158809D01*
X71977142Y-64396904D01*
X71929523Y-64492142D01*
X71881904Y-64539761D01*
X71786666Y-64587380D01*
X71500952Y-64587380D01*
X71405714Y-64539761D01*
X71358095Y-64492142D01*
X156670476Y-64587380D02*
X156670476Y-63587380D01*
X157003809Y-64301666D01*
X157337142Y-63587380D01*
X157337142Y-64587380D01*
X157718095Y-63587380D02*
X158337142Y-63587380D01*
X158003809Y-63968333D01*
X158146666Y-63968333D01*
X158241904Y-64015952D01*
X158289523Y-64063571D01*
X158337142Y-64158809D01*
X158337142Y-64396904D01*
X158289523Y-64492142D01*
X158241904Y-64539761D01*
X158146666Y-64587380D01*
X157860952Y-64587380D01*
X157765714Y-64539761D01*
X157718095Y-64492142D01*
%LPC*%
D13*
X157480000Y-68580000D03*
X71120000Y-68580000D03*
D14*
X160020000Y-76200000D03*
X156210000Y-76200000D03*
X152400000Y-76200000D03*
D15*
X148590000Y-76200000D03*
D14*
X144145000Y-76200000D03*
X140335000Y-76200000D03*
X136525000Y-76200000D03*
D15*
X132715000Y-76200000D03*
D14*
X128270000Y-76200000D03*
X124460000Y-76200000D03*
X120650000Y-76200000D03*
D15*
X116840000Y-76200000D03*
D14*
X111760000Y-76200000D03*
X107950000Y-76200000D03*
X104140000Y-76200000D03*
D15*
X100330000Y-76200000D03*
D14*
X95885000Y-76200000D03*
X92075000Y-76200000D03*
X88265000Y-76200000D03*
D15*
X84455000Y-76200000D03*
D14*
X80010000Y-76200000D03*
X76200000Y-76200000D03*
X72390000Y-76200000D03*
D15*
X68580000Y-76200000D03*
D14*
X151765000Y-63500000D03*
X147955000Y-63500000D03*
X144145000Y-63500000D03*
D15*
X140335000Y-63500000D03*
D14*
X135890000Y-63500000D03*
X132080000Y-63500000D03*
X128270000Y-63500000D03*
D15*
X124460000Y-63500000D03*
D14*
X120015000Y-63500000D03*
X116205000Y-63500000D03*
X112395000Y-63500000D03*
D15*
X108585000Y-63500000D03*
D14*
X104140000Y-63500000D03*
X100330000Y-63500000D03*
X96520000Y-63500000D03*
D15*
X92710000Y-63500000D03*
D14*
X88265000Y-63500000D03*
X84455000Y-63500000D03*
X80645000Y-63500000D03*
D15*
X76835000Y-63500000D03*
M02*
