%FSLAX45Y45*%
G04 Gerber Fmt 4.5, Leading zero omitted, Abs format (unit mm)*
G04 Created by KiCad (PCBNEW (5.1.9)-1) date 2021-10-13 12:16:13*
%MOMM*%
%LPD*%
G01*
G04 APERTURE LIST*
%TA.AperFunction,Profile*%
%ADD10C,0.050000*%
%TD*%
%ADD11C,0.200000*%
%ADD12C,0.300000*%
G04 APERTURE END LIST*
D10*
X6921500Y-8318500D02*
G75*
G02*
X6667500Y-8064500I0J254000D01*
G01*
X16192500Y-8064500D02*
G75*
G02*
X15938500Y-8318500I-254000J0D01*
G01*
X15938500Y-5651500D02*
G75*
G02*
X16192500Y-5905500I0J-254000D01*
G01*
X6667500Y-5905500D02*
G75*
G02*
X6921500Y-5651500I254000J0D01*
G01*
X6667500Y-8064500D02*
X6667500Y-5905500D01*
X15938500Y-8318500D02*
X6921500Y-8318500D01*
X16192500Y-5905500D02*
X16192500Y-8064500D01*
X6921500Y-5651500D02*
X15938500Y-5651500D01*
D11*
D12*
X6951428Y-8786714D02*
X6951428Y-8486714D01*
X7022857Y-8486714D01*
X7065714Y-8501000D01*
X7094286Y-8529572D01*
X7108571Y-8558143D01*
X7122857Y-8615286D01*
X7122857Y-8658143D01*
X7108571Y-8715286D01*
X7094286Y-8743857D01*
X7065714Y-8772429D01*
X7022857Y-8786714D01*
X6951428Y-8786714D01*
X7251428Y-8786714D02*
X7251428Y-8586714D01*
X7251428Y-8643857D02*
X7265714Y-8615286D01*
X7280000Y-8601000D01*
X7308571Y-8586714D01*
X7337143Y-8586714D01*
X7437143Y-8786714D02*
X7437143Y-8586714D01*
X7437143Y-8486714D02*
X7422857Y-8501000D01*
X7437143Y-8515286D01*
X7451428Y-8501000D01*
X7437143Y-8486714D01*
X7437143Y-8515286D01*
X7622857Y-8786714D02*
X7594286Y-8772429D01*
X7580000Y-8743857D01*
X7580000Y-8486714D01*
X7780000Y-8786714D02*
X7751428Y-8772429D01*
X7737143Y-8743857D01*
X7737143Y-8486714D01*
X8122857Y-8786714D02*
X8122857Y-8486714D01*
X8222857Y-8701000D01*
X8322857Y-8486714D01*
X8322857Y-8786714D01*
X8594286Y-8786714D02*
X8594286Y-8629572D01*
X8580000Y-8601000D01*
X8551428Y-8586714D01*
X8494286Y-8586714D01*
X8465714Y-8601000D01*
X8594286Y-8772429D02*
X8565714Y-8786714D01*
X8494286Y-8786714D01*
X8465714Y-8772429D01*
X8451428Y-8743857D01*
X8451428Y-8715286D01*
X8465714Y-8686714D01*
X8494286Y-8672429D01*
X8565714Y-8672429D01*
X8594286Y-8658143D01*
X8737143Y-8586714D02*
X8737143Y-8886714D01*
X8737143Y-8601000D02*
X8765714Y-8586714D01*
X8822857Y-8586714D01*
X8851428Y-8601000D01*
X8865714Y-8615286D01*
X8880000Y-8643857D01*
X8880000Y-8729572D01*
X8865714Y-8758143D01*
X8851428Y-8772429D01*
X8822857Y-8786714D01*
X8765714Y-8786714D01*
X8737143Y-8772429D01*
X9008571Y-8758143D02*
X9022857Y-8772429D01*
X9008571Y-8786714D01*
X8994286Y-8772429D01*
X9008571Y-8758143D01*
X9008571Y-8786714D01*
X9008571Y-8601000D02*
X9022857Y-8615286D01*
X9008571Y-8629572D01*
X8994286Y-8615286D01*
X9008571Y-8601000D01*
X9008571Y-8629572D01*
M02*
