M48
; DRILL file {KiCad (5.1.9)-1} date 10/13/21 12:16:12
; FORMAT={-:-/ absolute / metric / decimal}
; #@! TF.CreationDate,2021-10-13T12:16:12-04:00
; #@! TF.GenerationSoftware,Kicad,Pcbnew,(5.1.9)-1
; #@! TF.FileFunction,Plated,1,2,PTH
FMAT,2
METRIC
T1C1.100
T2C3.200
%
G90
G05
T1
X68.58Y-76.2
X72.39Y-76.2
X76.2Y-76.2
X76.835Y-63.5
X80.01Y-76.2
X80.645Y-63.5
X84.455Y-63.5
X84.455Y-76.2
X88.265Y-63.5
X88.265Y-76.2
X92.075Y-76.2
X92.71Y-63.5
X95.885Y-76.2
X96.52Y-63.5
X100.33Y-63.5
X100.33Y-76.2
X104.14Y-63.5
X104.14Y-76.2
X107.95Y-76.2
X108.585Y-63.5
X111.76Y-76.2
X112.395Y-63.5
X116.205Y-63.5
X116.84Y-76.2
X120.015Y-63.5
X120.65Y-76.2
X124.46Y-63.5
X124.46Y-76.2
X128.27Y-63.5
X128.27Y-76.2
X132.08Y-63.5
X132.715Y-76.2
X135.89Y-63.5
X136.525Y-76.2
X140.335Y-63.5
X140.335Y-76.2
X144.145Y-63.5
X144.145Y-76.2
X147.955Y-63.5
X148.59Y-76.2
X151.765Y-63.5
X152.4Y-76.2
X156.21Y-76.2
X160.02Y-76.2
T2
X71.12Y-68.58
X157.48Y-68.58
T0
M30
